<svg width="170" height="131" viewBox="0 0 170 131" fill="none" xmlns="http://www.w3.org/2000/svg">
<path fill-rule="evenodd" clip-rule="evenodd" d="M43.3617 78.4155C44.2189 77.8313 45.9716 75.7401 46.89 75.2569C48.9321 74.1823 58.0295 72.0699 58.3253 71.9451C58.7758 71.755 61.7025 71.0908 63.4077 70.6713C67.4117 69.6858 81.7607 63.3209 85.5427 61.689C86.0255 62.9594 90.0114 68.5679 89.3277 69.1427C87.0764 71.035 83.0412 73.3912 80.4335 74.7473C78.3243 75.844 76.0904 76.7517 73.8351 77.4927C71.2745 78.3343 69.5172 79.2365 66.9652 80.0972C64.4546 80.9441 67.455 83.5928 68.7444 84.1401C70.1906 84.754 72.4306 85.0656 73.9084 85.5976C71.3067 89.6413 69.1217 94.5489 68.6846 99.3927C68.5794 100.558 67.6908 101.627 66.2453 101.278C65.4996 101.098 58.6178 100.181 57.4956 99.9255C50.0045 98.2171 36.5564 89.2708 40.0195 80.0972C40.8128 80.4636 42.6242 78.9181 43.3617 78.4155Z" fill="#FF5678"/>
<path fill-rule="evenodd" clip-rule="evenodd" d="M47.5526 29.7437C48.1122 29.6965 49.5592 28.5786 48.7999 28.0131C48.0339 27.4427 47.4835 29.3544 47.5526 29.7437ZM18.4004 34.0311C18.5468 34.0052 18.4829 33.2048 18.2527 33.1025C17.5256 32.7798 17.4643 33.9928 17.4465 34.3173C17.4245 34.7269 17.3731 35.8808 18.2571 35.5645C18.7588 35.3849 18.4474 34.3381 18.4004 34.0311ZM61.3164 37.7709C61.2968 38.4855 62.7404 39.8595 63.2785 39.0353C63.7312 38.3428 61.3535 36.3484 61.3164 37.7709ZM10.2773 21.6553C10.6956 22.7223 12.7641 21.2682 12.841 20.4856C12.9988 18.8828 10.2557 20.5889 10.2773 21.6553ZM27.535 26.2554C28.4983 26.1763 29.7658 24.9515 30.6948 24.494C31.3234 24.1844 33.034 23.8154 33.22 23.1124C33.3819 22.5016 30.4796 23.809 30.2318 23.9252C29.0933 24.4585 28.0668 25.0666 27.535 26.2554ZM99.8522 17.8101C100.62 17.2163 101.553 16.8333 102.538 16.8585C103.029 16.871 104.054 17.1785 104.093 16.3285C104.156 14.9464 99.8149 16.6319 99.1365 16.9031C99.3752 17.2057 99.6137 17.5079 99.8522 17.8101ZM51.9529 71.6741C51.3897 70.7387 50.3766 70.1978 49.6147 69.3999C49.8939 70.7102 49.2644 71.8757 48.8318 73.0718C49.8725 72.6058 50.9125 72.14 51.9529 71.6741ZM149.773 91.6148C150.083 90.5758 150.394 89.5427 150.757 88.5197C151.163 87.3741 151.365 87.2752 150.393 86.4741C149.586 87.9989 148.779 89.5238 147.972 91.0489C148.547 91.2931 149.146 91.5307 149.773 91.6148ZM66.2733 16.4083C65.2051 15.2043 60.1989 15.1287 60.8183 17.786C61.0346 18.7139 62.2654 17.7282 63.0363 17.5119C63.8015 17.2971 65.9683 17.2686 66.2733 16.4083ZM66.0897 33.455C65.9602 33.1477 65.7017 32.0386 65.318 31.9512C64.9442 31.866 63.4692 33.0293 63.192 33.2068C61.809 34.093 60.4609 35.0464 59.1131 35.9858C59.6292 35.9858 60.0977 35.8021 60.6107 35.7982C61.2202 35.7929 61.6573 36.0433 62.2516 35.9005C63.5285 35.5939 65.0105 34.1789 66.0897 33.455ZM67.4734 5.98116C67.5933 5.43043 73.8524 7.08366 74.6046 7.38639C75.0143 7.55103 77.129 8.65019 76.6746 6.99359C76.4159 6.05006 73.9724 5.33081 73.1894 5.07222C71.1987 4.41516 69.0999 3.94779 66.9803 4.05618C66.5687 4.07707 63.4514 4.25696 64.7531 5.50991C65.2016 5.94141 66.8093 5.80541 67.4734 5.98116ZM68.8436 81.648C70.0098 82.2217 71.2004 82.6605 72.4192 83.1092C72.9607 83.3086 73.8043 83.8304 74.4015 83.6993C74.8908 83.5917 75.0476 82.8467 75.3046 82.348C76.2442 80.5235 77.3664 79.0516 78.7576 77.5473C78.1116 77.0762 74.8322 79.1544 74.0207 79.4612C73.2083 79.7684 72.442 80.0777 71.6469 80.4447C70.8983 80.7903 69.4213 81.0992 68.8436 81.648ZM89.4913 66.0952C91.1908 65.3262 92.8016 63.9624 94.1955 62.7413C95.7959 61.3394 97.2307 59.8701 98.4022 58.0558C97.6972 58.0918 96.1406 60.3596 96.1232 57.8906C96.1142 56.6312 97.8402 55.3906 98.3759 54.2224C97.0434 53.47 95.8219 57.9655 94.293 56.8759C92.82 55.8259 95.1441 52.2159 95.5919 51.0769C94.7279 50.5021 89.8054 56.9363 89.0929 57.7595C88.6473 58.2749 87.5934 58.961 87.3419 59.562C87.1921 59.9201 87.1706 61.0556 87.2431 61.3848C87.3939 62.0731 88.1574 62.8974 88.4975 63.5383C88.9278 64.3498 89.3025 65.193 89.4913 66.0952ZM159.751 89.2927C158.281 87.2182 159.8 86.3135 160.995 84.5917C161.95 83.2144 162.83 81.6963 163.435 80.1581C164.951 76.3113 166.318 72.7349 167.066 68.6655C166.036 69.1357 165.393 70.9248 164.877 71.8676C164.185 73.1351 163.575 74.4654 162.805 75.6935C161.364 77.9914 159.95 80.4427 158.117 82.4345C157.287 83.3373 156.584 84.3527 155.625 85.166C155.188 85.5376 154.35 85.8426 154.028 86.3072C153.723 86.7459 154.064 87.0262 153.948 87.5502C153.83 88.0877 153.286 88.6609 153.053 89.1785C152.746 89.8583 152.461 90.5398 152.119 91.2046C151.745 91.9296 151.644 92.3087 151.543 93.0172C151.433 93.792 151.77 93.8724 151.094 94.5862C152.32 95.1269 153.546 95.6674 154.771 96.2079C155.185 96.3906 155.599 96.5729 156.013 96.7554C156.1 96.5918 156.187 96.4284 156.274 96.2648C156.611 95.9377 156.921 95.1308 157.114 94.6984C157.919 92.8948 158.829 91.084 159.751 89.2927ZM41.3634 80.5843C37.8823 89.7491 50.115 97.4659 57.6451 99.1726C58.6881 99.4089 59.7059 99.7182 60.7441 99.9721C61.8762 100.249 62.8814 100.194 64.0114 100.31C64.9102 100.402 65.3388 101.096 66.1859 101.288C67.6014 101.607 67.5149 100.543 67.6162 99.4037C68.046 94.5706 70.5126 89.9075 73.1231 85.8747C71.9307 85.448 70.7491 84.9824 69.5719 84.5154C68.5645 84.1155 67.0221 82.9915 65.9391 82.9321C65.1383 82.8884 63.9177 83.5723 63.1399 83.8724C61.8444 84.3724 60.5451 84.7981 59.195 85.139C56.834 85.7352 54.2067 86.5478 51.7637 86.6093C51.0592 86.6271 49.1271 86.9551 48.6203 86.5198C47.6539 85.6898 48.9952 84.998 49.8043 84.7017C54.6264 82.9359 59.7463 82.1852 64.582 80.3748C67.0704 79.443 69.5331 78.4026 72.0372 77.4846C74.1957 76.6935 76.4565 75.9931 78.5425 75.0199C81.2973 73.7351 84.0638 72.1345 86.4493 70.2488C86.9268 69.8716 87.9272 69.3111 88.2544 68.7643C88.5426 68.2829 88.5066 68.763 88.4468 68.1794C88.4038 67.7602 87.8909 67.192 87.6799 66.796C86.8938 65.3194 86.1833 63.8025 85.586 62.2398C81.7809 63.8719 78.1608 66.0934 74.4116 67.8375C70.638 69.5932 66.3814 70.8318 62.3443 71.8195C60.6261 72.2399 58.6508 72.3728 57.075 73.2036C56.4055 73.5565 55.7436 73.9648 55.0265 74.1689C54.8146 74.5752 54.6062 74.6549 54.4008 74.4078C54.2721 74.2633 54.1058 74.2024 53.9016 74.2248C53.463 74.2991 53.0156 74.5062 52.6054 74.6654C50.5292 75.4703 48.541 76.4782 46.57 77.5067C45.6357 77.9938 44.6773 78.4737 43.7832 79.0301C43.304 79.3285 42.8746 79.6292 42.4824 80.0388C42.0123 80.5299 42.1242 80.9336 41.3634 80.5843ZM119.695 26.1691C120.575 26.1834 121.377 25.7068 122.294 25.7334C123.737 25.7751 124.879 26.8936 125.716 27.9722C127.373 30.1063 126.95 32.6808 126.118 35.0692C125.72 36.2106 125.173 37.3063 124.49 38.3054C123.885 39.1899 122.804 40.0266 122.382 41.0114C121.686 42.6356 123.09 41.9449 123.95 41.5981C125.031 41.1615 126.045 40.619 126.963 39.8881C131.052 36.6308 134.164 32.1032 135.206 26.9035C135.714 24.3666 135.675 21.4008 133.908 19.3302C132.292 17.4368 129.503 16.8183 127.119 17.1693C124.542 17.549 122.206 18.6406 120.108 20.0457C119.498 20.454 118.94 20.8998 118.368 21.3564C117.617 21.9554 117.167 21.971 117.355 22.9099C117.495 23.608 117.875 24.3313 118.12 25.0011C118.578 26.2556 118.411 26.5802 119.695 26.1691ZM122.5 47.7966L122.322 48.1008C123.549 48.1592 124.692 47.0767 125.738 46.5484C127.096 45.8615 128.302 44.9247 129.492 43.9786C131.591 42.3099 133.717 40.4294 135.28 38.2387C138.782 33.3281 141.963 27.1023 141.007 20.8763C139.978 14.1661 134.108 11.5831 127.855 12.4714C125.036 12.8717 122.52 14.1299 119.998 15.4074C118.727 16.0512 117.654 16.8868 116.489 17.6953C115.885 18.1152 115.333 18.1697 115.294 18.9037C115.264 19.4569 116.22 20.7079 116.479 21.2091C119.645 17.9786 123.058 15.306 127.841 15.1408C133.53 14.9444 136.895 20.3391 136.87 25.505C136.845 30.5713 134.66 35.4446 131.177 39.0856C129.594 40.7404 128.084 42.0681 126.141 43.2758C125.172 43.8778 124.457 44.4183 123.373 44.818C122.607 45.1009 122.687 44.9518 122.491 45.6612C122.325 46.2632 122.495 47.1715 122.5 47.7966ZM91.5846 116.628C91.5104 117.541 91.325 118.44 91.1184 119.33C91.0443 119.65 90.6266 120.659 90.6999 121.019C90.8208 121.613 90.6598 121.231 91.1805 121.541C91.7236 121.865 92.3559 121.845 92.9505 121.944C93.3175 122.004 94.6624 122.637 94.8885 122.537C95.284 122.362 95.2715 121.746 95.7053 121.502C96.2965 121.169 97.1677 121.454 97.7252 121.715C99.2162 122.41 100.24 123.85 101.683 124.638C104.245 126.037 107.285 126.812 110.143 127.131C111.691 127.304 113.276 127.608 114.805 127.245C116.01 126.959 117.575 126.986 118.23 125.693C112.41 124.092 103.527 122.134 101.226 115.455C99.9746 116.589 97.8841 115.978 96.3723 115.821C94.7092 115.649 93.223 115.689 91.7019 114.931C91.5907 115.527 91.5567 116.022 91.5846 116.628ZM40.0533 75.2608C42.7931 75.4262 45.3906 74.1297 47.0765 71.9421C47.4916 71.4033 47.9172 70.8534 48.1663 70.2151C48.2205 70.0533 48.2743 69.8914 48.3282 69.7296C48.5899 69.283 48.4753 69.0722 47.9849 69.0973C47.7086 68.7184 47.008 68.591 47.2074 67.9042C47.3574 67.3861 47.9113 67.3776 48.3927 67.2146C48.1529 66.8118 48.0095 66.6097 47.6664 66.2515C46.7747 67.0536 45.1563 68.6281 44.5297 66.7852C44.2286 65.9004 44.7584 65.0548 44.6272 64.2015C44.5732 63.8484 44.1258 62.9468 43.8664 62.7358C42.4852 61.6113 40.496 62.0767 39.0305 62.7386C38.0206 63.1948 37.8032 63.4089 37.6385 64.4546C37.4712 65.518 37.3159 66.581 37.1303 67.6413C37.7364 67.3255 37.8467 66.6433 38.242 66.152C38.3899 66.4215 38.5381 66.6914 38.6866 66.9609C38.8952 66.8439 39.09 66.85 39.2706 66.9796C39.5631 67.4292 39.3792 68.096 39.2892 68.5673C40.2644 68.4764 40.6766 69.5644 39.6935 70.005C38.6751 70.4615 38.2157 69.2171 38.1812 68.4111C37.8012 68.8649 37.4108 68.622 37.1459 68.8552C36.8814 69.0884 36.7771 69.5743 36.6829 70.1066C36.5281 70.981 36.1321 72.2427 36.4986 73.1199C37.0426 74.4229 38.777 75.1009 40.0533 75.2608ZM119.444 33.4109C118.538 34.6717 116.992 36.322 116.669 37.8451C117.667 37.2593 119.778 34.4398 120.322 36.6857C120.634 37.9749 119.033 39.511 118.64 40.7593C120.214 40.2412 121.336 38.6186 122.319 37.3663C123.571 35.7696 124.85 33.6649 125.17 31.6345C125.429 29.9915 124.289 28.4602 122.596 28.2991C121.731 28.2169 120.827 28.3542 119.992 28.5549C119.611 28.6461 119.042 28.7596 118.702 28.9638C118.275 29.2202 118.217 29.8206 117.814 29.3212C117.28 30.3286 116.745 31.336 116.211 32.343C116.743 32.15 117.828 31.3308 118.409 31.4155C119.258 31.5394 119.433 32.7724 119.444 33.4109ZM34.5631 8.74869C32.1865 8.81875 29.7023 9.32484 27.4524 10.0772C26.8937 10.2642 24.5365 10.9292 25.033 11.8932C25.361 12.5304 27.13 11.63 27.6648 11.4798C29.9568 10.8362 32.3167 10.4117 34.6643 10.0244C35.2327 9.93061 37.161 9.93988 37.2605 9.19477C37.3824 8.28559 35.2343 8.74766 34.5631 8.74869ZM99.2456 112.446C97.9573 112.604 96.7204 112.545 95.4311 112.387C94.3458 112.254 93.2408 111.81 92.1611 111.81C92.1611 112.966 92.0827 112.973 93.3021 113.22C94.1532 113.393 95.0165 113.49 95.8766 113.611C97.3911 113.822 99.0723 114.417 100.605 114.111C100.568 113.911 100.451 112.556 100.292 112.422C100.202 112.347 99.3756 112.448 99.2456 112.446ZM78.4255 26.9305C78.7857 27.1599 79.6137 28.0752 80.0428 28.0913C79.8897 27.0318 78.7075 25.187 77.35 25.8417C77.0173 26.0024 76.3186 26.8018 76.6347 27.1544C76.8035 27.343 77.9841 26.9317 78.4255 26.9305ZM65.866 36.3562C65.8791 36.1715 65.8925 35.9868 65.9061 35.8023C65.408 36.0951 64.7913 36.2337 64.4373 36.7055C64.8623 36.8939 65.287 37.0825 65.7122 37.271C65.7634 36.9661 65.8148 36.6611 65.866 36.3562ZM105.096 64.486C107.449 65.3102 109.607 66.411 111.339 68.2794C112.836 69.8953 113.54 72.7421 113.906 74.86C114.81 80.1009 113.065 84.9586 111.914 89.9721C111.33 92.5155 110.459 94.963 109.643 97.4406C108.93 99.604 108.319 101.87 107.336 103.927C106.502 105.671 105.436 107.391 104.703 109.2C104.308 110.174 103.668 113.516 102.17 112.467C101.761 113.536 101.661 113.445 102.099 114.187C102.415 114.725 103.488 115.471 103.995 115.909C105.344 117.076 107.053 118.038 108.636 118.855C111.536 120.351 114.644 121.471 117.63 122.835C118.951 123.439 120.382 124.152 120.086 125.879C119.838 127.327 119 128.424 117.694 129.068C116.467 129.673 114.712 130.14 113.363 130.33C112.562 130.443 112.378 130.11 111.726 129.994C110.999 129.866 110.151 130.114 109.402 130.108C106.037 130.078 103.091 129.232 100.372 127.281C99.4007 126.583 97.9705 124.692 96.699 124.692C96.049 124.692 96.1862 125.087 95.6145 125.319C94.9089 125.604 93.6932 125.065 92.9995 124.938C91.5218 124.669 90.0191 124.395 89.035 123.122C87.9711 121.746 88.3493 120.042 88.8064 118.515C89.3218 116.793 90.1889 115.046 90.5574 113.298C90.6472 112.873 90.7298 112.08 90.6387 111.648C90.497 110.977 89.8193 110.576 89.799 109.849C89.7927 109.628 90.109 109.337 90.1645 109.108C90.2866 108.607 90.2677 108.087 90.318 107.577C90.4078 106.667 90.6152 105.796 90.7584 104.896C91.0837 102.85 91.7254 101.025 92.3465 99.0536C92.9491 97.1402 93.5226 95.7162 94.6877 94.0595C95.2908 93.2016 97.3085 90.1445 96.3231 89.2648C94.9746 91.9137 93.3978 93.9794 91.3338 96.0882C89.7554 97.7013 88.2122 99.8695 86.2365 101.018C84.0644 102.281 81.41 103.024 79.0114 103.692C77.8705 104.01 76.9239 104.714 75.694 104.844C74.3611 104.985 73.0045 104.819 71.699 104.522C71.3316 104.438 70.2717 103.873 69.9393 103.909C69.4494 103.963 68.7448 104.836 68.2072 104.996C66.8988 105.386 66.0052 104.641 65.0127 103.952C63.9356 103.204 63.6097 103.018 62.3667 102.928C60.8444 102.818 59.3639 102.281 57.8665 101.953C55.2338 101.375 52.9959 100.205 50.603 98.9791C47.8599 97.5748 45.5136 95.638 43.4459 93.3501C40.4065 89.9865 36.1736 80.666 41.1387 77.4026C38.2157 77.0056 35.5387 75.7291 35.1824 72.4209C34.9962 70.6898 35.3467 68.7722 35.782 67.1035C35.9807 66.3416 36.2175 65.5845 36.4444 64.8304C36.6153 64.5758 36.7058 64.2973 36.7152 63.9944C36.82 63.602 36.6689 63.4065 36.2615 63.4083C35.4917 62.5082 34.9129 61.7136 34.7574 60.4354C34.7083 60.0304 34.6645 59.4095 34.9527 59.0651C35.086 58.9266 35.247 58.8341 35.4348 58.7876C35.8861 58.8135 36.0135 58.5912 35.8174 58.121C36.0365 57.4549 35.7115 56.9359 36.5371 56.658C36.8017 56.7141 37.0651 56.7758 37.3275 56.8425C37.6624 56.9952 37.8801 56.8845 37.9815 56.5116C38.7592 56.2072 38.4004 55.7572 39.4572 56.1489C40.0966 56.3859 40.7051 56.794 41.1708 57.2912C41.755 56.9161 40.4264 54.5982 40.3821 53.8587C40.2769 52.1155 40.9977 50.6743 41.9353 49.2424C43.7579 46.4599 46.3017 44.0673 48.8104 41.9145C53.6154 37.7917 58.6633 33.8668 64.0889 30.5821C61.8507 29.0276 59.2357 28.6063 56.5725 29.3287C54.1173 29.9948 52.1272 31.2045 49.8671 32.2626C47.7734 33.2424 45.551 33.645 44.8835 30.971C44.1355 27.9757 46.5219 26.8636 48.6624 25.5205C48.1279 25.1219 46.3684 25.4068 45.7029 25.454C44.2205 25.5588 42.8028 25.8935 41.3623 26.1895C40.6715 26.3312 40.0368 26.2993 39.3523 26.4382C38.3349 26.6448 37.2724 26.8761 36.243 27.1704C33.7939 27.8708 31.3629 28.9338 29.2466 30.3662C27.4175 31.6037 26.1485 33.3509 24.6748 34.9601C22.9941 36.7949 21.3837 38.6004 18.8921 39.272C17.7254 39.5867 16.3567 39.8722 15.5296 38.8301C14.76 37.8611 14.717 36.6932 14.7423 35.5085C14.798 32.8914 16.0622 30.0635 17.5328 27.925C19.1291 25.6036 21.2673 24.2742 23.2873 22.4058C20.3675 22.6145 17.5456 24.1536 14.8604 25.2175C14.2953 25.4415 13.7249 25.6932 13.1566 25.9003C12.5508 26.1214 12.1494 25.986 11.5689 26.0872C10.2443 26.3184 9.10636 26.8767 7.81781 25.9866C5.37994 24.3029 7.8224 20.8776 9.50092 19.8265C11.8388 18.3627 14.2173 17.1302 16.7929 16.0861C15.3985 14.5737 16.5893 12.4153 17.8746 11.3423C19.5007 9.98464 21.5715 9.20664 23.531 8.47987C25.0805 7.90504 26.6025 7.35314 28.2122 7.00721C29.9046 6.64369 31.8834 6.08823 33.6005 6.14151C35.211 6.19148 36.639 5.90776 38.2701 5.86237C39.6272 5.82465 40.9874 5.85729 42.3444 5.82211C45.9953 5.72778 49.6597 5.97404 53.2278 6.23659C50.4008 -2.03036 69.0222 0.522641 72.995 1.60247C76.6054 2.5839 80.7421 3.72235 83.7747 6.05102C85.0595 7.0373 86.2796 8.15867 87.4196 9.30937C89.1013 11.0071 90.0323 13.2305 90.9218 15.425C93.1782 14.3198 95.3354 13.1153 97.8042 12.5672C100.153 12.0459 102.56 11.3393 104.922 10.9454C106.719 10.6459 109.327 10.4427 110.838 11.7112C112.48 13.089 113.336 15.2331 114.316 17.0693C119.024 12.6026 124.274 9.34403 130.986 9.56072C137.553 9.77281 141.872 15.4443 142.668 21.5899C143.545 28.3619 140.529 35.438 136.44 40.6822C134.606 43.034 132.709 45.3054 130.241 47.06C129.017 47.9297 127.726 48.8826 126.384 49.5617C125.715 49.9002 124.983 50.2061 124.281 50.4666C123.964 50.5843 123.637 50.7022 123.308 50.782C122.366 51.0104 122.549 50.7055 122.199 51.5296C121.915 52.1988 121.95 53.3501 121.828 54.0845C121.689 54.9239 121.607 55.7749 121.404 56.6029C121.052 58.038 120.686 59.4379 120.245 60.8395C119.412 63.4919 118.289 66.1652 116.915 68.5848C118.081 69.0909 119.713 69.142 120.959 69.2954C122.307 69.4612 123.657 69.8101 125.057 70.2017C127.863 70.9862 130.371 71.6486 133.039 72.8232C135.81 74.0426 138.279 75.8635 140.946 77.3128C143.399 78.6455 145.878 80.3147 148.156 81.9146C148.698 82.2952 149.034 82.626 149.465 83.1081C149.907 83.6005 150.047 83.6969 150.575 84.1236C150.812 84.3158 151.504 85.2861 151.776 85.3217C152.262 85.3862 152.187 85.0232 152.569 84.5165C153.366 83.4586 154.478 82.639 155.269 81.5544C155.93 80.6498 156.618 79.734 157.324 78.9562C159.032 77.0739 160.447 74.9876 161.661 72.7312C162.293 71.5564 162.958 70.4385 163.644 69.3298C164.327 68.226 165.542 66.7692 166.902 66.8344C166.793 66.2724 166.445 66.1788 167.045 65.8351C167.432 65.6137 168.184 65.9706 168.481 66.1953C169.27 66.7909 169.304 67.946 169.255 68.8139C169.127 71.0502 168.659 73.2578 168.006 75.3724C167.222 77.9144 166.24 80.157 165.167 82.5832C164.314 84.5159 163.254 87.0717 161.129 87.9537C162.556 89.9909 161.871 91.6507 160.917 93.8135C160.22 95.3946 159.3 97.0282 157.898 98.0745C156.317 99.2539 154.603 98.2533 152.95 97.4738C151.952 97.0029 148.899 95.8916 149.52 94.4425C148.757 94.3408 148.277 93.7867 147.583 93.6163C146.848 93.4358 146.975 93.7342 146.197 93.8462C145.601 93.9319 144.709 93.398 144.148 93.2069C143.21 92.888 142.275 92.5608 141.339 92.2384C138.703 91.3305 136.112 90.4368 133.451 89.7096C128.499 88.3565 123.485 87.5889 118.551 86.3807C117.562 86.1385 116.578 85.9048 115.548 85.7108C115.336 85.6707 114.232 85.6092 114.098 85.3816C113.863 84.9826 114.585 82.7501 114.647 82.2952C115.054 79.3085 114.921 76.0388 114.348 73.0863C114.11 71.8588 113.047 70.2694 113.056 69.0713C113.063 68.2675 113.775 67.3899 114.193 66.6618C115.227 64.8617 116.311 62.9167 117.077 61.0433C118.25 58.1774 118.969 54.9425 119.487 51.8731C119.757 50.2729 120.071 48.5383 120.145 46.9196C120.201 45.6857 120.099 44.3915 120.279 43.1278C119.596 43.1926 118.629 43.5464 118.014 43.1677C117.238 42.6898 117.029 41.3251 117.128 40.5102C114.469 40.9743 114.557 38.4522 114.722 36.4799C109.915 36.4799 116.071 29.3374 116.84 27.8036C117.193 27.0984 117.183 27.8905 117.027 26.7999C116.958 26.3206 116.63 25.7892 116.445 25.3484C116.041 24.3862 115.604 23.4387 115.138 22.5051C114.152 20.5333 113.036 18.6282 111.817 16.7911C110.721 17.5554 109.732 18.4602 108.816 19.4308C109.403 17.8942 111.199 15.9905 110.431 14.2456C109.719 12.6281 107.342 12.7403 105.938 13.036C102.124 13.8402 98.4657 15.0115 94.8318 16.3678C95.9574 17.0133 97.6808 16.5146 98.7993 16.0211C100.184 15.4098 101.673 14.7685 103.166 14.4446C104.468 14.1622 106.177 14.2586 105.801 16.012C105.496 17.4326 104.107 18.8007 103.19 19.863C101.17 22.2033 98.6368 24.015 96.1487 25.8252C93.4741 27.7711 90.897 29.8854 88.1887 31.7749C83.2928 35.1909 78.0286 38.1596 72.9702 41.3481C70.3417 43.0048 67.3632 44.3381 64.5126 45.566C61.3768 46.9167 58.3703 48.3628 55.117 49.4297C53.3102 50.0223 51.5195 50.51 49.7441 51.1843C48.6314 51.6067 46.6935 52.4533 45.9582 51.1988C44.4651 48.6509 49.8688 45.3001 51.3497 43.7423C52.3712 44.7345 47.3335 48.4315 47.7279 49.876C48.0376 51.0112 49.2359 49.5453 49.8146 49.236C50.7497 48.7359 51.8571 48.4845 52.7969 47.9139C54.7245 46.7437 57.0098 45.3941 57.4499 42.9749C57.1437 42.6518 57.1475 42.3534 57.4615 42.0799C57.6012 41.9137 57.7121 41.7312 57.7938 41.5322C57.9309 41.152 57.986 40.6759 58.0595 40.2728C58.2765 39.0814 57.7317 37.9659 58.2408 36.7999C55.2701 39.0508 52.4147 41.5934 49.5947 44.03C47.0653 46.2157 44.426 49.0777 43.4964 52.3391C43.3775 52.757 43.1795 53.231 43.2012 53.672C43.2434 54.5378 43.3299 54.3511 44.0274 54.6294C44.725 54.9079 45.7409 54.8839 46.491 54.9134C46.9186 54.93 48.8284 54.4772 48.4487 55.4156C48.2298 55.9566 46.9059 55.9362 46.4319 55.9862C45.2422 56.1118 44.5971 55.9829 45.1607 57.2724C45.4133 57.8504 45.9252 58.242 46.3267 58.6892C47.4442 59.9338 48.0512 61.8426 48.9303 63.3048C49.9318 64.9705 51.0328 66.5546 52.2024 68.1059C52.6851 68.746 53.3303 69.949 53.9995 70.4058C54.6242 70.8323 53.8891 70.7971 54.927 70.6237C55.3793 70.5485 55.7893 70.2542 56.222 70.1488C58.8094 69.5185 61.469 68.808 64.1447 68.0299C67.5672 67.0347 71.1589 66.1861 74.4243 64.753C77.3495 63.4687 80.253 61.9399 83.2089 60.6394C84.0721 60.2599 84.9343 60.0082 85.6051 59.3096C86.415 58.4665 87.0854 57.3628 87.8323 56.4566C89.1026 54.9149 90.2734 53.347 91.6406 51.8862C92.6584 50.7991 94.4621 48.7785 95.8979 48.3445C98.6263 47.5203 97.1658 51.676 96.8132 52.7263C97.4546 52.8719 97.7917 52.0492 98.5444 52.2859C99.4457 52.5693 99.539 53.7678 99.6517 54.5189C99.6816 54.719 99.4108 55.093 99.4931 55.2715C99.5212 55.3322 100.109 55.68 100.223 55.8411C100.634 56.4266 100.554 57.1386 100.397 57.77C99.59 61.0407 96.7201 63.4289 94.6095 65.8415C95.5537 65.6629 96.2537 65.1247 97.1451 64.858C97.9817 64.6077 98.8228 64.6208 99.666 64.549C100.549 64.4739 101.397 64.1434 102.3 64.1267C103.248 64.1091 104.156 64.379 105.096 64.486Z" fill="#432C7A"/>
<path fill-rule="evenodd" clip-rule="evenodd" d="M5.27195 35.0679C4.75147 35.4081 4.60476 35.7418 4.58678 36.5267C4.57959 36.8486 4.60178 38.0494 5.05166 38.0041C5.47383 37.9617 5.27195 35.4808 5.27195 35.0679ZM2.58326 37.0237C2.82579 34.5083 3.74607 31.9506 5.91099 30.3833C6.44639 29.9957 7.05204 30.0095 7.63883 29.765C7.99147 29.6181 8.54863 28.9351 8.94899 29.0159C10.4228 29.314 8.7201 31.2723 8.47076 31.7874C7.69807 33.3834 7.75025 34.7857 7.77333 36.5074C7.7909 37.8159 8.06278 40.0218 7.40311 41.2062C6.69993 42.4673 5.17476 41.6482 4.32342 40.9019C3.24897 39.9595 2.43749 38.459 2.58326 37.0237Z" fill="#432C7A"/>
<path fill-rule="evenodd" clip-rule="evenodd" d="M28.455 44.4572C28.455 45.8608 29.5942 44.9105 29.5536 43.9122C29.4939 42.4423 28.4017 43.3474 28.455 44.4572ZM34.5115 36.6975C33.2648 37.8189 32.3029 38.448 32.0626 40.1723C31.8806 41.4784 32.0615 42.772 32.0692 44.0877C32.0822 46.293 30.3014 48.6114 28.385 46.0835C26.9871 44.2397 27.4885 41.3404 28.6285 39.4872C29.2266 38.515 30.0805 37.5532 31.067 36.9473C31.8089 36.4913 33.8959 35.5941 34.5115 36.6975Z" fill="#432C7A"/>
<path fill-rule="evenodd" clip-rule="evenodd" d="M17.098 70.685C16.9535 71.0271 16.6141 72.4235 17.3066 72.1077C17.9178 71.8287 17.5218 70.903 17.098 70.685ZM13.4396 66.3737C13.3327 65.8486 13.3762 62.5568 14.283 62.8037C14.9952 62.9972 15.1128 64.6823 15.4029 65.2687C16.4834 67.4525 18.9632 68.8124 19.8183 71.0664C20.7728 73.5834 17.8869 73.6617 16.3556 72.6423C14.5424 71.4354 13.4934 68.4801 13.4396 66.3737Z" fill="#432C7A"/>
<path fill-rule="evenodd" clip-rule="evenodd" d="M11.2168 52.8764C11.6102 52.3451 11.6501 52.0613 11.4257 51.5913C11.1389 51.9032 11.1898 52.349 11.2168 52.8764ZM11.5015 55.253C9.45007 55.4827 9.34739 51.7023 9.69866 50.4043C9.97845 49.3705 10.5799 48.2598 11.1992 47.4174C11.3242 47.2474 12.5102 45.7201 12.7426 45.7165C13.6349 45.7023 13.3898 46.7104 13.2934 47.0857C12.9903 48.268 12.8702 49.2561 12.9518 50.567C13.0393 51.9697 13.7036 55.2997 11.5015 55.253Z" fill="#432C7A"/>
<path fill-rule="evenodd" clip-rule="evenodd" d="M104.645 22.5134C101.711 24.9733 98.9265 27.6366 95.7369 29.7883C94.1762 30.8414 92.5446 31.7729 90.9872 32.8431C90.1941 33.3882 89.3848 33.8762 88.5048 34.2768C87.7275 34.6307 87.2193 34.6768 87.8642 33.8367C88.2953 33.2755 89.2616 32.8844 89.8489 32.4855C90.7525 31.871 91.6061 31.1895 92.5567 30.6444C94.2326 29.6829 95.8983 28.9067 97.4431 27.7276C98.8143 26.6813 100.229 25.6598 101.538 24.5478C102.099 24.071 103.96 21.8818 104.645 22.5134Z" fill="#432C7A"/>
<path fill-rule="evenodd" clip-rule="evenodd" d="M104.704 31.396C106.023 32.5244 102.723 35.6157 101.97 36.3163C101.176 37.0553 100.302 37.7144 99.4387 38.3689C99.1349 38.5995 97.477 40.1422 97.0562 40.0177C96.226 39.7719 97.316 38.771 97.5995 38.5101C98.5162 37.6648 99.4525 36.8445 100.349 35.9765C101.157 35.1944 102.033 34.4701 102.814 33.6626C103.448 33.0085 103.98 31.9001 104.704 31.396Z" fill="#432C7A"/>
<path fill-rule="evenodd" clip-rule="evenodd" d="M6.97255 76.8824C6.62813 76.0843 6.01129 76.9704 6.32401 77.3689C6.61976 77.7462 6.92851 77.0357 6.97255 76.8824ZM4.95302 75.3064C5.13766 74.1329 5.56437 73.4808 6.66529 74.4825C7.42179 75.1708 8.94326 77.1281 8.79889 78.1951C8.60938 79.5946 7.06789 79.1975 6.26882 78.4657C5.44975 77.7156 5.08816 76.3471 4.95302 75.3064Z" fill="#432C7A"/>
<path fill-rule="evenodd" clip-rule="evenodd" d="M7.36553 98.4031C6.01688 98.3005 4.8663 97.265 4.29358 96.0517C3.8117 95.0313 3.3556 93.3864 5.04854 93.9227C6.1519 94.2725 10.4053 98.5676 7.36553 98.4031Z" fill="#432C7A"/>
<path fill-rule="evenodd" clip-rule="evenodd" d="M23.7098 91.7506C22.6675 91.988 21.6367 91.3016 20.9957 90.5275C20.597 90.0454 19.6689 88.3554 20.1365 87.6598C20.7883 86.6895 21.7723 88.6398 22.1118 89.0259C22.6442 89.6305 24.3854 90.7868 23.7098 91.7506Z" fill="#432C7A"/>
<path fill-rule="evenodd" clip-rule="evenodd" d="M24.6485 65.3609C23.8315 64.9817 23.0731 64.5253 22.7445 63.6198C22.5355 63.0432 22.36 61.3139 23.2879 61.3218C24.3612 61.3314 26.8188 65.1877 24.6485 65.3609Z" fill="#432C7A"/>
<path fill-rule="evenodd" clip-rule="evenodd" d="M18.9208 47.3691C20.0146 47.3493 20.2737 47.9526 20.4257 48.8193C20.529 49.4076 21.0301 51.4045 20.5098 51.8136C19.7662 52.3981 18.5833 51.0588 18.3443 50.533C17.8515 49.4505 18.5328 48.3859 18.9208 47.3691Z" fill="#432C7A"/>
<path fill-rule="evenodd" clip-rule="evenodd" d="M37.7169 107.246C38.2495 107.488 39.4612 108.025 38.9982 108.859C38.5141 109.731 37.1241 108.884 36.6049 108.503C36.3875 108.343 35.0065 107.299 35.0643 106.949C35.1861 106.204 37.0897 107.176 37.7169 107.246Z" fill="#432C7A"/>
<path fill-rule="evenodd" clip-rule="evenodd" d="M2.62633 52.7861C2.99029 53.6974 3.39998 56.8284 1.48341 55.1377C0.898531 54.6216 0.810259 53.9772 1.01177 53.2687C1.30315 52.2421 1.7272 52.4457 2.62633 52.7861Z" fill="#432C7A"/>
<path fill-rule="evenodd" clip-rule="evenodd" d="M104.193 41.1264C103.768 40.2593 104.816 39.7001 105.376 39.1412C105.741 38.7762 107.279 36.7966 107.783 36.9084C108.819 37.1384 104.702 40.7398 104.193 41.1264Z" fill="#432C7A"/>
<path fill-rule="evenodd" clip-rule="evenodd" d="M18.907 103.931C19.907 103.771 20.1404 104.882 20.7846 105.366C21.0609 105.573 22.0094 105.756 21.8186 106.197C21.3174 107.355 18.858 104.71 18.907 103.931Z" fill="#432C7A"/>
<path fill-rule="evenodd" clip-rule="evenodd" d="M27.3516 77.6969C28.0389 77.4092 30.0229 78.9547 29.4532 79.6225C28.6017 80.6214 27.4 78.2435 27.3516 77.6969Z" fill="#432C7A"/>
<path fill-rule="evenodd" clip-rule="evenodd" d="M41.8402 100.057C41.3392 100.107 39.2247 99.4426 40.0081 98.5527C40.5582 97.9276 42.02 99.4916 41.8402 100.057Z" fill="#432C7A"/>
<path fill-rule="evenodd" clip-rule="evenodd" d="M16.5195 95.7875C16.0222 95.9863 14.2281 95.5772 14.7921 94.7981C15.3295 94.0564 16.5203 95.1717 16.5195 95.7875Z" fill="#432C7A"/>
<path fill-rule="evenodd" clip-rule="evenodd" d="M31.207 99.1488C31.7887 99.0884 32.2087 99.4391 32.3086 100.033C31.5812 100.137 31.3568 99.9636 31.207 99.1488Z" fill="#432C7A"/>
<path fill-rule="evenodd" clip-rule="evenodd" d="M106.848 12.9431C107.093 12.9442 107.339 12.9455 107.582 12.9466C107.336 12.9453 107.092 12.9442 106.848 12.9431Z" fill="#432C7A"/>
<path fill-rule="evenodd" clip-rule="evenodd" d="M102.992 64.075C102.625 64.0753 102.258 64.0761 101.891 64.0764C102.258 64.0757 102.625 64.0753 102.992 64.075Z" fill="#432C7A"/>
<path fill-rule="evenodd" clip-rule="evenodd" d="M52.8966 4.22412C52.8797 4.59173 52.8628 4.95934 52.8456 5.32568C52.8621 4.95776 52.8794 4.59078 52.8966 4.22412Z" fill="#432C7A"/>
<path fill-rule="evenodd" clip-rule="evenodd" d="M166.664 66.646C166.781 67.0545 166.609 67.1222 166.148 66.849C166.32 66.7813 166.492 66.7137 166.664 66.646Z" fill="#432C7A"/>
<path fill-rule="evenodd" clip-rule="evenodd" d="M156.234 98.6814C156.419 98.6825 156.603 98.6838 156.785 98.6849C156.6 98.6838 156.417 98.6825 156.234 98.6814Z" fill="#432C7A"/>
<path fill-rule="evenodd" clip-rule="evenodd" d="M121.352 69.1292C121.044 69.3638 120.737 69.3969 120.434 69.1167C120.74 69.1211 121.046 69.1251 121.352 69.1292Z" fill="#432C7A"/>
<path fill-rule="evenodd" clip-rule="evenodd" d="M114.479 37.8218C114.471 38.1282 114.463 38.4344 114.455 38.7397C114.463 38.433 114.471 38.1273 114.479 37.8218Z" fill="#432C7A"/>
<path fill-rule="evenodd" clip-rule="evenodd" d="M130.348 9.49324C130.042 9.49306 129.735 9.49269 129.43 9.49233C129.736 9.37776 130.042 9.4154 130.348 9.49324Z" fill="#432C7A"/>
<path fill-rule="evenodd" clip-rule="evenodd" d="M48.0977 5.81584C47.8529 5.79509 47.6078 5.77416 47.3633 5.75342C47.6078 5.77416 47.8526 5.79509 48.0977 5.81584Z" fill="#432C7A"/>
<path fill-rule="evenodd" clip-rule="evenodd" d="M52.1367 6.10693C51.892 6.19818 51.6473 6.25216 51.4023 6.10822C51.6473 6.10785 51.892 6.1073 52.1367 6.10693Z" fill="#432C7A"/>
<path fill-rule="evenodd" clip-rule="evenodd" d="M30.2891 6.60962C29.9828 6.67186 29.677 6.7341 29.3711 6.79578C29.6773 6.7341 29.9832 6.67186 30.2891 6.60962Z" fill="#432C7A"/>
<path fill-rule="evenodd" clip-rule="evenodd" d="M114.663 81.3335C114.654 81.5175 114.646 81.7012 114.638 81.8843C114.647 81.7001 114.655 81.5167 114.663 81.3335Z" fill="#432C7A"/>
<path fill-rule="evenodd" clip-rule="evenodd" d="M13.4851 66.4624C13.4888 66.585 13.4923 66.7077 13.4956 66.8296C13.4915 66.7066 13.4886 66.5845 13.4851 66.4624Z" fill="#432C7A"/>
<path fill-rule="evenodd" clip-rule="evenodd" d="M167.801 65.8036L166.883 65.8083C167.188 65.5803 167.494 65.6093 167.801 65.8036Z" fill="#432C7A"/>
<path fill-rule="evenodd" clip-rule="evenodd" d="M105.012 64.5035C104.767 64.4631 104.522 64.4227 104.277 64.3823C104.522 64.4227 104.767 64.4631 105.012 64.5035Z" fill="#432C7A"/>
<path fill-rule="evenodd" clip-rule="evenodd" d="M37.8164 107.218C37.5104 107.158 37.2045 107.099 36.8984 107.039L37.8164 107.218Z" fill="#432C7A"/>
<path fill-rule="evenodd" clip-rule="evenodd" d="M99.6041 54.5288C99.5985 54.345 99.5928 54.1613 99.5872 53.978C99.5928 54.1618 99.5985 54.3454 99.6041 54.5288Z" fill="#432C7A"/>
<path fill-rule="evenodd" clip-rule="evenodd" d="M93.4453 125.109C93.5681 125.117 93.6911 125.124 93.8125 125.132C93.6891 125.124 93.567 125.117 93.4453 125.109Z" fill="#432C7A"/>
<path fill-rule="evenodd" clip-rule="evenodd" d="M9.17578 26.5234C9.36011 26.5282 9.54444 26.5332 9.72656 26.5381C9.54132 26.5332 9.35855 26.5282 9.17578 26.5234Z" fill="#432C7A"/>
<path fill-rule="evenodd" clip-rule="evenodd" d="M35.6133 8.81299C35.1839 8.81372 34.755 8.81446 34.3281 8.81519C34.7585 8.81446 35.1859 8.81372 35.6133 8.81299Z" fill="#432C7A"/>
<path fill-rule="evenodd" clip-rule="evenodd" d="M122.353 46.6343C122.358 46.9407 122.364 47.2471 122.37 47.5522C122.365 47.2456 122.359 46.9398 122.353 46.6343Z" fill="#432C7A"/>
<path fill-rule="evenodd" clip-rule="evenodd" d="M99.8711 112.367C99.6254 112.363 99.3803 112.359 99.1367 112.355C99.3827 112.358 99.6269 112.363 99.8711 112.367Z" fill="#432C7A"/>
<path fill-rule="evenodd" clip-rule="evenodd" d="M125.941 15.0918C126.309 15.051 126.676 15.0102 127.043 14.9695C126.69 15.2812 126.31 15.0738 125.941 15.0918Z" fill="#432C7A"/>
<path fill-rule="evenodd" clip-rule="evenodd" d="M97.8516 112.463C97.6674 112.456 97.4835 112.449 97.3008 112.442C97.4857 112.449 97.6685 112.456 97.8516 112.463Z" fill="#432C7A"/>
<path fill-rule="evenodd" clip-rule="evenodd" d="M91.5036 115.666C91.5128 115.972 91.5222 116.278 91.5315 116.583C91.5225 116.276 91.513 115.971 91.5036 115.666Z" fill="#432C7A"/>
<path fill-rule="evenodd" clip-rule="evenodd" d="M119.516 26.3652C119.761 26.3425 120.005 26.3197 120.25 26.2971C120.027 26.4693 119.764 26.3685 119.516 26.3652Z" fill="#432C7A"/>
<path fill-rule="evenodd" clip-rule="evenodd" d="M77.4727 26.8988C77.7782 26.6384 78.0842 26.6667 78.3906 26.8958C78.0846 26.8966 77.7787 26.8977 77.4727 26.8988Z" fill="#432C7A"/>
<path fill-rule="evenodd" clip-rule="evenodd" d="M65.9846 36.1694C65.9935 36.047 66.0021 35.9245 66.0115 35.8022C66.003 35.9249 65.9938 36.0472 65.9846 36.1694Z" fill="#432C7A"/>
<path fill-rule="evenodd" clip-rule="evenodd" d="M119.42 32.6812C119.423 32.9264 119.425 33.1715 119.428 33.4155C119.425 33.1697 119.423 32.9255 119.42 32.6812Z" fill="#432C7A"/>
<path fill-rule="evenodd" clip-rule="evenodd" d="M38.4193 71.0579C38.8221 71.1945 39.6323 71.6071 40.1018 71.5524C40.4776 71.5085 40.7873 71.0517 41.1497 71.0522C42.1255 71.0535 41.9445 72.1815 41.473 72.787C40.198 74.425 37.3488 72.649 38.4193 71.0579Z" fill="#432C7A"/>
<path fill-rule="evenodd" clip-rule="evenodd" d="M42.402 65.1772C43.7327 65.5208 43.0699 68.4478 41.9513 68.649C40.6342 68.8862 40.4047 66.5061 40.6649 65.6458C41.3427 66.0486 40.923 67.4854 41.7773 67.0883C42.3205 66.8355 42.2379 65.6667 42.402 65.1772Z" fill="#432C7A"/>
</svg>
