<svg width="107" height="154" viewBox="0 0 107 154" fill="none" xmlns="http://www.w3.org/2000/svg">
<path fill-rule="evenodd" clip-rule="evenodd" d="M19.6705 112.05C19.6962 110.124 19.7509 108.198 19.8229 106.274C23.0705 105.978 26.3183 105.682 29.5659 105.386C30.3953 105.311 31.2244 105.235 32.0536 105.16C32.9538 105.078 33.8538 104.996 34.7538 104.914C34.8475 104.905 34.9738 104.903 35.1145 104.901C35.5629 104.893 36.1556 104.883 36.289 104.656C36.4838 104.323 36.3841 103.446 36.3086 102.781C36.2785 102.516 36.2524 102.285 36.2501 102.136C36.2371 101.307 36.2242 100.478 36.2112 99.6495C36.1985 98.8207 36.1855 97.9921 36.1725 97.1634L36.1723 97.1503C36.0778 91.0565 35.9833 84.9626 35.8886 78.8688C36.6663 78.8945 37.4439 78.918 38.2214 78.94C38.7254 78.9544 39.2299 78.9698 39.7348 78.9852C42.6172 79.0728 45.5081 79.1607 48.3878 79.0713C50.0847 79.0186 51.6927 78.5557 53.2947 78.0095C54.1464 77.7192 54.9896 77.403 55.8263 77.0705C55.903 77.0401 56.0232 76.9764 56.162 76.9029C56.4995 76.724 56.9471 76.4869 57.1484 76.5262C57.49 76.5932 57.9957 77.3335 58.367 77.8769C58.5036 78.0767 58.6219 78.25 58.7072 78.3532C59.7151 79.5744 60.723 80.7955 61.7309 82.0167L61.7748 82.0696C61.9025 82.2245 62.048 82.3818 62.1965 82.5424C62.5234 82.8959 62.8651 83.2654 63.0655 83.6598C63.218 83.9598 63.3024 84.3367 63.3827 84.6961C63.4207 84.8656 63.4578 85.0313 63.5006 85.1831C65.1635 91.0603 66.7896 96.9753 68.0007 102.967C68.2614 104.257 68.5087 105.555 68.6538 106.864C68.6647 106.964 68.6785 107.071 68.6929 107.183C68.772 107.797 68.8702 108.559 68.6344 109.088C68.3396 109.749 67.4306 110.048 66.7771 110.263C66.7342 110.277 66.6926 110.291 66.6523 110.304C65.3745 110.729 64.0364 110.982 62.7126 111.21C59.523 111.757 56.2933 112.075 53.0698 112.332C52.7028 112.361 52.3318 112.38 51.96 112.398C51.3343 112.428 50.7065 112.459 50.0925 112.543C49.833 112.579 49.7607 112.556 49.7226 112.582C49.6921 112.603 49.6833 112.657 49.6179 112.798C49.4757 113.103 49.4975 113.64 49.5161 114.1C49.5244 114.304 49.532 114.494 49.5244 114.642C49.4958 115.207 49.4672 115.773 49.4385 116.339C49.4099 116.905 49.3812 117.471 49.3526 118.037C49.196 121.125 49.0396 124.213 48.8835 127.3C48.8306 128.344 48.7777 129.387 48.7248 130.431C48.6192 132.518 48.5134 134.605 48.4076 136.691C48.3784 137.269 48.3493 137.846 48.32 138.424C48.2891 139.033 48.2583 139.641 48.2276 140.25C48.2172 140.455 48.2203 140.68 48.2232 140.911C48.2297 141.393 48.2366 141.901 48.1229 142.316C48.0606 142.543 48.079 142.627 48.0478 142.656C48.0154 142.686 47.9293 142.657 47.6418 142.671C46.7706 142.714 45.8784 142.657 44.9932 142.6C44.5535 142.572 44.1159 142.544 43.6832 142.528C42.9696 142.502 42.2561 142.476 41.5426 142.451C40.777 142.423 40.0112 142.395 39.2456 142.368C39.1421 142.364 39.0357 142.368 38.9316 142.373C38.61 142.386 38.3094 142.398 38.1808 142.167C38.0345 141.904 38.07 141.315 38.0984 140.845C38.1104 140.65 38.121 140.475 38.1166 140.352L37.9935 136.871L37.6554 127.315C37.5814 125.22 37.5072 123.126 37.4332 121.031C37.3535 118.781 37.2737 116.531 37.1942 114.281C35.5504 114.615 33.9065 114.95 32.2626 115.284L32.2593 115.285C29.8287 115.78 27.3979 116.274 24.9671 116.768C24.6665 116.83 24.3506 116.912 24.0271 116.997C23.1507 117.225 22.2179 117.468 21.3773 117.346C20.2339 117.18 19.7612 116.686 19.697 115.589C19.6353 114.536 19.6504 113.475 19.6654 112.419C19.6671 112.296 19.6688 112.173 19.6705 112.05ZM52.84 93.4001L52.4319 92.6053L52.2544 93.4825L50.5263 102.029L50.4439 102.437L50.8543 102.409L56.7681 102.013L57.2469 101.981L57.0257 101.551L52.84 93.4001ZM51.2231 101.749L52.6916 94.4871L56.2482 101.412L51.2231 101.749Z" fill="#FF5678"/>
<path fill-rule="evenodd" clip-rule="evenodd" d="M101.958 24.2313C101.837 25.1819 101.924 26.2183 100.862 26.469C99.88 26.7011 98.8023 26.636 97.8008 26.7172C96.6754 26.8087 95.5534 26.9334 94.4303 27.0461C93.0145 27.1879 93.2165 26.6377 92.9068 25.415C92.624 24.2985 92.1726 23.1843 91.7971 22.0954C91.6226 21.5893 91.4141 21.1237 91.1762 20.6468C90.9607 20.2149 91.0631 19.6277 90.8308 19.2647C90.0381 18.0264 86.172 21.4124 85.8129 20.7451C86.467 20.2301 87.5993 19.6539 87.7998 18.7728C88.0359 17.7373 87.385 17.428 86.5672 17.8066C84.5549 18.7388 82.2324 19.4672 80.0379 19.8069C80.7477 19.3273 87.1674 15.5462 85.0128 14.4246C84.5273 14.1719 83.8788 14.6477 83.4408 14.8277C82.7457 15.1135 82.0198 15.3051 81.2944 15.4923C80.5298 15.6896 79.7634 15.8794 78.9947 16.0588C78.4555 16.1847 77.4944 16.6318 76.969 16.5214C76.4357 16.4093 77.3807 16.0745 77.5352 15.9957C78.2098 15.652 78.8736 15.2828 79.532 14.9089C80.7002 14.2455 81.7794 13.477 82.6679 12.4512C83.3384 11.6772 84.4456 9.98699 83.9788 8.91676C83.7082 8.29639 83.1155 7.72302 82.7672 7.1353C82.3606 6.44883 82.0324 5.71713 81.6793 5.00193C82.2703 5.26472 82.9336 5.33199 83.537 5.56783C84.1404 5.80386 84.7531 5.99485 85.3807 6.1703C86.6401 6.5222 87.8956 6.58475 89.1435 6.87016C90.5561 7.19312 92.0279 7.55425 93.4632 7.74093C94.7127 7.90321 95.8363 8.24899 96.9069 8.93782C99.0933 10.345 100.61 12.3664 101.377 14.8662C101.827 16.3306 101.936 17.8586 101.989 19.3823C102.045 20.9886 102.162 22.6319 101.958 24.2313ZM89.6879 24.3494C88.1611 25.4748 86.3813 26.3542 84.7429 27.3116C83.8052 27.8591 82.8477 28.3711 81.8915 28.8843C81.2128 29.2485 80.3883 29.919 79.6413 30.1059C79.1686 30.2241 79.2039 30.2332 78.9048 29.7975C78.619 29.3815 78.3693 28.9336 78.1019 28.5051C77.6086 27.7151 77.1108 26.9281 76.6128 26.1411C75.4966 24.3771 74.3825 22.6133 73.2096 20.8867C72.033 19.1542 70.9045 17.3897 69.7647 15.6327C69.2349 14.8159 68.7083 13.9958 68.1463 13.2014C67.7169 12.5948 66.6164 11.6695 67.139 10.9553C67.6245 10.2919 68.7304 9.74073 69.3844 9.23856C70.1838 8.62547 70.9879 8.01867 71.7851 7.40241C73.4988 6.07767 75.1675 4.69529 76.8798 3.36877C78.3327 5.94568 80.0423 8.36149 81.7664 10.7572C80.2072 11.7633 78.6321 12.7197 76.9889 13.581C75.7755 14.2171 73.9188 15.0767 73.1523 16.2834C72.3972 17.4718 73.1388 18.8426 74.4849 18.8644C75.2898 18.8775 76.0922 18.6619 76.8814 18.5388C77.4509 18.4498 78.4912 18.0347 79.0049 18.3272C78.0817 18.9229 74.732 20.6586 76.5377 22.1806C77.8283 23.2684 80.0101 21.6809 81.4043 22.0077C80.9793 22.8323 80.5375 24.1475 81.7171 24.5959C82.6986 24.9692 83.9834 24.2735 84.8669 23.9047C85.5051 23.6381 86.1394 23.3625 86.767 23.0716C87.2661 22.8401 87.8638 22.3711 88.3971 22.2713C89.0195 22.1546 90.2864 23.908 89.6879 24.3494ZM61.3051 85.1229C62.1786 84.9618 62.6272 84.5965 62.9023 85.6691C63.1488 86.6296 63.393 87.5549 63.7106 88.4976C62.346 88.6169 61.1424 89.2756 60.1473 90.2023C59.4388 90.8624 58.0295 92.4385 58.379 93.5441C59.2276 96.231 63.5145 90.2033 64.024 89.5592C64.6476 90.4807 64.8769 91.6873 65.1868 92.7412C65.4075 93.4912 66.2263 94.9291 65.1439 95.1113C63.6244 95.3675 60.7739 95.9395 60.9541 98.1153C61.1669 100.683 64.3982 100.669 66.2108 100.784C67.2329 100.849 67.2377 101.677 67.3832 102.604C67.4482 103.018 67.6516 103.579 67.3036 103.882C66.9946 104.151 66.0481 104.159 65.6461 104.246C64.4737 104.5 63.3019 104.76 62.1296 105.014C60.7987 105.303 60.095 104.898 58.8509 104.53C58.3903 104.393 57.9276 104.451 57.8938 103.93C57.8729 103.61 58.1827 103.115 58.2841 102.798C58.6855 101.546 59.0275 100.257 59.1427 98.9425C59.3108 97.032 59.1009 94.1675 56.7744 93.7946C55.6674 93.6172 55.4546 93.5595 54.955 92.5091C54.4145 91.3734 53.5563 90.3215 53.7639 89.013C53.9138 88.0649 53.6606 86.2709 54.2592 85.4845C54.5358 85.121 55.0752 84.9041 55.4433 84.6373C55.9125 84.297 56.3643 83.9328 56.8014 83.5518C57.1692 83.2316 57.6174 82.6055 58.0343 82.3742C58.5438 82.0914 58.5592 82.2841 58.9251 82.7257C59.4651 83.3781 60.3235 85.304 61.3051 85.1229ZM63.7741 89.3675C63.4714 89.9852 62.7717 90.5597 62.3262 91.0753C61.8779 91.594 61.4537 92.1422 60.9536 92.6123C60.4034 93.1298 58.449 94.3797 58.8795 92.6973C59.2146 91.3888 60.4684 90.3289 61.5721 89.6759C61.7857 89.5493 64.2863 88.3222 63.7741 89.3675ZM65.9122 95.5973C66.106 96.4731 66.2104 97.3759 66.3757 98.258C66.4604 98.7091 66.9295 99.7986 66.7382 100.232C66.4144 100.968 63.4984 100.097 62.894 99.8442C61.455 99.242 60.7945 97.6959 62.1215 96.5948C62.6247 96.1777 65.7184 94.7217 65.9122 95.5973ZM67.8239 106.117C67.9864 106.953 68.4614 107.728 67.6759 108.36C67.0238 108.885 65.9553 109.243 65.1517 109.43C64.0562 109.684 63.7041 109.064 63.1244 108.266C62.5009 107.407 61.8371 106.578 61.1487 105.772C63.3111 105.283 65.4732 104.793 67.636 104.304C67.6345 104.913 67.7077 105.52 67.8239 106.117ZM62.6425 109.997C61.5148 109.938 60.3016 110.281 59.1578 110.372C57.7295 110.484 56.3053 110.648 54.8757 110.745C55.242 109.564 55.8997 108.51 56.4144 107.394C56.9306 106.274 57.2931 106.153 58.4806 106.067C59.5811 105.987 60.3574 105.603 61.1694 106.548C62.0144 107.529 62.7796 108.596 63.5511 109.637C63.2887 109.814 62.9751 110.015 62.6425 109.997ZM54.5816 110.238C54.3033 110.443 53.4453 109.861 53.1562 109.748C52.5938 109.528 52.469 109.457 52.1754 108.902C51.9233 108.425 51.5219 107.883 51.4431 107.339C51.3388 106.621 51.6528 105.676 51.7671 104.963C52.0718 105.706 53.0711 105.792 53.7466 105.913C54.2573 106.005 55.7705 105.859 56.1556 106.227C56.5811 106.633 55.7979 107.766 55.5936 108.193C55.3501 108.702 55.0492 109.894 54.5816 110.238ZM54.0363 110.827C53.7016 110.882 52.7378 111.219 52.7571 110.6C52.7788 109.894 54.1047 110.656 54.0363 110.827ZM52.3383 110.79C52.2771 111.385 51.0114 111.335 50.9823 110.812C50.933 109.928 52.4355 109.84 52.3383 110.79ZM50.8907 94.75C50.5673 95.682 48.5961 96.0154 47.839 96.3023C47.1477 96.5644 45.0825 97.7739 44.3696 97.3353C46.7826 95.6584 49.2552 94.0153 51.2999 91.8741C51.3835 92.403 51.256 92.8448 51.1017 93.3454C50.9627 93.7973 51.0342 94.3372 50.8907 94.75ZM50.2907 98.1485C49.9435 100.431 49.6027 102.744 49.1329 105.004C48.2375 104.728 47.4991 104.167 46.5583 103.972C45.6999 103.794 44.8132 103.789 43.9477 103.919C42.1031 104.197 40.4588 105.119 38.8497 106.018C38.701 104.453 38.3933 102.777 38.4297 101.206C38.4598 99.9011 40.6685 99.5147 41.6704 98.9757C42.2765 98.6495 42.8244 98.1908 43.5149 98.0771C44.2256 97.9599 44.9113 97.9635 45.6131 97.7445C47.2727 97.2269 48.8344 96.406 50.4603 95.7943C50.5932 96.5779 50.4084 97.3763 50.2907 98.1485ZM48.7401 107.81C48.6663 108.329 48.7593 109.255 48.3682 109.65C48 110.023 47.2133 110.035 46.7276 110.136C45.2481 110.444 43.77 110.755 42.2928 111.072C41.6317 111.214 40.9706 111.35 40.3069 111.477C39.9903 111.537 39.1963 111.844 38.9297 111.59C38.6768 111.348 38.8651 110.575 38.8787 110.251C38.9061 109.603 38.9423 108.954 38.9019 108.306C38.825 107.064 38.8934 106.588 40.0372 105.945C41.2522 105.262 42.5071 104.794 43.8748 104.541C45.2594 104.285 46.5786 104.425 47.8967 104.963C48.2634 105.112 48.8135 105.296 48.9843 105.696C49.2163 106.24 48.8183 107.259 48.7401 107.81ZM47.0745 127.838C46.5322 128.182 45.352 128.123 44.729 128.193C43.7232 128.305 42.7109 128.241 41.7116 128.084C40.9593 127.966 39.8367 127.803 39.2603 127.269C38.441 126.51 39.3863 126.475 40.0131 126.529C41.8357 126.684 43.6812 126.575 45.5019 126.442C45.8565 126.416 46.8092 126.102 47.151 126.249C47.5882 126.437 47.4541 127.597 47.0745 127.838ZM46.0411 140.099C42.6455 139.766 40.6769 136.923 39.4455 134.016C38.7844 132.456 39.0228 130.819 38.9576 129.168C38.9458 128.867 38.7585 128.119 39.065 127.894C39.3529 127.682 40.5178 128.336 40.8329 128.414C42.4479 128.815 44.2341 128.853 45.8527 128.464C46.5539 128.296 46.9465 127.983 47.1694 128.685C47.3488 129.251 47.0544 130.294 47.0222 130.887C46.9668 131.913 47.1257 140.206 46.0411 140.099ZM39.2578 140.102C39.2448 139.604 38.9964 134.572 39.2375 134.557C39.9537 136.119 40.6897 137.517 41.9938 138.666C42.6601 139.254 43.4092 139.783 44.2423 140.099C44.5553 140.217 46.329 140.307 46.4159 140.7C46.5679 141.387 45.3572 141.109 44.9981 141.054C44.7098 141.009 44.4505 140.884 44.1679 140.833C43.6291 140.734 43.1202 140.867 42.5794 140.878C41.7576 140.894 40.9504 140.807 40.1281 140.879C39.3765 140.945 39.2778 140.857 39.2578 140.102ZM39.7591 117.53C42.6659 116.58 45.0953 118.379 46.6294 120.734C47.5041 122.077 47.6998 123.016 47.5468 124.606C47.492 125.175 47.5932 125.56 47.0755 125.792C46.5633 126.022 45.3995 125.852 44.845 125.878C43.2509 125.953 41.6628 126.053 40.0687 125.958C39.0332 125.896 38.8871 125.718 38.9049 124.702C38.9264 123.479 38.8256 122.261 38.7573 121.035C38.6831 119.71 38.2329 118.029 39.7591 117.53ZM38.8079 115.768C38.8095 114.869 38.7562 113.946 38.8106 113.049C38.8647 112.159 39.2392 112.203 40.07 112.051C41.8692 111.722 43.6659 111.354 45.4409 110.909C46.1429 110.732 46.9361 110.394 47.6674 110.391C48.4349 110.388 48.3941 110.787 48.3429 111.474C48.2291 112.996 47.9534 114.495 47.8696 116.009C47.779 117.643 47.7316 119.298 47.7389 120.933C47.7414 121.486 47.8742 121.894 47.4086 121.378C46.9426 120.86 46.7145 120.035 46.2982 119.454C45.4459 118.263 44.1789 117.305 42.7732 116.901C41.9959 116.678 41.1782 116.64 40.3857 116.801C40.1453 116.85 38.9408 117.431 38.7876 117.316C38.6839 117.239 38.8077 115.804 38.8079 115.768ZM49.4421 146.923C50.5951 147.758 51.8719 148.432 53.1643 149.018C53.8917 149.347 56.7705 150.041 56.8622 150.782C56.9114 151.178 56.4343 151.621 56.1217 151.668C55.7254 151.727 55.0722 151.465 54.6685 151.416C53.2003 151.236 51.7352 151.234 50.3024 150.821C47.4422 149.996 44.4769 149.763 41.587 149.044C40.8993 148.873 40.2103 148.712 39.5191 148.557C38.8626 148.41 38.5685 148.435 38.5453 147.726C38.4943 146.169 38.9358 144.574 38.9394 142.998C41.2773 143.268 43.6232 143.264 45.9675 143.486C46.972 143.581 46.9486 143.774 47.3889 144.661C47.8459 145.582 48.6232 146.33 49.4421 146.923ZM38.0429 96.3437C38.0134 95.7672 37.9902 95.1895 37.9388 94.6148C37.9041 94.2285 37.5551 93.1494 37.7519 92.8486C37.9856 92.4916 38.221 92.7095 38.6391 92.6994C39.1902 92.6863 39.6519 92.4622 40.1064 92.169C40.9671 91.6139 41.607 90.8831 42.1656 90.0304C42.6572 89.2798 42.5656 88.2543 42.5597 87.3557C42.5441 85.0318 42.7115 82.7651 42.5712 80.4307C42.5068 79.3586 43.4121 80.0162 44.143 80.1551C45.3386 80.3821 46.6382 80.2248 47.8532 80.2278C47.8081 80.5136 45.3234 81.223 44.922 81.4931C43.8942 82.1842 43.295 83.2897 43.3887 84.5502C43.5772 87.086 46.3394 87.5098 48.3575 87.5147C46.6831 89.0117 45.0386 90.439 43.7226 92.2859C42.7523 93.6474 41.0432 96.3323 42.6296 97.8388C41.2274 98.644 39.8375 99.5398 38.2515 99.9273C38.1805 98.733 38.1044 97.5386 38.0429 96.3437ZM37.4063 50.0545C37.9773 50.4252 38.2173 49.901 38.6517 49.6296C39.2636 49.247 39.4662 49.2846 39.5438 48.4304C39.6874 46.846 39.0282 45.4118 38.2005 44.1153C37.8244 43.526 37.4492 42.8242 36.9181 42.3636C36.4341 41.9436 35.9447 42.0881 35.4963 41.654C35.3202 41.4834 35.3579 41.2424 35.0669 41.2491C34.8752 41.2538 34.4094 41.8541 34.2511 41.9867C33.751 42.4052 33.1393 42.7238 32.4841 42.3786C31.5299 41.8763 31.8362 40.0529 32.5773 39.4623C33.1481 39.0074 33.8225 39.0778 34.4721 39.0042C34.9592 38.9495 35.0606 38.9708 34.8603 38.4071C34.7198 38.0124 34.396 37.7044 34.236 37.3182C33.9287 36.5769 33.9956 35.6759 33.8629 34.8913C33.7437 34.1882 33.4648 33.4278 33.4748 32.7138C33.4882 31.8046 33.782 31.5685 34.5609 31.3136C35.3156 31.0667 35.9408 30.5223 36.5836 30.0651C37.3112 29.5474 38.1081 29.2056 38.8559 28.7329C39.3636 28.4119 39.6912 27.7629 40.2494 28.066C40.9127 28.4262 41.6141 29.469 42.1782 30.0017C41.3528 30.5314 41.1609 30.7631 41.2746 31.8002C41.3789 32.7508 41.5704 33.598 42.2892 34.2603C42.5654 34.5148 43.0803 34.7186 43.2944 35.012C43.544 35.3538 43.3818 35.0526 43.3502 35.4383C43.3335 35.6466 43.1706 35.7827 43.206 36.0233C43.3644 37.0916 44.5783 36.461 45.0785 36.0898C46.8658 34.7638 43.5285 33.7107 42.736 33.2277C42.1886 32.8937 41.9179 31.8285 42.7851 32.1115C43.3621 32.2997 44.6652 33.8956 44.7976 32.4409C46.228 33.2811 47.1109 35.0661 48.3103 36.1947C49.1752 37.0087 50.3371 37.9116 49.6506 39.2114C48.7756 40.8684 47.0408 41.6206 45.4569 42.3355C43.9207 43.0288 44.2398 44.9911 45.0608 46.1922C45.5356 46.8864 46.1575 47.2933 46.906 47.6307C47.6703 47.9755 47.8292 48.3805 47.996 49.1802C48.1815 50.0674 47.9845 50.4248 47.2248 50.8831C46.483 51.3308 45.7076 51.7644 44.9157 52.1146C43.2032 52.8722 41.4268 52.9202 39.6054 53.1783C38.9672 53.2688 38.355 53.4574 38.0067 52.8175C37.6152 52.0973 37.5863 50.8573 37.4063 50.0545ZM37.131 46.6084C36.7024 46.3799 35.6677 47.1386 35.1258 47.172C34.2492 47.2257 33.6739 47.2054 32.8957 47.6755C31.4248 48.5642 30.2042 49.7082 29.0247 50.949C27.6963 52.3465 26.3754 53.7514 25.0514 55.1531C24.4512 55.7879 23.848 56.4195 23.2386 57.0448C22.7582 57.5377 22.2884 58.2309 21.6938 58.5826C21.7248 58.1649 21.9782 57.8692 22.0681 57.4819C22.1203 57.2556 22.029 57.0634 22.0628 56.8465C22.0739 56.7761 22.2608 56.5316 22.2893 56.4512C22.3652 56.2394 22.458 56.0301 22.5481 55.8101C22.6321 55.6048 22.6198 55.392 22.7051 55.1776C22.7927 54.9565 23.0329 54.8102 23.1161 54.5925C23.3603 53.9552 22.9562 53.6597 22.31 53.6747C22.5627 52.3996 22.6733 51.7758 23.9919 51.3262C25.2517 50.8966 26.4825 50.4142 27.6396 49.7429C28.6672 49.147 29.5244 48.2879 30.5122 47.6237C31.3965 47.0289 32.4975 46.4057 32.4883 45.186C32.9896 45.5299 33.4596 45.8193 34.033 45.4769C34.5172 45.1879 34.5814 44.9552 35.1411 44.9006C35.5979 44.8565 35.881 44.8446 36.2886 45.0478C36.7684 45.2866 36.8339 45.4528 37.1134 44.7495C37.431 45.0197 38.2336 46.1453 38.2068 46.5909C38.1922 46.8363 38.1554 46.9471 37.8545 47.0118C37.428 47.1035 37.4446 46.7754 37.131 46.6084ZM35.1323 113.228C34.9237 113.551 34.0443 113.492 33.7048 113.487C32.6697 113.474 32.3078 112.595 31.8538 111.747C31.1377 110.408 30.0677 107.629 31.2422 106.224C32.1694 105.116 33.9751 106.512 34.6078 107.35C35.1538 108.073 34.9916 109.158 35.0424 110.025C35.0853 110.757 35.5444 112.59 35.1323 113.228ZM32.3045 113.713C31.8905 114.131 30.5475 114.042 29.9991 114.133C29.0205 114.293 28.0473 114.485 27.0977 114.777C26.3909 114.995 25.6922 115.58 25.5059 114.584C25.3493 113.747 25.4273 112.742 25.4422 111.896C25.4583 110.984 25.5528 110.084 25.6312 109.176C25.6843 108.562 25.5513 107.432 26.0472 106.961C26.4743 106.555 27.5132 106.516 28.0678 106.381C28.9787 106.16 29.9304 105.87 30.877 105.969C30.3247 107.485 30.2778 109.075 30.8701 110.585C31.039 111.016 32.56 113.454 32.3045 113.713ZM25.3439 107.674C25.1131 109.954 24.881 112.248 25.1033 114.54C25.1167 114.677 25.2783 115.303 25.208 115.401C25.1355 115.502 24.5605 115.555 24.4301 115.586C23.9118 115.71 23.3942 115.842 22.8726 115.953C21.8573 116.167 21.7248 115.519 21.5256 114.567C21.0989 112.529 21.9261 110.319 22.4275 108.361C22.6716 107.408 22.8525 107.298 23.7797 107.219C24.4249 107.164 25.442 106.705 25.3439 107.674ZM21.4235 116.181C21.0355 116.538 20.6477 114.854 20.6134 114.683C20.4779 114.001 20.5534 113.31 20.5553 112.618C20.5586 111.537 20.4769 110.462 20.4752 109.386C20.4744 108.804 20.0431 107.614 20.7242 107.306C20.9241 107.216 21.7179 107.254 21.8979 107.373C22.2721 107.62 22.1247 107.78 22.0137 108.209C21.7656 109.174 21.5508 110.143 21.3347 111.116C21.1227 112.07 20.9134 112.987 21.0144 113.972C21.0476 114.298 21.6706 115.953 21.4235 116.181ZM33.7968 105.556C34.7426 105.287 34.7932 106.019 34.7915 106.72C34.6475 106.609 33.3034 105.697 33.7968 105.556ZM21.1457 54.0837C20.9138 54.4699 19.446 54.5754 19.0266 54.6771C18.2014 54.8768 17.3758 55.0753 16.5527 55.2835C15.0109 55.6733 13.5069 56.113 11.9261 56.317C12.7942 54.9119 13.0643 53.6986 12.9027 51.9449C12.6991 49.7308 12.44 47.5394 11.936 45.3722C11.439 43.2351 10.8637 41.1124 10.3094 38.9896C10.0372 37.9467 9.74289 36.9238 9.38079 35.9089C9.0906 35.0957 8.63714 34.0717 9.12991 33.238C10.3801 34.1603 11.383 35.154 12.0961 36.5551C12.86 38.057 13.5272 39.5989 14.4138 41.0359C14.8192 41.6928 15.2927 42.2919 15.7263 42.9278C15.9843 43.3062 16.1722 43.8522 16.5009 44.1714C16.8797 44.5392 17.2836 44.7127 17.5002 44.0919C17.7325 43.4256 16.9914 42.1074 16.7727 41.4817C16.2444 39.9713 15.7207 38.4639 15.3132 36.9147C14.9837 35.6622 14.4389 34.148 14.6316 32.8267C14.8225 31.5184 15.7004 32.4548 16.1446 33.063C17.0604 34.3169 17.6087 35.7785 18.2104 37.2C18.7634 38.506 19.4084 39.7513 20.0203 41.027C20.2331 41.4709 20.5137 42.6177 21.0713 42.7496C21.8818 42.9417 21.8132 41.7876 21.7357 41.3193C21.222 38.2147 19.8811 35.2422 19.6028 32.0838C19.5894 31.9329 19.3956 30.7595 19.5516 30.6614C19.8537 30.4714 20.2613 31.6619 20.3916 31.9536C21.0698 33.4708 21.5419 35.0701 21.9752 36.6726C22.3438 38.0356 22.6771 39.4088 23.0906 40.7589C23.3179 41.5009 23.5784 42.2306 23.8353 42.9627C24.0676 43.6258 24.3034 44.7588 24.9093 45.1957C25.7689 45.8155 28.8449 44.3419 29.1566 45.6593C29.3784 46.5957 26.5262 47.35 25.9186 47.6343C25.119 48.0087 24.3345 48.4185 23.5345 48.7933C22.9288 49.0768 22.0582 49.1931 21.62 49.7264C21.1559 50.2914 21.0815 51.085 21.0677 51.7859C21.057 52.3165 21.4206 53.6258 21.1457 54.0837ZM19.2016 64.3093C19.161 64.6036 18.9296 64.9934 18.8255 65.2734C18.6137 65.844 18.4335 66.5257 18.1387 67.0588C17.8853 67.5179 17.5111 67.9285 17.2661 68.3944C17.0338 68.8366 17.0029 69.3464 16.7315 69.7891C16.4208 70.2951 15.9076 70.6589 15.5992 71.1616C15.4472 71.4098 15.2902 71.693 15.0755 71.9571C14.3149 72.8929 13.5598 73.7756 12.9481 74.778C12.7917 75.0346 12.0275 76.1548 11.7236 76.2154C11.0878 76.3416 11.8277 75.428 11.9521 75.2391C12.8527 73.8724 13.6526 72.4335 14.5219 71.0456C15.364 69.7018 16.2258 68.3684 17.0361 67.0043C17.6972 65.8922 18.1542 64.2956 19.2284 63.5122C19.2323 63.7785 19.2238 64.0442 19.2016 64.3093ZM48.5699 51.7489C49.093 53.9237 49.7187 56.031 50.3085 58.1863C50.8558 60.186 51.584 62.3261 51.811 64.3877C52.0356 66.4299 52.552 68.4962 53.2465 70.4347C53.5674 71.3316 53.8977 72.2319 54.2462 73.1184C54.4375 73.6055 54.6516 74.0815 54.869 74.5571C55.0377 74.9266 55.4835 75.5251 55.5006 75.9165C55.5142 76.2302 55.6219 76.1049 55.3158 76.3406C54.9989 76.5845 54.4499 76.496 54.0809 76.5389C53.1181 76.6515 52.1792 77.0177 51.2407 77.2548C49.4306 77.7123 47.2731 78.0754 45.4183 77.7571C44.638 77.6231 43.8277 77.507 43.0563 77.3326C42.1069 77.1179 41.9118 76.7207 41.717 75.7775C41.2909 73.715 40.924 71.658 40.5722 69.5819C40.1538 67.1123 39.701 64.6456 39.3782 62.1608C39.0523 59.647 38.8179 57.1306 38.3069 54.6441C40.3681 54.9927 42.3091 55.3863 44.3761 54.8153C46.2067 54.3097 47.5282 53.3212 48.5699 51.7489ZM56.6379 78.6726C57.0987 79.6327 55.9882 80.496 55.45 81.2357C54.7402 82.2106 54.0773 83.229 53.2517 84.1107C53.004 83.1088 52.7867 81.9812 52.1259 81.1583C51.2819 80.1075 50.2968 80.5368 49.263 80.0396C50.3472 79.5063 51.7318 79.7099 52.8821 79.2343C54.0167 78.7652 55.1623 78.397 56.2181 77.7875C56.3584 78.0824 56.4968 78.3781 56.6379 78.6726ZM52.6166 101.076C51.9235 101.115 52.3872 99.6369 52.4322 99.2697C52.5559 98.2603 52.681 97.251 52.7895 96.2399C53.3613 97.7644 53.9328 99.2889 54.5044 100.813C53.8762 100.904 53.2519 101.04 52.6166 101.076ZM51.4893 108.384C51.5838 108.597 52.0247 109.305 51.6766 109.435C51.1995 109.614 51.1422 108.441 51.4893 108.384ZM50.6624 91.9602C48.4547 93.7424 46.2623 95.5292 43.8735 97.0637C43.3502 97.3998 42.8232 97.5403 42.4761 96.8738C42.2037 96.3496 42.4916 95.759 42.6666 95.246C43.1125 93.9377 43.8894 92.8004 44.7503 91.7357C46.4699 89.6093 48.5166 87.7933 51.128 86.9549C51.5554 86.8178 52.215 86.4039 52.3644 86.9755C52.4527 87.3116 52.0797 88.1512 52.004 88.4666C51.6921 89.7696 51.7602 91.0744 50.6624 91.9602ZM57.0176 104.958C57.0663 106.471 52.9747 105.251 52.4648 104.98C52.9998 104.799 56.9956 104.278 57.0176 104.958ZM58.5369 104.967C58.78 105.033 59.7122 105.116 59.3641 105.438C59.0524 105.727 57.6408 105.611 57.2666 105.646C57.5181 104.811 57.709 104.745 58.5369 104.967ZM57.779 102.94C57.6874 103.277 57.6502 103.791 57.3519 104.021C56.98 104.309 56.1899 104.134 55.7691 104.136C55.0543 104.14 54.3401 104.177 53.6289 104.249C53.3567 104.276 52.2543 104.612 51.999 104.383C51.8117 104.215 51.8815 103.425 52.018 103.248C52.2982 102.883 52.9433 103.009 53.3477 102.995C54.8272 102.941 56.2986 102.937 57.779 102.94ZM56.829 97.3465C56.6204 97.0326 56.5829 97.036 56.4939 96.562C56.3986 96.0547 56.1564 95.6207 56.0141 95.1305C55.7007 94.052 56.7017 94.1478 57.4361 94.5433C59.3409 95.5694 58.8812 99.1549 58.4102 100.834C57.7253 100.324 57.4725 100.093 57.2369 99.272C57.1474 98.9598 57.0469 98.6533 56.9538 98.343C56.8852 98.1143 56.9329 97.5027 56.829 97.3465ZM56.994 79.8959C57.5258 79.831 58.0123 81.4995 57.8605 81.8605C57.5494 82.5991 56.3613 83.2589 55.7561 83.7302C55.3532 84.0442 54.9531 84.4039 54.5224 84.6777C54.1227 84.9316 53.8927 84.7891 53.5208 84.9111C52.9829 85.0871 52.8524 85.6627 52.3019 85.9101C51.5271 86.2582 50.588 86.3557 49.7789 86.67C48.7972 87.0513 47.8971 87.0617 46.8677 86.881C45.3873 86.6212 43.6519 85.8786 43.7855 84.0596C44.0207 80.8503 50.324 79.2059 52.0431 81.9271C52.4905 82.6353 52.4836 83.4609 52.774 84.2217C53.0886 85.0451 53.3937 84.7214 53.867 84.1152C54.486 83.3216 55.0612 82.4856 55.656 81.6732C55.8485 81.4107 56.6101 79.9433 56.994 79.8959ZM18.3645 111.142C18.3342 111.688 18.3666 112.242 18.1788 112.763C17.9896 113.288 17.6062 113.712 17.3854 114.223C16.9376 115.257 16.941 116.509 16.959 117.617C17.0006 120.196 17.6045 122.701 17.924 125.249C16.8607 125.246 15.7614 125.258 14.731 124.951C13.8104 124.676 13.6635 123.996 13.4032 123.139C12.6721 120.732 11.8827 118.334 11.6466 115.813C11.5344 114.612 11.4871 113.4 11.4334 112.195C11.3865 111.138 11.6213 110.677 12.5653 110.153C14.6172 109.015 16.7442 108.068 18.7751 106.875C18.5675 108.29 18.4435 109.715 18.3645 111.142ZM105.961 26.6474C105.462 26.5546 104.958 26.4967 104.453 26.4358C104.19 26.4041 103.371 26.4483 103.174 26.2749C102.939 26.0686 103.345 24.5086 103.366 24.1738C103.493 22.1607 103.345 20.0853 103.163 18.0799C102.832 14.4492 101.703 11.0857 99.0977 8.47146C97.8008 7.17012 96.3428 6.13766 94.5718 5.63943C93.5399 5.34911 92.4766 5.19431 91.4426 4.91283C90.6084 4.68546 89.83 4.42522 88.9635 4.33513C87.2349 4.15537 85.655 3.49506 83.9683 3.11306C82.7273 2.832 80.7313 2.16539 79.9269 3.58219C79.2936 2.8312 78.6566 2.26728 77.8578 1.70709C77.0928 1.1705 76.9678 0.63451 76.031 1.25411C74.2106 2.45808 72.5059 3.92679 70.8058 5.29658C69.218 6.57589 67.6815 7.91559 66.0174 9.09202C64.3202 10.2921 64.6422 12.3285 65.4402 14.0167C66.9419 17.1944 69.2579 19.9109 71.2854 22.6347C72.5553 24.341 73.8293 26.0496 75.0941 27.7593C76.3034 29.3933 77.3493 31.2846 78.7622 32.7527C79.6532 33.6781 80.7165 32.4679 81.5204 31.9088C82.5184 31.2142 83.4987 30.4938 84.4979 29.8013C86.5785 28.3588 88.8046 27.0076 91.001 25.752C91.1607 26.2098 91.3205 26.6677 91.4802 27.1258C90.9979 27.1623 90.3462 27.0533 90.1008 27.5777C89.75 28.3267 90.6105 28.425 90.7614 28.8545C90.8963 29.238 90.3437 30.2509 90.1802 30.5965C89.8127 31.3753 89.2994 32.0466 88.7339 32.6876C86.4971 35.2244 83.6664 37.039 80.7945 38.7685C77.721 40.619 74.427 41.7489 71.0623 42.9413C69.3513 43.5476 67.5756 43.8293 65.81 44.2174C64.1088 44.5916 62.4089 45.0831 60.6706 45.2243C57.114 45.5128 53.3397 45.7291 49.826 44.9535C49.4413 44.8687 49.0342 44.6848 48.6431 44.6499C48.3293 44.6218 48.097 44.7548 47.801 44.7719C47.165 44.8087 46.8006 44.2337 46.2955 44.7679C46.0427 45.0351 46.0384 45.4836 45.6861 44.985C45.2381 44.3506 46.3833 44.228 46.8077 44.0473C48.2365 43.4387 49.3851 42.2137 50.293 40.9752C51.2002 39.7377 51.3306 38.4161 50.7783 36.9673C50.2259 35.5191 48.9701 34.5374 48.0272 33.3613C47.5712 32.7918 47.1514 32.1893 46.6507 31.6577C46.3833 31.3738 45.9524 31.102 45.9357 30.8155C45.9163 30.4826 46.1134 30.3173 45.9955 29.9127C45.965 29.8074 45.8343 29.7476 45.8065 29.632C45.7624 29.4476 45.8305 29.2895 45.8076 29.1099C45.7547 28.6981 45.5949 28.4393 45.3687 28.102C45.228 27.891 45.0219 27.4689 44.8281 27.311C44.4884 27.034 44.0251 27.1469 43.6797 26.8662C43.1332 26.4223 42.9411 25.4869 42.4575 24.9479C41.777 24.1894 41.6317 24.9557 40.9106 24.7141C40.2941 24.5071 40.3012 23.569 39.803 23.2517C39.1012 22.8048 38.5102 23.6271 37.8869 23.8102C37.067 24.0512 37.382 23.1158 36.6512 23.0306C35.9913 22.9536 35.0771 24.3071 34.748 24.7878C34.4127 24.3928 34.046 23.7195 33.4426 23.9607C32.8094 24.2139 32.6967 25.3926 32.2338 25.8131C32.0724 25.9593 32.1065 26.0672 31.9081 26.1346C31.6518 26.2213 31.3104 25.8452 30.979 25.9598C30.3106 26.1912 30.3922 27.093 30.3909 27.6773C29.6023 27.5608 29.0523 27.5014 28.7882 28.3607C28.5298 29.2018 28.4318 28.8306 27.6003 29.1039C26.8837 29.3392 26.7833 30.0275 26.665 30.7005C26.5918 31.1191 26.6595 31.2901 26.771 31.6716C26.9115 32.1523 26.9115 32.1464 26.6823 32.6051C26.2832 33.4059 26.2594 34.2878 26.1956 35.1688C26.1279 36.1089 25.9652 36.9648 26.2295 37.883C26.3928 38.4512 26.4053 39.2245 26.9558 39.5426C27.1741 39.6688 27.5449 39.5997 27.7308 39.7248C28.0854 39.9637 27.9775 40.3271 28.2137 40.6759C28.3906 40.9369 28.6762 40.9621 28.8744 41.1737C29.0899 41.4041 29.1029 41.6846 29.2256 41.9658C29.589 42.7982 29.9308 43.2009 28.7462 43.2484C28.0153 43.2778 27.2357 43.4994 26.5078 43.4313C25.6489 43.3514 25.4353 42.8658 25.1618 42.1266C23.7839 38.4016 23.0434 34.3641 21.2287 30.8219C20.8302 30.044 19.1947 26.8666 18.5033 29.1817C17.9204 31.1343 18.6852 33.5173 18.9785 35.4608C18.0584 34.6224 17.7181 33.112 17.0194 32.0883C16.5034 31.3319 14.8875 29.4747 13.9403 30.539C13.1939 31.3778 13.3804 33.1566 13.5182 34.1595C13.7358 35.7461 14.2374 37.2751 14.5955 38.8313C14.1445 38.2348 13.9221 37.5065 13.6091 36.835C13.2167 35.9928 12.7271 35.1938 12.1691 34.4537C11.6815 33.8071 11.1363 33.2059 10.5451 32.6546C10.0933 32.2329 9.2842 31.31 8.64258 31.2601C6.99118 31.132 7.51049 34.1948 7.762 35.0703C8.2834 36.8853 8.8485 38.6502 9.25325 40.5015C10.0444 44.1187 11.0025 47.6525 11.5854 51.3158C11.7144 52.1279 11.8697 52.7763 11.5521 53.5571C11.272 54.245 10.9816 55.0675 10.465 55.5964C9.2957 56.7941 8.3248 58.073 7.4507 59.5161C6.51451 61.0618 5.55072 62.6254 4.78659 64.2662C4.43516 65.0211 4.14769 65.8376 3.74378 66.5637C3.37917 67.219 2.94097 67.7369 2.68173 68.4626C1.44324 71.9298 0.526281 75.3363 0.106479 79.0077C-0.238268 82.0218 0.0828541 86.0314 3.68211 86.7366C5.3356 87.0606 6.82017 86.3193 8.31121 85.7073C9.85327 85.0747 10.9684 84.0458 12.2262 82.9526C13.7891 81.5942 15.4119 80.3197 16.9914 78.984C18.5717 77.6474 20.0314 76.1651 21.6031 74.8144C23.1554 73.4797 24.5599 72.0623 25.9023 70.5127C27.2343 68.9752 28.316 67.2721 29.6053 65.7131C29.6005 67.7314 29.3042 69.7314 29.221 71.747C29.1451 73.5949 29.1432 75.4409 29.217 77.288C29.2908 79.1341 28.8085 80.8911 28.8045 82.7331C28.8004 84.5299 28.7299 86.3164 28.691 88.1112C28.6737 88.9164 28.5175 89.8197 28.815 90.5965C29.0372 91.1765 29.7355 91.3579 30.3313 91.5141C31.2521 91.7557 34.022 91.2905 34.4332 92.2851C34.6577 92.8277 34.4315 93.8157 34.4491 94.4154C34.4784 95.4036 34.5141 96.3917 34.5475 97.3797C34.5823 98.4 34.6159 99.4206 34.6527 100.441C34.6853 101.34 34.8582 102.341 34.7512 103.231C34.6594 103.994 34.2195 103.894 33.5223 103.934C32.4701 103.992 31.4176 104.04 30.3648 104.086C28.8204 104.154 27.209 104.123 25.7284 104.307C25.1066 104.385 24.4272 104.352 23.7713 104.478C22.9487 104.636 22.1889 104.676 21.3545 104.718C20.682 104.752 19.8173 104.702 19.2888 105.205C19.1056 105.38 19.0644 105.588 18.9346 105.782C18.6911 106.145 18.8265 106.05 18.427 106.132C16.867 106.451 15.3853 106.812 13.8598 107.349C13.0961 107.618 12.3876 107.98 11.6203 108.233C10.9479 108.455 10.4552 108.728 10.1228 109.395C9.52902 110.587 9.67933 112.312 9.7224 113.596C9.79014 115.6 10.2304 117.508 10.7052 119.447C11.1992 121.463 11.5866 123.533 12.5477 125.386C12.8634 125.994 13.2044 126.771 13.8493 127.088C14.682 127.498 15.9628 127.25 16.8716 127.251C17.4814 127.252 19.1152 127.464 19.5712 126.947C20.0126 126.446 19.5685 125.034 19.5062 124.412C19.2877 122.235 18.8945 120.037 18.8997 117.844C19.3973 118.587 20.2599 119.871 21.1233 118.732C21.3357 118.452 21.2527 118.321 21.6301 118.159C21.8387 118.069 22.2788 118.014 22.5061 118.029C22.8153 118.05 22.9296 118.176 23.2135 118.115C23.465 118.06 23.7477 117.832 24.036 117.763C27.6097 116.904 31.1626 115.979 34.7516 115.214C35.7005 115.011 35.5657 115.748 35.6284 116.577C35.6976 117.495 35.5655 118.421 35.6913 119.329C35.8009 120.118 35.8862 120.887 35.7319 121.681C35.55 122.618 35.6671 123.399 35.8483 124.327C36.5464 127.903 36.4216 131.782 36.579 135.417C36.661 137.31 36.4852 139.243 36.6612 141.126C36.7277 141.837 37.1203 142.23 37.2794 142.877C37.4621 143.62 36.9639 144.566 36.8123 145.286C36.5077 146.73 35.9727 148.798 36.9514 150.055C37.4799 150.734 38.1727 150.832 38.955 151.062C39.8914 151.337 40.8143 151.657 41.7548 151.917C45.1919 152.868 48.9061 153.054 52.4286 153.579C53.2912 153.707 54.0913 153.695 54.9593 153.634C55.4946 153.596 56.8125 153.774 57.2574 153.451C57.4957 153.278 57.3751 153.06 57.4961 152.849C57.6682 152.548 57.8768 152.425 58.1697 152.238C58.655 151.928 59.2161 151.747 59.2981 151.107C59.4983 149.539 57.5605 148.708 56.5246 148.03C55.2004 147.164 53.6011 146.829 52.1959 146.122C51.4207 145.732 50.6727 145.29 49.9257 144.847C49.6019 144.655 48.9452 144.438 48.7194 144.135C48.489 143.827 48.7146 143.387 48.8099 142.946C49.2038 141.124 49.0706 139.262 49.2745 137.422C49.4781 135.578 49.4227 133.724 49.4898 131.871C49.559 129.962 49.715 128.059 49.8345 126.154C49.9447 124.394 50.0557 122.606 50.0741 120.844C50.0915 119.21 50.3118 117.608 50.3639 115.964C50.3817 115.406 50.2826 114.393 50.6491 113.921C50.9704 113.506 52.0345 113.558 52.5309 113.485C53.8687 113.289 55.1419 113.117 56.4646 112.999C59.6119 112.717 63.1143 112.51 66.0904 111.401C67.3178 110.943 68.951 110.318 69.3582 108.893C69.8265 107.255 69.2152 105.242 69.195 103.567C69.1734 101.779 68.6606 100.034 68.2761 98.3013C67.8622 96.4361 67.6015 94.5389 67.1541 92.6806C66.7437 90.9755 66.0778 89.4654 65.4483 87.8466C65.1928 87.19 63.7386 84.9275 64.1898 84.3697C64.4327 84.0691 65.308 83.993 65.6632 83.8554C66.4286 83.5594 67.1955 83.2227 67.9013 82.801C68.8435 82.2379 70.907 81.3063 71.0021 80.0551C71.0926 78.8593 69.9305 77.6508 69.3396 76.7116C68.388 75.1983 67.1873 73.8754 66.2808 72.3321C64.4488 69.2133 62.992 65.7973 61.6563 62.4362C60.9576 60.6779 60.7293 59.0221 60.6143 57.1452C62.6433 57.1501 64.7084 57.4025 66.7245 57.1156C68.9186 56.8034 71.1156 56.2775 73.2905 55.8441C77.2513 55.0548 81.0539 54.1636 84.723 52.3863C88.1588 50.722 91.6451 48.9005 94.4899 46.2586C95.9609 44.8926 97.4613 43.5004 98.7314 41.9383C100.036 40.3336 101.018 38.5104 102.025 36.709C103.136 34.7205 104.02 32.6307 104.72 30.4558C104.86 30.0184 104.861 29.4616 105.041 29.0486C105.244 28.5822 105.614 28.57 106 28.3243C106.542 27.9787 106.904 26.8222 105.961 26.6474Z" fill="#432C7A"/>
<path fill-rule="evenodd" clip-rule="evenodd" d="M58.7239 4.38828C59.1878 4.79116 61.1869 6.21031 61.8325 5.86524C62.6292 5.43925 61.3679 4.15605 61.0284 3.83969C60.5961 3.43721 59.0519 2.2196 58.4607 2.33263C57.2788 2.55869 58.3066 4.02567 58.7239 4.38828Z" fill="#432C7A"/>
<path fill-rule="evenodd" clip-rule="evenodd" d="M59.7113 18.9534C59.9734 18.4319 60.6705 18.2401 60.9926 17.7356C61.3804 17.1289 61.5586 16.598 61.4156 15.854C60.4231 16.1918 59.294 17.2143 58.63 18.0137C58.0749 18.6819 57.2865 20.0781 58.7349 20.0817C58.7224 19.883 58.7096 19.6839 58.6969 19.4854C59.1313 19.5493 59.5141 19.3463 59.7113 18.9534Z" fill="#432C7A"/>
<path fill-rule="evenodd" clip-rule="evenodd" d="M54.9836 10.2772C55.6233 10.4631 56.1514 10.4368 56.8051 10.4513C57.2795 10.462 57.9278 10.7257 58.3123 10.4285C57.9711 10.2287 58.4022 10.2177 58.3177 10.0229C58.2469 9.86052 58.1122 9.91373 58.0027 9.78226C57.6121 9.3139 57.2726 9.3196 56.6534 9.2222C56.1734 9.14635 55.4678 8.97145 55.0068 9.21262C54.5215 9.46652 54.3338 10.0883 54.9836 10.2772Z" fill="#432C7A"/>
<path fill-rule="evenodd" clip-rule="evenodd" d="M64.0912 24.6433C64.505 24.2924 64.9561 23.2765 65.0397 22.7522C65.0726 22.5468 64.9262 22.3895 64.9436 22.2384C64.977 21.9502 65.5626 21.3934 64.9492 21.1571C64.4128 20.9502 63.9085 22.5576 63.7722 22.9082C63.6323 23.267 63.2514 23.9658 63.3683 24.3127C63.4653 24.6006 63.8117 24.8801 64.0912 24.6433Z" fill="#432C7A"/>
<path fill-rule="evenodd" clip-rule="evenodd" d="M69.0418 2.88806C69.4162 2.53671 69.6533 2.13823 69.6144 1.65506C69.5836 1.27446 69.3018 -0.037745 68.9845 0.000833106C67.931 0.129398 68.4047 3.48639 69.0418 2.88806Z" fill="#432C7A"/>
<path fill-rule="evenodd" clip-rule="evenodd" d="M46.802 61.5552C46.7153 61.2343 46.4002 59.2726 45.8552 59.4062C45.4412 59.5077 45.8713 61.2341 45.8905 61.4613C45.9309 61.9365 45.0275 61.9209 44.6077 61.8566C43.9418 61.7549 43.9954 61.3605 43.8956 60.7485C43.8582 60.5173 43.7142 59.472 43.2371 59.8548C42.9147 60.1135 43.1451 61.4024 43.1719 61.6964C43.2649 62.7151 43.3742 64.4544 43.9732 65.3792C44.2119 65.7483 44.4267 65.9303 44.6775 65.4572C44.9313 64.9784 44.3568 63.5192 44.2563 63.0296C44.7302 63.0763 46.0946 62.921 46.3802 63.4188C46.6409 63.873 46.2238 65.1712 47.0602 65.2764C47.5564 65.339 47.4665 64.7579 47.4188 64.311C47.3186 63.3733 47.0464 62.4608 46.802 61.5552Z" fill="#432C7A"/>
<path fill-rule="evenodd" clip-rule="evenodd" d="M48.0728 61.1013C47.5234 61.3522 48.2131 65.0109 49.0169 64.893C49.955 64.7549 48.5963 60.8623 48.0728 61.1013Z" fill="#432C7A"/>
<path fill-rule="evenodd" clip-rule="evenodd" d="M47.4604 59.8899C47.3927 60.7136 48.4514 61.0206 48.5015 60.1254C48.54 59.4348 47.5317 59.0238 47.4604 59.8899Z" fill="#432C7A"/>
<path fill-rule="evenodd" clip-rule="evenodd" d="M41.6492 38.0488C42.1326 39.8701 46.5322 40.6448 45.9395 38.1885C45.6426 36.9587 44.4028 38.0513 43.5373 37.9082C42.9772 37.8156 41.3089 36.7644 41.6492 38.0488Z" fill="#432C7A"/>
<path fill-rule="evenodd" clip-rule="evenodd" d="M40.5441 34.8C40.7511 33.8255 38.6427 32.7497 37.8775 33.018C36.7584 33.4107 36.7632 35.921 37.617 36.5883C37.7293 36.676 38.0736 36.8855 38.2423 36.7185C38.5084 36.4545 38.2176 36.5266 38.1555 36.263C38.0569 35.8438 37.7345 35.3056 38.0556 34.8285C38.6627 33.9276 40.2479 36.1964 40.5441 34.8Z" fill="#432C7A"/>
<path fill-rule="evenodd" clip-rule="evenodd" d="M34.115 39.5304C33.3548 39.4873 32.7314 40.6803 33.8499 40.5803C34.0642 40.5611 34.5243 40.5066 34.6485 40.2791C34.8542 39.9022 34.4493 39.5494 34.115 39.5304Z" fill="#432C7A"/>
<path fill-rule="evenodd" clip-rule="evenodd" d="M70.994 11.0899C70.7337 10.7093 70.1883 10.0969 69.7189 10.4786C69.3029 10.8171 69.3754 11.6525 69.5351 12.0677C69.9646 13.1853 70.9789 14.181 72.1269 13.5371C71.728 12.7293 71.5035 11.8348 70.994 11.0899Z" fill="#432C7A"/>
</svg>
