<svg width="135" height="72" viewBox="0 0 135 72" fill="none" xmlns="http://www.w3.org/2000/svg">
<path fill-rule="evenodd" clip-rule="evenodd" d="M24.6252 43.7175L24.9908 48.3033L31.9384 49.954L37.2406 52.3386L41.4456 56.0072L43.4568 54.3563L46.0164 48.6701L48.9416 48.1198L59.5458 49.2204L63.2025 50.3209L61.9227 56.5575L60.6429 61.1431L81.8512 59.8591L81.1198 49.2204L76.7319 39.4987L59.3631 31.061L46.382 32.7119L37.2406 42.8003L33.2182 45.0015L26.0879 44.6346" fill="#FF5678"/>
<path fill-rule="evenodd" clip-rule="evenodd" d="M14.5086 52.851C14.5086 53.5993 14.9719 53.5518 15.5329 53.4945C15.7242 53.4749 15.9269 53.454 16.1266 53.4634C16.2483 53.469 16.4537 53.505 16.6973 53.5476L16.6975 53.5478C17.4103 53.6727 18.4509 53.8552 18.6825 53.5024C18.9039 53.165 18.5953 53.1189 18.2805 53.0721C18.0682 53.0406 17.8533 53.0085 17.7964 52.8864C17.6451 52.5615 17.9417 52.3361 18.2301 52.1168C18.4859 51.9224 18.7353 51.7328 18.6601 51.483C18.5842 51.2312 18.2455 51.3742 17.8798 51.5286C17.4739 51.7 17.0347 51.8854 16.8847 51.5608C16.7417 51.2515 17.0706 50.9648 17.3692 50.7044C17.6217 50.4842 17.8527 50.2828 17.7583 50.1026C17.5833 49.7692 15.8091 50.6132 15.5826 50.7583C14.9416 51.1685 14.4795 52.0907 14.5086 52.851ZM93.7408 35.0655C94.0129 35.359 94.2203 35.7049 94.4259 36.048C94.6319 36.3915 94.8362 36.7322 95.1023 37.0151C95.3313 37.2585 95.5942 37.3531 95.8665 37.4509V37.4511C95.9899 37.4953 96.1152 37.5403 96.24 37.6002C96.481 37.7159 96.7311 37.8414 96.9873 37.9699C97.9735 38.4647 99.0523 39.0061 100.078 39.219C99.3213 38.3341 98.8414 37.5333 98.3922 36.4579C98.3464 36.3482 98.2973 36.2367 98.2476 36.1241C98.1232 35.8419 97.9959 35.5528 97.91 35.2674C97.8193 34.9668 97.802 34.6571 97.7846 34.3488C97.7691 34.0705 97.7536 33.7935 97.6842 33.5256C97.6451 33.3744 97.6291 33.2577 97.6173 33.1713L97.6172 33.1709V33.1707C97.6032 33.0684 97.5951 33.0087 97.5612 32.9844C97.5136 32.9499 97.4153 32.9859 97.1781 33.0725L97.1591 33.0794L97.1302 33.09L97.0992 33.1012C96.8935 33.1759 96.7027 33.335 96.5167 33.49C96.4002 33.5873 96.2854 33.6828 96.1701 33.7552C95.8139 33.9783 95.4428 34.1548 95.073 34.3305C94.6165 34.5475 94.1621 34.7635 93.7408 35.0655ZM128.364 19.1768C128.39 19.4547 132.134 18.1185 132.504 17.8733C133.195 17.4148 134.005 15.3049 133.269 14.6795C132.607 14.1166 131.153 14.8025 130.1 15.299C129.741 15.4682 129.429 15.6154 129.211 15.6837C127.765 16.1354 126.1 16.3898 124.593 16.2359C123.91 16.1659 123.237 16.1079 122.548 16.0652C122.432 16.0581 122.298 16.0399 122.154 16.0203C121.661 15.9531 121.059 15.871 120.714 16.1795C120.294 16.5556 120.345 17.3043 120.559 17.7719C120.633 17.9332 120.722 18.0224 120.808 18.1084C120.883 18.1837 120.956 18.2566 121.014 18.3733C121.03 18.4045 121.022 18.4445 121.012 18.4928C120.996 18.5693 120.975 18.6667 121.039 18.7828C121.325 19.3047 122.297 20.1768 122.821 20.4425C123.323 20.6973 123.506 20.5404 123.784 20.3015C123.879 20.2206 123.984 20.1302 124.117 20.0433C125.028 19.4455 126.452 19.3328 127.648 19.2382C127.899 19.2184 128.14 19.1993 128.364 19.1768ZM119.696 19.3384C118.612 20.6616 117.337 21.5816 116.001 22.5461L116 22.5464C115.736 22.7371 115.469 22.9294 115.201 23.1271C114.839 23.3942 114.481 23.6669 114.123 23.9393L114.123 23.9394L114.123 23.9396L114.123 23.9397L114.122 23.9399V23.94C113.06 24.7489 112 25.556 110.835 26.2148C110.709 26.2858 110.561 26.3488 110.412 26.4126C110.016 26.5811 109.605 26.756 109.545 27.1045C109.493 27.4077 109.853 28.0534 110.155 28.5936C110.303 28.8588 110.436 29.0984 110.5 29.2598C111.074 30.7096 111.516 32.1927 111.962 33.6863C112.024 33.8948 112.086 34.1033 112.149 34.312L112.257 34.1433C113.746 31.8214 115.255 29.4688 117.08 27.371C118.729 25.4747 120.421 23.4906 121.862 21.4472C120.99 20.9157 120.267 20.1827 119.696 19.3384ZM107.051 1.94607C105.524 1.88479 105.058 3.13187 104.612 4.32591C104.437 4.79492 104.265 5.2558 104.033 5.62588C103.578 6.35107 102.972 7.1297 102.3 7.6723C101.791 8.08324 101.18 8.32557 100.571 8.56721C100.272 8.68572 99.9734 8.80423 99.6878 8.94219C98.9014 9.32178 98.2027 9.70221 97.7122 10.4347C97.6654 10.5044 97.6132 10.5781 97.559 10.6549C97.2184 11.1359 96.7894 11.7422 97.034 12.3054C97.2038 12.6962 97.6658 13.0188 98.1195 13.3356C98.441 13.56 98.7583 13.7815 98.9643 14.0223C99.5526 14.7098 99.6356 14.69 100.299 14.5303C100.407 14.5043 100.53 14.4748 100.674 14.4439C101.185 14.3335 101.671 14.299 102.194 14.3174C102.258 14.3195 102.367 14.3398 102.493 14.3631C102.787 14.4178 103.176 14.4902 103.308 14.3928C103.467 14.275 103.417 13.9115 103.374 13.5955C103.352 13.4335 103.332 13.2839 103.342 13.1863C103.389 12.7482 103.544 12.2961 103.692 11.8831C104.192 10.4825 105.076 9.4894 105.998 8.45471L105.999 8.45388L105.999 8.4529L106 8.45178L106.001 8.4508C106.158 8.27534 106.315 8.09849 106.472 7.91842C107.045 7.26011 107.722 6.69862 108.399 6.13769C109.093 5.5618 109.787 4.98646 110.367 4.30745C110.998 3.56743 110.711 3.04428 109.844 2.69784C109.6 2.60018 109.332 2.55695 109.065 2.51385C108.851 2.47929 108.637 2.44473 108.436 2.38233C108.277 2.33308 108.124 2.26774 107.972 2.20254C107.676 2.07563 107.382 1.94985 107.051 1.94607ZM24.3154 54.1954C24.6132 54.1954 24.9092 54.0739 25.2015 53.9537C25.517 53.8238 25.8283 53.6958 26.1337 53.7242C26.2812 53.7381 26.447 53.8777 26.6038 54.0099C26.7049 54.095 26.8022 54.177 26.8886 54.2203C27.2017 54.3771 27.5397 54.4551 27.8849 54.4979C28.1127 54.5261 28.3131 54.5263 28.4986 54.5265C28.9256 54.5269 29.2732 54.5272 29.6911 54.8686C30.1286 55.2259 30.5803 55.6765 31.0003 56.0954C31.0968 56.1918 31.1918 56.2864 31.2845 56.3779C32.0528 57.1364 32.7223 58.0431 33.3789 58.9323C33.6267 59.2678 33.8726 59.6008 34.1213 59.9224C35.2419 61.3718 36.4057 62.5223 37.8965 63.6079C39.0743 64.4653 40.2675 65.0295 41.594 65.6566L41.715 65.7139C43.0638 66.3521 44.7603 67.0921 46.2905 67.1272C47.5112 67.1554 49.037 66.7637 50.1478 66.2427C50.6806 65.9929 50.9337 65.9493 51.3685 65.8744C51.4612 65.8585 51.5619 65.8411 51.6752 65.8201C52.6433 65.6405 53.7586 65.1327 54.6702 64.7177L54.7691 64.6727C57.6859 63.3456 59.5344 60.4531 60.8497 57.6219C61.5983 56.0106 62.0659 54.4361 62.3779 52.6927C62.3941 52.6021 62.4102 52.5178 62.4252 52.4396C62.5663 51.6989 62.6075 51.4826 61.7708 51.1273C61.0306 50.8132 60.2432 50.5941 59.4644 50.3774C59.2598 50.3204 59.0558 50.2636 58.8534 50.2053C56.0002 49.3837 52.7481 49.2025 49.8019 49.328C49.6263 49.3354 49.4501 49.3476 49.274 49.3598H49.2737H49.2736H49.2733H49.2729C48.9845 49.3798 48.6957 49.3997 48.4078 49.3994C48.3135 49.3992 48.1773 49.382 48.0283 49.3634C47.7315 49.3261 47.384 49.2824 47.2145 49.3539C46.8131 49.5239 46.4722 50.2934 46.2294 50.8412L46.2293 50.8414L46.2291 50.8418L46.229 50.8421C46.1643 50.9879 46.1067 51.118 46.0567 51.2168C45.6496 52.0224 45.2882 52.8487 44.9269 53.6748V53.675C44.605 54.4109 44.2833 55.1466 43.9293 55.8672C43.5387 56.6627 42.9552 57.1859 42.0332 57.1988C41.1188 57.2114 40.633 56.6942 40.0787 56.1042C40.0069 56.0277 39.9337 55.9499 39.8584 55.8719C38.5512 54.5171 36.7916 53.3526 35.1688 52.4102C33.4161 51.3928 31.3262 50.4066 29.3307 50.0473C29.1242 50.0103 28.8762 49.9539 28.6017 49.8916C27.1095 49.5527 24.8314 49.0353 24.1486 50.4433C24.1624 50.4413 24.1778 50.4392 24.1943 50.437L24.1978 50.4366C24.674 50.3718 26.1411 50.1721 26.2056 50.8457C26.2289 51.0883 25.8263 51.2379 25.3632 51.4098C24.8249 51.6098 24.205 51.8401 24.0762 52.2821C24.1763 52.2742 24.325 52.2489 24.4999 52.2191C25.2114 52.098 26.3587 51.9026 26.4575 52.5078C26.51 52.8286 26.0514 53.022 25.7344 53.1557C25.6555 53.189 25.5852 53.2185 25.5339 53.2455C25.0239 53.5138 24.7168 53.7923 24.3154 54.1954ZM79.7095 30.2467C79.3126 29.967 78.6033 29.9268 77.9957 29.8922C77.7709 29.8795 77.5601 29.8674 77.3839 29.8445L77.3793 29.8439L77.3792 29.8438C76.5481 29.7351 75.7399 29.6293 74.9006 29.6752C74.5969 29.6918 74.2884 29.7018 73.9778 29.7118C73.0854 29.7408 72.1762 29.7703 71.3204 29.9587C69.8746 30.2764 68.5055 30.7644 67.199 31.4492C67.1737 31.4625 67.1478 31.4759 67.1215 31.4896L67.1202 31.4902C66.6926 31.7118 66.1495 31.9933 66.1534 32.5929C66.1565 33.0787 66.314 33.1057 66.6848 33.1695C66.771 33.1843 66.8686 33.2011 66.9786 33.2261C68.2002 33.5041 69.3511 34.1958 70.4606 34.8626C70.7774 35.053 71.0908 35.2413 71.4014 35.4175C72.8891 36.2604 74.3708 37.2076 75.7513 38.2178C78.3976 40.1544 79.908 42.9405 81.0833 45.9693C81.6913 47.5357 82.132 49.365 82.3149 51.0344C82.4254 52.0417 82.426 53.0519 82.4265 54.0617V54.062C82.4271 54.9143 82.4275 55.7661 82.4941 56.6154C82.4986 56.6738 82.5036 56.7552 82.5097 56.8533C82.5487 57.4931 82.631 58.84 82.9178 59.0763C83.093 59.2207 83.7524 59.0841 84.2544 58.9803C84.4717 58.9354 84.6593 58.8965 84.7655 58.8892C85.5612 58.8345 86.3596 58.8123 87.1532 58.7903H87.1533C87.8237 58.7717 88.4907 58.7532 89.1498 58.7152C90.6616 58.628 92.1923 58.6447 93.7265 58.6612C95.2806 58.678 96.8382 58.6949 98.3836 58.6041C99.9284 58.5131 101.424 58.2958 102.939 57.9841C103.365 57.8965 103.822 57.8323 104.289 57.7667C105.365 57.6156 106.49 57.4576 107.386 56.9907C109.858 55.7025 111.366 52.5968 111.474 49.967C111.592 47.1165 111.397 44.0145 110.798 41.1748C110.724 40.8207 110.651 40.4707 110.58 40.123C110.35 39.0087 110.124 37.9187 109.843 36.7971C109.476 35.3361 109.07 33.8807 108.666 32.4352L108.662 32.4229C108.612 32.2425 108.562 32.0624 108.512 31.8825C108.192 30.7374 107.8 29.6245 107.408 28.5126V28.5125V28.5123L107.408 28.5122C106.841 26.9046 106.275 25.2989 105.931 23.6021C105.611 22.0231 105.157 20.3723 104.683 18.8311C104.508 18.2632 104.164 17.1841 103.757 16.7526C103.434 16.4097 103.15 16.475 102.756 16.5658C102.629 16.5951 102.491 16.6268 102.336 16.6485C102.069 16.6862 101.744 16.6814 101.406 16.6766C100.399 16.6624 99.2826 16.6466 99.2833 17.7457C99.2836 18.2164 99.3749 18.7007 99.466 19.1825V19.1827V19.1828L99.4662 19.1831V19.1832V19.1835V19.1837V19.1838C99.5308 19.5255 99.5952 19.866 99.6265 20.2C99.6643 20.6013 99.6751 21.0037 99.6858 21.406V21.4061V21.4062V21.4064V21.4067V21.4068V21.4069V21.4071C99.7005 21.957 99.7152 22.5068 99.7987 23.0533C99.848 23.3752 99.902 23.6918 99.9557 24.0059L99.9559 24.007C100.157 25.1879 100.353 26.3319 100.262 27.5752C100.215 28.2149 100.136 28.8451 100.057 29.4743C99.9242 30.5285 99.7922 31.5797 99.813 32.6669C99.8168 32.8658 99.8189 33.064 99.8208 33.2611C99.8357 34.7014 99.8501 36.0943 100.54 37.4275C100.675 37.6878 100.799 37.9666 100.924 38.2461V38.2462C101.106 38.6539 101.289 39.063 101.505 39.4184C101.932 40.1202 102.302 40.3258 103.065 40.6084C103.177 40.6497 103.326 40.6939 103.494 40.7436C104.045 40.9064 104.793 41.1272 105.03 41.493C105.477 42.1815 104.88 42.4601 104.292 42.4366C102.805 42.3775 101.285 41.8234 99.8487 41.2996L99.8481 41.2995L99.8477 41.2993L99.8474 41.2992L99.8466 41.2989L99.8438 41.2979C99.5276 41.1826 99.2154 41.0687 98.9084 40.9621C98.4176 40.7913 97.9381 40.5936 97.4592 40.396L97.4591 40.3959C97.1563 40.2709 96.8538 40.1461 96.5489 40.0285C96.3732 39.9606 96.2067 39.905 96.0453 39.8515C95.6287 39.7128 95.247 39.5858 94.8346 39.2869C94.1142 38.765 93.4787 38.14 92.8431 37.5149C92.2484 36.93 91.6536 36.3449 90.989 35.8441C88.3876 33.8836 85.2688 32.7132 82.0015 32.3659C81.1607 32.2765 80.51 32.3167 79.6679 32.388C79.5437 32.3985 79.4196 32.4072 79.2959 32.4159C78.9559 32.4395 78.6177 32.463 78.2797 32.5257C78.1865 32.5431 78.0032 32.6126 77.7954 32.6915C77.4094 32.838 76.9387 33.0167 76.8034 32.9523C75.4518 32.3098 79.2791 30.3538 79.7095 30.2467ZM24.6216 43.8143C24.6221 43.8077 24.6225 43.8012 24.623 43.7947C24.6256 43.8037 24.6281 43.8125 24.6305 43.8213L24.6216 43.8143ZM24.6761 43.9742C24.6605 43.9249 24.6454 43.8738 24.6305 43.8213C24.9061 44.0403 25.1557 44.2797 25.4043 44.5184H25.4045L25.4046 44.5187C25.7376 44.8381 26.0689 45.1561 26.459 45.4211C27.2704 45.9723 28.2353 46.2638 29.1968 46.4701C30.9653 46.8495 33.3825 46.7547 35.0688 46.0089C36.6277 45.3194 37.613 44.0754 38.4802 42.6312C38.6097 42.4154 38.6858 42.1807 38.7591 41.9541C38.9169 41.4667 39.0623 41.0181 39.7009 40.8825C40.1356 40.7902 40.6553 40.9617 41.1825 41.1358C41.6106 41.2769 42.0436 41.4199 42.4402 41.4245C43.2983 41.4343 44.4112 41.0431 45.1122 40.5148C45.3483 40.3367 45.5162 39.9877 45.676 39.6557V39.6556C45.8404 39.3138 45.9963 38.9897 46.2092 38.8883C46.3769 38.8085 46.6524 38.9266 46.8908 39.0289C47.0033 39.077 47.1075 39.1218 47.1882 39.1404C47.6298 39.2428 48.0693 39.2749 48.5124 39.1586C49.0864 39.0079 50.0188 38.5938 50.4664 38.2018C50.7064 37.9917 50.8478 37.569 50.9839 37.1621C51.1234 36.7453 51.2572 36.3453 51.4858 36.2079C51.6772 36.093 52.0068 36.1812 52.3422 36.2707C52.5984 36.3391 52.8579 36.4084 53.0618 36.3889C54.5784 36.2441 55.6125 35.3759 56.1954 33.9846C56.239 33.8802 56.2855 33.6543 56.3388 33.3947C56.4449 32.8784 56.5782 32.2294 56.7718 32.1421C56.8862 32.0907 57.4923 32.3112 57.9317 32.4711C58.1269 32.5421 58.2892 32.6011 58.3612 32.6192C59.837 32.9892 61.6873 33.7774 62.9665 34.5766C63.947 35.1893 65.0685 35.5942 66.1825 35.9965L66.1826 35.9966L66.1829 35.9968C66.8153 36.225 67.4454 36.4525 68.0459 36.7166C69.428 37.3244 70.776 38.0541 72.0516 38.831C73.5525 39.7453 74.9132 40.671 76.1366 41.9459L76.1878 41.9992L76.2551 42.0693C77.4192 43.2811 78.7777 44.6952 79.2825 46.3163C79.4716 46.9236 79.5359 47.5761 79.5995 48.2239V48.2242V48.2244C79.6351 48.5844 79.6703 48.943 79.7269 49.2914C79.8283 49.9174 79.9868 50.524 80.1455 51.132C80.2342 51.4714 80.3229 51.8113 80.4019 52.155C80.8199 53.9748 80.9865 56.1285 80.9741 58.0001C80.9731 58.1568 80.9813 58.3027 80.989 58.4372C81.0194 58.967 81.0395 59.3189 80.4326 59.4569C79.9432 59.5681 79.2746 59.4297 78.6552 59.3014C78.3341 59.235 78.0262 59.1712 77.7633 59.1464C77.0996 59.0834 76.4532 59.1015 75.8033 59.1197H75.803H75.8027H75.8023H75.802C75.4591 59.1293 75.1151 59.139 74.7671 59.1367C74.4769 59.1348 74.181 59.1173 73.8829 59.0997C73.2425 59.0617 72.5922 59.0233 71.968 59.1383C70.855 59.3433 69.6999 59.3892 68.5376 59.4353C68.0982 59.4527 67.6579 59.4702 67.2186 59.4963C66.7304 59.5253 66.2418 59.5282 65.7534 59.531C65.1576 59.5345 64.5618 59.5379 63.9671 59.589C63.893 59.5953 63.7201 59.6264 63.4988 59.6665C62.8101 59.7907 61.6537 59.9996 61.5556 59.8053C61.4438 59.5839 61.9639 58.648 62.3618 57.9316C62.5405 57.6102 62.6944 57.3331 62.7559 57.1843C63.1326 56.2728 63.4683 55.3391 63.6514 54.367C63.961 52.7213 64.0709 51.13 64.0844 49.4747C64.0998 47.5605 63.7675 45.7568 63.251 43.926C63.2384 43.8815 63.2223 43.8117 63.2021 43.7245C63.0605 43.1112 62.7204 41.6383 62.027 42.0831C61.6088 42.3515 61.8489 43.5222 61.9835 44.1782C62.0155 44.3341 62.0415 44.4609 62.0513 44.5397C62.0985 44.9164 62.1628 45.2903 62.227 45.6637C62.3262 46.2398 62.4253 46.8153 62.461 47.4001C62.4677 47.509 62.4817 47.6378 62.4968 47.7761C62.5406 48.1785 62.5932 48.6606 62.4967 48.963C62.4631 49.0685 62.4478 49.1446 62.4371 49.1989C62.4252 49.2588 62.4186 49.2919 62.3984 49.3084C62.3731 49.3291 62.3267 49.3238 62.222 49.3119C62.1709 49.3061 62.106 49.2986 62.0231 49.2919C61.5953 49.2574 61.1037 48.9696 60.6348 48.6952C60.3278 48.5154 60.0308 48.3415 59.7679 48.2483C58.9225 47.9482 58.0876 47.7684 57.2108 47.6093C55.3175 47.2661 53.4203 47.1404 51.4942 47.1464C51.0304 47.148 50.5446 47.2301 50.0599 47.3121H50.0598C49.4946 47.4075 48.9313 47.5028 48.4066 47.4696C48.3684 47.4673 48.3309 47.4647 48.2939 47.4624C47.6384 47.4204 47.152 47.3892 46.4011 47.5293C46.5215 46.8702 46.8148 46.2415 47.1084 45.6121C47.4421 44.8967 47.7762 44.1805 47.8572 43.4181C48.0634 41.4772 46.4489 42.7901 45.9094 43.5612C45.132 44.6723 44.5119 45.8437 44.3155 47.2175C44.2784 47.4771 44.3111 47.7387 44.3433 47.9963C44.3787 48.2784 44.4134 48.5557 44.3552 48.8204C44.2832 49.1472 44.0475 49.508 43.822 49.8533C43.6833 50.0655 43.5484 50.272 43.4576 50.4613C42.9008 51.6213 42.5131 52.8367 42.1476 54.0671C42.1189 54.1638 42.0963 54.2542 42.0755 54.3365V54.3366C41.9681 54.7653 41.9153 54.9759 41.3502 54.7184C41.0889 54.5994 40.8837 54.3678 40.6818 54.1399C40.5649 54.008 40.4492 53.8771 40.3241 53.7701C38.6641 52.3481 36.9129 51.0286 34.9955 49.9382C32.9923 48.799 31.0395 48.2675 28.7688 48.0281C28.6427 48.0148 28.4965 48.0027 28.3371 47.9894H28.3368C27.4251 47.9139 26.0857 47.8029 25.6544 47.2381C25.2739 46.7403 25.0919 45.8494 24.9271 45.0425C24.8463 44.6477 24.7698 44.273 24.6761 43.9742ZM25.9674 43.4251C25.3727 43.1385 24.6962 42.8127 24.623 43.7947C24.5438 43.5124 24.4719 43.1911 24.3966 42.8558C24.1886 41.9273 23.9565 40.8916 23.483 40.2802C23.3504 40.1091 23.1876 40.0567 23.0372 40.0083C22.9188 39.9703 22.808 39.9346 22.7255 39.8453C22.5297 39.6333 22.505 39.1813 22.4852 38.8228V38.8227V38.8225C22.4783 38.6938 22.4718 38.5772 22.4584 38.488C22.4265 38.2754 22.393 38.0664 22.3599 37.8595L22.3597 37.8588V37.8586V37.8583C22.1952 36.8308 22.0391 35.8568 22.1293 34.7784C22.1321 34.7449 22.1342 34.6869 22.137 34.6133C22.1501 34.2686 22.1762 33.5838 22.3364 33.4872C22.4918 33.3936 22.9317 33.5179 23.2952 33.6204V33.6206C23.4815 33.673 23.6477 33.72 23.7453 33.7291C24.3268 33.7833 24.9124 33.8581 25.4992 33.933C27.1618 34.1452 28.8351 34.3589 30.4564 34.1098C32.4253 33.8076 34.3139 33.1686 36.1292 32.3509C36.1683 32.5667 36.2698 32.7399 36.4337 32.8705C36.4909 32.7864 36.5411 32.7069 36.5884 32.6323C36.8376 32.239 37.0016 31.9799 37.647 31.8787C38.1369 31.8019 38.8145 31.9541 39.2207 32.26C40.7927 33.4427 39.0003 34.6088 37.9668 35.1394C39.2442 36.5445 39.6467 39.5194 38.1762 40.9553C37.9665 41.1601 37.756 41.3477 37.5476 41.5338L37.5473 41.534C37.1755 41.8657 36.8094 42.1923 36.4629 42.6014C35.8967 43.27 35.4439 43.7894 34.6236 44.0294C34.5263 44.0578 34.4262 44.0876 34.3237 44.1179C33.5145 44.358 32.5637 44.6401 31.7742 44.6812C31.1939 44.7115 30.5715 44.5911 29.9715 44.4752C29.696 44.4218 29.4251 44.3695 29.1653 44.333C28.1387 44.1892 27.1442 43.9604 26.1953 43.5325C26.1217 43.4994 26.0453 43.4626 25.9674 43.4251ZM23.5089 55.5277C23.5685 55.6008 23.681 55.7246 23.8258 55.8844C24.6926 56.8393 26.7235 59.0769 25.6134 59.4022C25.1381 59.5415 24.3848 58.7613 23.8529 58.2105C23.6848 58.0362 23.5387 57.8849 23.4304 57.7928C22.7325 57.1992 22.0014 56.8091 21.1503 56.4815C19.0731 55.6823 17.1937 54.964 14.9317 55.2959C14.6075 55.3435 14.26 55.4231 13.9047 55.5045C13.197 55.6667 12.4581 55.836 11.8096 55.773C10.8292 55.6779 11.0832 54.8034 11.6963 54.3152C11.904 54.1498 12.1429 54.0648 12.3723 53.983C12.748 53.8491 13.0987 53.7242 13.2481 53.27C13.3541 52.9471 13.3641 52.587 13.3742 52.2219C13.3872 51.7517 13.4005 51.2733 13.6197 50.8563C13.9524 50.2238 14.7367 49.5674 15.3421 49.201C15.4299 49.1477 15.5388 49.0998 15.65 49.051C15.8726 48.9532 16.1045 48.8513 16.1964 48.6943C16.2816 48.549 16.038 47.8846 15.8851 47.4675V47.4674C15.835 47.3311 15.7947 47.2212 15.7788 47.1645C15.6965 46.8711 15.6121 46.5777 15.5279 46.284C15.2881 45.4492 15.0478 44.6125 14.8496 43.7697C14.6011 42.7136 14.5364 42.1664 15.6488 41.7832C16.5629 41.4681 17.5009 41.2432 18.437 41.0189C19.2395 40.8267 20.0406 40.6347 20.8244 40.3864C20.6216 39.8579 20.1279 39.9852 19.6209 40.1162C19.3755 40.1796 19.127 40.2438 18.9066 40.2348C18.0787 40.2015 17.1207 39.9291 16.3323 39.6747C14.5425 39.097 13.3246 37.6569 13.048 35.7998C13.0224 35.6286 13.0414 35.3852 13.0612 35.1336C13.0882 34.7865 13.1164 34.4241 13.0305 34.2152C12.9326 33.9769 12.7093 33.8244 12.4848 33.6711C12.3887 33.6054 12.2925 33.5397 12.2057 33.4669C11.4604 32.8422 10.8002 31.9846 10.3981 31.097C9.99516 30.2074 9.96704 29.2081 10.2013 28.2693C10.2202 28.1933 10.2379 28.127 10.2537 28.0675C10.3461 27.7221 10.3763 27.609 10.2207 27.1918C10.1225 26.9285 9.9953 26.6786 9.86784 26.428C9.72149 26.1402 9.57457 25.8515 9.47048 25.5408C9.15161 24.5884 8.97769 23.5617 8.99504 22.5559C9.00805 21.8121 9.20911 21.3388 9.4306 20.8175C9.54505 20.548 9.66482 20.2658 9.76696 19.9268C9.90856 19.4571 9.84979 18.8799 9.79145 18.3054C9.75227 17.9197 9.71309 17.535 9.73492 17.1851C9.80404 16.0702 10.0895 15.1745 10.5821 14.1822C11.3391 12.6575 12.5377 11.0232 14.0981 10.2237C14.2401 10.1508 14.4245 10.1095 14.6089 10.0682C14.8247 10.0198 15.0407 9.97155 15.1893 9.87235C15.462 9.6906 15.5346 9.44015 15.6205 9.14367C15.6426 9.06769 15.6654 8.98878 15.6927 8.90721C16.0126 7.95311 16.4119 7.18021 17.1035 6.45069C19.3466 4.08512 23.2772 3.2473 26.4294 3.44696C26.6325 3.45983 26.8322 3.50264 27.0295 3.5449C27.3822 3.62045 27.7275 3.69433 28.0717 3.59345C28.2742 3.53399 28.4833 3.39183 28.6938 3.24897C28.8695 3.12949 29.0461 3.00958 29.2204 2.93654C29.7055 2.73366 30.1914 2.61487 30.7133 2.56296C31.744 2.46026 32.5822 2.56884 33.5321 2.91681C33.8136 3.02007 34.0856 3.13061 34.3605 3.2424L34.3608 3.24254C34.4361 3.27318 34.5116 3.30382 34.5876 3.33447C35.0139 3.5067 35.0959 3.48473 35.345 3.41813C35.4219 3.39757 35.5148 3.37266 35.6387 3.34804C36.6847 3.1397 37.2856 3.29389 38.2124 3.74022C38.3028 3.78374 38.4124 3.82319 38.5254 3.86377C38.7213 3.93429 38.9278 4.00844 39.0624 4.11394C39.1989 4.22112 39.2986 4.42749 39.3982 4.63345C39.518 4.8811 39.6375 5.1282 39.8202 5.20123C39.9394 5.24908 40.2183 5.15338 40.4662 5.06845C40.6046 5.02102 40.7333 4.97695 40.8191 4.96295C41.0999 4.9172 41.3768 4.92868 41.6544 4.94015C41.7943 4.94589 41.9344 4.95176 42.0753 4.95022C42.8192 4.94211 43.6057 4.96981 44.285 5.32156C44.7109 5.54207 45.209 5.933 45.6181 6.25411C45.7005 6.31875 45.7793 6.38059 45.853 6.43754C46.0888 6.61957 46.2904 6.86428 46.4929 7.11026C46.8141 7.50034 47.1379 7.89351 47.6048 8.04476C47.7595 8.09485 47.9207 8.09261 48.0827 8.09037C48.2327 8.08841 48.3834 8.08632 48.5298 8.12591C48.9266 8.23309 49.3076 8.52048 49.629 8.77429C49.8597 8.9566 50.0756 9.23951 50.2898 9.52032C50.5888 9.91209 50.8843 10.2995 51.2124 10.4029C51.3986 10.4615 51.6359 10.4608 51.8804 10.4601C52.1293 10.4593 52.3854 10.4586 52.6023 10.5204C53.142 10.6744 53.5893 10.8975 53.9893 11.3058C54.7524 12.0847 54.9679 13.2362 55.0006 14.2925C55.0033 14.3805 54.9885 14.5179 54.9717 14.6733C54.934 15.0209 54.8866 15.458 55.0045 15.6326C55.0846 15.7512 55.282 15.8433 55.4846 15.9377C55.6651 16.0218 55.8495 16.1077 55.9589 16.216C56.6852 16.9352 57.0133 18.1337 57.0868 19.119C57.1493 19.9564 57.0042 20.6097 56.8435 21.3332C56.7885 21.581 56.7317 21.8369 56.6808 22.1113C56.641 22.3252 56.5976 22.4271 56.5753 22.4795C56.5631 22.5081 56.5572 22.5219 56.5614 22.5313C56.5655 22.5403 56.5788 22.545 56.6049 22.5543C56.6588 22.5734 56.7674 22.6119 56.9611 22.7472C57.3497 23.0184 57.6181 23.2081 57.8699 23.6337C58.3967 24.5237 58.5292 25.573 58.4422 26.5872C58.3778 27.3376 58.126 27.9745 57.8714 28.6184C57.6967 29.0605 57.5207 29.5059 57.4031 29.9934C58.4755 29.9934 59.6144 30.2218 60.6965 30.4388C60.9565 30.491 61.2131 30.5425 61.4648 30.59C61.8192 30.657 62.1147 30.8186 62.4166 30.9837H62.4168H62.4169C62.5231 31.0419 62.6301 31.1004 62.7408 31.1554C62.9718 31.2701 63.1659 31.321 63.3643 31.3731C63.4814 31.4039 63.5999 31.4349 63.7284 31.4798L63.7521 31.4881C64.1453 31.6252 64.312 31.6834 64.445 31.6395C64.543 31.6072 64.6227 31.5197 64.7609 31.3676C64.8228 31.2999 64.8961 31.2193 64.988 31.125C67.3113 28.7417 70.6185 27.3028 73.9536 27.3496C75.8138 27.3755 77.6133 27.6211 79.3523 28.2907L79.448 28.3275C80.1434 28.5947 80.9026 28.8865 81.5139 29.3024C82.2425 29.7986 82.3611 29.801 83.2967 29.8204L83.3441 29.8214C86.8903 29.895 90.3314 31.7997 92.9122 34.1082C93.1048 32.8139 94.8934 31.9527 96.1866 31.3301C96.4406 31.2078 96.6755 31.0948 96.8755 30.9894C96.9535 30.9483 97.0305 30.9108 97.1052 30.8744C97.4288 30.7167 97.7123 30.5788 97.8787 30.2449C97.9905 30.0206 98.0331 29.6581 98.0748 29.305V29.3048C98.1045 29.0526 98.1337 28.8052 98.187 28.6164C98.4221 27.7846 98.6938 26.7669 98.6725 25.8896C98.6418 24.6019 98.4755 23.3174 98.3092 22.032C98.1473 20.7821 97.9856 19.5314 97.9479 18.2763C97.9433 18.1203 97.9355 17.9597 97.9274 17.7967C97.9027 17.2919 97.877 16.7651 97.9412 16.2866C97.9588 16.1548 97.9875 16.0358 98.0145 15.9239C98.092 15.6019 98.156 15.3365 97.9078 14.9863C97.6465 14.6179 97.2946 14.3631 96.9436 14.1087C96.4406 13.7445 95.939 13.3813 95.707 12.6866C95.0724 10.7854 96.1627 8.8413 97.6514 7.7105C97.9684 7.46984 98.2827 7.29928 98.5876 7.13376C99.1076 6.85169 99.6003 6.58417 100.033 6.00897C100.263 5.70409 100.479 5.37851 100.696 5.05152C101.065 4.49647 101.437 3.93709 101.88 3.46669C102.095 3.23974 102.302 2.98481 102.511 2.72722H102.511C102.88 2.27362 103.256 1.81147 103.688 1.47889C104.383 0.944127 105.404 0.582723 106.234 0.328634C108.226 -0.281403 110.672 -0.135749 112.074 1.56802C113.503 3.30508 111.398 5.76132 110.204 6.97342C109.892 7.29033 109.609 7.63383 109.325 7.9776C109.082 8.27199 108.839 8.56665 108.578 8.84494C108.313 9.12701 108.017 9.38068 107.724 9.63058C107.399 9.90873 107.079 10.1821 106.814 10.4852C106.738 10.5724 106.66 10.6608 106.581 10.7503C106.114 11.2806 105.614 11.8487 105.236 12.4302C105.165 12.5406 105.085 12.654 105.002 12.7704C104.763 13.1083 104.508 13.4697 104.405 13.8415C104.28 14.2892 104.298 14.2969 104.393 14.3374C104.45 14.3617 104.536 14.3982 104.635 14.5513C104.687 14.6316 104.733 14.6974 104.773 14.7552C104.939 14.9962 105.013 15.1022 105.086 15.5686C105.175 16.1308 105.301 16.5423 105.605 17.0227C105.707 17.185 105.812 17.3453 105.916 17.5052L105.916 17.5054L105.916 17.5059L105.917 17.5068L105.917 17.5077C106.32 18.1263 106.718 18.7382 106.998 19.4326C107.371 20.356 107.657 21.2908 107.946 22.2357L107.946 22.2358V22.236V22.2361L107.946 22.2362C108.021 22.4816 108.096 22.7278 108.173 22.9743C108.215 23.1074 108.252 23.2459 108.29 23.3859L108.29 23.3863L108.291 23.3869L108.291 23.3875C108.386 23.7384 108.484 24.0988 108.652 24.4059C108.98 25.0064 109.031 24.9673 109.505 24.6038L109.53 24.5846C109.903 24.2983 110.278 24.008 110.654 23.7165L110.655 23.7158C111.773 22.8492 112.904 21.9719 114.061 21.161C114.948 20.54 115.868 19.9319 116.803 19.3879C116.906 19.3283 117.027 19.2615 117.159 19.1881C117.858 18.8018 118.875 18.2395 119.145 17.657C119.32 17.2811 119.312 16.9179 119.304 16.5619C119.293 16.0476 119.282 15.5485 119.821 15.0484C120.415 14.4973 121.384 14.1917 122.159 14.0578C122.967 13.9182 123.837 14.029 124.678 14.1358C124.976 14.1737 125.27 14.211 125.556 14.2366C126.661 14.3354 127.742 14.2278 128.826 14.0017C129.206 13.9224 129.666 13.7608 130.163 13.5863H130.163C131.835 12.9992 133.919 12.2673 134.748 14.0412C135.116 14.8265 135.003 15.6781 134.894 16.5044C134.863 16.7375 134.832 16.9686 134.812 17.1957C134.736 18.0951 134.471 19.05 133.911 19.7899C133.378 20.4938 132.642 20.6423 131.851 20.8019H131.851C131.692 20.834 131.531 20.8664 131.369 20.9041C130.785 21.0391 130.194 21.1303 129.602 21.2217C129.033 21.3096 128.464 21.3973 127.902 21.5241C127.337 21.6514 126.78 21.7134 126.2 21.7401C125.962 21.7511 125.675 21.7125 125.39 21.6742C125.059 21.6296 124.73 21.5853 124.487 21.6209C124.237 21.6573 124.182 21.7643 124.12 21.8843C124.076 21.9708 124.028 22.0639 123.902 22.1425C123.838 22.1825 123.739 22.1866 123.648 22.1901C123.566 22.1934 123.49 22.1964 123.454 22.2256C123.263 22.3791 123.196 22.5147 123.07 22.7685L123.068 22.7723L123.067 22.7746L123.065 22.7784L123.045 22.8174L123.031 22.8463C122.645 23.6164 122.103 24.3708 121.583 25.0938C121.448 25.2817 121.315 25.4673 121.186 25.6506C121.146 25.707 121.106 25.7644 121.066 25.8226L121.032 25.871C121 25.9166 120.968 25.9626 120.936 26.0091C120.471 26.6773 119.955 27.4194 119.432 27.9839C118.589 28.8943 117.761 29.8642 116.934 30.8341L116.933 30.8345C116.474 31.3735 116.014 31.9125 115.551 32.4411C114.893 33.1941 114.103 33.9952 113.337 34.6425C113.256 34.7113 113.146 34.7778 113.032 34.8468V34.8469C112.814 34.9782 112.582 35.1185 112.503 35.3019C112.378 35.5909 112.59 36.1311 112.757 36.5592C112.821 36.7221 112.878 36.8689 112.909 36.9793C113.034 37.4376 113.107 37.9033 113.179 38.3675C113.258 38.8685 113.336 39.368 113.48 39.8552C113.744 40.7528 113.839 41.7317 113.898 42.6674C113.939 43.3267 113.996 43.9755 114.052 44.6202V44.6211C114.176 46.0443 114.298 47.4484 114.252 48.9045C114.193 50.7294 114.126 52.4795 113.492 54.2714C112.916 55.9023 111.187 57.6778 109.58 58.2788C108.624 58.6365 107.735 58.9617 106.772 59.1556L106.593 59.1917C105.696 59.3722 104.76 59.5604 103.875 59.8132C102.124 60.3136 100.278 60.663 98.4589 60.8344C96.1307 61.0536 93.7019 61.0746 91.3797 60.994C90.3208 60.9572 89.2324 60.955 88.1873 60.9582C87.4631 60.9603 86.7672 61.0564 86.0617 61.1539C85.7122 61.2022 85.3602 61.2507 85.0014 61.2884C83.0797 61.4899 81.1029 61.5086 79.1267 61.5272C77.1745 61.5457 75.2228 61.5642 73.3254 61.7589C72.692 61.8238 72.0589 61.909 71.4246 61.9944H71.4243H71.4241C70.1689 62.1634 68.9093 62.3329 67.634 62.3477C66.6711 62.3587 65.7005 62.328 64.7377 62.2976C63.9817 62.2737 63.2304 62.2499 62.4912 62.2465C62.3755 62.246 62.2631 62.2477 62.1526 62.2492C61.7534 62.2549 61.378 62.2602 60.9609 62.1644C60.8798 62.1458 60.7893 62.1116 60.6947 62.076L60.6945 62.0758C60.4613 61.9878 60.2032 61.8904 60.0014 61.9934C59.8314 62.0802 59.6899 62.3585 59.5684 62.5979C59.5128 62.7073 59.4613 62.8086 59.4132 62.8798C59.0775 63.3762 58.6685 63.7748 58.2368 64.1865C56.5225 65.8203 54.8238 66.3706 52.5741 66.9693C51.5412 67.2442 51.0313 67.3879 50.1641 68.017C49.4578 68.5293 48.743 68.8975 47.9299 69.1996C46.3352 69.792 44.4546 69.3337 42.9558 68.8197C42.7288 68.7419 42.4984 68.6663 42.2661 68.5902C41.7551 68.4226 41.2355 68.2522 40.7258 68.049C40.2086 67.8431 39.7378 67.5673 39.2677 67.2921C38.8198 67.0297 38.3727 66.7679 37.8869 66.5673C37.9589 67.2374 37.527 67.6266 37.1106 68.002C36.8669 68.2215 36.6286 68.4363 36.4996 68.6998C36.3882 68.9273 36.3651 69.2189 36.3413 69.5186C36.317 69.8262 36.2919 70.1423 36.1699 70.4063C35.9466 70.8899 35.6015 71.347 35.0631 71.4736C34.3295 71.6459 33.018 70.8297 32.5027 70.3536C32.3888 70.2484 32.2798 70.0735 32.1678 69.8935C31.9983 69.6217 31.8219 69.3385 31.6109 69.268C31.3017 69.1643 30.8181 69.4405 30.4038 69.6771C30.206 69.7901 30.0238 69.8941 29.8842 69.9433C27.8147 70.6739 25.7175 71.0185 23.4954 70.7274C21.4528 70.4599 19.5646 69.777 17.6553 69.0865C17.4601 69.016 17.2647 68.9453 17.0688 68.8749C12.9338 67.3903 9.33462 64.9462 6.09673 62.0034C6.03984 61.9516 5.97487 61.9016 5.90866 61.8507C5.76519 61.7405 5.61598 61.6257 5.531 61.479C5.47156 61.3763 5.44752 61.197 5.4263 61.0388C5.40878 60.9081 5.39316 60.7917 5.36111 60.7444C5.18828 60.4893 4.945 60.4801 4.6452 60.4687H4.64504C4.57888 60.4662 4.50995 60.4636 4.43841 60.4583C3.21596 60.3659 2.24487 60.0707 1.29734 59.2515C-0.194004 57.962 -0.745681 54.9556 1.54049 54.1571C2.12486 53.9528 2.76805 53.9123 3.37215 54.038C3.47281 54.059 3.68405 54.1633 3.91571 54.2774C4.25753 54.446 4.64384 54.6365 4.78495 54.6141C5.04064 54.5734 5.07878 54.3272 5.11404 54.0997C5.12829 54.008 5.14204 53.9191 5.16948 53.848C5.41134 53.2225 5.75166 52.6717 6.16195 52.1409C6.84386 51.2584 7.67484 50.3714 8.52758 49.6533C9.35882 48.9529 10.2656 48.6021 11.24 48.2252C11.3514 48.1821 11.4636 48.1387 11.5768 48.0944C12.3197 47.8034 13.77 47.3036 14.5569 47.564C15.5818 47.9031 15.08 49.0231 14.4343 49.4149C13.9743 49.694 13.4682 49.891 12.9606 50.0887C12.4506 50.2873 11.9389 50.4864 11.4706 50.7701C10.7059 51.2335 9.99055 51.8239 9.28691 52.4042C9.04149 52.6068 8.79748 52.808 8.55332 53.0024C8.20045 53.2832 7.86956 53.5945 7.53897 53.9055C7.15785 54.264 6.77718 54.6222 6.36398 54.9325C6.15939 55.0862 5.82528 55.3549 5.7617 55.4399C5.75472 55.4491 5.75265 55.4795 5.74991 55.5198C5.74398 55.6072 5.73481 55.7418 5.66562 55.8146C5.65099 55.8298 5.63695 55.8446 5.62347 55.8589L5.58849 55.8959C5.42656 56.0672 5.34782 56.1506 5.25332 56.1765C5.16384 56.201 5.06026 56.174 4.8586 56.1214C4.7975 56.1054 4.72738 56.0871 4.64594 56.0672C3.84911 55.8723 1.94693 55.4315 1.40969 56.4194C0.936285 57.2898 2.82338 58.0759 3.51245 58.363L3.55501 58.3808C4.34843 58.7117 4.6361 59.044 5.10263 59.5827C5.197 59.6916 5.29868 59.809 5.41335 59.9366C5.90482 60.4839 6.62505 60.9077 7.31352 61.3127C7.60308 61.4831 7.88701 61.6502 8.14602 61.8217C9.57345 62.7673 11.1346 63.5055 12.6855 64.2387L12.6859 64.2389L12.6866 64.2392C13.1892 64.4768 13.6906 64.714 14.1861 64.9574C16.1446 65.9198 18.2491 66.6142 20.2908 67.2877L20.327 67.2996C21.5664 67.7085 23.0518 68.1472 24.3526 68.2732C25.6633 68.4002 26.8925 68.1866 28.1785 67.9364C28.6927 67.8363 29.0809 67.7597 29.6188 67.5701C29.7068 67.539 29.8155 67.5176 29.927 67.4958C30.1187 67.4581 30.3189 67.4188 30.4391 67.3254C30.647 67.1638 30.6473 67.0251 30.6478 66.8201C30.648 66.7345 30.6481 66.6373 30.6635 66.522C30.8521 65.1053 31.6962 66.1638 32.2815 66.8976C32.4051 67.0527 32.5171 67.1933 32.6091 67.2929C32.6929 67.3837 32.7763 67.4789 32.8608 67.5751L32.8611 67.5755C33.1864 67.9462 33.5261 68.3333 33.9509 68.5551C34.6213 68.9049 34.7378 68.7401 34.9576 68.163C35.0155 68.011 35.0682 67.8558 35.1207 67.702C35.4403 66.7642 35.7426 65.8768 37.0781 66.0132C36.846 65.8145 36.6159 65.6216 36.3882 65.4306C35.4126 64.6122 34.4824 63.8322 33.6306 62.809C32.9401 61.9797 32.2796 61.1093 31.6217 60.2422L31.6215 60.2421L31.6208 60.2411C31.2915 59.8069 30.9627 59.3736 30.6311 58.9469C30.3644 58.6037 30.109 58.2178 29.8491 57.8249C29.3146 57.0173 28.7608 56.1803 28.0493 55.6238C27.7151 55.3623 26.6988 54.7597 26.312 54.7725C26.0195 54.782 25.7436 55.028 25.4618 55.2792C25.1858 55.5255 24.904 55.7769 24.5953 55.8158C23.9065 55.9028 23.5893 55.6623 23.3926 55.1031C23.284 54.7943 23.3713 54.4607 23.4519 54.1526C23.5229 53.8818 23.5886 53.6306 23.5115 53.4332C23.4897 53.3773 23.4121 53.3163 23.3268 53.2493C23.2328 53.1753 23.1294 53.0942 23.0819 53.0047C22.9456 52.7487 22.9358 52.4119 22.9765 52.1285C23.0001 51.9643 23.0371 51.8378 23.0716 51.7198V51.7196C23.1261 51.5332 23.1745 51.3676 23.155 51.1071C23.1427 50.9434 23.1107 50.7942 23.0796 50.6491C23.0168 50.356 22.9576 50.0795 23.0719 49.7334C23.1914 49.371 23.4766 49.1177 23.7553 48.8704C23.8945 48.7467 24.032 48.6245 24.1468 48.4909C24.5865 47.978 24.4653 47.5716 24.2912 46.9878C24.259 46.8802 24.2251 46.7664 24.1925 46.645C23.9587 45.7726 23.7048 44.9055 23.4505 44.0383C23.2183 43.2454 22.9859 42.4524 22.769 41.6553C22.3459 41.7892 21.9266 41.9303 21.5076 42.0712L21.5072 42.0714L21.5069 42.0715L21.5058 42.0719C20.8913 42.2787 20.2775 42.4853 19.6536 42.6683C19.4012 42.7424 19.1338 42.8146 18.8601 42.8885C18.0387 43.1103 17.16 43.3474 16.4572 43.6981C16.3249 43.7641 16.2322 43.8003 16.1686 43.8252C16.0974 43.8531 16.0624 43.8668 16.0484 43.8921C16.0347 43.9166 16.0408 43.9521 16.053 44.0221C16.0646 44.09 16.082 44.1903 16.0923 44.3446C16.1091 44.599 16.183 44.8722 16.2553 45.1392C16.2977 45.2959 16.3395 45.4505 16.3688 45.5977C16.4045 45.7768 16.4353 46.0249 16.4697 46.3026C16.5766 47.1656 16.7191 48.3164 17.1548 48.5821C17.2991 48.6701 17.4797 48.6689 17.6692 48.6675C17.9375 48.6657 18.2234 48.6636 18.4482 48.9154C18.6385 49.1284 18.683 49.3983 18.7274 49.6663C18.7581 49.8533 18.7889 50.0392 18.8687 50.2043C18.9346 50.3405 19.0339 50.4307 19.1344 50.5218C19.2181 50.5976 19.3024 50.6743 19.3685 50.7787C19.6153 51.1686 19.6402 51.5082 19.6696 51.9105C19.6763 52.0031 19.6833 52.0989 19.6934 52.1995C19.7031 52.2989 19.7057 52.4561 19.7085 52.6355C19.7153 53.0681 19.7243 53.6293 19.8433 53.8153C20.0031 54.0649 20.2744 54.1062 20.5529 54.1486C20.6659 54.1658 20.7801 54.1831 20.8885 54.2148C21.8344 54.4901 22.7056 54.9692 23.5089 55.5277ZM27.3062 40.3289C27.131 40.8771 26.3271 41.4972 25.6821 41.1674C24.8799 40.7574 24.8052 39.1404 25.0252 38.4503C25.3978 37.2808 25.711 38.8148 25.7768 39.2768C25.7853 39.3366 25.7905 39.392 25.7954 39.4432C25.8155 39.6577 25.829 39.7991 26.0457 39.8803C26.1406 39.9158 26.2746 39.9011 26.4161 39.8856C26.5807 39.8676 26.7558 39.8484 26.8915 39.9059C27.1082 39.998 27.1445 40.0587 27.2489 40.2339C27.2658 40.2623 27.2845 40.2937 27.3062 40.3289ZM22.6772 36.8488C22.6407 37.6184 23.8419 39.9897 24.2008 38.2711C24.1718 37.7583 23.9104 36.8533 23.5703 36.4518C23.0838 35.878 22.7112 36.1389 22.6772 36.8488ZM25.8072 35.9209C25.8072 35.1767 26.2599 35.0295 26.8248 35.5114C27.4077 36.0085 27.5981 36.8389 27.6585 37.5249C27.7243 38.2687 27.5544 38.5848 26.8137 38.1068C26.1652 37.6883 25.8407 36.5739 25.8072 35.9209ZM29.6588 41.33C28.6584 41.2544 27.4957 43.1342 28.725 42.9871C29.1887 42.9575 30.1163 42.6232 30.2519 42.0897C30.3591 41.6673 30.0662 41.3609 29.6588 41.33ZM37.2592 33.7412C37.2029 32.9656 38.397 32.5605 38.5516 33.3827C38.6973 34.1588 36.9787 34.9565 37.2592 33.7412ZM18.3661 45.5297C18.3732 44.5555 17.183 42.9845 16.7576 44.5728C16.8183 45.0552 17.0195 46.33 17.6836 46.439C18.2154 46.5263 18.3627 45.9574 18.3661 45.5297Z" fill="#432C7A"/>
</svg>
