<svg width="166" height="89" viewBox="0 0 166 89" fill="none" xmlns="http://www.w3.org/2000/svg">
<path fill-rule="evenodd" clip-rule="evenodd" d="M30.1506 54.3875L30.5982 60.0022L39.1047 62.0233L45.5965 64.943L50.7451 69.4348L53.2075 67.4135L56.3415 60.4514L59.923 59.7776L72.9065 61.1251L77.3837 62.4725L75.8167 70.1085L74.2498 75.7231L100.217 74.1509L99.3213 61.1251L93.9488 49.2221L72.6828 38.8912L56.7891 40.9125L45.5965 53.2646L40.6717 55.9596L31.9415 55.5104" fill="#FF5678"/>
<path fill-rule="evenodd" clip-rule="evenodd" d="M17.764 65.5704C17.764 66.4865 18.3312 66.4285 19.0182 66.3582C19.2523 66.3342 19.5006 66.3087 19.745 66.3202C19.8941 66.327 20.1456 66.3711 20.4438 66.4233L20.444 66.4235C21.3168 66.5765 22.5908 66.7999 22.8744 66.368C23.1455 65.9548 22.7676 65.8984 22.3822 65.841C22.1223 65.8025 21.8592 65.7633 21.7894 65.6137C21.6043 65.2159 21.9674 64.9399 22.3205 64.6715C22.6337 64.4334 22.9391 64.2012 22.847 63.8955C22.7541 63.5871 22.3394 63.7622 21.8916 63.9513C21.3946 64.1612 20.8568 64.3881 20.6732 63.9907C20.4981 63.6119 20.9009 63.2609 21.2664 62.9421C21.5757 62.6725 21.8585 62.426 21.7429 62.2053C21.5285 61.7971 19.3563 62.8304 19.079 63.0081C18.2942 63.5103 17.7284 64.6395 17.764 65.5704ZM114.774 43.7942C115.107 44.1536 115.361 44.5771 115.613 44.9971C115.865 45.4177 116.115 45.8348 116.441 46.1812C116.721 46.4793 117.043 46.5951 117.377 46.7149V46.715C117.528 46.7692 117.681 46.8243 117.834 46.8977C118.129 47.0393 118.435 47.193 118.749 47.3503C119.957 47.9562 121.277 48.619 122.533 48.8797C121.607 47.7962 121.019 46.8158 120.469 45.4991C120.413 45.3648 120.353 45.2282 120.292 45.0903C120.14 44.7448 119.984 44.3909 119.879 44.0414C119.768 43.6734 119.746 43.2941 119.725 42.9167C119.706 42.576 119.687 42.2368 119.602 41.9087C119.554 41.7237 119.535 41.5809 119.52 41.475L119.52 41.4745V41.4743C119.503 41.3491 119.493 41.2759 119.452 41.2461C119.393 41.204 119.273 41.248 118.983 41.354L118.959 41.3624L118.924 41.3755L118.886 41.3892C118.634 41.4806 118.4 41.6754 118.173 41.8652C118.03 41.9843 117.89 42.1013 117.748 42.1899C117.312 42.4631 116.858 42.6791 116.405 42.8943C115.846 43.16 115.29 43.4245 114.774 43.7942ZM157.166 24.3405C157.198 24.6807 161.782 23.0447 162.234 22.7446C163.081 22.1832 164.072 19.5998 163.172 18.834C162.361 18.1449 160.58 18.9846 159.291 19.5926C158.852 19.7997 158.47 19.9799 158.203 20.0635C156.433 20.6167 154.394 20.9281 152.549 20.7397C151.713 20.654 150.889 20.583 150.045 20.5307C149.902 20.522 149.738 20.4997 149.563 20.4757C148.959 20.3935 148.221 20.2929 147.8 20.6707C147.285 21.1312 147.347 22.0478 147.609 22.6204C147.7 22.8179 147.809 22.927 147.914 23.0324C148.006 23.1245 148.096 23.2138 148.167 23.3566C148.186 23.3948 148.176 23.4438 148.164 23.5029C148.144 23.5967 148.119 23.7159 148.197 23.8581C148.547 24.4971 149.738 25.5648 150.379 25.8902C150.993 26.2021 151.217 26.0101 151.559 25.7175C151.674 25.6185 151.803 25.5078 151.966 25.4014C153.082 24.6694 154.825 24.5315 156.289 24.4157C156.597 24.3914 156.892 24.3681 157.166 24.3405ZM146.553 24.5384C145.226 26.1584 143.665 27.2848 142.028 28.4658L142.028 28.4662C141.705 28.6997 141.378 28.935 141.05 29.1771C140.606 29.5041 140.168 29.838 139.73 30.1716L139.73 30.1717L139.729 30.1719L139.729 30.1721L139.729 30.1722V30.1724C138.428 31.1628 137.13 32.1511 135.703 32.9576C135.55 33.0446 135.369 33.1217 135.185 33.1998C134.701 33.4061 134.198 33.6202 134.125 34.047C134.061 34.4182 134.502 35.2088 134.871 35.8702C135.052 36.1948 135.216 36.4883 135.294 36.6858C135.997 38.4609 136.538 40.2768 137.083 42.1056C137.16 42.3608 137.236 42.6161 137.312 42.8717L137.445 42.6651C139.268 39.8222 141.116 36.9418 143.35 34.3733C145.369 32.0515 147.44 29.6222 149.206 27.1203C148.137 26.4695 147.252 25.572 146.553 24.5384ZM131.071 3.24356C129.201 3.16853 128.63 4.69542 128.085 6.15739C127.87 6.73162 127.659 7.29592 127.375 7.74904C126.818 8.63694 126.077 9.59028 125.254 10.2546C124.63 10.7578 123.882 11.0545 123.137 11.3503C122.77 11.4954 122.405 11.6405 122.055 11.8094C121.093 12.2742 120.237 12.74 119.637 13.6368C119.579 13.7221 119.515 13.8124 119.449 13.9065C119.032 14.4954 118.507 15.2377 118.806 15.9272C119.014 16.4057 119.58 16.8008 120.135 17.1886C120.529 17.4634 120.917 17.7346 121.17 18.0294C121.89 18.8712 121.992 18.8469 122.804 18.6514C122.936 18.6196 123.087 18.5834 123.262 18.5456C123.889 18.4104 124.484 18.3682 125.124 18.3907C125.202 18.3933 125.335 18.4181 125.49 18.4467C125.85 18.5137 126.327 18.6023 126.488 18.483C126.682 18.3388 126.622 17.8937 126.569 17.5069C126.542 17.3085 126.517 17.1254 126.53 17.0058C126.587 16.4694 126.777 15.9159 126.958 15.4102C127.57 13.6954 128.653 12.4794 129.781 11.2126L129.782 11.2116L129.783 11.2104L129.784 11.209L129.785 11.2078C129.977 10.993 130.17 10.7764 130.362 10.556C131.063 9.74995 131.892 9.06248 132.721 8.37569C133.571 7.67058 134.421 6.96615 135.131 6.13478C135.904 5.22871 135.552 4.58818 134.491 4.16402C134.191 4.04444 133.863 3.99151 133.536 3.93874C133.274 3.89643 133.012 3.85412 132.766 3.77771C132.572 3.71741 132.385 3.63741 132.199 3.55758C131.836 3.4022 131.476 3.24819 131.071 3.24356ZM29.7712 67.2165C30.1359 67.2165 30.4982 67.0676 30.8561 66.9205C31.2424 66.7615 31.6235 66.6047 31.9975 66.6395C32.1781 66.6565 32.3811 66.8274 32.5731 66.9893C32.6968 67.0935 32.816 67.1939 32.9217 67.247C33.3051 67.4388 33.719 67.5344 34.1416 67.5869C34.4205 67.6213 34.6659 67.6216 34.893 67.6218C35.4159 67.6223 35.8414 67.6227 36.3531 68.0407C36.8888 68.4782 37.4418 69.0298 37.956 69.5427C38.0742 69.6607 38.1906 69.7766 38.304 69.8886C39.2446 70.8173 40.0644 71.9275 40.8683 73.0162C41.1717 73.427 41.4729 73.8347 41.7773 74.2284C43.1493 76.003 44.5743 77.4117 46.3996 78.7409C47.8417 79.7907 49.3026 80.4814 50.9267 81.2492L51.0749 81.3195C52.7263 82.1008 54.8034 83.0069 56.6771 83.0499C58.1716 83.0843 60.0397 82.6048 61.3998 81.9669C62.0521 81.6611 62.362 81.6076 62.8944 81.516C63.0078 81.4964 63.1312 81.4752 63.27 81.4495C64.4553 81.2295 65.8208 80.6078 66.9369 80.0997L67.058 80.0446C70.6293 78.4197 72.8925 74.8782 74.503 71.4117C75.4195 69.4389 75.992 67.5111 76.374 65.3766C76.3939 65.2656 76.4136 65.1625 76.4319 65.0667C76.6048 64.1598 76.6552 63.8949 75.6307 63.46C74.7245 63.0754 73.7603 62.8071 72.8068 62.5418C72.5564 62.472 72.3066 62.4025 72.0587 62.331C68.5653 61.3251 64.5836 61.1033 60.9763 61.2569C60.7613 61.266 60.5456 61.2809 60.3299 61.2958H60.3296H60.3294H60.3291H60.3285C59.9755 61.3203 59.6219 61.3446 59.2693 61.3443C59.1539 61.3441 58.9872 61.323 58.8047 61.3003C58.4414 61.2545 58.0159 61.2011 57.8084 61.2886C57.3169 61.4968 56.8994 62.439 56.6022 63.1097L56.602 63.1098L56.6019 63.1103L56.6017 63.1107C56.5225 63.2892 56.452 63.4485 56.3908 63.5694C55.8923 64.5559 55.4498 65.5676 55.0075 66.579V66.5792C54.6133 67.4803 54.2194 68.3811 53.786 69.2633C53.3077 70.2374 52.5934 70.8779 51.4644 70.8937C50.3449 70.9091 49.7501 70.2759 49.0714 69.5535C48.9835 69.4598 48.8939 69.3645 48.8017 69.2691C47.2012 67.6103 45.0468 66.1845 43.0599 65.0307C40.9139 63.785 38.355 62.5776 35.9118 62.1376C35.6589 62.0922 35.3554 62.0232 35.0193 61.947C33.1922 61.5321 30.403 60.8985 29.567 62.6224C29.5839 62.62 29.6028 62.6175 29.623 62.6147L29.6273 62.6142C30.2102 62.5349 32.0066 62.2904 32.0856 63.1151C32.114 63.4122 31.6211 63.5953 31.0541 63.8059C30.3951 64.0507 29.636 64.3326 29.4784 64.8738C29.6009 64.8642 29.783 64.8332 29.9971 64.7967C30.8682 64.6484 32.273 64.4092 32.3939 65.1501C32.4582 65.5429 31.8968 65.7797 31.5086 65.9435C31.412 65.9842 31.326 66.0204 31.2631 66.0535C30.6387 66.3819 30.2627 66.7229 29.7712 67.2165ZM97.5945 37.8942C97.1085 37.5518 96.2401 37.5025 95.4961 37.4601C95.2209 37.4446 94.9628 37.4298 94.7471 37.4017L94.7415 37.401L94.7413 37.4009C93.7237 37.2678 92.7342 37.1383 91.7065 37.1944C91.3348 37.2148 90.957 37.227 90.5767 37.2393C89.4841 37.2748 88.3709 37.3109 87.323 37.5415C85.5529 37.9306 83.8766 38.5281 82.2769 39.3665C82.2459 39.3828 82.2142 39.3992 82.182 39.416L82.1804 39.4167C81.6569 39.688 80.9919 40.0327 80.9967 40.7668C81.0005 41.3616 81.1933 41.3946 81.6473 41.4728C81.7528 41.4909 81.8724 41.5115 82.0071 41.5421C83.5028 41.8825 84.9118 42.7293 86.2703 43.5458C86.6582 43.7789 87.0419 44.0095 87.4222 44.2252C89.2438 45.2572 91.0579 46.417 92.7481 47.6538C95.9883 50.0249 97.8376 53.4362 99.2766 57.1446C100.021 59.0624 100.561 61.3022 100.784 63.3462C100.92 64.5795 100.92 65.8164 100.921 67.0527V67.0531C100.922 68.0967 100.922 69.1396 101.004 70.1795C101.009 70.2509 101.016 70.3506 101.023 70.4707C101.071 71.2541 101.171 72.9031 101.523 73.1925C101.737 73.3693 102.544 73.2021 103.159 73.075C103.425 73.02 103.655 72.9724 103.785 72.9634C104.759 72.8965 105.737 72.8692 106.708 72.8423H106.709C107.529 72.8195 108.346 72.7969 109.153 72.7503C111.004 72.6436 112.878 72.664 114.757 72.6842C116.659 72.7048 118.566 72.7255 120.459 72.6143C122.35 72.503 124.181 72.2369 126.036 71.8552C126.557 71.748 127.117 71.6694 127.688 71.589C129.006 71.404 130.384 71.2106 131.481 70.6389C134.508 69.0617 136.353 65.2591 136.486 62.0393C136.63 58.5492 136.392 54.7512 135.659 51.2743C135.568 50.8407 135.479 50.4123 135.391 49.9866C135.109 48.6222 134.834 47.2876 134.489 45.9143C134.04 44.1255 133.542 42.3435 133.048 40.5737L133.044 40.5586C132.982 40.3378 132.92 40.1174 132.859 39.897C132.468 38.495 131.987 37.1324 131.508 35.771V35.7709V35.7707L131.507 35.7705C130.814 33.8021 130.121 31.8362 129.699 29.7587C129.307 27.8255 128.751 25.8042 128.171 23.9172C127.957 23.2218 127.536 21.9007 127.038 21.3724C126.642 20.9525 126.295 21.0325 125.812 21.1437C125.657 21.1795 125.487 21.2183 125.298 21.2449C124.971 21.291 124.573 21.2852 124.159 21.2793C122.926 21.2619 121.559 21.2425 121.56 22.5883C121.56 23.1646 121.672 23.7575 121.784 24.3475V24.3477V24.3479L121.784 24.3482V24.3484V24.3487V24.3489V24.3491C121.863 24.7674 121.942 25.1844 121.98 25.5933C122.027 26.0846 122.04 26.5773 122.053 27.0698V27.07V27.0702V27.0703V27.0707V27.0708V27.071V27.0712C122.071 27.7444 122.089 28.4177 122.191 29.0868C122.252 29.4808 122.318 29.8685 122.383 30.2531L122.384 30.2545C122.631 31.7003 122.87 33.101 122.758 34.6232C122.701 35.4065 122.604 36.1781 122.507 36.9484C122.345 38.2393 122.183 39.5263 122.209 40.8574C122.213 41.101 122.216 41.3436 122.218 41.585C122.236 43.3484 122.254 45.0538 123.099 46.6863C123.264 47.0049 123.416 47.3463 123.569 47.6884V47.6886C123.792 48.1878 124.015 48.6887 124.28 49.1238C124.803 49.9831 125.256 50.2348 126.191 50.5808C126.327 50.6314 126.511 50.6855 126.716 50.7463C127.391 50.9457 128.306 51.2161 128.596 51.6639C129.144 52.5069 128.413 52.848 127.693 52.8192C125.872 52.7469 124.011 52.0685 122.252 51.4271L122.252 51.4269L122.251 51.4268L122.251 51.4266L122.25 51.4263L122.246 51.4251C121.859 51.2839 121.477 51.1445 121.101 51.0139C120.5 50.8047 119.913 50.5627 119.327 50.3208L119.327 50.3206C118.956 50.1676 118.586 50.0148 118.212 49.8708C117.997 49.7877 117.793 49.7197 117.596 49.654C117.086 49.4843 116.618 49.3287 116.113 48.9628C115.231 48.3238 114.453 47.5586 113.675 46.7932C112.947 46.0771 112.219 45.3607 111.405 44.7475C108.22 42.3471 104.401 40.9141 100.401 40.4889C99.3713 40.3795 98.5745 40.4286 97.5436 40.516C97.3915 40.5288 97.2395 40.5395 97.0881 40.5501C96.6718 40.579 96.2577 40.6078 95.8438 40.6846C95.7297 40.7058 95.5053 40.7909 95.2509 40.8876C94.7783 41.0669 94.202 41.2857 94.0363 41.2069C92.3815 40.4202 97.0675 38.0253 97.5945 37.8942ZM30.1462 54.5061C30.1467 54.498 30.1472 54.49 30.1479 54.4821C30.151 54.4931 30.154 54.5039 30.157 54.5146L30.1462 54.5061ZM30.2128 54.7019C30.1938 54.6414 30.1753 54.5789 30.157 54.5146C30.4944 54.7827 30.8001 55.0759 31.1045 55.3681H31.1046L31.1048 55.3685C31.5125 55.7596 31.9182 56.149 32.3958 56.4734C33.3892 57.1482 34.5706 57.5052 35.7479 57.7577C37.9132 58.2223 40.8728 58.1062 42.9374 57.1931C44.8462 56.3489 46.0525 54.8257 47.1143 53.0575C47.2728 52.7933 47.366 52.5059 47.4557 52.2285C47.649 51.6317 47.827 51.0824 48.6088 50.9164C49.1411 50.8034 49.7773 51.0134 50.4228 51.2265C50.9471 51.3994 51.4773 51.5744 51.9628 51.5801C53.0134 51.5921 54.376 51.1131 55.2343 50.4662C55.5235 50.2481 55.729 49.8209 55.9247 49.4144V49.4142C56.126 48.9957 56.3168 48.5989 56.5775 48.4747C56.7828 48.3771 57.1201 48.5217 57.412 48.6469C57.5497 48.7058 57.6773 48.7607 57.7762 48.7834C58.3168 48.9088 58.8549 48.9481 59.3975 48.8057C60.1002 48.6212 61.2418 48.1141 61.7898 47.6343C62.0838 47.377 62.2568 46.8595 62.4235 46.3613C62.5943 45.8509 62.7581 45.3612 63.038 45.1929C63.2724 45.0523 63.676 45.1602 64.0866 45.2699C64.4003 45.3536 64.718 45.4384 64.9676 45.4146C66.8245 45.2373 68.0906 44.1743 68.8043 42.4708C68.8578 42.343 68.9146 42.0663 68.9799 41.7486C69.1098 41.1164 69.273 40.3217 69.5101 40.2148C69.6501 40.152 70.3922 40.4219 70.9303 40.6177C71.1693 40.7046 71.368 40.7769 71.456 40.799C73.263 41.2521 75.5284 42.2171 77.0947 43.1956C78.2953 43.9458 79.6683 44.4416 81.0323 44.9341L81.0325 44.9343L81.0328 44.9344C81.8072 45.2138 82.5786 45.4924 83.3138 45.8158C85.006 46.56 86.6564 47.4534 88.2183 48.4047C90.0559 49.524 91.7219 50.6574 93.2199 52.2184L93.2826 52.2837L93.365 52.3695C94.7903 53.8532 96.4535 55.5847 97.0716 57.5695C97.3032 58.313 97.3819 59.1119 97.4598 59.9051V59.9055V59.9056C97.5033 60.3464 97.5465 60.7855 97.6157 61.212C97.7399 61.9785 97.934 62.7213 98.1283 63.4656C98.2369 63.8812 98.3455 64.2973 98.4423 64.7183C98.954 66.9463 99.158 69.5833 99.1428 71.8748C99.1416 72.0666 99.1517 72.2453 99.1611 72.4099C99.1983 73.0587 99.2229 73.4895 98.4798 73.6585C97.8806 73.7946 97.062 73.6252 96.3036 73.4681C95.9105 73.3868 95.5334 73.3086 95.2115 73.2783C94.399 73.2012 93.6076 73.2233 92.8118 73.2456H92.8115H92.8111H92.8106H92.8103C92.3904 73.2574 91.9691 73.2692 91.5431 73.2665C91.1878 73.2641 90.8255 73.2427 90.4606 73.2211C89.6765 73.1747 88.8802 73.1276 88.116 73.2684C86.7532 73.5194 85.3389 73.5755 83.9158 73.6321C83.3779 73.6533 82.8388 73.6747 82.3009 73.7068C81.7032 73.7422 81.1049 73.7458 80.5069 73.7493C79.7775 73.7535 79.048 73.7576 78.3198 73.8202C78.2292 73.8279 78.0174 73.8661 77.7464 73.9151C76.9032 74.0672 75.4873 74.323 75.3672 74.085C75.2304 73.814 75.8671 72.6681 76.3543 71.791C76.5731 71.3975 76.7615 71.0581 76.8369 70.876C77.2981 69.7599 77.7091 68.6168 77.9333 67.4265C78.3124 65.4116 78.4469 63.4632 78.4635 61.4365C78.4824 59.0928 78.0755 56.8844 77.443 54.6428C77.4276 54.5883 77.4079 54.5028 77.3832 54.3961C77.2099 53.6452 76.7934 51.8419 75.9444 52.3865C75.4323 52.715 75.7263 54.1484 75.8911 54.9517C75.9303 55.1425 75.9622 55.2977 75.9742 55.3942C76.0319 55.8555 76.1107 56.3132 76.1894 56.7705C76.3108 57.4758 76.4321 58.1804 76.4758 58.8964C76.484 59.0297 76.5011 59.1875 76.5196 59.3567C76.5733 59.8494 76.6377 60.4398 76.5195 60.81C76.4784 60.9391 76.4597 61.0323 76.4465 61.0988C76.4319 61.1721 76.4239 61.2127 76.3992 61.2329C76.3682 61.2583 76.3113 61.2518 76.1832 61.2372C76.1207 61.23 76.0412 61.221 75.9396 61.2127C75.4159 61.1704 74.8139 60.818 74.2398 60.4821C73.864 60.2619 73.5003 60.049 73.1784 59.9349C72.1433 59.5675 71.1211 59.3473 70.0475 59.1525C67.7295 58.7323 65.4065 58.5785 63.0483 58.5858C62.4804 58.5877 61.8856 58.6883 61.2922 58.7887H61.292C60.6001 58.9055 59.9104 59.0222 59.268 58.9816C59.2212 58.9787 59.1753 58.9756 59.1299 58.9727C58.3273 58.9213 57.7318 58.8831 56.8124 59.0546C56.9599 58.2477 57.319 57.4778 57.6784 56.7073C58.0869 55.8313 58.496 54.9544 58.5952 54.0209C58.8477 51.6445 56.871 53.2521 56.2104 54.1962C55.2586 55.5566 54.4994 56.9908 54.2588 58.6729C54.2134 58.9907 54.2535 59.311 54.2929 59.6264C54.3363 59.9718 54.3788 60.3113 54.3075 60.6354C54.2193 61.0356 53.9308 61.4772 53.6546 61.9C53.4849 62.1599 53.3197 62.4128 53.2085 62.6445C52.5267 64.0647 52.052 65.5529 51.6046 67.0594C51.5694 67.1778 51.5417 67.2884 51.5163 67.3892V67.3893C51.3848 67.9142 51.3202 68.172 50.6282 67.8568C50.3082 67.7111 50.0571 67.4275 49.8099 67.1485C49.6667 66.9869 49.525 66.8268 49.3719 66.6957C47.3394 64.9547 45.1953 63.339 42.8477 62.004C40.395 60.6092 38.004 59.9584 35.2238 59.6653C35.0695 59.649 34.8904 59.6343 34.6953 59.618H34.695C33.5787 59.5255 31.9388 59.3896 31.4106 58.6981C30.9448 58.0885 30.7219 56.9978 30.5201 56.0098C30.4213 55.5264 30.3276 55.0676 30.2128 54.7019ZM31.7938 54.0295C31.0658 53.6787 30.2375 53.2797 30.1479 54.4821C30.0509 54.1364 29.9629 53.7431 29.8707 53.3324C29.616 52.1956 29.3317 50.9276 28.752 50.1789C28.5896 49.9694 28.3904 49.9054 28.2062 49.8461C28.0613 49.7995 27.9256 49.7558 27.8246 49.6465C27.5849 49.387 27.5546 48.8335 27.5304 48.3946V48.3944V48.3942C27.5219 48.2366 27.514 48.0939 27.4975 47.9846C27.4585 47.7244 27.4175 47.4685 27.3769 47.2151L27.3767 47.2142V47.2141V47.2137C27.1753 45.9556 26.9841 44.7631 27.0946 43.4427C27.098 43.4017 27.1006 43.3306 27.104 43.2405C27.1201 42.8186 27.152 41.98 27.3481 41.8618C27.5385 41.7472 28.0771 41.8993 28.5221 42.0249V42.0251C28.7501 42.0893 28.9537 42.1469 29.0732 42.158C29.7852 42.2243 30.5021 42.316 31.2206 42.4076C33.2563 42.6675 35.305 42.9291 37.2902 42.6241C39.7008 42.2541 42.0132 41.4717 44.2358 40.4706C44.2836 40.7348 44.408 40.9468 44.6086 41.1067C44.6786 41.0037 44.7401 40.9064 44.798 40.8151C45.1031 40.3335 45.3039 40.0163 46.0942 39.8924C46.6939 39.7984 47.5236 39.9848 48.0209 40.3592C49.9456 41.8073 47.7511 43.235 46.4856 43.8846C48.0497 45.6051 48.5425 49.2475 46.7421 51.0055C46.4853 51.2563 46.2276 51.486 45.9724 51.7139L45.972 51.7141C45.5169 52.1202 45.0685 52.5201 44.6444 53.021C43.9511 53.8397 43.3967 54.4756 42.3923 54.7694C42.2733 54.8042 42.1506 54.8407 42.0252 54.8778C41.0343 55.1718 39.8703 55.5172 38.9036 55.5675C38.1931 55.6045 37.431 55.4572 36.6964 55.3152C36.3591 55.2499 36.0274 55.1858 35.7093 55.1411C34.4524 54.965 33.2347 54.6849 32.0729 54.1611C31.9828 54.1205 31.8892 54.0754 31.7938 54.0295ZM28.7837 68.8477C28.8567 68.9371 28.9944 69.0887 29.1717 69.2844C30.233 70.4536 32.7196 73.1932 31.3604 73.5915C30.7785 73.7621 29.8561 72.8069 29.205 72.1324C28.9991 71.919 28.8202 71.7338 28.6876 71.6211C27.8331 70.8942 26.938 70.4166 25.8959 70.0155C23.3527 69.037 21.0516 68.1575 18.282 68.5638C17.8851 68.6221 17.4596 68.7196 17.0246 68.8193C16.1581 69.0178 15.2534 69.2251 14.4594 69.148C13.259 69.0315 13.57 67.9608 14.3206 67.3631C14.575 67.1606 14.8675 67.0565 15.1484 66.9564C15.6084 66.7925 16.0377 66.6395 16.2207 66.0834C16.3505 65.688 16.3627 65.2471 16.375 64.8001C16.3909 64.2244 16.4072 63.6387 16.6757 63.1282C17.083 62.3537 18.0432 61.55 18.7845 61.1014C18.8921 61.0361 19.0254 60.9775 19.1615 60.9177C19.4341 60.798 19.718 60.6733 19.8305 60.4811C19.9348 60.3031 19.6366 59.4897 19.4493 58.979V58.9788C19.388 58.812 19.3387 58.6773 19.3191 58.6079C19.2184 58.2487 19.1151 57.8895 19.012 57.5299C18.7184 56.5078 18.4242 55.4834 18.1815 54.4514C17.8772 53.1584 17.7981 52.4884 19.16 52.0192C20.2792 51.6334 21.4276 51.3581 22.5739 51.0835C23.5563 50.8481 24.5373 50.613 25.497 50.309C25.2486 49.6619 24.6442 49.8178 24.0233 49.9782C23.7229 50.0558 23.4186 50.1344 23.1488 50.1234C22.1352 50.0827 20.9622 49.7491 19.9969 49.4377C17.8054 48.7303 16.3144 46.967 15.9757 44.6932C15.9443 44.4837 15.9676 44.1856 15.9918 43.8776C16.0248 43.4526 16.0594 43.0089 15.9543 42.7531C15.8343 42.4614 15.5609 42.2747 15.2862 42.0869C15.1685 42.0066 15.0506 41.9261 14.9444 41.837C14.0318 41.0721 13.2236 40.0221 12.7312 38.9353C12.2378 37.8461 12.2034 36.6226 12.4902 35.4731C12.5133 35.3801 12.5351 35.2989 12.5544 35.2261C12.6675 34.8031 12.7045 34.6647 12.514 34.1539C12.3937 33.8314 12.238 33.5255 12.082 33.2187C11.9028 32.8663 11.7229 32.5129 11.5954 32.1324C11.205 30.9663 10.9921 29.7092 11.0133 28.4778C11.0293 27.5671 11.2754 26.9876 11.5466 26.3493C11.6867 26.0193 11.8334 25.6738 11.9584 25.2587C12.1318 24.6836 12.0599 23.977 11.9884 23.2736C11.9405 22.8013 11.8925 22.3303 11.9192 21.9019C12.0038 20.5369 12.3533 19.4401 12.9565 18.2252C13.8833 16.3584 15.3509 14.3573 17.2614 13.3785C17.4352 13.2892 17.661 13.2387 17.8868 13.1882C18.151 13.1289 18.4155 13.0698 18.5974 12.9483C18.9313 12.7258 19.0202 12.4191 19.1254 12.0561C19.1525 11.9631 19.1804 11.8665 19.2138 11.7666C19.6054 10.5984 20.0943 9.65213 20.9411 8.75891C23.6876 5.86256 28.5 4.83676 32.3595 5.08122C32.6082 5.09698 32.8527 5.1494 33.0942 5.20113C33.5261 5.29364 33.9489 5.38409 34.3703 5.26058C34.6182 5.18777 34.8743 5.01372 35.132 4.83881C35.3472 4.69251 35.5633 4.5457 35.7768 4.45627C36.3707 4.20787 36.9657 4.06243 37.6047 3.99887C38.8666 3.87313 39.8929 4.00607 41.0559 4.43212C41.4006 4.55855 41.7336 4.69388 42.0702 4.83076L42.0706 4.83093C42.1628 4.86845 42.2553 4.90596 42.3483 4.94348C42.8703 5.15437 42.9707 5.12747 43.2756 5.04592C43.3698 5.02074 43.4836 4.99025 43.6352 4.9601C44.9159 4.70502 45.6517 4.8938 46.7864 5.44028C46.8971 5.49356 47.0312 5.54187 47.1697 5.59155C47.4095 5.67789 47.6623 5.76869 47.8271 5.89785C47.9942 6.02908 48.1163 6.28176 48.2383 6.53393C48.3849 6.83715 48.5312 7.13968 48.755 7.22911C48.9009 7.2877 49.2423 7.17052 49.5459 7.06653C49.7153 7.00846 49.8729 6.9545 49.978 6.93737C50.3218 6.88135 50.6608 6.8954 51.0007 6.90944C51.172 6.91647 51.3435 6.92366 51.516 6.92178C52.4268 6.91184 53.3898 6.94576 54.2215 7.37644C54.743 7.64642 55.3528 8.12506 55.8537 8.51822C55.9546 8.59737 56.0511 8.67309 56.1414 8.74281C56.43 8.96569 56.6769 9.26531 56.9248 9.56647C57.3181 10.0441 57.7145 10.5255 58.2862 10.7107C58.4757 10.772 58.673 10.7692 58.8714 10.7665C59.055 10.7641 59.2395 10.7615 59.4187 10.81C59.9046 10.9412 60.371 11.2931 60.7645 11.6039C61.047 11.8271 61.3114 12.1735 61.5736 12.5173C61.9397 12.997 62.3015 13.4713 62.7033 13.5979C62.9313 13.6697 63.2218 13.6689 63.5211 13.668C63.8259 13.667 64.1395 13.6661 64.4051 13.7418C65.0658 13.9303 65.6135 14.2035 66.1033 14.7034C67.0376 15.6571 67.3014 17.067 67.3415 18.3602C67.3448 18.468 67.3266 18.6362 67.306 18.8265C67.26 19.252 67.2019 19.7872 67.3463 20.001C67.4443 20.1463 67.686 20.259 67.9341 20.3746C68.1551 20.4776 68.3808 20.5828 68.5148 20.7154C69.4041 21.5959 69.8058 23.0634 69.8957 24.2697C69.9723 25.295 69.7947 26.0949 69.5978 26.9807C69.5305 27.2841 69.461 27.5974 69.3986 27.9334C69.3499 28.1953 69.2968 28.32 69.2694 28.3843C69.2545 28.4192 69.2473 28.4362 69.2525 28.4477C69.2574 28.4586 69.2737 28.4644 69.3058 28.4758C69.3717 28.4992 69.5046 28.5463 69.7419 28.712C70.2176 29.044 70.5462 29.2763 70.8546 29.7974C71.4996 30.8871 71.6618 32.1718 71.5552 33.4136C71.4764 34.3324 71.1681 35.1122 70.8565 35.9005C70.6425 36.4419 70.427 36.9872 70.2831 37.584C71.596 37.584 72.9905 37.8638 74.3154 38.1295C74.6337 38.1934 74.9479 38.2564 75.2561 38.3145C75.69 38.3965 76.0518 38.5944 76.4215 38.7965H76.4217H76.4218C76.5519 38.8678 76.6829 38.9394 76.8184 39.0067C77.1012 39.1472 77.3389 39.2096 77.5818 39.2733C77.7252 39.311 77.8703 39.349 78.0275 39.404L78.0566 39.4141C78.538 39.582 78.7421 39.6533 78.905 39.5995C79.0249 39.5599 79.1225 39.4528 79.2918 39.2666C79.3675 39.1837 79.4573 39.085 79.5698 38.9696C82.4144 36.0515 86.4637 34.2897 90.5471 34.3471C92.8247 34.3788 95.0279 34.6794 97.1571 35.4993L97.2743 35.5444C98.1257 35.8716 99.0552 36.2288 99.8037 36.7381C100.696 37.3455 100.841 37.3485 101.987 37.3723L102.045 37.3735C106.386 37.4636 110.6 39.7956 113.76 42.6221C113.995 41.0375 116.185 39.983 117.769 39.2207C118.08 39.071 118.367 38.9326 118.612 38.8036C118.708 38.7532 118.802 38.7073 118.893 38.6627C119.29 38.4697 119.637 38.3008 119.84 37.892C119.977 37.6174 120.029 37.1735 120.081 36.7412V36.741C120.117 36.4321 120.153 36.1292 120.218 35.8981C120.506 34.8797 120.838 33.6336 120.812 32.5595C120.775 30.9829 120.571 29.4101 120.367 27.8363C120.169 26.3059 119.971 24.7746 119.925 23.2379C119.92 23.0469 119.91 22.8503 119.9 22.6507C119.87 22.0326 119.838 21.3876 119.917 20.8017C119.939 20.6403 119.974 20.4947 120.007 20.3577C120.102 19.9635 120.18 19.6385 119.876 19.2097C119.556 18.7587 119.125 18.4467 118.695 18.1353C118.08 17.6893 117.465 17.2446 117.181 16.3941C116.404 14.0663 117.739 11.6859 119.562 10.3014C119.95 10.0067 120.335 9.79791 120.708 9.59525C121.345 9.24989 121.948 8.92234 122.479 8.21809C122.759 7.8448 123.024 7.44616 123.29 7.04581C123.742 6.36622 124.197 5.68132 124.74 5.10537C125.002 4.8275 125.256 4.51537 125.512 4.19999H125.513C125.964 3.6446 126.424 3.07876 126.954 2.67156C127.805 2.01681 129.054 1.57431 130.07 1.26321C132.509 0.516297 135.505 0.694632 137.221 2.78068C138.97 4.90751 136.393 7.91487 134.931 9.39893C134.549 9.78695 134.202 10.2075 133.855 10.6284C133.558 10.9889 133.261 11.3496 132.941 11.6904C132.616 12.0357 132.253 12.3463 131.895 12.6523C131.497 12.9929 131.105 13.3276 130.781 13.6987C130.687 13.8054 130.592 13.9137 130.496 14.0233C129.924 14.6726 129.311 15.3681 128.849 16.0801C128.762 16.2152 128.663 16.3541 128.562 16.4967C128.27 16.9104 127.957 17.3529 127.83 17.8081C127.679 18.3563 127.7 18.3657 127.816 18.4152C127.887 18.445 127.991 18.4897 128.113 18.6771C128.177 18.7755 128.232 18.856 128.281 18.9267C128.485 19.2219 128.575 19.3516 128.665 19.9227C128.774 20.611 128.928 21.1149 129.3 21.703C129.426 21.9017 129.553 22.098 129.681 22.2938L129.681 22.294L129.681 22.2947L129.682 22.2957L129.683 22.2969C130.176 23.0543 130.663 23.8034 131.006 24.6536C131.462 25.7843 131.812 26.9288 132.166 28.0857L132.166 28.0858V28.086V28.0862L132.166 28.0864C132.258 28.3868 132.35 28.6882 132.445 28.99C132.495 29.1529 132.542 29.3225 132.588 29.494L132.588 29.4945L132.588 29.4952L132.589 29.4959C132.705 29.9256 132.825 30.3669 133.031 30.7429C133.433 31.4781 133.495 31.4302 134.075 30.9851L134.106 30.9616C134.563 30.6111 135.022 30.2557 135.482 29.8988L135.483 29.898C136.852 28.8369 138.237 27.7628 139.654 26.7698C140.739 26.0096 141.866 25.2651 143.011 24.599C143.136 24.526 143.285 24.4441 143.447 24.3544C144.303 23.8814 145.548 23.1929 145.879 22.4797C146.092 22.0194 146.082 21.5747 146.073 21.1389C146.059 20.5091 146.046 19.8981 146.706 19.2858C147.434 18.611 148.62 18.2369 149.568 18.0729C150.558 17.9019 151.624 18.0376 152.653 18.1683C153.017 18.2148 153.377 18.2605 153.727 18.2918C155.081 18.4128 156.404 18.2811 157.731 18.0042C158.197 17.9071 158.76 17.7092 159.369 17.4956H159.369C161.416 16.7768 163.968 15.8806 164.982 18.0525C165.433 19.0141 165.294 20.0567 165.161 21.0685C165.123 21.3539 165.085 21.6369 165.061 21.9149C164.967 23.0161 164.643 24.1853 163.958 25.0912C163.305 25.953 162.404 26.1348 161.436 26.3303H161.435C161.241 26.3695 161.044 26.4092 160.845 26.4553C160.13 26.6206 159.406 26.7323 158.682 26.8442C157.985 26.9518 157.289 27.0592 156.6 27.2144C155.909 27.3703 155.226 27.4462 154.516 27.4789C154.225 27.4924 153.873 27.4452 153.525 27.3982C153.119 27.3436 152.717 27.2894 152.419 27.3329C152.113 27.3775 152.045 27.5085 151.97 27.6555C151.916 27.7614 151.857 27.8753 151.703 27.9716C151.624 28.0206 151.503 28.0255 151.392 28.0298C151.291 28.0339 151.199 28.0375 151.154 28.0733C150.92 28.2613 150.838 28.4273 150.684 28.738L150.681 28.7427L150.68 28.7456L150.678 28.7502L150.654 28.798L150.636 28.8333C150.164 29.7762 149.5 30.6999 148.864 31.585C148.698 31.8151 148.535 32.0424 148.377 32.2669C148.329 32.3359 148.279 32.4061 148.23 32.4774L148.189 32.5367C148.15 32.5925 148.11 32.6489 148.071 32.7058C147.502 33.5239 146.87 34.4326 146.23 35.1236C145.197 36.2384 144.184 37.4259 143.171 38.6134L143.17 38.6139C142.608 39.2738 142.045 39.9337 141.478 40.5809C140.672 41.5029 139.705 42.4838 138.767 43.2763C138.668 43.3606 138.533 43.442 138.393 43.5264V43.5266C138.127 43.6873 137.843 43.8591 137.746 44.0837C137.593 44.4375 137.852 45.0989 138.057 45.6231C138.135 45.8225 138.206 46.0022 138.243 46.1374C138.396 46.6986 138.485 47.2687 138.574 47.8371C138.671 48.4506 138.766 49.0622 138.942 49.6587C139.265 50.7576 139.382 51.9561 139.454 53.1018C139.504 53.9091 139.574 54.7034 139.643 55.4928V55.4939C139.794 57.2364 139.944 58.9555 139.887 60.7384C139.815 62.9728 139.733 65.1155 138.957 67.3095C138.251 69.3063 136.135 71.4802 134.167 72.216C132.996 72.6541 131.908 73.0522 130.729 73.2896L130.51 73.3338C129.412 73.5548 128.266 73.7852 127.183 74.0948C125.038 74.7074 122.778 75.1352 120.551 75.345C117.7 75.6135 114.726 75.6392 111.883 75.5405C110.587 75.4954 109.254 75.4927 107.975 75.4966C107.088 75.4992 106.236 75.6169 105.372 75.7363C104.944 75.7954 104.513 75.8548 104.074 75.9009C101.721 76.1476 99.3005 76.1706 96.881 76.1933C94.4907 76.216 92.101 76.2386 89.7779 76.477C89.0024 76.5565 88.2272 76.6608 87.4506 76.7653H87.4503H87.45C85.9131 76.9723 84.371 77.1797 82.8095 77.1979C81.6305 77.2114 80.4421 77.1737 79.2634 77.1366C78.3378 77.1073 77.4178 77.0782 76.5128 77.074C76.3711 77.0734 76.2336 77.0754 76.0982 77.0773C75.6095 77.0843 75.1498 77.0908 74.6392 76.9735C74.5398 76.9507 74.429 76.9089 74.3132 76.8652L74.313 76.8651C74.0274 76.7573 73.7113 76.6381 73.4643 76.7642C73.2562 76.8704 73.083 77.2111 72.9341 77.5042C72.8661 77.6382 72.8031 77.7622 72.7441 77.8494C72.3332 78.4572 71.8324 78.9453 71.3037 79.4493C69.2048 81.4497 67.125 82.1234 64.3705 82.8565C63.1058 83.1931 62.4816 83.369 61.4198 84.1392C60.555 84.7666 59.6798 85.2173 58.6843 85.5872C56.7317 86.3125 54.4291 85.7515 52.594 85.1221C52.3162 85.0268 52.034 84.9343 51.7496 84.8411C51.124 84.6359 50.4878 84.4272 49.8637 84.1785C49.2305 83.9263 48.6541 83.5887 48.0785 83.2517C47.5301 82.9305 46.9826 82.61 46.3878 82.3643C46.476 83.1847 45.9472 83.6613 45.4374 84.1209C45.1389 84.3897 44.8472 84.6527 44.6892 84.9752C44.5529 85.2538 44.5246 85.6108 44.4955 85.9778C44.4657 86.3545 44.435 86.7415 44.2856 87.0647C44.0122 87.6568 43.5896 88.2164 42.9304 88.3715C42.0322 88.5824 40.4265 87.5831 39.7956 87.0001C39.6561 86.8713 39.5227 86.6572 39.3855 86.4369C39.178 86.104 38.962 85.7573 38.7036 85.6709C38.3251 85.544 37.733 85.8822 37.2257 86.1718C36.9835 86.3103 36.7605 86.4376 36.5895 86.4979C34.0556 87.3923 31.4879 87.8142 28.7673 87.4579C26.2663 87.1303 23.9545 86.2942 21.6168 85.4487C21.3778 85.3624 21.1385 85.2759 20.8986 85.1897C15.8359 83.3719 11.4291 80.3795 7.4647 76.7763C7.39505 76.7129 7.31549 76.6518 7.23442 76.5894C7.05876 76.4544 6.87608 76.3139 6.77202 76.1342C6.69925 76.0085 6.66982 75.7891 6.64383 75.5953C6.62238 75.4353 6.60326 75.2928 6.56402 75.2349C6.35241 74.9226 6.05454 74.9112 5.68747 74.8974H5.68728C5.60627 74.8943 5.52188 74.891 5.43429 74.8845C3.93755 74.7715 2.74857 74.41 1.58843 73.407C-0.237534 71.8282 -0.912995 68.1472 1.88614 67.1695C2.60163 66.9194 3.38913 66.8697 4.12878 67.0238C4.25202 67.0495 4.51067 67.1771 4.79431 67.3169C5.21282 67.5233 5.68581 67.7565 5.85858 67.729C6.17165 67.6792 6.21835 67.3779 6.26152 67.0993C6.27896 66.9869 6.2958 66.8781 6.32939 66.7911C6.62552 66.0252 7.0422 65.3509 7.54455 64.701C8.37947 63.6205 9.3969 62.5344 10.441 61.6552C11.4587 60.7976 12.569 60.3682 13.762 59.9067C13.8984 59.8539 14.0358 59.8008 14.1743 59.7465C15.084 59.3902 16.8596 58.7782 17.8231 59.097C19.0779 59.5123 18.4636 60.8836 17.673 61.3633C17.1098 61.7051 16.4901 61.9463 15.8686 62.1883C15.2442 62.4314 14.6177 62.6752 14.0443 63.0226C13.1081 63.59 12.2322 64.3128 11.3707 65.0234C11.0702 65.2714 10.7714 65.5178 10.4725 65.7557C10.0404 66.0995 9.63531 66.4807 9.23054 66.8615C8.7639 67.3004 8.29782 67.739 7.7919 68.1189C7.54141 68.307 7.13234 68.6361 7.0545 68.7401C7.04595 68.7514 7.04341 68.7886 7.04006 68.8379C7.03279 68.945 7.02157 69.1098 6.93686 69.1989C6.91894 69.2176 6.90176 69.2357 6.88524 69.2532L6.84241 69.2984C6.64416 69.5083 6.54774 69.6104 6.43204 69.6421C6.32249 69.6721 6.19567 69.639 5.94876 69.5746C5.87394 69.555 5.7881 69.5326 5.68838 69.5083C4.71276 69.2696 2.38378 68.7298 1.726 69.9395C1.14637 71.0052 3.45689 71.9676 4.30056 72.3191L4.35267 72.3409C5.32412 72.7461 5.67634 73.1529 6.24754 73.8125C6.36309 73.9459 6.48758 74.0896 6.62798 74.2459C7.22973 74.9159 8.11155 75.4348 8.95451 75.9307C9.30903 76.1394 9.65667 76.3439 9.9738 76.5539C11.7215 77.7117 13.633 78.6155 15.5318 79.5132L15.5323 79.5135L15.5332 79.5139C16.1485 79.8047 16.7625 80.0951 17.3691 80.3932C19.7671 81.5715 22.3438 82.4217 24.8436 83.2464L24.8879 83.2609C26.4054 83.7615 28.2241 84.2987 29.8167 84.4529C31.4216 84.6085 32.9265 84.3469 34.5011 84.0406C35.1306 83.9181 35.606 83.8242 36.2645 83.5921C36.3723 83.5541 36.5054 83.5278 36.6419 83.5011C36.8766 83.455 37.1218 83.4069 37.2689 83.2925C37.5235 83.0946 37.5238 82.9248 37.5245 82.6738C37.5247 82.569 37.5249 82.4499 37.5437 82.3088C37.7746 80.5743 38.8081 81.8702 39.5247 82.7688C39.676 82.9586 39.8132 83.1307 39.9258 83.2527C40.0284 83.3639 40.1305 83.4804 40.234 83.5982L40.2343 83.5988C40.6326 84.0526 41.0485 84.5266 41.5686 84.7981C42.3896 85.2264 42.5321 85.0246 42.8012 84.3181C42.8722 84.1319 42.9367 83.9419 43.001 83.7536C43.3922 82.6053 43.7625 81.5189 45.3976 81.6859C45.1134 81.4426 44.8316 81.2064 44.5529 80.9726C43.3583 79.9706 42.2195 79.0155 41.1765 77.7627C40.3311 76.7474 39.5223 75.6816 38.7168 74.62L38.7167 74.6198L38.7158 74.6186C38.3125 74.0871 37.91 73.5565 37.504 73.034C37.1774 72.6138 36.8648 72.1413 36.5465 71.6603C35.8921 70.6715 35.214 69.6467 34.3429 68.9654C33.9337 68.6452 32.6894 67.9074 32.2158 67.923C31.8577 67.9346 31.5199 68.2358 31.1749 68.5435C30.8369 68.845 30.4919 69.1528 30.114 69.2004C29.2706 69.307 28.8822 69.0125 28.6414 68.3278C28.5084 67.9497 28.6153 67.5413 28.714 67.1641C28.8009 66.8324 28.8814 66.5249 28.787 66.2832C28.7603 66.2148 28.6652 66.1401 28.5609 66.0581C28.4457 65.9675 28.3191 65.8681 28.2609 65.7586C28.094 65.4451 28.082 65.0328 28.1319 64.6857C28.1608 64.4848 28.2061 64.3299 28.2484 64.1853V64.1851C28.315 63.957 28.3743 63.7541 28.3505 63.4351C28.3354 63.2347 28.2962 63.0521 28.2581 62.8744C28.1812 62.5155 28.1088 62.177 28.2487 61.7532C28.395 61.3095 28.7442 60.9994 29.0854 60.6966C29.2559 60.5451 29.4243 60.3956 29.5647 60.232C30.1032 59.6039 29.9548 59.1065 29.7415 58.3916C29.7021 58.2598 29.6607 58.1206 29.6207 57.9719C29.3345 56.9037 29.0236 55.8421 28.7123 54.7803C28.4279 53.8095 28.1434 52.8385 27.8778 51.8626C27.3598 52.0265 26.8464 52.1994 26.3335 52.3719L26.333 52.3721L26.3326 52.3722L26.3312 52.3728C25.5788 52.6259 24.8273 52.8788 24.0634 53.1029C23.7544 53.1937 23.427 53.2821 23.0919 53.3725C22.0862 53.644 21.0103 53.9344 20.1498 54.3637C19.9878 54.4446 19.8744 54.4889 19.7964 54.5194C19.7092 54.5535 19.6664 54.5703 19.6493 54.6013C19.6325 54.6313 19.64 54.6748 19.6549 54.7605C19.6691 54.8436 19.6904 54.9664 19.7031 55.1553C19.7236 55.4668 19.8141 55.8014 19.9026 56.1282C19.9545 56.3201 20.0058 56.5094 20.0416 56.6896C20.0853 56.9089 20.1229 57.2126 20.1651 57.5527C20.296 58.6093 20.4705 60.0183 21.004 60.3437C21.1806 60.4514 21.4018 60.4499 21.6337 60.4482C21.9623 60.4459 22.3123 60.4434 22.5876 60.7517C22.8206 61.0125 22.875 61.3429 22.9294 61.6712C22.967 61.9 23.0047 62.1277 23.1024 62.3298C23.1831 62.4965 23.3047 62.607 23.4277 62.7186C23.5301 62.8114 23.6334 62.9053 23.7143 63.0331C24.0165 63.5105 24.047 63.9263 24.083 64.4188C24.0912 64.5322 24.0997 64.6496 24.1121 64.7727C24.1241 64.8944 24.1272 65.0869 24.1306 65.3065C24.139 65.8362 24.1499 66.5234 24.2957 66.751C24.4914 67.0567 24.8235 67.1072 25.1644 67.1591C25.3029 67.1802 25.4427 67.2014 25.5754 67.2401C26.7335 67.5773 27.8002 68.1638 28.7837 68.8477ZM33.4331 50.2386C33.2186 50.9098 32.2343 51.669 31.4445 51.2652C30.4624 50.7633 30.3709 48.7834 30.6402 47.9385C31.0964 46.5066 31.48 48.3848 31.5605 48.9505C31.571 49.0236 31.5773 49.0915 31.5833 49.1542C31.608 49.4168 31.6244 49.59 31.8898 49.6893C32.0059 49.7329 32.17 49.7149 32.3432 49.6958C32.5449 49.6737 32.7592 49.6503 32.9253 49.7207C33.1907 49.8334 33.2351 49.9078 33.3629 50.1222C33.3836 50.157 33.4065 50.1956 33.4331 50.2386ZM27.7655 45.9777C27.7207 46.9199 29.1914 49.8233 29.6309 47.7191C29.5954 47.0912 29.2754 45.9832 28.8589 45.4915C28.2633 44.789 27.8071 45.1085 27.7655 45.9777ZM31.5977 44.8416C31.5977 43.9304 32.152 43.7502 32.8436 44.3402C33.5573 44.9488 33.7905 45.9656 33.8645 46.8055C33.945 47.7162 33.737 48.1032 32.8301 47.518C32.0361 47.0056 31.6388 45.6411 31.5977 44.8416ZM36.3135 51.4643C35.0886 51.3718 33.6651 53.6733 35.1702 53.4933C35.7379 53.457 36.8737 53.0477 37.0397 52.3945C37.1709 51.8773 36.8124 51.5021 36.3135 51.4643ZM45.6193 42.1727C45.5504 41.2232 47.0124 40.7272 47.2017 41.7338C47.38 42.6841 45.2758 43.6607 45.6193 42.1727ZM22.487 56.6064C22.4958 55.4135 21.0384 53.49 20.5176 55.4348C20.592 56.0254 20.8383 57.5862 21.6514 57.7197C22.3025 57.8266 22.4829 57.13 22.487 56.6064Z" fill="#432C7A"/>
</svg>
