<svg width="46" height="44" viewBox="0 0 46 44" fill="none" xmlns="http://www.w3.org/2000/svg">
<path d="M10.199 30.4422V15.0422H13.147L19.703 25.9102H18.141L24.587 15.0422H27.513L27.557 30.4422H24.213L24.191 20.1682H24.807L19.659 28.8142H18.053L12.795 20.1682H13.543V30.4422H10.199ZM30.2867 23.2482V21.7742L34.0927 18.4742C34.5327 18.0928 34.8187 17.7848 34.9507 17.5502C35.0974 17.3155 35.1707 17.0955 35.1707 16.8902C35.1707 16.5968 35.0387 16.3548 34.7747 16.1642C34.5254 15.9588 34.1294 15.8562 33.5867 15.8562C33.132 15.8562 32.7287 15.9368 32.3767 16.0982C32.0247 16.2595 31.746 16.4942 31.5407 16.8022L29.7807 15.7462C30.1474 15.2035 30.6607 14.7708 31.3207 14.4482C31.9954 14.1108 32.8167 13.9422 33.7847 13.9422C34.9874 13.9422 35.926 14.1988 36.6007 14.7122C37.2754 15.2255 37.6127 15.8928 37.6127 16.7142C37.6127 17.1542 37.5027 17.5868 37.2827 18.0122C37.0627 18.4228 36.5934 18.9362 35.8747 19.5522L32.8167 22.2142L32.3107 21.4002H37.9647V23.2482H30.2867Z" fill="#FF8FB1"/>
<rect x="6.46816" y="1.69184" width="38.2022" height="34.7687" rx="6.5" transform="rotate(7.89593 6.46816 1.69184)" stroke="#80489C" stroke-width="3"/>
</svg>
