<svg width="31" height="30" viewBox="0 0 31 30" fill="none" xmlns="http://www.w3.org/2000/svg">
<path d="M8.15273 20.3633V11.4548H9.85807L13.6505 17.7416H12.747L16.4758 11.4548H18.1684L18.1939 20.3633H16.2595L16.2467 14.4201H16.6031L13.6251 19.4215H12.6961L9.65445 14.4201H10.0871V20.3633H8.15273ZM19.7729 16.2017V15.3491L21.9746 13.4401C22.2291 13.2195 22.3946 13.0414 22.4709 12.9056C22.5558 12.7699 22.5982 12.6426 22.5982 12.5238C22.5982 12.3541 22.5218 12.2141 22.3691 12.1038C22.2249 11.9851 21.9958 11.9257 21.6819 11.9257C21.4189 11.9257 21.1856 11.9723 20.9819 12.0657C20.7783 12.159 20.6171 12.2947 20.4983 12.4729L19.4802 11.862C19.6923 11.5481 19.9893 11.2978 20.3711 11.1112C20.7613 10.916 21.2365 10.8185 21.7964 10.8185C22.4921 10.8185 23.0351 10.967 23.4254 11.2639C23.8157 11.5609 24.0108 11.9469 24.0108 12.422C24.0108 12.6765 23.9472 12.9268 23.8199 13.1729C23.6927 13.4104 23.4212 13.7074 23.0054 14.0637L21.2365 15.6036L20.9438 15.1327H24.2144V16.2017H19.7729Z" fill="#FF8FB1"/>
<rect x="4.23686" y="0.978683" width="26.0313" height="23.7174" rx="3.76007" transform="rotate(7.89593 4.23686 0.978683)" stroke="#80489C" stroke-width="1.73542"/>
</svg>
