<svg width="134" height="110" viewBox="0 0 134 110" fill="none" xmlns="http://www.w3.org/2000/svg">
<path fill-rule="evenodd" clip-rule="evenodd" d="M41.5232 49.9612C42.0079 55.2207 42.4926 60.4804 42.9771 65.7398C45.6159 64.1216 48.2547 62.5031 50.8934 60.8849V72.8669V76.0163C50.8934 76.2951 50.7395 77.2523 50.8934 77.4937C51.024 77.6983 51.9909 77.7043 52.2195 77.7388C53.7114 77.9632 55.207 78.163 56.7046 78.3407C60.6518 78.8092 64.8764 79.4804 68.8387 78.9421C72.2828 78.4741 75.6218 77.1574 78.7684 75.6255C79.8732 75.0876 80.9625 74.5119 82.0316 73.8967C82.2582 73.7663 83.0811 73.4584 83.2043 73.1929C83.3049 72.9759 83.0688 72.2139 83.0373 71.986C82.9044 71.0249 82.7713 70.0638 82.6384 69.1029L80.7813 55.6831L84.2894 59.4483C84.5642 59.7433 85.0861 60.5808 85.4664 60.7115C85.7452 60.8074 86.4357 60.5106 86.7114 60.4537C88.6977 60.0423 90.6842 59.6307 92.6706 59.2194C93.1334 59.1235 94.1764 59.1271 94.5665 58.8267C94.7766 58.6647 94.7865 58.3354 94.8606 58.0234C95.3451 55.9832 95.8297 53.9432 96.314 51.9034C96.4014 51.5359 96.8883 50.3774 96.7645 50.0073C96.72 49.8747 96.5051 49.784 96.3738 49.6975C93.3758 47.7294 90.3775 45.7613 87.3794 43.7931C85.737 42.7151 84.0946 41.6368 82.4522 40.5588C81.7644 40.107 80.9193 39.2933 80.1397 39.0406C79.6558 38.8838 78.9518 39.0013 78.451 38.9858C77.4333 38.9546 76.4159 38.9235 75.3982 38.8923C75.2389 38.8875 74.6809 38.7653 74.5468 38.8662C74.4352 38.9502 74.4815 39.0671 74.4449 39.2672C74.3554 39.756 74.3548 40.2829 74.3106 40.7789C74.2753 41.177 74.3455 41.9069 74.1786 42.2673C74.072 42.4976 74.2072 42.4058 74.063 42.5171C73.8912 42.6497 73.3429 42.6071 73.1385 42.6324C72.1414 42.757 71.1442 42.8815 70.147 43.0059C68.9615 43.1539 67.7628 43.4316 66.5717 43.3037C64.766 43.1099 62.819 43.1195 61.0459 42.7108C60.5851 42.6044 60.4192 42.3253 60.0637 41.9439C59.37 41.1993 58.6832 40.4461 57.9818 39.7095C57.638 39.3485 57.7853 39.4097 57.4309 39.5466C56.9868 39.7181 56.5364 40.1322 56.1344 40.3954C54.5944 41.4036 53.0543 42.412 51.5141 43.4202L42.1116 49.5759C41.9154 49.7043 41.7194 49.8328 41.5232 49.9612Z" fill="#FF8FB1"/>
<path fill-rule="evenodd" clip-rule="evenodd" d="M131.456 50.615C129.518 58.5239 125.62 67.1475 117.766 69.6685C115.857 70.2813 113.999 70.744 112.016 70.5106C111.827 70.4884 111.669 70.5169 111.49 70.5205C111.168 70.5272 111.446 70.6513 111.085 70.5317C110.804 70.4383 110.541 70.2048 110.248 70.1016C109.468 69.8276 108.637 69.7746 107.845 69.5531C105.899 69.009 103.894 68.3372 102.008 67.5868C101.12 67.2336 100.304 66.7415 99.4691 66.2682C98.6201 65.7873 97.7203 65.4885 96.8617 65.0473C96.1832 64.6986 95.0208 64.244 94.5439 63.59C94.0352 62.8924 94.7388 61.4073 94.9401 60.6657C95.6241 58.1423 96.4386 55.6559 96.9528 53.0822C98.728 55.2934 101.192 56.6628 103.743 57.5459C105.127 58.0252 106.55 58.3716 107.99 58.5884C109.297 58.7852 110.707 59.0234 112.017 58.7441C113.006 58.533 114.247 58.0444 114.953 57.2331C115.205 56.9435 115.508 56.4126 115.367 55.9918C115.187 55.4578 114.665 55.7091 114.382 55.3106C114.136 54.9634 114.175 54.1515 114.096 53.7287C113.957 52.9805 113.766 52.2528 113.534 51.5326C113.082 50.1342 112.519 48.7326 112.384 47.2446C112.267 45.9535 112.54 44.7328 113.139 43.6126C113.422 43.083 114.134 41.6423 114.828 41.7022C115.59 41.7679 114.562 45.2201 114.528 45.9242C114.395 48.7159 114.744 51.6904 116.076 54.1372C116.587 55.0741 117.325 56.1649 118.414 56.281C119.568 56.4038 120.499 55.4279 121.048 54.4405C122.389 52.0313 121.713 48.7255 121.034 46.2006C120.202 43.1026 118.028 40.9674 116.654 38.1852C118.706 38.4068 119.804 39.8077 120.857 41.5851C122.017 43.5418 122.919 45.891 123.364 48.1677C123.589 49.3181 123.434 50.4732 123.435 51.6348C123.436 52.0207 123.435 53.4444 124.021 53.3883C124.647 53.3284 124.861 51.7228 124.953 51.2328C125.164 50.1093 125.392 48.9856 125.575 47.8567C125.9 45.859 126.044 43.8129 126.432 41.8291C126.497 41.4938 126.628 40.5634 127.095 40.8146C127.455 41.0081 127.397 42.4471 127.411 42.7816C127.443 43.6058 127.488 44.43 127.495 45.2551C127.504 46.478 127.277 47.7438 127.388 48.9593C127.461 49.7535 127.857 50.6309 128.349 49.56C128.837 48.4977 128.936 47.1731 129.208 46.0307C129.493 44.8315 129.788 43.6144 130.394 42.5493C130.562 42.2538 130.743 41.7847 131.117 41.9237C131.388 42.0249 131.589 42.7164 131.673 42.9604C132.051 44.0635 131.987 45.2899 131.963 46.4446C131.934 47.8595 131.792 49.2431 131.456 50.615ZM93.6611 52.6674C93.5575 52.6314 93.1176 52.5866 93.0084 52.5763C92.8805 52.5644 93.0257 52.3111 92.7161 52.3831C92.776 52.5423 92.882 52.6485 93.0347 52.7018C92.5693 52.871 92.226 52.4531 91.9077 52.3993C91.6033 52.3479 91.5903 52.3993 91.2898 52.7449C90.9642 52.3182 91.0252 52.5843 90.7575 52.5845C90.6601 52.5846 90.656 52.7427 90.4974 52.7238C90.359 52.7072 90.3445 52.4816 90.2626 52.4551C89.8184 52.3106 89.3615 53.0376 88.8576 52.4069C88.7355 53.0631 87.337 52.2412 86.7989 52.3565C86.2349 52.4771 86.4782 52.6945 86.0223 52.323C85.588 51.9691 85.7091 52.2042 85.2039 52.4939C85.2156 52.4871 84.9187 52.7026 84.9463 52.7061C84.5965 52.6621 84.6164 52.2736 84.1736 52.2941C83.7048 52.316 83.5045 52.7111 83.0754 52.225C82.9822 52.589 82.9629 52.4322 82.7431 52.5239C82.6221 52.5548 82.5163 52.5206 82.4256 52.4216C82.3981 52.5216 82.3377 52.583 82.2442 52.6055C82.0048 52.6286 81.5553 52.6644 81.3378 52.5405C81.0115 52.3545 81.2737 52.283 81.0474 52.0738C80.946 52.6507 80.7237 52.5281 80.2548 52.5818C79.8971 52.6231 79.8183 52.5052 79.4766 52.4478C79.1401 52.3914 78.7053 52.5317 78.377 52.5914C78.2414 52.6163 78.0601 52.7177 77.9221 52.6822C77.7978 52.65 77.7446 52.5463 77.6703 52.5191C77.5802 52.4866 77.5993 52.4016 77.4435 52.3607C77.3361 52.3326 77.1438 52.4408 77.0365 52.4595C76.2712 52.5931 75.5363 52.5944 74.8063 52.2709C75.1658 52.95 73.9659 52.5833 73.752 52.3021C73.4846 52.7524 73.1611 52.4345 72.6222 52.4697C72.1033 52.5035 71.3227 52.6744 71.1123 51.9796C71.0711 52.1208 70.7765 52.5307 70.6594 52.5933C70.3192 52.7744 70.2786 52.5063 69.9623 52.3972C69.5318 52.2485 69.6216 52.5307 69.3546 52.588C68.904 52.685 68.6604 52.3439 68.2621 52.1626C68.2453 52.4444 68.2367 52.6178 68.0099 52.7933C67.8091 52.0075 67.0924 52.8577 67.2154 51.8074C66.9427 51.9982 66.5591 52.1447 66.4814 52.5307C66.9374 52.3958 66.5301 52.7162 66.5109 52.7268C66.4507 52.7607 66.2471 52.4536 66.1999 52.4103C66.1869 52.5551 66.1741 52.7001 66.1613 52.8449C65.9796 52.7474 65.809 52.5725 65.6616 52.4849C65.5287 52.4061 65.719 52.2419 65.4946 52.2306C65.3764 52.2245 65.2529 52.4999 65.1288 52.5234C64.9389 52.5591 65.0301 52.2664 64.9506 52.2762C64.8296 52.2911 64.6323 52.4814 64.5408 52.4778C64.2407 52.4658 64.4439 52.3157 64.2148 52.2469C63.8056 52.1237 63.8318 52.4114 63.5376 52.5151C62.8644 52.7527 62.932 51.6597 62.2473 52.3887C62.0834 52.5631 61.9779 52.8325 61.7535 52.8174C61.2887 52.786 61.4519 52.1939 61.5463 51.9039C61.6441 51.9557 59.8482 52.9471 59.8624 52.9083C59.8737 52.6706 60.1562 52.4872 59.9038 52.276C59.6974 52.752 59.4802 52.7603 59.0042 52.8489C58.7728 52.8921 58.7272 52.9496 58.4796 52.8461C58.3219 52.7806 58.216 52.5101 58.0592 52.4952C58.0803 52.4972 57.7924 52.7328 57.7486 52.7539C57.4888 52.8798 57.3244 52.7371 57.072 52.7889C56.8567 52.833 56.7719 53.0296 56.5578 52.9758C56.2721 52.904 56.4399 52.5372 56.0468 52.6396C55.9123 52.6746 55.8316 52.9529 55.6198 53.0103C55.2896 53.1003 54.885 52.9327 54.5362 53.0201C54.2593 53.0897 54.0538 53.119 53.8116 53.1335C53.616 53.1452 53.6965 52.9816 53.3363 53.1748L53.1837 52.761C53.0034 52.9354 52.8231 53.1094 52.6428 53.2838C52.6087 53.1275 52.5869 52.9694 52.5778 52.8091C52.3089 53.0986 51.9704 53.148 51.6089 53.1741C51.2176 53.2021 50.926 53.2939 50.5452 53.3709C50.4248 53.3951 50.1147 53.4339 50.0157 53.3886C50.0302 53.3952 49.8305 53.306 49.8907 53.3229C49.8647 53.2662 49.8407 53.2084 49.8184 53.1497C49.7848 52.9865 49.6755 52.9793 49.4909 53.1281C49.3953 53.1124 49.2101 52.9777 49.1149 53.0108C48.8693 53.0965 48.9026 53.3012 48.658 53.2712C48.4991 53.2516 48.4181 52.9994 48.2528 52.9823C47.9998 52.9561 47.7804 53.2605 47.5524 53.3269C48.2456 53.1247 46.6534 53.2816 47.1484 53.2955C46.8238 53.2864 46.4869 53.2692 46.1869 53.4254C46.0212 53.3037 46.2224 53.0588 46.055 52.9581C45.9031 52.8667 45.8913 53.1081 45.8736 53.1134C45.9694 53.0842 45.9216 53.2896 45.8257 53.3261C45.527 53.4399 45.2879 53.1505 45.2725 52.8635C45.0187 53.2741 44.9474 53.1091 44.5742 53.1344C44.206 53.1595 43.8885 53.3669 43.5202 53.3631C42.7918 53.3556 42.2975 53.0835 42.0544 52.3846C42.8305 52.4861 43.6117 51.9497 44.3707 52.0761C44.6202 52.1176 44.7759 52.319 44.9945 52.2832C45.2637 52.2392 45.4517 51.9235 45.797 51.8895C46.5585 51.8147 47.3091 51.8875 48.0759 51.7621C48.9917 51.6121 49.9473 51.5233 50.872 51.5963C51.5865 51.6527 52.165 51.3593 52.8896 51.3027C53.8264 51.2293 54.771 51.2164 55.7095 51.1635C56.6736 51.1091 57.7112 50.9437 58.6728 50.9968C58.973 51.0132 59.2314 51.0449 59.5293 51.0256C59.6553 51.0173 59.7746 50.9254 59.9067 50.9392C60.079 50.9571 60.1529 51.1466 60.3315 51.1399C60.635 51.1288 60.9595 50.86 61.3202 50.8527C61.9134 50.8406 62.504 50.8421 63.0988 50.8058C63.6224 50.7738 64.1833 50.6424 64.7046 50.6495C65.0723 50.6545 65.163 50.9911 65.3773 51.0259C65.7626 51.0883 67.7115 49.8963 67.8799 50.9661C68.8946 50.2198 70.2553 50.8517 71.3847 50.7116C72.8356 50.5314 74.3131 50.692 75.7738 50.6278C77.2602 50.5626 78.7893 50.623 80.2698 50.7736C80.883 50.836 81.4755 50.8946 82.0904 50.8567C82.3646 50.8398 82.6815 50.7646 82.9556 50.8325C83.022 50.8491 83.5305 51.2303 83.4673 51.2413C83.745 50.9734 83.5572 50.9342 84.0457 50.9204C84.4224 50.9098 84.7785 50.9972 85.153 51.021C85.8252 51.0638 86.5024 50.9637 87.1731 50.9858C87.7331 51.0042 88.2806 51.093 88.8436 51.0973C89.4504 51.1019 90.1669 51.1205 90.6061 51.6463C90.5596 51.4812 90.5135 51.3161 90.467 51.151C91.1444 51.2079 91.8137 51.4678 92.4984 51.3463C92.3252 51.5247 92.1494 51.6703 92.0832 51.9318C92.4524 51.8815 92.7025 51.6045 93.0912 51.6023C93.4178 51.6001 93.4857 51.7762 93.8304 51.5487C93.8728 51.8274 93.9153 52.1062 93.9577 52.3847C94.4352 52.2639 94.1218 51.8814 94.1567 51.5364C94.5448 51.6617 94.8734 51.5179 94.7204 52.1178C94.6025 52.5803 94.0652 52.8083 93.6611 52.6674ZM92.9902 57.8198C92.8236 58.3225 91.3836 58.0353 91.0431 57.982C90.6032 57.9135 90.0998 57.805 89.6947 57.7511C89.6461 57.6814 89.5878 57.6224 89.52 57.5738C89.4689 57.6501 89.4045 57.7042 89.3266 57.736C89.1404 57.7798 89.1398 57.9862 88.8955 57.9406C88.884 58.246 89.0815 58.0725 89.2327 58.1833C88.8516 58.4579 89.0259 58.1418 88.8121 58.1468C88.7592 58.066 88.6854 58.0343 88.5908 58.0517C88.4702 58.0852 88.3592 58.1407 88.2576 58.218C88.1622 58.3261 88.0807 58.3316 88.0128 58.2349C87.9477 58.1645 87.8683 58.1211 87.7745 58.1045C87.3991 58.1702 87.2941 58.3492 86.8713 58.32C86.2673 58.2782 85.6139 58.4492 85.0193 58.3592C84.6508 58.3034 84.0351 57.6811 83.8678 58.2876C83.6131 57.838 83.2072 57.5321 82.9634 57.0726C84.0996 57.002 85.2354 56.9179 86.3726 56.8738C87.3682 56.8353 88.4574 56.9558 89.3877 56.9053C90.2594 56.858 91.1823 56.7545 92.0722 56.6691C93.0155 56.5785 93.3276 56.8008 92.9902 57.8198ZM63.3488 57.894C63.7614 58.0167 64.1543 57.7385 64.5544 57.8264C64.6867 57.8555 64.9605 58.1143 65.0207 58.1194C65.1309 58.1289 65.4548 57.8747 65.5937 57.8407C66.4725 57.6257 67.5371 57.6486 68.4157 57.7806C68.8813 57.8505 68.9528 57.6215 69.3592 57.5104C69.7815 57.3946 70.382 57.4837 70.8267 57.4518C71.8731 57.3765 72.9191 57.4301 73.9584 57.3478C75.0253 57.2633 76.087 57.2177 77.1544 57.1587C77.8816 57.1185 79.629 56.6727 80.2316 57.2529C80.7287 57.7312 80.0884 58.5617 79.5913 58.7514C79.2195 58.8927 79.0415 58.5946 78.7655 58.6231C78.4512 58.6555 78.5608 59.0545 78.2803 58.6843C78.1065 59.0525 77.014 58.8955 76.7009 58.9199C76.0186 58.9728 75.4415 59.12 74.977 58.436C75.0085 58.6331 75.04 58.8305 75.0715 59.0278C74.4557 58.674 73.7948 58.7872 73.2602 58.9106C72.9955 58.9717 72.1829 59.3936 71.8961 59.2116C71.6988 59.0865 72.0466 58.8725 71.7137 58.7656C71.5392 58.7095 71.2381 59.0209 71.0249 59.0054C70.4349 58.9617 70.6023 58.5353 70.0228 59.078C69.8264 58.8955 69.7611 58.5853 69.7871 58.3193C69.3661 58.7052 69.4013 59.3484 68.6487 59.2307C68.3682 59.1869 68.3166 58.8793 68.1705 58.8227C67.859 58.7017 67.8236 58.9191 67.5538 59.0911C67.4519 59.156 67.3276 59.2604 67.2077 59.2735C66.9613 59.2998 66.9223 59.1782 66.8885 59.1822C66.7245 59.2016 66.518 59.2912 66.3235 59.2272C66.1489 59.1698 66.0978 58.8386 65.7904 58.9159C65.496 58.9903 65.4935 59.2051 65.5469 59.5268C65.2566 59.4944 65.0811 59.3207 64.8639 59.1324C64.6447 59.6821 64.1831 59.2268 63.9278 59.6905C63.5953 59.2638 63.382 59.3813 62.9694 58.9645C62.9898 59.1384 63.01 59.3123 63.0301 59.4863C62.7082 59.4196 62.565 59.1756 62.2902 59.4984C62.0236 58.9647 61.2154 59.7252 60.8002 59.2096C60.6151 59.8626 59.3907 59.7065 58.8736 59.7178C58.4153 59.7279 58.076 59.6876 57.6282 59.8019C57.2326 59.9029 56.6841 60.0078 56.312 59.9615C56.0688 59.9313 55.803 59.8833 55.5 59.9188C55.0633 59.9696 54.6861 60.2127 54.2336 60.0977C53.5524 59.9246 53.1349 58.9629 53.8936 58.5405C54.4128 58.2513 55.3483 58.3585 55.9197 58.3051C56.8667 58.2166 57.9281 58.0313 58.8764 58.1154C59.6161 58.1813 60.2903 57.9917 61.045 57.9115C61.6132 57.8512 62.5444 57.7426 62.9151 58.3479C63.0572 58.1712 63.0426 57.8029 63.3488 57.894ZM52.9816 66.1786C52.8799 65.6343 57.2096 65.3345 57.6393 65.299C58.5415 65.2242 59.4463 65.1709 60.3507 65.1462C61.0941 65.126 61.7879 65.2784 62.5315 65.1558C63.2259 65.0413 64.0641 64.8066 64.6686 65.335C64.7575 64.6123 67.3638 64.9644 67.8596 64.9663C70.018 64.9746 72.0834 64.9801 74.1711 64.8364C75.3643 64.7543 76.6313 64.6438 77.8247 64.708C78.3629 64.7371 78.7964 64.8912 79.3315 64.7573C79.6807 64.67 80.0569 64.4885 80.3909 64.7452C80.7816 65.0458 80.9486 66.0661 80.6794 66.492C80.4834 66.8023 80.3097 66.7679 79.9965 66.7142C79.5151 66.6319 79.1573 66.5121 78.6662 66.7225C78.7457 66.6883 78.3373 66.7863 78.3711 66.7835C77.8149 66.8281 77.0521 67.2457 76.5728 66.7644C76.7648 66.8006 77.0439 66.4321 76.8019 66.4018C76.62 66.3792 76.5047 66.5886 76.3629 66.6588C75.8776 66.8987 75.6292 66.8237 75.3395 66.3203C74.755 66.864 74.6921 66.7135 74.4355 66.0441C74.2379 66.2075 74.1955 66.5942 74.04 66.7211C74.0169 66.74 74.1126 66.975 74.0004 66.9653C73.8962 66.9562 73.8621 66.7727 73.7819 66.7583C73.7309 66.749 73.7041 66.5881 73.6552 66.5783C73.6021 66.5677 73.5476 66.6704 73.4874 66.6674C73.3269 66.6593 72.8677 67.0266 73.0324 66.5111C72.7889 66.8437 72.6843 66.6317 72.5965 66.3289C72.3155 66.5585 72.0347 66.788 71.7536 67.0174C71.623 66.6271 71.3981 66.7334 71.1153 66.8696C71.2006 66.5987 71.1472 66.3422 70.9334 66.5307C70.8094 66.6398 70.7264 66.9863 70.5996 67.1334C70.0867 66.5751 69.9002 66.7283 69.1916 66.8009C68.9211 66.8285 68.5849 66.8822 68.3433 66.7065C68.1308 66.5522 68.0107 65.9858 67.6473 66.4434C67.7284 66.3417 67.6015 67.1235 67.5791 67.2476C67.4189 67.1316 67.2827 66.9887 67.1706 66.8195C66.9616 67.2643 66.4127 66.8651 65.9631 66.9561C65.255 67.0992 64.5247 67.3403 63.8993 66.7739C63.8551 66.9567 63.3428 67.1897 63.342 67.1968C63.3724 66.8729 63.5625 66.9868 63.1744 66.9254C63.1029 66.9141 63.0219 67.0521 62.9544 67.0672C62.723 67.1186 62.4528 67.0699 62.2195 67.0627C61.2494 67.0327 60.3613 67.2638 59.4033 67.3476C59.0804 67.3756 58.6973 67.431 58.3941 67.3003C58.0819 67.1653 58.0903 67.0121 57.7744 67.0991C57.8744 67.0715 57.5769 67.4075 57.593 67.3947C57.5505 67.4281 57.3733 67.2641 57.3104 67.2764C57.292 67.3481 57.2736 67.4196 57.2553 67.4913C57.179 67.4812 57.1029 67.471 57.0268 67.4611C56.8184 67.4911 56.6306 67.2645 56.4348 67.2568C56.4708 67.2582 55.9066 67.484 55.9324 67.4976C55.5384 67.2865 55.6516 67.3478 55.1519 67.4763C54.6796 67.5978 54.2094 67.5694 53.7249 67.6452C52.3154 67.8652 53.1551 67.106 52.9816 66.1786ZM51.7368 73.7524C51.4718 73.3484 52.1769 73.2087 52.4023 73.173C52.7726 73.1143 53.2641 73.2311 53.5109 73.1679C53.8868 73.0717 54.2497 72.8424 54.6728 72.7802C55.2069 72.7017 55.7451 72.6889 56.2814 72.6398C56.46 72.6232 56.6812 72.5572 56.855 72.5683C57.1139 72.5851 57.2213 72.7322 57.4303 72.7332C57.7863 72.7352 58.2254 72.4937 58.5902 72.4494C59.0573 72.3923 59.5292 72.3657 59.9986 72.3407C60.9876 72.2879 61.9664 72.3098 62.9549 72.3087C63.4058 72.3078 64.6064 71.8052 64.8312 72.3689C65.1437 71.9417 65.9455 71.9999 66.3924 71.9875C67.1796 71.9657 67.9587 71.8841 68.7453 71.8448C69.4188 71.8111 70.1713 71.9661 70.8327 71.8576C71.1972 71.7979 71.318 71.6723 71.7313 71.729C72.0384 71.7708 72.5066 71.5964 72.7703 71.6736C72.7565 71.6696 73.0992 71.8977 72.9922 71.905C73.11 71.8967 73.1031 71.9853 73.2329 71.9458C73.4033 71.8942 73.325 71.6638 73.6784 71.582C74.2294 71.4543 74.9644 71.6021 75.5369 71.5692C76.0923 71.5375 76.6469 71.5238 77.2029 71.5266C77.4588 71.5278 77.7754 71.4621 78.0244 71.5158C78.1464 71.542 78.4057 71.7131 78.5091 71.696C78.8021 71.6467 78.9514 71.428 79.3474 71.4416C79.7965 71.4569 80.2006 71.4503 80.6472 71.4134C81.0794 71.3779 81.1488 71.3116 81.3631 71.6981C81.5755 72.0817 81.634 72.5811 81.2432 72.8417C81.4971 72.8238 81.8093 73.1891 81.5102 73.3915C81.3253 73.5166 80.9545 73.2344 80.7331 73.2547C80.4604 73.2799 80.2463 73.4348 79.9496 73.4445C79.6375 73.4548 79.3206 73.5392 79.0129 73.5457C78.6923 73.5523 78.45 73.3983 78.1459 73.4639C77.8784 73.5218 77.8501 73.7574 77.528 73.5505C77.3679 73.4475 77.3409 73.0662 77.1225 73.0627C76.8298 73.0579 76.9465 73.4642 76.7783 73.6525C76.733 73.0713 76.3156 74.0329 76.1497 73.3275C75.9967 73.5618 75.4304 73.8894 75.1559 73.7013C74.9058 73.5297 74.9889 73.1415 74.8847 72.862C74.7112 73.3645 74.246 73.8859 74.2881 72.971C74.062 73.2699 73.4511 73.2228 73.6043 73.7461C73.4201 73.7423 73.3766 73.4597 73.2216 73.4383C73.0878 73.4199 72.9816 73.5304 72.9611 73.5287C73.0344 73.5354 72.742 73.6399 72.7374 73.6409C72.9354 73.5978 72.1664 73.5241 72.2973 73.5253C72.1189 73.5238 71.9004 73.6807 71.6917 73.6802C71.5017 73.6797 71.3126 73.5993 71.1249 73.5764C70.6385 73.5166 70.7398 73.6314 70.4343 73.7957C70.3212 73.8564 70.2928 73.9594 70.1321 73.9467C70.0135 73.937 69.9692 73.7708 69.9558 73.7693C69.7891 73.7514 69.9123 73.6912 69.6534 73.719C69.6236 73.774 69.5941 73.8287 69.5643 73.8836C69.4709 74.0122 69.3496 74.0442 69.2008 73.9802C68.8177 74.0684 67.5473 74.4512 67.6717 73.7424C67.4771 73.8446 67.2824 73.947 67.0878 74.0494C67.0042 73.4778 65.9466 74.2355 65.7104 74.2738C65.4072 74.3226 65.3793 74.1977 65.0928 74.1311C65.0411 74.1192 64.9375 74.3024 64.8165 74.276C64.5021 74.2081 64.446 74.1745 64.3921 73.8075C64.168 74.2577 63.9817 74.0565 63.5751 74.1305C63.4851 74.1469 63.4277 74.3372 63.2985 74.3044C63.2054 74.2808 63.203 74.098 63.1387 74.0742C63.081 74.053 63.0896 73.9087 63.0046 73.8883C62.907 73.8645 62.5744 74.1577 62.479 74.203C62.2638 74.3049 61.9103 74.4736 61.7002 74.423C61.4405 74.3606 61.5561 74.1537 61.189 74.1769C60.61 74.2134 60.3684 74.7432 60.0081 73.9085C59.8456 74.2428 59.8663 74.3336 59.6051 74.4439C59.4121 74.5253 58.9234 74.4402 58.6694 74.4301C57.5844 74.3871 56.5176 74.7845 55.4415 74.6805C54.9685 74.6347 54.5697 74.533 54.0924 74.6161C53.5909 74.7037 53.1003 74.8323 52.5915 74.884C52.3328 74.9102 51.7923 74.9902 51.6652 74.6347C51.5536 74.3218 51.9702 74.1084 51.7368 73.7524ZM53.8649 86.5832C52.4574 87.5952 51.2918 88.9771 49.9995 90.1472C48.7039 91.3203 47.6757 92.6243 46.5106 93.9235C45.4333 95.1244 44.4436 96.2605 43.1412 97.168C42.3171 97.7424 41.5819 98.4491 40.7354 98.9908C40.1012 99.3963 39.1407 99.9298 39.45 98.6893C39.7671 97.418 40.3524 96.1331 40.8607 94.9457C41.5834 93.2581 42.3115 91.5859 43.0934 89.9304C43.3873 89.3082 43.5517 88.6889 44.0177 88.1935C44.5248 87.6541 44.8798 86.95 45.435 86.4404C47.7708 84.297 51.2909 85.9529 53.8649 86.5832ZM58.2797 87.3099C57.6413 87.6696 56.9268 87.7586 56.2502 87.9966C55.6737 88.1991 55.1376 88.5595 54.5175 88.5862C55.082 88.1306 55.5668 87.5118 56.2033 87.166C56.9191 86.777 57.5688 87.0602 58.2797 87.3099ZM86.3013 90.3073C83.953 89.4557 81.7666 88.201 79.4794 87.1909C79.0846 87.0165 75.9967 85.9236 76.0594 85.4034C78.2232 84.9774 80.4517 84.2462 82.6208 85.0434C84.594 85.7686 86.1989 87.5081 87.7265 88.964C88.125 89.3439 90.5899 91.0738 90.3693 91.6247C90.2165 92.0067 89.029 91.9025 88.7485 91.8242C88.3861 91.723 88.1775 91.4865 87.8934 91.2269C87.4182 90.7929 86.8926 90.5218 86.3013 90.3073ZM81.9662 76.0795C82.3229 75.7268 82.5364 75.1916 82.8771 74.8659C83.3148 74.4475 84.0212 74.6514 84.4997 74.8688C85.9356 75.5208 87.1629 76.6172 88.59 77.2976C90.1716 78.0518 91.5406 79.0595 92.967 80.0981C94.2709 81.0473 95.6807 81.8332 97.0116 82.7392C98.3678 83.6626 99.886 84.2627 101.261 85.1533C102.66 86.0596 104.054 86.9698 105.398 87.9685C107.796 89.7497 110.292 91.5786 112.066 94.111C112.977 95.4127 113.831 96.8891 114.5 98.3507C115.108 99.6793 115.767 101.524 114.979 102.906C114.223 104.233 112.933 105.279 111.841 106.269C111.427 106.644 111.034 107.1 110.498 107.263C109.846 107.46 109.085 107.406 108.415 107.464C104.83 107.777 101.491 107.482 97.9582 106.793C94.5519 106.128 91.1314 105.756 87.699 105.294C85.7627 105.034 83.8267 104.73 81.9166 104.297C81.1001 104.111 80.2693 103.897 79.4703 103.645C78.7726 103.424 78.1859 102.938 77.4684 102.746C74.4236 101.928 70.94 101.616 67.9256 100.242C70.5932 99.05 73.4278 98.3303 76.1617 97.3402C79.0392 96.2983 81.8495 95.424 84.8824 95.1278C86.443 94.9754 87.8396 94.5472 89.341 94.0989C90.7716 93.6715 92.2652 93.5406 93.7347 93.3492C94.3881 93.2639 96.2531 93.3915 96.4697 92.4734C96.7921 91.1065 94.9597 90.9487 94.1786 91.0711C93.0705 91.2448 92.1567 91.542 91.3086 90.5649C90.4426 89.5672 89.6012 88.5455 88.7195 87.5604C87.0848 85.7338 85.3998 83.621 83.089 82.8014C80.2699 81.8016 77.0008 82.7506 74.1879 83.3192C71.2169 83.9198 68.2507 84.4946 65.3353 85.3676C64.128 85.729 62.571 86.5253 61.318 86.3974C60.0832 86.2711 58.6845 86.054 57.4911 85.6712C56.9512 85.4982 56.5074 85.1772 56.0242 84.878C55.396 84.4888 54.7075 84.2395 54.0408 83.9368C52.6926 83.3253 51.3783 82.7619 49.9237 82.5215C48.6987 82.3191 47.3979 82.199 46.2109 82.6605C45.0462 83.1133 44.0143 84.0352 43.2017 85.02C42.3191 86.0901 41.5896 87.2891 40.8663 88.4846C40.5189 89.0583 40.0951 89.5591 39.7352 90.12C39.4333 90.591 39.257 91.1144 38.9375 91.5723C38.2224 92.5966 37.7367 93.9068 37.3034 95.0985C36.8218 96.4219 36.287 97.996 36.402 99.4358C36.4454 99.9799 36.4907 100.701 36.6866 101.205C36.9358 101.847 37.2909 101.831 37.803 102.073C38.6827 102.489 38.9293 103.638 40.0662 103.414C41.1325 103.204 42.0573 102.26 42.8353 101.507C43.8493 100.526 44.8198 99.4915 45.7901 98.4611C46.7857 97.4034 47.7668 96.2303 48.5589 94.986C48.8707 94.4962 49.1138 93.943 49.4822 93.497C49.9515 92.9288 50.4783 92.8606 51.1157 92.6343C56.6878 90.6555 62.287 88.7468 68.0332 87.4403C69.4098 87.1272 70.7977 86.7234 72.15 86.3068C73.5844 85.8648 74.3271 86.332 75.5109 87.173C77.984 88.9304 80.9071 90.1683 83.6609 91.315C84.5281 91.676 85.9086 91.6989 86.5864 92.411C82.5685 93.0691 78.7396 94.3358 74.8642 95.5972C72.9535 96.2188 71.0209 96.758 69.1029 97.3526C67.1842 97.9476 65.3387 98.7184 63.4464 99.389C61.5632 100.056 59.5728 100.329 57.6714 100.944C55.7303 101.573 53.7974 102.005 51.8049 102.387C49.7931 102.773 47.7954 103.218 45.7766 103.563C44.8523 103.722 43.9282 103.886 43.0142 104.103C42.1198 104.316 41.2557 104.826 40.3569 104.944C36.3427 105.472 32.4073 106.648 28.4087 107.313C25.4232 107.81 20.2291 108.502 18.2931 105.282C16.3463 102.045 18.7347 98.2683 20.8658 95.9534C22.1902 94.5147 23.6784 93.2485 25.2398 92.122C26.9109 90.9165 28.5187 89.6148 30.1902 88.411C33.9726 85.6868 38.0742 83.465 42.1379 81.2761C44.0884 80.2254 45.973 79.0985 47.8704 77.9455C48.8122 77.3731 49.3333 78.2965 50.0778 78.9242C50.6633 79.4181 51.7384 80.635 52.5576 80.0724C52.5891 80.275 52.6207 80.4775 52.6522 80.6804C52.8921 80.5627 53.1323 80.4452 53.3721 80.3276C53.5333 80.782 53.5145 81.0642 53.9647 81.3028C54.2412 81.4494 54.8313 81.6258 55.095 81.3676C55.1487 81.5471 55.2024 81.7263 55.2563 81.9057C55.4867 81.8867 55.5312 81.1782 55.5747 81.0123C55.9696 81.6322 56.5159 82.1504 57.21 82.3256C57.2134 82.2851 57.0972 81.7758 57.1021 81.7726C57.3218 81.6281 57.5989 82.2469 57.7153 82.3795C58.1013 82.8186 58.3316 82.7505 58.7581 82.3961C58.7891 82.4322 58.9335 82.8371 58.9545 82.8298C59.0468 82.7982 59.222 82.4395 59.2413 82.4069C59.2146 82.8787 60.0622 82.9738 60.3615 82.8724C60.2943 82.7342 60.2272 82.596 60.1602 82.4578C61.2027 82.3082 61.6121 83.4987 62.6128 83.4383C63.3527 83.3933 62.7593 83.2196 63.1781 82.879C63.5438 82.5814 63.6089 83.2322 63.6449 83.2117C63.7147 83.133 63.7687 83.0429 63.8071 82.9409C63.9425 83.4984 65.0202 83.9984 64.9088 83.0819C65.3328 83.2641 65.6338 83.5667 66.1031 83.6306C66.6735 83.7082 67.2826 83.5782 67.8515 83.5274C69.0775 83.4177 70.2332 83.149 71.3383 82.5452C71.9935 82.1874 72.6909 81.8625 73.3068 81.4308C73.8222 81.0693 74.8001 79.9724 75.4864 80.4447C75.3106 79.8876 76.138 80.4039 76.1644 79.6862C76.2973 79.7938 76.4302 79.9013 76.5631 80.0092C76.6427 79.8214 76.6205 79.5254 76.7273 79.3617C76.8738 79.1369 76.9454 79.2693 77.0703 79.1428C77.2102 79.0013 77.3323 78.6224 77.4999 78.5145C77.6726 78.4034 77.8759 78.536 78.0618 78.4389C78.3449 78.2911 79.5623 76.8482 79.3562 78.0845C79.8798 77.8934 79.4762 77.7185 79.5415 77.3436C79.6728 76.5922 79.9925 77.1329 80.311 77.1984C80.8324 77.3059 80.8219 76.8426 81.1126 76.5059C81.3781 76.1983 81.8773 76.0606 81.7053 75.5266C81.9017 75.6404 81.9433 75.8632 81.9662 76.0795ZM50.5356 60.0316C50.1248 60.5234 49.8172 60.3132 49.3606 60.241C49.3117 60.065 49.2282 60.0408 49.1102 60.1679C48.9749 60.2515 48.8294 60.3066 48.6735 60.3328C48.2991 60.432 47.9101 60.3898 47.5438 60.5401C47.5543 60.4083 47.6832 60.1738 47.6006 60.0399C47.2153 60.3263 46.9765 60.5085 46.5034 60.5139C46.1201 60.5182 45.4472 60.2035 45.1289 60.5798C45.1191 60.4333 45.1092 60.287 45.0996 60.1405C44.9437 60.2239 44.808 60.3356 44.6927 60.4756C44.6708 60.2586 44.6588 60.0945 44.5252 59.9192C44.2719 60.4789 43.9945 60.4922 43.5026 60.2782C43.5716 60.3082 43.0102 59.9545 43.0316 60.0526C42.8541 59.2487 45.6559 59.3151 45.9501 59.2834C46.6847 59.2036 47.4192 59.1573 48.1549 59.0845C48.8526 59.0156 49.3734 58.8987 49.8563 59.5243C49.6411 58.6206 51.6769 58.6654 50.5356 60.0316ZM18.4109 46.0168C18.488 47.383 18.771 48.8352 18.2767 50.1501C17.8794 51.2071 17.0867 52.4008 16.2328 53.0906C14.4844 54.503 13.0025 52.7748 12.7591 50.8755C12.5055 48.8944 13.0082 46.4738 14.5954 45.2523C15.5438 44.5226 16.462 44.573 17.5538 44.8131C17.8102 44.8695 18.2265 44.8478 18.3732 45.1217C18.4076 45.1857 18.3767 46.0154 18.4109 46.0168ZM41.6325 64.2199C41.3304 64.3837 41.0144 64.4797 40.7482 64.7026C40.6557 64.78 40.6242 64.9564 40.526 65.0216C40.3474 65.1404 40.0921 65.0616 39.906 65.1596C39.5979 65.3214 39.377 65.553 39.0108 65.702C38.467 65.9236 37.9902 66.2274 37.4762 66.5154C36.6198 66.9954 35.7006 67.4073 34.8053 67.798C34.3533 67.9953 33.1034 68.3797 33.1467 69.0908C33.0455 69.1201 32.9423 68.8826 32.7311 68.9015C32.4414 68.9274 32.0586 69.2875 31.7577 69.3761C31.1949 69.5417 30.7593 69.5563 30.7593 70.3274C30.5802 70.1965 30.5347 69.8765 30.2964 69.8342C30.0281 69.7864 29.9153 70.0973 29.7007 70.1942C29.448 70.3082 29.1337 70.1989 28.8835 70.3201C28.7741 70.4446 28.6524 70.5532 28.5186 70.6458C28.3824 70.6626 28.2469 70.6582 28.1122 70.6322C27.5808 70.7533 27.092 70.9682 26.5594 71.0796C26.0405 71.1886 25.685 71.2281 25.9032 71.8878C25.348 72.0046 25.2125 71.3713 24.5861 71.6029C23.8183 71.8866 23.1007 72.0912 22.2992 72.2644C21.8905 72.3526 21.4634 72.5496 21.0517 72.5959C20.7579 72.6289 20.4838 72.5159 20.1945 72.5511C19.846 72.593 19.5658 72.7666 19.205 72.773C18.8628 72.7795 18.5036 72.7135 18.1676 72.6486C18.2151 72.7941 18.2746 72.9336 18.3459 73.0672C18.1136 73.0149 18.0063 72.7146 17.8093 72.6702C17.6026 72.6236 17.4174 72.8528 17.2453 72.8021C17.172 72.7803 17.2207 72.5375 17.0897 72.491C16.9701 72.449 16.9197 72.4986 16.8012 72.4787C16.7617 72.4721 16.266 72.4432 16.187 72.4882C16.049 72.5668 16.1887 72.7141 16.1612 72.736C15.695 73.1068 15.6893 72.9068 15.4815 72.5194C15.1764 71.9508 14.8084 72.3097 14.2538 72.2101C13.6355 72.0993 13.1485 72.3923 12.5402 72.3506C11.884 72.3057 11.1128 71.7779 10.5326 71.4697C9.27977 70.8042 8.058 70.1743 7.00588 69.1664C4.94901 67.196 3.27573 64.7727 2.28915 61.9986C1.2291 59.0183 1.02823 55.9101 1.11332 52.7482C1.1645 50.8466 1.30612 48.9462 1.58499 47.0669C1.77696 45.7742 1.81718 43.4769 3.17324 42.8883C3.40632 45.9151 2.67072 48.9994 3.13465 52.0066C3.27435 52.9125 3.61502 54.1193 4.25979 54.7902C5.21436 55.7831 5.43772 54.3477 5.52401 53.5547C5.6847 52.0821 5.98323 50.6177 6.19471 49.1519C6.40587 47.6868 6.55514 46.2054 6.84873 44.7557C6.95586 44.2271 7.81936 40.3564 8.45317 40.5397C8.32489 43.3556 7.98437 46.1231 7.97094 48.9493C7.96569 50.0829 7.87122 51.2803 8.02342 52.4065C8.10184 52.986 8.59286 54.6865 9.43737 54.5446C10.2189 54.4134 9.35973 53.2156 9.28672 52.7537C9.09346 51.531 9.33982 50.0098 9.51996 48.7962C9.8611 46.4994 10.6219 44.147 11.8655 42.2278C12.9793 40.5092 14.6943 38.873 16.7604 39.1761C17.6431 39.3057 18.3318 39.5413 18.7753 40.4077C19.1234 41.0875 20.4943 41.8602 19.6998 42.7112C18.9766 43.4864 17.8068 42.866 17.0029 42.6812C16.0186 42.4551 14.9637 42.7272 14.1405 43.3472C12.728 44.4105 11.9232 46.3117 11.6605 48.0949C11.3064 50.499 12.2529 56.7922 15.7392 55.3818C18.0552 54.4448 19.7996 51.0742 19.6052 48.4937C19.5272 47.4608 19.1515 45.4998 20.4812 45.2209C22.1847 44.8637 22.4253 46.882 22.2528 48.1934C22.0021 50.1014 21.0639 51.8754 19.9906 53.3838C19.0552 54.6984 17.9672 55.5205 16.8416 56.6062C16.5084 56.9277 15.6583 57.6504 15.8011 58.2483C15.9576 58.9035 17.2934 59.0898 17.8283 59.1975C20.4745 59.7299 23.4586 59.2401 26.1004 58.8683C31.5299 58.1042 36.8879 56.2221 41.34 52.7617C41.5198 54.9028 41.7466 57.0367 41.8301 59.1855C41.8705 60.2286 41.8809 61.2867 41.9919 62.3241C42.0602 62.9622 42.3071 63.8536 41.6325 64.2199ZM26.5775 71.6804C26.3643 71.8 26.5948 71.0753 26.5355 71.3151C26.854 71.4377 26.868 71.5596 26.5775 71.6804ZM49.1005 45.7696C49.4389 45.3687 50.3633 44.4151 50.6568 45.3201C50.7659 44.9344 50.7801 44.363 51.2015 44.884C51.3693 44.2441 53.2203 44.3039 53.6787 44.2756C55.1467 44.1855 56.6205 44.1372 58.0832 43.9804C61.0891 43.6584 64.1473 43.8246 67.1642 43.814C67.8174 43.8117 68.469 43.7737 69.1175 43.8756C69.7432 43.9738 70.401 44.2495 71.0388 44.1488C71.6059 44.0592 71.9778 43.8912 72.5614 43.963C73.2599 44.0491 73.938 44.1102 74.6427 44.1075C77.7595 44.0952 80.8748 44.2309 83.9923 44.2363C84.5999 44.2373 85.3279 44.1097 85.8979 44.3871C86.1091 44.4899 86.3399 44.832 86.5012 44.8695C86.6859 44.9125 86.5762 44.6024 86.8236 44.7426C87.155 44.9299 86.8985 45.5061 86.6795 45.5973C86.8107 45.5428 86.4428 45.4888 86.4796 45.4867C86.3051 45.4968 86.1562 45.6407 85.9688 45.6317C85.6832 45.6183 85.4443 45.4311 85.2143 45.2664C85.2102 45.3337 85.3367 45.7822 85.1923 45.8047C85.0682 45.8243 84.9518 45.3822 84.9393 45.2793C84.2419 45.9404 83.503 45.5718 82.6377 45.6556C82.0238 45.715 80.7438 46.1551 80.3156 45.4664C80.2979 45.6129 80.2431 45.7412 80.1517 45.8512C80.0293 46.0514 79.9235 46.0343 79.8341 45.7994C79.8039 45.8011 79.5057 45.8708 79.4998 45.8703C79.29 45.8523 79.0179 45.7714 78.8044 45.7516C78.4741 45.7214 78.5349 45.9799 78.2717 45.9841C78.128 45.9862 77.7615 45.7633 77.5108 45.7493C77.0768 45.7249 76.6335 45.9229 76.2053 45.863C75.9104 45.8218 75.644 45.5638 75.3547 45.5539C74.9943 45.5409 74.8774 45.8364 74.5919 45.4213C74.5334 45.4044 74.4971 45.6484 74.474 45.6526C74.4795 45.6516 74.2021 45.6957 74.1694 45.7095C74.1124 45.7329 73.8906 45.8421 73.8232 45.8432C73.6774 45.8462 73.5983 45.7341 73.4437 45.7314C73.1881 45.7268 72.372 45.9685 72.3949 45.4603C71.4826 45.8236 70.7041 45.682 69.7678 45.7679C69.3382 45.8075 69.0684 45.7457 68.6596 45.6609C68.1478 45.5547 67.8079 45.6881 67.2974 45.715C66.8068 45.741 66.6521 45.5179 66.238 45.3165C66.0747 45.237 65.9668 45.1323 65.7664 45.1764C65.6522 45.2017 65.7335 45.4084 65.6997 45.4225C65.5238 45.4955 65.4009 45.4182 65.1596 45.4358C64.7141 45.4684 64.5368 45.8686 64.0789 45.493C64.231 45.4733 64.3832 45.453 64.5355 45.4333C64.0976 45.2337 63.5197 45.132 63.6257 45.8583C63.2523 45.8021 63.5756 45.5288 63.392 45.4309C63.2084 45.3334 63.0029 45.4968 62.7717 45.5776C62.161 45.7905 61.6519 45.6848 61.0153 45.6466C60.2919 45.6032 58.5996 46.2376 58.0815 45.4139C58.066 45.5876 57.8926 46.071 57.6618 46.0483C57.5867 46.0408 57.7963 45.5275 57.8201 45.4732C57.7012 45.7452 57.1591 45.7968 56.8917 45.9378C56.9218 45.7916 56.9516 45.6456 56.9816 45.4996C56.7335 45.7835 56.613 45.6103 56.3211 45.7052C56.1934 45.7467 56.0086 46.0295 55.8995 46.0466C55.7725 45.8882 55.6125 45.82 55.4202 45.8421C55.2921 45.8077 55.1641 45.8009 55.0362 45.822C54.5238 45.8618 54.0567 46.1679 53.547 45.9595C53.1059 45.7788 52.9353 45.3143 52.6723 46.0534C52.603 45.922 52.5338 45.7906 52.4647 45.6592C52.3793 45.8019 52.2939 45.9444 52.2084 46.0869C51.8747 45.852 51.8542 45.716 51.4701 45.8022C51.38 45.8409 51.2875 45.8354 51.1929 45.786C51.1702 45.8583 51.1476 45.9307 51.125 46.003C51.116 46.1848 51.0657 46.245 50.9743 46.1832C50.8974 46.1535 50.8281 46.1085 50.7662 46.048C50.5121 46.0689 50.1875 46.1407 49.9148 46.101C49.8095 46.0858 49.1496 45.7113 49.1005 45.7696ZM56.8769 40.8782C56.9069 40.9276 56.9368 40.9769 56.9668 41.0263C56.5541 41.2604 56.4571 41.126 56.4144 40.6558C56.616 40.66 56.6505 41.0411 56.8769 40.8782ZM57.1325 40.6023C57.3312 40.6965 57.559 40.8815 57.7461 40.6336C57.8721 41.0271 56.9365 41.5642 57.1325 40.6023ZM58.4156 40.776C58.8327 41.0791 57.8323 40.8355 57.8338 40.836C58.0136 40.6575 58.2075 40.6376 58.4156 40.776ZM62.0029 39.0865C62.146 39.8623 62.5406 39.8403 63.1773 39.4796C64.106 38.9537 64.2628 38.0924 64.3275 37.064C64.3897 36.0778 64.5019 35.6961 65.448 35.902C66.1083 36.0457 66.667 35.9249 67.3327 35.9051C68.0431 35.8841 68.2935 36.0007 68.3506 36.7864C68.4079 37.5732 68.5381 38.1706 69.0693 38.7693C69.6094 39.378 70.3297 39.7415 71.0314 40.082C71.3923 40.257 71.7311 40.4453 72.1304 40.4833C72.2851 40.4981 73.0904 40.3886 73.1072 40.6623C73.1199 40.8684 72.0046 41.449 71.8864 41.5182C71.3691 41.8205 70.8534 42.0918 70.2884 42.2749C68.9887 42.6963 67.6106 42.7212 66.2644 42.6957C64.0938 42.6547 61.0939 41.6679 59.796 39.5982C60.5317 39.4276 61.2674 39.2571 62.0029 39.0865ZM61.8083 32.369C61.4648 32.0593 61.2424 31.5913 60.9571 31.2244C60.8133 31.0394 60.7079 30.9806 60.5709 30.888C60.4268 30.7904 60.3456 30.9285 60.2252 30.6992C59.9144 30.1069 60.8735 29.2734 59.8562 29.0454C59.5122 28.9681 58.6839 29.2613 58.5834 28.7312C58.4412 27.9818 59.7721 27.9329 60.0852 27.5524C60.7079 26.7962 60.2852 25.5143 60.6645 24.642C61.0234 23.8156 61.95 23.6688 62.6814 23.4204C63.7005 23.0746 64.7317 22.8741 65.7664 22.5973C66.4899 22.4039 67.6919 21.6268 68.3629 22.3135C67.3275 22.5605 67.9293 22.9482 68.6195 23.1672C69.4012 23.4154 70.2296 23.5121 71.0396 23.5813C71.8734 23.6523 72.723 23.6659 73.5469 23.4873C74.3088 23.322 75.1596 22.6103 75.9584 22.7926C75.5153 23.621 74.1949 24.0734 73.3925 24.2904C72.9837 24.4009 72.7219 24.3664 72.7769 24.9142C72.83 25.4451 73.2594 25.9775 73.3565 26.5306C73.4848 27.2626 73.3727 27.9354 73.1302 28.6237C72.8917 29.3009 72.8362 29.3895 73.0446 30.0367C73.3693 31.0444 72.6713 32.1583 72.0262 32.8901C69.4172 35.8492 64.4244 34.7282 61.8083 32.369ZM68.4376 14.6838C68.4481 14.714 68.4392 14.7025 68.4376 14.6838ZM69.2502 22.1514C69.142 22.2383 68.519 22.4205 68.5451 22.1587C68.5798 21.8081 69.1414 21.9347 69.2502 22.1514ZM70.6702 15.0684C70.524 14.9512 70.1145 14.9993 70.4139 14.5554C70.5113 14.7507 70.5908 14.9094 70.6702 15.0684ZM60.844 12.2619C61.0303 11.7416 61.2367 11.2575 61.3207 10.7035C61.3725 10.3623 61.2694 9.97257 61.7134 9.91898C61.1476 9.65386 61.1419 8.60733 61.1084 8.06482C61.0626 7.31771 60.8429 6.3174 61.1486 5.62202C61.4621 4.90771 61.8852 4.91952 62.0128 5.77024C62.0628 6.10333 61.8716 6.21107 61.8356 6.44302C61.7645 6.90192 61.906 6.80131 62.1814 6.45171C62.2951 6.80705 62.3387 7.341 62.8015 7.31841C62.7706 7.22233 62.5934 7.01034 62.6527 6.89097C62.7436 6.70766 63.188 6.98776 63.2443 7.03015C63.6503 7.33526 63.7383 7.6138 63.4488 7.99862C63.8496 8.04507 63.5132 8.42218 63.7719 8.52039C64.1666 8.67037 63.9019 7.95996 63.8591 7.83504C64.0993 7.93574 64.1799 8.05071 64.3321 8.25478C64.4213 8.39547 64.5027 8.54163 64.576 8.69277C64.6578 8.96867 64.8261 9.03785 65.0811 8.90032C65.5923 9.07269 66.298 9.04565 66.7562 9.34694C66.9655 9.48464 67.041 9.78576 67.2159 9.90007C67.4125 10.0288 67.6762 9.97041 67.8875 10.0512C67.8102 10.24 67.8728 10.342 68.0749 10.3581C68.232 10.3736 68.3842 10.4116 68.5313 10.4721C68.6412 10.383 68.761 10.3125 68.8902 10.2612C68.9771 10.4258 69.0999 10.4665 69.2587 10.3837C69.7301 10.4786 69.9566 10.6702 70.2562 10.9567C70.5251 11.2139 70.3062 11.2348 70.6009 11.2119C70.7193 11.2028 70.9267 10.9869 71.1975 11.0291C71.3534 11.0616 71.5036 11.1132 71.6484 11.1838C71.8047 11.3277 71.971 11.3458 72.1466 11.2381C72.4321 11.3881 72.4602 11.6539 72.8082 11.6902C73.1931 11.7305 73.0693 11.2147 73.3335 11.942C73.6895 11.1709 73.8199 12.3994 74.1875 12.4986C74.5681 12.6015 74.6092 12.2697 74.935 12.6322C75.0327 12.7409 75.0273 12.9204 75.1369 13.0355C75.3166 13.224 75.5596 13.1863 75.7158 13.4435C75.6287 13.3 75.7363 13.9521 75.7345 13.9306C75.7587 14.2183 75.5208 14.5406 76.0083 14.5161C76.0029 14.5463 75.7687 14.9131 75.723 14.8716C75.7119 14.8298 75.7024 14.7873 75.6949 14.7443C75.6426 14.7686 75.6195 15.118 75.629 15.1797C75.6704 15.1867 75.6874 15.1536 75.6798 15.0806C75.5997 15.3501 75.7204 15.5213 75.5665 15.7771C75.468 15.9405 75.1985 16.0635 75.0553 16.1643C74.7097 16.4079 74.3715 16.6523 74.0342 16.9114C73.248 17.5161 72.3677 18.2453 71.3776 18.3714C71.8748 17.8466 74.7357 15.8607 73.3008 15.2907C73.0347 15.185 72.5501 15.085 72.2718 15.0627C71.9256 15.035 71.5676 15.248 71.1859 15.1151C70.725 14.955 70.8986 14.4895 70.6172 14.3225C70.0195 13.9682 70.1606 14.8014 69.9726 15.0196C69.7749 14.7968 69.8172 14.6883 69.5052 14.6682C69.1885 14.6476 69.1131 14.9623 68.7434 14.7662C68.2342 14.4962 68.5037 13.958 67.7813 13.9453C67.7933 13.8272 67.8982 13.4971 67.7603 13.405C67.5745 13.664 67.7183 13.9536 67.5457 14.203C67.4595 14.3281 67.2721 14.4278 67.1353 14.4683C66.815 14.5628 66.7695 14.7439 66.8216 14.2256C66.5842 14.6851 65.8564 14.4962 65.4234 14.4499C64.7196 14.3747 63.9715 14.2315 63.2966 13.989C62.6726 13.7643 62.3393 13.3788 61.8245 13.0281C61.63 12.8953 61.5371 12.9461 61.2582 12.8636C60.9826 12.7823 60.7143 12.6247 60.844 12.2619ZM62.3291 4.12442C62.4355 4.05562 62.5117 5.08234 62.383 5.27416C62.1471 4.8733 61.7291 4.28532 62.3291 4.12442ZM62.6685 3.71488C63.0103 3.38249 62.7729 4.24102 62.7102 4.38506C62.5837 4.29783 62.4571 4.21061 62.3305 4.12338C62.492 4.01686 62.5322 3.84746 62.6685 3.71488ZM75.5608 2.33126C78.7178 3.04331 81.8461 4.37429 84.3781 6.56465C86.6845 8.55971 88.3123 11.3904 89.225 14.4014C90.1723 17.5268 89.854 20.9942 87.6002 23.3862C86.4129 24.6461 84.845 25.4063 83.3508 26.148C82.6349 26.5034 81.8975 26.7994 81.1788 27.1466C80.6626 27.396 80.0323 27.7948 79.4433 27.7256C79.7438 27.3859 80.1798 27.3789 80.5436 27.171C80.9831 26.9198 81.3419 26.4377 81.7207 26.0933C82.0968 25.7514 82.9309 24.6746 83.5089 24.9353C83.4286 24.3616 84.0368 24.0953 84.3108 23.717C84.6005 23.3169 84.6214 22.8488 85.1554 22.7179C84.5818 22.2355 84.7575 21.3258 84.8822 20.6692C85.0418 19.8294 85.1156 19.0584 85.1786 18.2038C85.2921 16.6632 85.3834 14.7005 84.5914 13.3463C84.3344 12.9064 84.0072 12.5023 83.7779 12.0454C83.5015 11.4949 83.5624 11.0103 83.5624 10.4069C83.0572 10.7717 82.9507 10.0278 82.7372 9.66514C82.577 9.39306 82.3666 9.24109 82.3149 8.89866C82.2774 8.64963 82.529 8.60749 82.391 8.34636C82.222 8.48356 82.1545 8.69625 82.0688 8.89368C81.9128 8.82666 82.0968 8.59306 82.0074 8.51707C82.0048 8.51508 81.7036 8.37456 81.7186 8.3948C81.5249 8.13085 81.4625 7.69286 81.3676 7.3787C81.0127 7.57193 81.0791 7.54916 80.6831 7.22631C80.6134 7.16951 80.265 6.90852 80.2321 6.82321C80.079 6.42426 80.3474 6.66057 80.2724 6.41296C80.0567 5.70179 78.8468 5.83627 78.751 4.77062C78.161 5.17321 77.936 4.60278 77.5873 4.19706C77.2298 3.78143 76.6302 3.62158 76.6623 2.96233C76.4766 3.03062 76.2909 3.09874 76.1054 3.16668C76.2019 2.55835 75.3611 2.59711 75.0565 2.28851C75.2255 2.29078 75.3936 2.30502 75.5608 2.33126ZM76.0416 40.0083C76.3342 39.7271 76.2454 40.1014 76.4337 40.0586C76.5947 40.0219 76.6265 39.891 76.7809 39.851C77.417 39.6858 78.368 39.8933 79.0369 39.8577C79.8116 39.8165 81.1397 39.9894 81.509 40.9638C81.7314 41.5504 81.392 41.3508 81.0179 41.3072C80.7281 41.2735 80.4703 41.3366 80.1833 41.3334C80.0415 41.357 79.9002 41.3546 79.7593 41.3263C79.6906 41.2777 79.65 41.2091 79.6375 41.1209C79.2383 41.056 78.8143 41.3098 78.3722 41.3225C77.7821 41.3394 77.2577 41.2178 76.8094 40.7896C76.6311 41.0751 76.5098 41.2166 76.1892 41.2486C76.1809 41.2495 75.8677 41.1139 75.8194 41.1005C75.7552 41.0826 75.5929 41.2272 75.4693 41.1859C75.6886 40.8103 75.7206 40.3167 76.0416 40.0083ZM116.34 43.3989C116.444 43.0096 116.531 42.615 116.626 42.2232C118.083 44.0052 119.357 46.3905 119.931 48.6761C120.303 50.1611 120.883 52.8521 119.107 53.6181C117.66 54.242 116.853 52.0055 116.487 50.9038C115.679 48.472 115.679 45.8732 116.34 43.3989ZM51.1784 15.476C51.197 15.4718 50.2355 16.0729 50.5523 15.5863C50.6795 15.3906 51.1622 15.253 51.3763 15.253L51.1784 15.476ZM50.2534 15.7307C50.1421 15.8312 50.0298 15.9306 49.9165 16.0286C49.8076 15.8438 49.6985 15.6588 49.5897 15.474C49.8044 15.3768 50.7156 15.3038 50.2534 15.7307ZM49.5756 34.4178C49.3745 34.2713 49.215 34.3491 49.1545 34.595C49.1545 34.3504 49.2731 33.782 49.4552 33.7158C49.573 33.6729 49.0639 33.0257 49.207 32.8563C49.5708 33.0803 49.353 33.2948 49.4595 33.5839C49.5077 33.7143 49.6522 33.8378 49.6838 33.938C49.7376 34.1082 49.9547 34.6932 49.5756 34.4178ZM48.59 32.9613C48.384 33.018 48.7447 33.3835 48.7444 33.5451C48.7441 33.6674 48.6076 33.7611 48.5513 33.9284C48.4292 34.2905 48.6393 34.5352 48.2935 34.8116C48.2935 34.018 47.7978 31.9148 48.7503 31.528C48.2856 31.1348 48.6672 30.6809 49.0314 31.1514C49.3814 31.604 49.1584 32.805 48.59 32.9613ZM48.0939 29.8292C47.9067 29.1158 47.3433 28.8662 46.6993 28.9086C46.7238 28.5432 46.9813 28.0166 47.1673 28.675C47.2438 28.4804 47.2968 28.2265 47.4712 28.0976C47.765 29.0872 49.2292 29.6341 48.3176 30.7065C48.243 30.4142 48.1706 30.1212 48.0939 29.8292ZM46.3922 28.9616C43.0014 29.2259 38.2409 29.9821 35.5274 27.1886C33.7581 25.3671 33.8525 22.5306 35.2824 20.5069C36.0983 19.352 37.2122 18.5389 38.3309 17.7643C38.7625 17.4652 39.1281 17.2679 39.602 17.0961C39.6788 17.0871 39.751 17.1055 39.8184 17.1513C39.8452 17.0282 39.9095 16.9371 40.0122 16.8777C40.1952 16.7725 40.456 16.7349 40.5614 16.5164C40.4489 16.9268 40.391 17.3494 40.3498 17.774C40.2584 17.6596 40.1672 17.5453 40.0759 17.431C39.9997 18.2045 39.2499 17.7363 38.8023 17.8329C39.0971 18.2715 39.308 18.4308 39.3334 19.0105C39.1138 18.5746 38.6546 18.2881 38.2276 18.1477C38.4595 18.8849 38.6234 19.3224 38.39 20.1306C38.108 19.9576 38.089 19.542 37.7469 19.4425C37.6566 19.9244 37.6407 20.4593 37.5251 20.927C36.6493 20.4976 36.7346 21.654 37.0864 22.2262C37.2733 22.5306 37.3652 22.883 37.5321 23.1752C37.9414 23.8919 37.6304 22.8201 38.0854 22.8709C37.9833 23.6269 37.9476 23.7023 38.4624 24.2559C38.9648 24.7957 39.2254 25.5448 39.7627 26.052C39.9183 25.8381 39.6737 25.6147 39.6522 25.4101C40.1522 25.5002 40.3863 26.039 40.867 25.5617C41.0766 26.0009 41.3036 26.4843 41.8055 26.5746C41.4737 25.8965 42.4429 26.3564 42.6914 26.4527C42.8799 26.5257 43.2176 26.5836 43.2903 26.6118C43.6999 26.7707 43.4191 26.4855 43.6676 27.0066C44.0325 26.8882 44.1702 26.5628 44.6067 26.8377C44.9616 27.0614 44.9624 27.4443 45.0436 27.8366C45.1282 27.58 45.2135 27.3235 45.3071 27.0703C45.4023 27.1135 45.802 27.586 45.7583 27.5883C46.6935 27.539 46.6605 28.1631 46.3922 28.9616ZM41.6313 16.1672C41.8191 16.0255 42.0484 16.2141 42.2592 16.1633C42.5513 16.0933 42.717 15.8244 43.0432 15.7957C42.9524 16.1073 42.7822 16.0782 42.638 16.3229C42.5889 16.4064 42.6145 16.6065 42.5709 16.6544C42.2053 17.0569 42.0791 16.7286 41.706 16.424C41.7384 16.7913 41.8042 16.9073 41.4822 17.0058C41.1907 17.0951 40.7096 16.7662 40.5626 16.5139C40.6866 16.2475 41.4065 16.3367 41.6313 16.1672ZM43.958 15.593C44.2746 15.6255 43.8931 16.6295 43.4395 15.6555C43.6103 15.6157 43.7832 15.5948 43.958 15.593ZM45.586 15.399C46.0854 15.2895 47.7509 14.7794 47.9363 15.6147C47.9695 15.594 48.0935 15.1223 48.151 15.1799C48.3816 15.4105 48.4074 15.7161 48.3898 16.0363C48.111 15.4121 48.2101 15.9603 48.0212 15.9176C47.972 15.9064 47.8965 16.0054 47.7716 15.9646C47.6078 15.9108 47.4905 15.5364 47.3871 15.4095C47.215 15.6736 47.0017 16.0137 46.657 15.9908C46.4129 15.9745 46.0198 15.2993 46.3357 16.0386C46.1502 15.9727 45.9355 15.8236 45.7288 15.8534C45.4974 15.8869 45.3772 16.1325 45.1603 16.1721C44.6794 16.2597 44.6069 15.7625 44.2948 15.4924C44.7253 15.4655 45.1609 15.4921 45.586 15.399ZM48.607 15.3909C48.6422 15.2197 49.0792 15.1505 49.1905 15.2049C49.462 15.3375 49.3615 15.5123 49.3117 15.8037C49.1102 15.7011 48.9086 15.5988 48.7072 15.4962C49.0079 16.0168 48.463 16.0923 48.607 15.3909ZM133.188 45.8837C133.152 44.6363 133.118 43.3671 132.824 42.1525C132.618 41.3025 132.112 39.7784 131.155 39.6309C129.712 39.4082 128.913 42.4737 128.509 43.5258C128.428 42.287 128.499 40.9684 128.063 39.7926C127.715 38.8503 126.834 37.9579 126.075 39.016C125.401 39.9579 125.271 41.348 125.093 42.4811C124.863 43.9494 124.725 45.429 124.557 46.906C123.898 45.537 123.782 43.9698 123.261 42.547C122.77 41.2043 121.996 39.922 121.251 38.7279C120.643 37.7523 119.902 36.8352 118.949 36.2389C118.119 35.72 116.668 35.1586 115.877 36.0204C115.217 36.7396 115.321 37.7021 115.355 38.6096C115.37 39.0139 115.429 39.2909 115.099 39.4945C114.936 39.5947 114.682 39.5429 114.504 39.5964C114.216 39.6828 113.995 39.8291 113.752 40.0236C112.045 41.3868 111.259 43.8436 111.015 46.0338C110.707 48.8091 111.713 51.1882 112.58 53.7274C112.718 54.1322 113.156 54.9908 113.096 55.4425C113.029 55.9374 112.451 55.9504 112.061 55.9607C110.883 55.9918 109.651 55.8974 108.479 55.7795C105.689 55.4989 102.9 54.0549 100.401 52.7656C99.9453 52.5302 99.3002 52.3957 98.928 52.0252C98.5782 51.677 98.4859 51.1189 98.184 50.7194C97.4429 49.7392 96.9707 48.9029 95.8794 48.3106C94.7681 47.7077 93.634 47.1504 92.5498 46.4901C91.209 45.673 89.9701 44.6381 88.6852 43.7233C86.2973 42.0236 83.9255 40.1603 81.3938 38.7149C80.2174 38.0432 78.9027 37.9345 77.6814 37.3845C76.4919 36.849 75.032 36.8483 73.7907 37.1864C73.1861 37.3513 72.7747 37.7419 72.2186 37.9969C71.567 38.2957 71.0354 37.9658 70.4619 37.6091C69.5858 37.0643 68.7174 36.1764 69.9651 35.5886C70.3882 35.389 70.9185 35.3135 71.2882 34.9998C71.6823 34.6657 71.9988 34.0493 72.3192 33.6307C73.0316 32.7002 73.4572 31.6289 74.4999 31.0504C75.653 30.4105 77.0198 30.2363 78.2493 29.818C79.5814 29.3651 80.8858 28.8264 82.1931 28.2975C84.5485 27.3447 86.9971 26.3159 88.6897 24.2182C90.1495 22.4087 90.7858 20.0727 90.7268 17.7003C90.6064 12.8504 88.1891 7.92811 84.7209 4.89573C80.4681 1.17734 75.0577 -0.0625759 69.6858 0.00240943C67.1646 0.0329859 64.1558 0.387626 62.0522 2.03396C60.2352 3.45599 59.933 5.94313 60.2032 8.18825C60.3128 9.0994 60.6878 10.3017 60.0899 11.1047C59.7553 11.5538 59.1547 11.6651 58.7039 11.9452C58.1376 12.2971 57.6381 12.6344 56.9965 12.8203C54.2716 13.6114 51.4013 13.336 48.615 13.2922C43.9737 13.2192 39.2163 14.5698 35.754 18.0849C32.9579 20.9232 32.1194 26.2755 35.5295 29.0424C38.2847 31.2779 42.6062 31.032 45.8549 30.6421C46.8623 30.521 47.555 30.3451 47.5574 31.6699C47.5598 33.1169 47.3369 34.6293 47.6804 36.0498C48.2214 38.2872 50.2216 38.3405 51.99 37.8587C52.9231 37.6045 53.8252 37.2223 54.7112 36.8219C56.0109 36.2348 57.2023 35.3714 58.4858 34.7853C59.356 34.3881 60.0075 35.6727 60.7793 34.7821C60.922 34.6175 60.9483 34.3723 61.1634 34.288C61.5005 34.1562 62.0659 34.6187 62.3617 34.7649C62.8044 34.984 63.2506 35.1451 63.4275 35.6727C63.593 36.1661 63.5205 36.9508 63.3619 37.4376C63.0176 38.4958 62.0902 38.2867 61.2435 38.2159C59.7667 38.0924 58.3 37.8305 56.8238 37.7205C55.4994 37.6218 54.2591 38.0471 53.1168 38.7491C50.7174 40.2235 48.7544 42.5686 46.6741 44.4971C45.6033 45.4895 44.5683 46.5616 43.404 47.4258C42.8976 47.8017 42.3494 48.1472 41.9094 48.6142C41.4727 49.0774 41.4247 49.4986 41.2755 50.1151C41.0095 51.2128 39.6888 51.7493 38.8633 52.3283C37.6958 53.1472 36.4582 53.7251 35.1493 54.2276C32.3778 55.2916 29.5843 56.0346 26.6866 56.5838C25.2679 56.8529 23.861 57.0296 22.4286 57.1748C21.1937 57.2998 19.8807 57.7086 18.6473 57.3821C19.0025 56.7628 19.632 56.391 20.1223 55.9122C20.7542 55.2952 21.2917 54.5641 21.7701 53.8065C22.701 52.3313 23.3541 50.7484 23.504 48.9591C23.6392 47.3487 23.4843 45.4223 22.5802 44.0619C22.2679 43.5919 21.65 43.464 21.3706 43.0407C21.0926 42.62 21.1986 41.8955 21.0464 41.4049C20.6591 40.157 19.5096 38.6106 18.4979 37.8857C17.4004 37.0992 15.7949 36.8101 14.5271 37.2201C12.1784 37.9795 10.7356 40.6772 9.66074 42.8576C9.0737 41.5298 10.0568 39.5599 8.90992 38.4725C7.94254 37.5552 7.17475 39.3321 6.85121 40.0923C5.33244 43.6607 4.98745 47.4455 4.35117 51.2637C4.09184 50.989 4.22475 50.2839 4.24914 49.956C4.29452 49.346 4.2902 48.7476 4.29143 48.1349C4.29452 46.5873 4.56218 45.0326 4.43947 43.4864C4.36861 42.5925 4.10342 40.7078 2.89516 41.0047C1.87046 41.2566 1.22861 42.8053 0.906644 43.7521C0.442248 45.1179 0.335029 46.4698 0.363941 47.9126C0.395909 49.5066 0.113335 51.0746 0.0448759 52.6664C-0.0881835 55.7584 0.043256 58.8235 0.868703 61.8077C2.22037 66.6943 5.32828 70.7543 9.47612 73.2061C11.7614 74.557 14.2967 75.4118 16.9032 75.5956C18.3158 75.6951 19.6794 75.5145 21.0799 75.3575C22.4619 75.2026 23.8512 75.1309 25.2308 74.9492C28.3033 74.5441 31.2971 73.4987 34.0898 72.092C35.5598 71.3514 36.9422 70.4422 38.3881 69.6527C38.9684 69.3361 39.3603 68.9398 39.8555 68.4993C40.3464 68.0628 40.4822 68.0286 41.0405 68.0286C40.8767 67.5578 41.3547 67.4126 41.5674 67.1147C41.5555 67.2593 41.5434 67.4037 41.5315 67.548C41.6936 67.1701 41.8446 67.1737 41.9843 67.559C42.1223 67.1276 42.2245 66.684 42.3912 66.2634C43.0285 66.6101 42.9748 67.4342 43.8272 66.8325C44.5291 66.3372 45.1745 65.7531 45.8899 65.2678C47.5198 64.162 48.9251 62.7233 50.5597 61.6303C50.5597 62.6949 50.6296 63.7687 50.4972 64.8278C50.3712 65.835 50.0214 66.7764 49.7431 67.7406C49.23 69.5195 49.1945 71.4206 48.6258 73.1815C48.3906 73.9108 47.7779 74.5207 47.6021 75.2306C47.4231 75.955 47.8367 76.5353 47.1434 77.0108C46.6543 77.3459 46.0432 77.4876 45.5017 77.6903C44.6759 77.9997 43.8917 78.4364 43.0878 78.8067C39.3168 80.5434 35.6385 82.3121 32.1447 84.6472C28.829 86.8631 25.4627 89.1516 22.4168 91.7833C19.7734 94.0674 17.1013 97.0205 16.4577 100.746C15.8333 104.36 17.497 108.24 20.8376 109.43C22.5744 110.049 24.5381 109.972 26.3469 109.999C28.2932 110.028 30.3558 109.523 32.2694 109.159C34.2903 108.773 36.2766 108.171 38.3034 107.826C40.248 107.496 42.0315 106.759 43.9444 106.304C45.9816 105.82 48.0712 105.557 50.1198 105.121C51.0421 104.925 51.9455 104.636 52.8703 104.454C53.8828 104.255 54.9063 104.181 55.9089 103.918C57.8536 103.407 59.7155 102.583 61.6686 102.108C62.5466 101.894 63.4113 101.608 64.2898 101.409C65.0985 101.225 65.7286 100.736 66.5392 101.137C67.194 101.462 67.7163 102.017 68.3361 102.405C69.1398 102.907 69.9873 103.357 70.8253 103.789C72.5091 104.657 74.2554 105.257 76.016 105.909C77.8653 106.594 79.6813 107.375 81.5973 107.828C83.5614 108.291 85.5651 108.42 87.5428 108.787C91.5931 109.538 95.6091 109.875 99.7204 109.902C101.799 109.917 103.876 109.652 105.95 109.683C107.785 109.711 109.381 110.155 111.059 109.107C113.741 107.431 116.851 104.907 116.785 101.241C116.726 97.9199 114.872 94.7473 113.134 92.1283C111.023 88.9477 108.013 86.708 105.063 84.514C101.919 82.1759 98.3878 80.5603 95.0835 78.5194C93.3935 77.4756 91.835 76.3526 90.0001 75.6109C89.1241 75.257 88.2695 74.8465 87.4039 74.4653C86.7072 74.1585 85.7016 73.9891 85.1053 73.4803C84.7333 73.1628 84.6976 72.682 84.5994 72.21C84.3818 71.1653 84.04 70.1745 83.7086 69.1671C83.0689 67.2217 82.6437 65.2404 82.3688 63.2001C82.1067 61.255 81.5249 59.2325 81.8262 57.2557C83.808 59.3161 85.8445 61.2968 87.8724 63.3026C88.6323 64.0544 89.378 64.8218 90.1419 65.5689C90.7154 66.1298 91.4325 66.963 92.232 67.1294C93.2529 67.3421 92.88 66.1284 93.5809 65.9402C94.0093 65.8254 95.3015 66.9954 95.6403 67.2265C97.7871 68.6914 100.164 69.6197 102.526 70.6169C105.002 71.6625 107.548 72.5912 110.213 72.8543C112.674 73.0979 115.191 72.7853 117.566 72.0648C122.296 70.6295 125.776 67.2243 128.331 62.8102C131.241 57.7803 133.359 51.8882 133.188 45.8837Z" fill="#432C7A"/>
<path fill-rule="evenodd" clip-rule="evenodd" d="M60.8987 34.9185C60.8979 34.9201 60.8906 34.9375 60.8906 34.9375C60.8996 34.9305 60.9023 34.9242 60.8987 34.9185Z" fill="#432C7A"/>
<path fill-rule="evenodd" clip-rule="evenodd" d="M61.1273 34.9835C61.1096 34.8233 61.0713 34.6665 61.0126 34.5129C60.8561 34.7796 60.7159 34.8939 60.9217 35.1765C60.9901 35.1121 61.0586 35.0479 61.1273 34.9835Z" fill="#432C7A"/>
<path fill-rule="evenodd" clip-rule="evenodd" d="M72.0337 73.1156C72.2088 72.9152 71.9025 72.8397 71.7861 72.8371C71.7977 73.0519 71.6986 73.5671 71.9721 73.6666C71.9065 73.4722 71.9271 73.2885 72.0337 73.1156Z" fill="#432C7A"/>
<path fill-rule="evenodd" clip-rule="evenodd" d="M67.4133 31.2019C67.1123 31.8267 67.7773 32.0205 68.1623 31.7187C68.4518 31.4917 68.6232 30.9132 68.6707 30.5421C68.8246 29.3412 68.0428 28.1981 67.6529 27.1325C67.5522 26.8571 67.4142 25.9125 67.0897 25.8866C66.7171 25.8567 66.6895 26.7267 66.6847 26.9512C66.6703 27.6281 66.8371 28.3176 67.0325 28.9565C67.243 29.6453 67.7649 30.4722 67.4133 31.2019Z" fill="#432C7A"/>
<path fill-rule="evenodd" clip-rule="evenodd" d="M68.8452 28.6962C70.0021 29.8035 70.9277 27.9593 70.8468 26.8684C70.8269 26.5982 70.6569 25.6016 70.18 25.9642C69.9404 26.1464 70.1446 26.7385 70.0304 26.9985C69.477 28.2587 68.9442 26.3038 68.5715 26.1504C68.1182 25.9634 68.0726 26.6036 68.0732 26.9459C68.0743 27.6253 68.3752 28.2463 68.8452 28.6962Z" fill="#432C7A"/>
<path fill-rule="evenodd" clip-rule="evenodd" d="M64.6456 28.8682C64.918 28.407 65.2532 27.7884 65.2902 27.2357C65.3476 26.3768 64.8821 26.4485 64.4986 27.0478C64.2281 27.4711 64.0249 28.1892 63.4272 28.0107C62.6894 27.7907 62.9149 26.7242 62.5018 26.2176C61.4588 27.7233 63.4326 30.9205 64.6456 28.8682Z" fill="#432C7A"/>
<path fill-rule="evenodd" clip-rule="evenodd" d="M66.2087 33.4763C66.6401 33.5765 67.765 33.5397 67.3752 32.8296C66.8837 31.9353 65.2494 33.2533 66.2087 33.4763Z" fill="#432C7A"/>
<path fill-rule="evenodd" clip-rule="evenodd" d="M81.3224 6.80659C81.4015 6.55383 81.2929 6.50792 81.1046 6.30887C80.9263 6.48576 81.1546 6.67185 81.3224 6.80659Z" fill="#432C7A"/>
<path fill-rule="evenodd" clip-rule="evenodd" d="M89.369 52.5881C89.6537 52.6367 89.7454 52.475 89.6436 52.1027C89.1946 52.0715 89.1032 52.2332 89.369 52.5881Z" fill="#432C7A"/>
<path fill-rule="evenodd" clip-rule="evenodd" d="M73.8273 13.5341C74.1413 13.6884 74.0211 14.0049 74.0156 14.2723C74.1774 14.0835 74.504 13.7381 74.371 13.4669C74.1662 13.0486 73.6307 13.4375 73.8273 13.5341Z" fill="#432C7A"/>
<path fill-rule="evenodd" clip-rule="evenodd" d="M63.1337 8.26905C63.0859 8.16867 63.038 8.0683 62.9902 7.96793C62.7952 8.13615 62.4942 8.58078 62.804 8.79745C62.9311 8.63172 63.041 8.45569 63.1337 8.26905Z" fill="#432C7A"/>
<path fill-rule="evenodd" clip-rule="evenodd" d="M66.9007 11.2203C67.2914 11.5495 67.104 10.539 67.0923 10.4565C67.0342 10.575 66.7034 11.0539 66.9007 11.2203Z" fill="#432C7A"/>
<path fill-rule="evenodd" clip-rule="evenodd" d="M66.6842 10.7072C66.6544 10.6237 66.6243 10.5401 66.5945 10.4565C66.4362 10.6141 66.2423 10.9358 66.5038 11.1201C66.5755 10.9911 66.6356 10.8534 66.6842 10.7072Z" fill="#432C7A"/>
<path fill-rule="evenodd" clip-rule="evenodd" d="M69.1646 14.1773C69.1965 14.2088 69.2283 14.2405 69.2601 14.2724C69.389 13.993 69.2425 13.7833 68.9993 13.7746C69.0166 13.9314 69.0717 14.0656 69.1646 14.1773Z" fill="#432C7A"/>
<path fill-rule="evenodd" clip-rule="evenodd" d="M58.6983 45.601C58.8532 45.4877 58.9939 45.3583 59.1204 45.2131C58.6618 44.9118 58.9366 45.5648 58.3846 45.1638C58.2657 45.3405 58.4599 45.736 58.6983 45.601Z" fill="#432C7A"/>
<path fill-rule="evenodd" clip-rule="evenodd" d="M77.9683 73.003C78.1427 72.7153 78.1742 72.7236 77.936 72.5053C77.7373 72.8608 77.7579 72.7694 77.9683 73.003Z" fill="#432C7A"/>
<path fill-rule="evenodd" clip-rule="evenodd" d="M41.5232 27.2258C41.6181 27.3321 41.7131 27.4386 41.808 27.5448C41.8523 27.4056 42.094 27.0121 41.9298 26.8812C41.7944 26.996 41.6587 27.1108 41.5232 27.2258Z" fill="#432C7A"/>
<path fill-rule="evenodd" clip-rule="evenodd" d="M44.8998 28.2784C44.7482 28.2512 44.3856 28.1325 44.3018 28.2839C44.5236 28.4792 45.0239 28.3008 44.8998 28.2784Z" fill="#432C7A"/>
</svg>
