<svg width="294" height="297" viewBox="0 0 294 297" fill="none" xmlns="http://www.w3.org/2000/svg">
<path fill-rule="evenodd" clip-rule="evenodd" d="M56.0115 116.068C55.7415 112.632 54.4786 107.131 49.9837 107.388C46.2332 107.603 43.0134 113.469 43.7079 116.895C44.2119 119.382 45.0219 117.969 45.708 116.774C45.7977 116.618 45.8853 116.464 45.9699 116.325C46.8316 114.899 48.3916 113.174 50.2435 113.54C51.8378 113.855 52.512 115.429 53.1248 116.861C53.3034 117.277 53.4765 117.681 53.6652 118.038C55.1168 120.785 55.6205 118.128 55.9578 116.348C55.976 116.252 55.9942 116.158 56.0115 116.068ZM37.355 126.142C34.1623 127.298 37.6369 131.179 39.1477 132.02C38.8549 132.864 37.5196 133.627 36.5149 134.202L36.5145 134.202C36.2403 134.359 35.991 134.502 35.7938 134.628C34.6054 135.391 33.0873 135.855 31.6928 136.282L31.5265 136.333L31.3877 136.375C27.4531 137.584 23.6289 137.76 19.5682 137.168C15.6661 136.598 11.1979 135.329 8.68058 132.134C7.59165 130.753 6.59075 128.65 7.63524 126.92C8.12278 126.112 8.98148 125.694 9.85542 125.268C10.6684 124.872 11.4945 124.47 12.046 123.742C12.3037 123.401 12.492 123.003 12.6774 122.609C12.8471 122.25 13.0143 121.895 13.2314 121.594C13.3076 121.488 13.3727 121.395 13.4299 121.313C13.6368 121.017 13.7384 120.872 13.8768 120.812C14.0097 120.753 14.1764 120.773 14.5036 120.81C14.6521 120.828 14.8341 120.848 15.0605 120.868C17.3078 121.058 19.704 121.203 21.9166 120.662C22.8654 120.43 23.7999 120.083 24.7297 119.738C25.4301 119.478 26.1276 119.219 26.8267 119.012C28.5538 118.497 30.1917 117.416 31.5273 116.25C34.6083 113.561 37.6246 110.639 40.4775 107.709C42.0438 106.1 43.299 104.236 44.5564 102.369C45.5755 100.856 46.5959 99.3408 47.7847 97.9575C48.3911 97.252 48.9929 96.5067 49.6036 95.7508C52.0219 92.7569 54.5756 89.5948 58.0963 88.0564C60.0921 87.1847 60.487 87.7258 61.2374 88.754C61.4392 89.0309 61.6678 89.3433 61.9602 89.673C63.1262 90.9877 64.7433 90.7641 66.3189 90.5456C66.6549 90.4991 66.9888 90.453 67.316 90.4217C67.1577 90.7819 66.985 91.1471 66.8102 91.517C66.1141 92.9911 65.3819 94.5409 65.348 96.1474C65.337 96.6813 65.4788 97.1843 65.6193 97.6819C65.7531 98.1562 65.8851 98.625 65.8821 99.1104C65.8779 99.7669 65.5216 100.394 65.172 101.01C64.9959 101.319 64.8216 101.627 64.6946 101.933C62.9878 106.041 62.5751 111.608 62.5112 116.02C62.3796 125.147 65.1149 134.869 70.9323 142.025C72.1597 143.535 73.5398 144.93 75.0824 146.122C75.3693 146.343 76.0105 146.669 76.7371 147.038H76.7376C78.1342 147.748 79.8465 148.618 79.9654 149.217C80.2507 150.649 77.6796 150.801 76.1281 150.893H76.1277C75.7722 150.914 75.4705 150.932 75.2686 150.961C74.2203 151.114 73.1775 151.297 72.1351 151.48H72.1347H72.1343V151.481H72.1338C70.9129 151.695 69.6915 151.91 68.4616 152.075C59.3253 153.302 50.3062 154.283 41.0954 153.787C40.7246 153.767 40.2362 153.822 39.7191 153.879C38.8142 153.98 37.8201 154.091 37.2073 153.832C36.3046 153.45 36.3676 152.766 36.4438 151.94C36.4633 151.731 36.4836 151.512 36.4891 151.287C36.5407 149.182 36.3312 147.101 36.1213 145.017C36.0464 144.271 35.9711 143.524 35.9076 142.776C35.7544 140.963 36.0498 140.771 37.0088 140.147C37.2657 139.979 37.5704 139.781 37.9263 139.513C39.6704 138.197 41.3755 135.756 41.9447 133.663C42.9922 134.507 42.8737 135.099 42.7201 135.863C42.6358 136.283 42.5415 136.755 42.6232 137.349C42.905 139.394 44.2889 139.058 45.2018 137.69C46.6179 135.567 46.4926 132.211 45.1692 130.09C43.9838 128.19 39.7542 125.272 37.355 126.142ZM110.379 201.514C111.249 202.213 112.118 202.912 113.003 203.593C113.895 204.28 114.57 204.961 115.233 205.856C115.28 205.921 115.326 205.981 115.369 206.039C116.068 206.978 116.147 207.084 115.608 208.166C115.016 209.352 114.15 210.295 113.286 211.235C112.656 211.922 112.026 212.607 111.506 213.384C111.052 214.063 110.65 214.768 110.25 215.47L110.249 215.47C109.411 216.94 108.58 218.399 107.288 219.585C106.434 217.662 105.332 220.472 106.749 220.176C106.338 221.394 105.61 222.499 104.882 223.603C104.444 224.268 104.006 224.933 103.637 225.622C102.476 227.791 101.207 229.761 99.8328 231.8L99.7904 231.646C99.7528 231.511 99.7151 231.375 99.6779 231.24L99.5797 230.887C99.5242 230.686 99.4684 230.485 99.4125 230.284C98.393 230.528 98.7743 231.155 99.0557 231.619C99.1433 231.763 99.2212 231.892 99.2449 231.988C99.2695 232.09 99.3126 232.166 99.3558 232.24C99.457 232.416 99.5568 232.59 99.4117 233.115C99.3012 233.513 98.9986 233.869 98.7096 234.208C98.5906 234.348 98.4738 234.485 98.3739 234.621C97.7027 235.537 97.0717 236.475 96.439 237.416C96.3463 237.553 96.2536 237.691 96.161 237.829C95.64 238.602 95.3657 239.277 95.0771 239.986C94.9696 240.251 94.86 240.522 94.7343 240.803C94.4812 241.373 94.2408 241.526 93.9387 241.718C93.7499 241.838 93.5366 241.973 93.2814 242.236C92.8485 242.681 92.4168 243.334 92.0037 243.96C91.7629 244.325 91.528 244.68 91.3033 244.979C89.486 247.393 87.8533 250.157 86.6128 252.904C86.0732 254.099 85.3254 255.132 84.5763 256.165C83.6846 257.397 82.7916 258.63 82.2491 260.139C81.9638 260.932 81.7797 261.747 81.5956 262.561C81.4505 263.205 81.3049 263.848 81.1098 264.481C80.9502 264.997 80.7513 265.499 80.5524 266.001C80.2358 266.8 79.9197 267.598 79.7627 268.451C79.6366 269.133 79.6332 269.879 79.6298 270.585C79.6277 271.07 79.6256 271.537 79.5837 271.949C79.5583 272.198 79.5088 272.488 79.4555 272.802L79.455 272.803C79.331 273.531 79.1842 274.394 79.2557 275.206C79.4728 277.658 80.491 279.786 81.7069 281.83C76.1607 283.707 69.8506 284.235 64.0319 284.098C61.0579 284.028 57.6688 284 54.7588 284.688C54.4088 284.77 54.0757 284.857 53.7516 284.942C52.5179 285.264 51.4158 285.551 50.0159 285.442C48.844 285.35 47.6729 285.246 46.5015 285.142C45.9077 285.089 45.3144 285.037 44.7206 284.985C45.1709 284.079 46.5125 282.967 47.4745 282.17C47.6133 282.055 47.744 281.946 47.8634 281.846C48.1262 281.624 48.472 281.484 48.8059 281.349C49.1643 281.204 49.5093 281.064 49.7251 280.834C50.084 280.452 50.2558 279.642 50.3912 279.004C50.4361 278.792 50.4767 278.599 50.5191 278.448C51.8281 273.756 52.7947 269.022 53.6144 264.222C55.0631 255.742 55.6247 247.108 56.1596 238.575C56.177 238.296 56.2485 237.991 56.32 237.686C56.4055 237.32 56.4914 236.954 56.483 236.636C56.4728 236.248 56.4352 235.93 56.3992 235.627C56.348 235.195 56.3002 234.795 56.3425 234.268C56.3645 233.994 56.5333 233.676 56.6992 233.364C56.8778 233.029 57.0522 232.7 57.037 232.44C57.0255 232.243 56.8677 232.201 56.6971 232.156C56.4864 232.1 56.2561 232.039 56.2566 231.673C56.2578 231.105 56.7428 230.388 57.1948 229.721C57.5 229.269 57.7899 228.841 57.9046 228.497C57.9685 228.304 57.858 228.073 57.7463 227.84C57.6536 227.647 57.5605 227.453 57.5664 227.278C57.5622 227.397 57.8838 225.95 57.8965 225.893C57.938 225.713 58.0302 225.585 58.1221 225.457C58.2499 225.278 58.3769 225.101 58.3654 224.787C58.3591 224.612 58.2588 224.417 58.1555 224.216C57.9837 223.881 57.803 223.53 58.0341 223.228C58.1572 223.066 58.4387 223.11 58.7192 223.153C59.0138 223.199 59.3071 223.244 59.4133 223.052C59.5483 222.806 59.3143 222.262 59.0671 221.686C58.8263 221.125 58.5728 220.534 58.6367 220.164C58.7489 219.52 59.0447 218.871 59.3426 218.217C59.6093 217.633 59.8776 217.045 60.0177 216.453C60.0608 216.269 60.0744 216.051 60.0879 215.824C60.1163 215.364 60.1463 214.869 60.4375 214.559C60.8501 214.12 61.231 214.199 61.6796 214.291C62.0013 214.357 62.3572 214.431 62.7838 214.325C61.7414 213.442 61.5395 212.668 61.8472 211.377C62.088 210.37 62.5675 209.252 63.67 210.258C63.5054 208.755 63.5113 208.52 64.6349 207.381C64.8194 207.194 65.009 206.964 65.2041 206.727C65.585 206.264 65.9879 205.774 66.4188 205.528C66.616 205.32 66.8136 205.113 67.0109 204.907C67.2779 205.185 67.5957 205.342 67.9635 205.378C68.5607 205.347 69.1011 205.298 69.6047 205.252C71.7585 205.058 73.2367 204.924 75.5826 206.454C75.9093 206.667 76.2356 206.866 76.5586 207.063C77.4422 207.601 78.3005 208.123 79.069 208.882C79.5629 209.37 80.0162 209.894 80.4699 210.419C81.0907 211.137 81.712 211.855 82.4366 212.48C82.8373 212.825 83.2364 213.153 83.6313 213.477C84.6178 214.287 85.5785 215.076 86.4711 216.065C86.6348 216.247 86.7978 216.432 86.9611 216.618C87.8296 217.607 88.7183 218.619 89.8839 219.208C89.9812 217.682 89.2194 216.304 88.4792 214.965C88.4157 214.85 88.3522 214.736 88.29 214.622C88.1948 214.449 87.5045 213.983 87.5198 214.034C87.4779 213.889 87.5363 213.754 87.593 213.623C87.6497 213.492 87.7043 213.365 87.6552 213.236C88.064 213.605 88.4771 214.035 88.899 214.474C89.7163 215.324 90.5648 216.206 91.4717 216.742C93.5523 217.971 92.8468 215.837 92.3914 214.46V214.46C92.3554 214.352 92.3216 214.248 92.2903 214.152C91.0697 210.361 88.8584 206.728 86.3018 203.668C81.8284 198.315 74.3663 192.34 67.225 195.708C60.1472 199.048 56.4186 204.656 54.3876 212.116C52.0312 220.775 50.949 229.048 50.7252 238.018C50.5965 243.153 50.0721 248.245 49.5317 253.352C49.3768 254.817 49.2486 256.318 49.1191 257.831C48.8089 261.465 48.4923 265.171 47.7817 268.625C47.1499 267.707 46.7774 267.014 46.4621 265.982C46.4067 265.801 46.4054 265.622 46.4042 265.444C46.402 265.21 46.4003 264.978 46.2763 264.745C46.2247 264.648 46.0652 264.607 45.9094 264.567C45.7609 264.528 45.6153 264.491 45.5687 264.407L45.4782 264.243C44.702 262.847 43.6693 260.988 43.3227 259.423C43.2478 259.085 43.2296 258.803 43.2123 258.537C43.1856 258.128 43.1615 257.759 42.9393 257.287C42.7802 256.95 42.6574 256.916 42.5584 256.888C42.4429 256.856 42.3599 256.833 42.2892 256.347C42.2837 256.309 42.3333 256.263 42.3997 256.202C42.5521 256.062 42.795 255.838 42.671 255.431C42.3502 254.38 42.0967 254.788 41.8995 255.106C41.8199 255.234 41.7492 255.348 41.6874 255.345C41.4179 255.334 41.6798 254.22 41.9113 253.237C42.062 252.596 42.1999 252.011 42.1686 251.824C42.1183 251.524 42.0192 251.478 41.9189 251.432C41.8368 251.395 41.7539 251.356 41.6976 251.177C41.5859 250.817 41.4487 250.296 41.3645 249.797C41.2579 249.161 41.0954 248.704 40.94 248.268C40.7229 247.658 40.5202 247.088 40.505 246.128C40.4859 244.918 40.2058 243.97 39.9146 242.986C39.7267 242.352 39.5345 241.702 39.405 240.957C39.3737 240.779 39.4571 240.591 39.5375 240.408C39.6158 240.23 39.6916 240.058 39.6573 239.907C39.5841 239.581 39.427 239.283 39.2671 238.98C39.1147 238.69 38.9594 238.396 38.8718 238.067C38.6581 237.266 38.8087 236.527 38.959 235.79C39.0728 235.23 39.1867 234.672 39.1414 234.086C39.1587 234.309 38.7199 233.088 38.6923 232.98C38.6069 232.644 38.5874 232.247 38.5679 231.846C38.551 231.506 38.5341 231.163 38.4769 230.853C38.4481 230.699 38.4033 230.532 38.3572 230.36C38.2128 229.823 38.0533 229.23 38.3182 228.781C38.4363 228.581 38.6268 228.507 38.8269 228.428C39.033 228.348 39.2493 228.263 39.408 228.034C39.1448 227.949 38.9543 227.905 38.8121 227.872C38.642 227.833 38.5413 227.81 38.4676 227.752C38.3614 227.668 38.3115 227.512 38.19 227.129C38.1599 227.035 38.1252 226.926 38.0842 226.801C37.6876 225.591 37.6491 224.577 38.9628 225.377C38.857 225.118 38.7228 224.839 38.584 224.552C38.2869 223.937 37.9703 223.282 37.8785 222.685C37.8138 222.267 37.8641 221.855 37.9145 221.443C37.9598 221.07 38.0055 220.696 37.9653 220.319C37.9153 219.846 37.8442 219.414 37.7765 219.006C37.5404 217.577 37.352 216.436 38.2949 214.829C37.1607 214.25 37.1811 212.649 37.1993 211.216C37.2064 210.633 37.2136 210.076 37.1421 209.629C37.0934 209.325 37.0325 209.024 36.972 208.728C36.7003 207.388 36.4489 206.15 37.4803 205.249C36.2309 204.352 36.4557 201.882 36.6271 199.999C36.6749 199.475 36.7185 198.996 36.7248 198.61C36.7388 197.76 36.713 196.905 36.6859 196.016C36.6588 195.127 36.6305 194.203 36.6406 193.216C36.6495 192.379 36.4743 191.738 36.2737 191.004C36.2072 190.761 36.1378 190.507 36.0714 190.232C35.8665 189.385 35.908 188.655 35.9499 187.913C35.9787 187.41 36.0075 186.901 35.9601 186.345C35.9169 185.841 35.8056 185.336 35.693 184.824C35.5614 184.226 35.4277 183.619 35.3976 182.992C35.3765 182.553 35.3765 182.095 35.3769 181.632C35.3769 180.843 35.3773 180.042 35.2715 179.308C35.2237 178.975 35.1644 178.674 35.1069 178.38C34.9977 177.823 34.8932 177.292 34.8771 176.61C34.8745 176.492 34.8513 176.339 34.8267 176.179C34.7865 175.917 34.7433 175.637 34.7827 175.458C34.7827 175.459 34.7869 175.45 34.795 175.432C34.8648 175.278 35.2131 174.51 35.2106 174.908C35.2152 174.267 35.0938 173.633 34.9689 172.978C34.7709 171.946 34.5639 170.863 34.8293 169.632C35.1407 168.191 35.4082 168.213 36.5788 168.31H36.5792H36.5801C36.7511 168.324 36.9411 168.34 37.1535 168.353L37.4134 168.369C38.6428 168.445 39.8718 168.521 41.1038 168.526C41.5867 168.527 42.3722 168.434 43.2783 168.327C45.5776 168.054 48.6548 167.689 49.5419 168.552C50.2973 169.287 50.1712 172.047 50.0815 174.015C50.0493 174.714 50.0222 175.313 50.0404 175.686C50.1026 176.965 49.4538 177.754 48.756 178.602C48.1897 179.291 47.5913 180.019 47.3153 181.079C46.1413 185.592 48.0809 191.549 53.3745 191.935C58.3121 192.295 63.0487 188.239 62.3707 183.255C62.0986 181.254 61.176 179.077 59.4345 177.907C58.6426 177.374 57.4323 177.281 56.2498 177.189C54.9167 177.087 53.6191 176.986 52.9974 176.263C52.5941 175.793 52.6059 174.325 52.6148 173.252C52.6178 172.87 52.6203 172.538 52.6038 172.32C52.5839 172.06 52.5429 171.744 52.4984 171.403C52.3355 170.157 52.1285 168.57 52.7545 168.121C53.6551 167.473 56.436 167.461 57.4636 167.458L57.5512 167.458C58.9736 167.454 60.275 167.451 61.6911 167.212C63.0779 166.977 64.4631 166.848 65.8436 166.72V166.72C67.6465 166.552 69.4414 166.385 71.221 165.984C74.3409 165.282 77.2234 164.547 80.1626 163.292C80.6286 166.42 81.6401 169.255 82.6659 172.13V172.131C82.9669 172.974 83.269 173.821 83.5589 174.68C84.1633 176.47 85.1058 178.295 86.0313 179.94C86.146 180.144 86.2666 180.402 86.3945 180.675V180.675C86.9336 181.828 87.6002 183.253 88.4885 182.057C88.5727 182.414 88.5668 182.687 88.5613 182.947C88.5545 183.251 88.5486 183.537 88.6849 183.921C88.9418 184.644 89.9719 185.495 90.8306 186.204V186.204C91.1675 186.482 91.4777 186.739 91.7049 186.957C92.2471 187.478 92.8273 187.915 93.4126 188.356L93.413 188.356C93.667 188.547 93.9217 188.739 94.1748 188.939C94.254 189.001 94.3737 189.009 94.4918 189.017C94.6209 189.026 94.7478 189.035 94.8181 189.114C94.9688 189.285 94.9434 189.497 94.9231 189.666C94.9095 189.777 94.8981 189.87 94.94 189.923C95.8964 191.123 97.3654 192.07 98.7523 192.964C99.2678 193.296 99.7714 193.62 100.233 193.948C102.671 195.677 105.097 197.405 107.472 199.217C108.457 199.969 109.419 200.742 110.379 201.514H110.379V201.514ZM74.2135 138.218C76.0101 140.286 78.7927 143.443 81.5762 144.067C84.2987 144.677 88.5719 143.83 91.0016 142.494C90.8949 141.885 91.4929 140.827 92.0503 139.84C92.3897 139.239 92.7143 138.665 92.8561 138.234C92.9928 137.818 93.0156 137.495 93.0389 137.171C93.0554 136.937 93.0723 136.702 93.1324 136.432C93.182 136.21 93.2713 136.093 93.3525 135.986C93.4672 135.836 93.5667 135.707 93.5171 135.332C93.4333 134.684 92.9648 134.33 92.5065 133.984C92.1565 133.719 91.812 133.459 91.6504 133.076C91.5835 132.919 91.658 132.356 91.7189 131.893C91.7515 131.645 91.7807 131.426 91.782 131.313C91.7959 130.404 91.7151 129.826 91.2546 129.046C90.525 127.809 89.4276 126.806 88.3463 125.816C87.7652 125.285 87.1888 124.757 86.6763 124.2C86.2286 123.714 85.9611 123.205 85.6809 122.673C85.5417 122.409 85.3995 122.139 85.2306 121.862C85.0503 121.567 84.815 121.3 84.5831 121.036C84.2725 120.683 83.9665 120.335 83.804 119.935C83.666 119.596 83.6262 119.192 83.586 118.784C83.5492 118.414 83.5124 118.041 83.4019 117.71C83.192 117.083 82.8674 116.52 82.5428 115.957C82.2982 115.534 82.054 115.11 81.8584 114.659C80.9291 112.515 80.6891 109.963 80.4682 107.617C80.4466 107.389 80.4255 107.162 80.4039 106.939L80.2727 106.969C77.4752 107.621 74.7861 108.248 73.2384 105.146C73.0387 104.746 73.0014 103.928 72.9659 103.145C72.9286 102.323 72.8927 101.538 72.6734 101.309C72.3721 100.994 69.3555 101.193 69.0118 101.477C67.7743 102.499 67.7836 106.006 67.79 108.281C67.7912 108.833 67.7925 109.312 67.776 109.665C67.7248 110.747 67.6423 111.831 67.5598 112.916C67.3968 115.058 67.2335 117.204 67.3109 119.344C67.5411 125.695 69.9966 133.363 74.2135 138.218ZM123.045 179.354C123.484 181.552 123.926 183.76 124.509 185.916C124.754 186.823 124.867 187.717 124.981 188.611C125.126 189.758 125.272 190.904 125.695 192.075C125.653 192.342 125.628 192.649 125.602 192.973C125.501 194.216 125.379 195.71 124.247 196.15C122.957 196.652 122.119 195.427 121.639 194.366C120.792 192.487 120.678 190.196 120.567 187.973C120.509 186.803 120.452 185.653 120.289 184.59C119.974 182.532 119.827 180.492 119.68 178.448C119.566 176.878 119.453 175.305 119.263 173.722C119.151 172.786 118.961 171.777 118.765 170.74C118.29 168.222 117.783 165.533 118.284 163.292C118.764 163.28 119.653 166.216 120.232 168.129C120.436 168.802 120.602 169.349 120.697 169.596C121.528 171.736 121.954 173.891 122.393 176.112C122.485 176.579 122.578 177.049 122.675 177.522C122.8 178.131 122.922 178.742 123.045 179.354Z" fill="#FF5678"/>
<path fill-rule="evenodd" clip-rule="evenodd" d="M276.092 282.672C274.136 283.278 272.302 284.172 270.418 284.969C268.279 285.875 266.785 286.034 264.449 286.03C255.406 286.017 246.456 286.481 237.396 286.663C234.922 286.713 232.41 286.738 229.935 286.693C228.935 286.675 227.956 286.561 226.961 286.479C226.319 286.427 223.517 286.811 223.144 286.586C222.093 285.955 222.717 281.89 222.59 280.588C222.368 278.326 221.794 276.146 220.996 274.021C218.139 266.418 213.335 259.001 207.261 253.574C215.474 250.129 224.434 245.586 233.549 247.63C237.02 248.408 241.622 249.427 243.41 252.782C245.318 256.363 246.989 260.301 249.17 263.731C251.608 267.562 254.196 270.846 257.725 273.72C259.118 274.854 266.135 281.822 265.069 276.443C264.727 274.718 263.464 273.115 262.455 271.706C261.942 270.99 259.176 268.64 259.607 267.81C260.09 266.879 265.078 266.223 266.147 265.926C268.355 265.315 270.551 264.662 272.751 264.021C271.955 265.518 267.629 271.184 270.393 272.632C271.409 273.164 274.036 271.279 275.149 270.948C277.045 270.385 278.778 270.756 280.641 271.314C280.593 272.228 278.796 272.24 278.198 272.864C277.324 273.778 276.711 276.241 277.396 277.335C278.672 279.375 283.613 277.294 285.822 278.068C283.339 280.627 279.443 281.633 276.092 282.672ZM152.689 198.495C152.715 198.548 152.668 198.622 152.371 198.879C152.28 198.554 152.119 198.482 151.92 198.572C152.08 198.398 152.211 198.307 152.371 198.879C152.496 198.77 152.6 198.636 152.689 198.495ZM153.444 197.422C153.385 197.618 153.25 197.709 153.044 197.704C153.055 197.67 153.065 197.638 153.073 197.613C153.21 197.186 153.392 197.259 153.331 196.473C153.413 196.605 153.476 196.737 153.43 196.869C153.56 197.069 153.564 197.253 153.444 197.422ZM131.462 234.319C131.671 233.816 131.726 233.231 131.995 232.768C131.731 233.237 131.727 233.816 131.462 234.319ZM216.429 286.266C213.156 286.135 209.966 286.194 206.693 286.336C199.7 286.64 192.676 286.685 185.696 287.245C182.282 287.519 179 287.624 175.576 287.509C172.582 287.409 169.577 287.515 166.592 287.264C163.315 286.989 160.247 286.084 156.939 286.035C153.776 285.988 150.01 285.623 146.943 286.084C146.413 286.164 146.128 286.501 145.503 286.582C144.64 286.695 143.425 286.343 142.541 286.284C140.99 286.179 139.275 286.351 137.762 285.989C137.242 285.866 136.878 285.675 136.374 285.472C135.919 285.289 134.899 285.148 134.649 285.082C136.091 284.545 132.892 283.45 132.634 283.391C132.569 283.609 132.713 283.915 132.949 284.211C132.13 283.583 133.007 283.815 131.668 283.179C131.105 282.911 130.041 282.739 129.41 282.668C128.803 282.6 128.475 282.672 128.198 282.657C128.254 282.595 128.309 282.512 128.362 282.402C128.809 281.481 127.448 280.43 126.683 281.048C126.771 281.228 126.915 281.561 127.088 281.887C127.081 281.878 127.074 281.871 127.066 281.862C126.783 281.535 126.249 280.698 125.718 280.135C126.391 279.764 125.568 279.259 125.257 278.741C125.044 278.858 124.809 278.957 124.687 279.119C124.864 278.75 125.302 278.416 125.045 277.699C124.972 277.494 124.777 277.185 124.533 276.968C124.765 277.148 125.006 277.349 125.318 277.306C124.928 276.716 124.785 276.494 124.636 275.902C124.531 275.486 125.114 275.083 124.56 274.707C124.577 274.314 124.811 272.512 123.831 273.141C123.831 273.141 123.831 273.141 123.83 273.141C123.831 273.141 123.831 273.14 123.831 273.139C124.458 271.223 125.526 269.244 126.318 267.37C128.166 263.006 130.065 258.609 131.998 254.283C135.194 247.126 138.532 239.988 142.21 233.025C145.856 226.121 149.837 219.444 153.278 212.445C156.598 205.693 160.47 199.232 163.813 192.49C165.387 189.315 167.497 186.69 168.034 183C168.208 181.805 168.263 179.314 166.452 179.762C165.275 180.053 163.628 182.996 162.868 183.954C162.188 183.021 158.349 177.536 157.319 180.804C156.436 183.605 161.965 184.825 159.759 187.647C159.54 187.927 158.634 188.209 158.337 188.468C157.758 188.972 157.228 189.86 156.78 190.467C155.761 191.851 154.917 193.322 153.975 194.754C153.798 195.024 153.15 195.633 153.1 195.949C153.073 196.116 153.214 196.288 153.324 196.462C152.557 197.14 151.59 197.739 151.411 198.837C151.464 198.86 151.513 198.864 151.56 198.855C150.847 199.599 149.945 201.404 149.816 201.592C148.855 202.988 147.913 204.447 146.964 205.919C146.451 206.715 145.554 207.651 145.26 208.546C145.158 208.855 145.456 209.409 145.178 209.698C144.446 210.459 143.731 210.297 143.183 211.828C142.968 212.43 142.949 213.273 142.602 213.79C142.047 214.619 141.253 215.009 140.734 215.901C139.75 217.594 138.571 219.452 137.951 221.16C137.949 221.167 137.948 221.174 137.945 221.181C137.924 221.047 137.895 220.902 137.861 220.744C137.509 221.374 137.158 222.004 136.807 222.635C137.415 222.517 137.74 222.352 137.888 222.082C137.87 222.172 137.842 222.266 137.786 222.364C137.476 222.507 137.149 222.597 136.807 222.635C136.572 223.023 136.351 223.42 136.146 223.824C136.045 224.029 135.706 225.276 135.564 226.22C135.511 225.854 135.459 225.525 135.453 225.481C135.008 226.338 134.562 227.194 134.116 228.05C134.925 227.43 134.88 227.324 135.649 227.309C134.679 227.329 133.211 228.689 133.076 229.997C133.054 230.209 133.185 230.442 133.3 230.661C133.273 230.657 133.247 230.654 133.216 230.651C132.2 230.565 132.497 230.77 132.112 231.615C132.259 231.556 133.114 231.223 133.436 230.963C133.471 231.074 133.477 231.176 133.422 231.263C133.171 231.662 131.113 231.405 132.435 232.292C131.337 231.555 130.788 233.974 131.162 234.806C130.866 235.232 130.514 235.624 130.183 236.019C129.369 236.988 128.92 237.723 128.387 238.904C127.479 240.913 126.396 242.908 125.404 244.88C125.028 245.629 124.588 246.267 124.127 246.963C123.307 248.198 123.451 247.89 124.097 249.235C123.855 249.157 123.496 249.347 123.149 249.624C123.338 249.304 123.578 249.066 124.097 249.235C123.277 247.529 122.573 249.608 122.195 250.586C122.212 250.586 122.226 250.582 122.242 250.581C122.191 250.657 122.152 250.724 122.128 250.778C121.743 251.572 121.288 252.058 121.617 252.89C121.712 252.427 122.087 252.069 122.247 251.671C122.022 252.641 120.963 253.804 120.643 254.446C120.377 254.98 120.339 255.54 120.012 256.121C119.706 256.667 119.43 257.034 119.194 257.658C118.055 260.675 117.5 264.035 116.781 267.203C115.931 270.948 115.581 274.927 115.399 278.759C115.347 279.873 115.317 280.857 115.719 281.915C115.777 282.068 116.403 282.884 116.387 283.183C116.3 284.742 113.369 284.418 112.241 284.373C110.449 284.301 109.229 284.59 107.507 284.839C105.919 285.068 104.36 284.943 102.747 285.332C100.069 285.978 96.0801 287.003 93.4901 285.582C92.2378 284.896 90.6609 282.905 89.7522 281.788C88.6337 280.413 88.2574 279.013 88.0568 277.261C87.7149 274.265 87.6916 270.955 88.7344 268.091C93.5798 254.786 101.892 242.691 109.061 230.582C115.788 219.219 123.329 208.45 130.07 197.117C133.633 191.127 137.92 185.201 142.158 179.664C146.49 174.006 149.582 167.849 152.636 161.444C155.802 163.121 159.153 164.846 162.693 165.603C164.705 166.034 166.703 165.904 168.733 166.043C170.229 166.145 171.48 166.498 173.004 166.537C179.684 166.707 187.402 165.907 193.788 163.937C195.32 163.464 196.69 162.973 198.126 162.292C199.96 161.422 200.455 161.053 200.559 163.075C200.761 166.988 201.4 170.792 201.701 174.683C201.995 178.475 202.76 182.215 203.436 185.962C203.778 187.859 204.147 189.755 204.428 191.663C204.642 193.11 205.285 195.123 205.029 196.57C204.747 198.168 203.232 199.788 202.365 201.151C201.485 202.534 200.601 203.914 199.723 205.298C198.078 207.894 196.439 210.358 194.496 212.74C190.894 217.156 187.826 221.773 184.41 226.333C180.783 231.175 177.768 236.406 174.207 241.297C172.327 243.882 170.404 246.319 169.172 249.229C168.149 251.643 166.092 253.863 164.834 256.252C163.182 259.389 161.081 262.262 159.44 265.414C158.295 267.616 156.083 269.855 155.851 272.414C155.462 276.707 159.548 272.417 160.494 271.22C161.762 269.614 163.153 266.805 165.059 265.934C166.42 265.313 168.409 265.381 169.886 264.894C171.434 264.384 172.954 263.855 174.518 263.389C177.563 262.48 180.501 261.197 183.462 260.043C186.526 258.848 189.59 257.642 192.597 256.314C193.989 255.699 195.162 255.384 196.649 255.116C197.289 255.001 199.579 253.92 200.083 254.012C200.93 254.166 202.097 256.652 202.739 257.291C203.729 258.277 204.842 259.083 205.766 260.143C207.587 262.232 209.516 264.458 211.095 266.727C214.623 271.799 217.923 277.34 219.178 283.448C219.741 286.19 219.084 286.372 216.429 286.266ZM124.675 279.636C124.653 279.59 124.639 279.546 124.631 279.503C124.642 279.546 124.652 279.588 124.675 279.636C125.092 279.388 125.203 279.52 125.245 279.722C125.036 279.587 124.839 279.538 124.675 279.636ZM123.702 276.805C123.684 276.728 123.677 276.658 123.674 276.591C123.68 276.662 123.686 276.733 123.702 276.805C123.93 276.652 124.121 276.695 124.304 276.805C124.109 276.699 123.899 276.673 123.702 276.805ZM124.121 274.952C124.25 274.942 124.396 274.873 124.56 274.707C124.425 274.843 124.298 274.985 124.182 275.134C124.184 275.116 124.187 275.098 124.189 275.079C124.191 275.044 124.162 275 124.121 274.952ZM82.5229 259.429C81.5719 261.669 81.1762 264.119 80.3683 266.413C79.7504 268.168 79.5037 269.901 79.3416 271.736C79.9053 272.151 79.8926 272.517 79.3039 272.833C79.262 273.232 79.2477 273.632 79.2612 274.033C79.108 275.202 79.3336 276.219 79.6434 277.338C80.1334 279.114 80.7551 280.39 81.6672 281.925C76.1315 283.801 69.8244 284.329 64.0162 284.194C60.8772 284.12 57.3557 284.113 54.2967 284.886C51.0028 285.72 48.1148 285.372 44.7308 285.081C45.2251 284.086 47.1143 282.426 48.0712 281.735C48.5583 281.384 49.3595 281.324 49.7285 280.93C50.2558 280.369 50.3176 279.279 50.522 278.544C51.8272 273.852 52.7934 269.12 53.6132 264.321C55.0576 255.861 55.7288 247.201 56.155 238.678C56.191 237.957 56.5638 237.148 56.5456 236.465C56.5219 235.568 56.265 235.274 56.3374 234.372C56.3844 233.784 57.0899 232.986 57.0391 232.463C57.0065 232.136 56.2033 232.418 56.2515 231.777C56.3268 230.79 57.6066 229.488 57.8974 228.601C58.0264 228.207 57.5448 227.814 57.5597 227.383C57.5554 227.506 57.8775 226.051 57.8898 225.999C57.9867 225.58 58.379 225.405 58.3578 224.892C58.3384 224.426 57.6591 223.816 58.0269 223.334C58.3989 222.845 59.1696 223.584 59.404 223.157C59.6706 222.673 58.4983 221.02 58.6287 220.271C58.8568 218.959 59.7502 217.547 60.1002 216.215C60.2314 215.716 60.0202 215.098 60.4269 214.666C61.135 213.913 61.749 214.685 62.7703 214.433C61.7571 213.573 61.5345 212.745 61.835 211.485C62.0787 210.463 62.5489 209.356 63.6552 210.366C63.5092 209.035 63.3534 208.899 64.3108 207.787C65.1373 206.827 66.2084 205.676 67.1979 204.941C68.6766 203.84 71.0373 203.275 72.7911 203.145C74.7053 203.005 77.0584 204.029 78.5075 205.474C80.2693 207.232 82.5483 208.513 84.5476 210.194C86.6822 211.988 88.5152 214.119 90.5661 216.021C90.9872 216.411 91.7625 217.503 92.413 217.315C93.474 217.009 92.617 215.427 92.3846 214.724C90.7307 209.719 87.7589 204.676 83.6702 201.262C81.5622 199.5 79.4643 197.272 77.0135 195.99C75.0337 194.953 73.4873 195.116 71.3822 195.042C69.5831 194.979 69.2133 194.873 67.6089 195.629C66.4713 196.165 65.3451 196.688 64.2718 197.344C62.5557 198.392 60.7854 199.665 59.517 201.249C56.1402 205.465 54.8223 210.826 53.4951 215.964C52.035 221.616 51.0299 227.137 50.8526 233.001C50.6727 238.968 50.3959 244.847 49.8072 250.789C49.5008 253.879 49.1483 256.963 48.7483 260.043C48.3801 262.883 48.3611 265.934 47.7881 268.723C47.0669 267.673 46.8426 266.862 46.4444 265.731C46.1756 264.969 45.9031 264.995 45.5141 264.433C44.6902 263.245 43.66 260.99 43.3354 259.523C43.137 258.626 43.3206 258.176 42.9524 257.387C42.8386 257.143 42.2199 257.334 42.1208 256.948C42.0497 256.671 42.4374 256.456 42.42 256.362C42.3794 256.144 42.9812 255.901 42.4615 255.214C41.723 254.238 42.1009 255.462 41.7023 255.445C41.37 255.431 42.3667 252.063 42.2495 251.574C42.208 251.401 41.643 251.378 41.5977 251.218C41.4606 250.732 41.4915 250.029 41.3578 249.501C41.0306 248.215 40.5452 247.699 40.5215 246.229C40.4898 244.287 39.7694 242.913 39.4228 241.06C39.356 240.703 39.7483 240.318 39.6751 240.01C39.5261 239.383 39.0614 238.834 38.8904 238.17C38.5612 236.892 39.0009 235.089 38.9107 234.05C38.8316 233.141 38.5764 231.665 38.4084 230.535C38.135 228.696 38.6263 229.296 39.4258 228.139C38.3174 227.782 38.4583 228.096 38.1041 226.906C37.6953 225.532 37.7329 224.721 38.9814 225.482C38.6496 224.666 38.0338 223.666 37.8984 222.791C37.7727 221.978 38.0702 221.232 37.9852 220.425C37.7545 218.241 37.0723 217.055 38.3144 214.936C36.7181 214.119 37.4134 211.306 37.1629 209.737C36.8937 208.043 36.239 206.461 37.501 205.358C36.2034 204.425 36.7172 201.75 36.7227 200.322C36.7248 199.674 36.9449 198.533 36.8891 197.958C36.8501 197.553 36.5746 197.281 36.4946 196.811C36.1996 195.064 36.851 193.335 36.4591 191.598C36.0177 189.641 35.966 187.971 35.8145 186.053C35.6681 184.193 35.3803 182.261 35.2563 180.355C35.1649 178.94 34.6126 177.41 34.8669 175.945C34.8873 175.829 35.2241 174.787 35.2339 175.022C35.2182 174.646 34.9435 174.179 34.9308 173.955C34.8407 172.259 34.8081 170.876 34.8809 169.155C34.8775 169.155 34.8737 169.154 34.8703 169.154C35.0807 169.026 35.1937 168.761 35.2025 168.348C36.7909 168.194 38.5286 168.582 40.1334 168.624C41.8635 168.67 43.5877 168.584 45.3157 168.504C46.427 168.453 48.8228 167.927 49.6693 168.854C50.2821 169.526 49.8965 172.982 49.9376 173.881C49.9858 174.943 50.5241 176.61 49.902 177.54C49.516 178.116 48.6438 178.347 48.1944 178.98C47.9205 179.365 47.6979 180.011 47.5528 180.429C47.1135 181.69 46.9383 183.051 47.0055 184.381C47.323 190.613 52.3224 193.475 57.9359 190.964C62.8261 188.776 64.1559 182.16 59.9542 178.453C58.9651 177.58 57.9109 177.359 56.6485 177.143C55.8461 177.006 53.6568 177.09 53.1324 176.518C52.6119 175.951 52.7388 174.181 52.6813 173.444C52.5886 172.261 52.1125 170.504 52.3706 169.363C51.9478 168.413 52.2297 168.011 53.2179 168.156C53.5307 168.094 53.8434 168.031 54.1562 167.968C54.9442 167.825 55.7182 167.653 56.5185 167.598C57.9448 167.501 59.3355 167.67 60.763 167.479C62.1629 167.292 63.535 166.942 64.9375 166.761C66.4281 166.569 67.8916 166.783 69.3665 166.53C72.428 166.007 75.7172 165.302 78.5811 164.101C79.3484 163.779 80.6485 162.852 81.4996 163.005C82.5187 163.188 82.2461 163.836 82.5398 164.805C84.1684 170.176 87.5515 175.483 91.1323 179.753C94.513 183.784 98.969 187.035 102.999 190.416C105.443 192.466 107.789 194.62 110.058 196.86C111.704 198.487 113.471 201.029 115.597 201.967C116.082 201.985 117.951 201.771 118.293 202.121C118.687 202.524 118.663 202.749 118.505 203.001C118.957 201.812 116.808 202.012 115.597 201.967C115.735 202.198 117.094 204.921 117.43 203.406C117.626 203.522 117.821 203.639 118.016 203.755C117.05 205.887 115.799 208.025 114.44 209.933C113.449 211.325 112.169 212.331 111.28 213.773C110.158 215.593 109.223 217.482 107.802 219.103C104.967 222.338 103.389 226.686 100.917 230.275C99.7295 232 99.1095 233.603 97.8733 235.32C96.9067 236.663 95.3408 238.363 94.7771 239.908C94.5523 240.526 94.7936 241.062 94.3818 241.635C94.1215 241.996 93.3504 242.389 92.9869 242.764C91.5424 244.254 90.4163 246.38 89.2837 248.133C88.0772 250 87.2362 251.937 86.2142 253.882C85.1659 255.877 83.4311 257.291 82.5229 259.429ZM45.033 265.152C45.1108 265.362 44.6427 265.718 43.3993 265.586C44.6309 265.717 45.1024 265.363 45.033 265.152ZM41.9757 272.167C42.087 272.265 42.1949 272.368 42.3003 272.473C42.1953 272.368 42.087 272.265 41.9757 272.167ZM34.2211 286.835C33.2084 286.481 30.5743 285.856 28.859 285.117C29.6242 285.331 30.4207 285.507 30.7271 285.614C31.8913 286.021 33.056 286.428 34.2211 286.835C35.8708 280.894 42.065 278.63 47.3653 276.436C44.812 276.329 43.9 274.115 42.3566 272.533C43.8966 274.111 44.8235 276.33 47.3653 276.436C42.0658 278.629 35.8708 280.895 34.2211 286.835ZM28.4273 280.854C28.3689 280.95 28.3114 281.05 28.2534 281.158C28.0955 281.454 27.5005 282.774 27.2504 283.64C27.2 282.75 27.7294 281.707 28.4273 280.854ZM34.2588 168.058C34.3532 168.021 34.4293 168.015 34.4983 168.02C34.2215 168.033 34.1462 168.361 34.1339 168.817C33.8935 168.562 33.836 168.227 34.2588 168.058ZM53.4968 181.786C55.3018 182.681 57.0535 183.202 58.7755 184.285C56.6629 185.926 49.9181 188.575 50.1196 183.505C50.1433 182.915 50.489 181.327 51.0286 180.976C51.8497 180.442 52.7811 181.431 53.4968 181.786ZM32.833 158.178C40.7818 160.949 50.0421 160.264 58.1208 158.913C66.8009 157.461 75.4671 156.606 83.8755 153.888C83.884 155.058 84.3918 156.283 83.4641 157.247C82.7366 158.003 81.1602 158.146 80.199 158.464C77.6852 159.297 75.5259 160.51 72.8982 161.007C69.9552 161.565 67.0151 161.554 64.0462 161.883C62.9713 162.003 61.9602 162.195 60.9504 162.389C59.5521 162.41 58.4564 162.599 57.0603 162.987C52.0663 163.01 47.1063 163.158 42.1331 162.564C39.6073 162.262 37.1091 161.892 34.577 161.634C32.2053 161.393 32.7348 160.372 32.833 158.178ZM29.7922 136.866C25.111 138.157 20.283 137.771 15.6776 136.292C12.3469 135.223 7.92896 133.657 7.22854 129.608C6.76597 126.938 8.36868 126.453 10.2533 125.345C11.1551 124.814 11.5936 124.413 12.2 123.515C12.5602 122.981 12.8835 121.641 13.2877 121.276C14.2721 120.386 17.3789 121.167 18.9194 121.099C21.2149 120.996 22.7706 120.226 24.8825 119.545C28.6127 118.344 30.9734 116.886 33.869 114.137C36.6855 111.463 39.9929 108.742 42.2702 105.59C44.8209 102.061 47.2616 98.6267 50.04 95.2608C52.0989 92.7666 55.8338 87.774 59.528 87.7969C61.3821 87.8087 61.1079 89.5555 62.5802 90.4432C63.9248 91.2536 65.6837 90.6897 67.1615 90.5493C66.1873 92.7607 64.8364 95.0355 65.3142 97.5382C65.5825 98.9396 65.7247 99.4236 65.1766 100.75C64.676 101.961 64.1343 103.035 63.8241 104.333C62.6162 109.389 62.0444 115.08 62.551 120.25C63.4283 129.2 66.4983 138.44 73.2143 144.759C74.7455 146.199 76.4295 147.351 78.3043 148.298C80.1749 149.244 80.3298 150.228 78.0127 150.651C73.4996 151.473 68.9179 152.035 64.3725 152.645C59.8332 153.255 55.2129 153.892 50.6354 153.985C48.3708 154.032 46.1202 154.314 43.856 154.153C42.7286 154.073 41.6083 153.871 40.4775 153.841C39.4905 153.813 38.0169 154.306 37.0981 153.917C35.66 153.309 36.3753 149.105 36.2699 147.645C36.1484 145.97 35.09 142.828 35.7184 141.244C36.1603 140.133 37.7812 139.666 38.6208 138.801C39.9993 137.381 41.3023 135.698 41.8288 133.762C43.5737 135.169 42.0726 136.071 42.602 137.787C43.1801 139.659 44.2462 139.07 45.0808 137.786C46.4736 135.642 46.3805 132.328 45.0482 130.191C44.2771 128.954 43.0244 128.025 41.7391 127.364C40.6992 126.829 38.3974 125.78 37.2458 126.245C34.1204 127.507 37.4468 131.235 39.0356 132.12C38.6538 133.222 35.9466 134.811 34.9143 135.281C33.381 135.98 31.4381 136.412 29.7922 136.866ZM72.6895 102.719C72.7306 103.319 72.7945 103.892 72.993 104.466C73.3971 105.636 74.2059 106.65 75.3202 107.23C77.482 108.354 81.8665 106.735 83.7667 105.409C83.7667 109.429 84.4883 112.627 85.6433 116.441C86.7601 120.131 89.0463 123.135 90.9914 126.411C91.9999 128.11 92.9259 129.864 94.35 131.259C95.7979 132.677 96.0387 133.22 95.9066 135.311C95.6895 138.754 94.0479 141.102 90.9444 142.528C88.486 143.89 83.4095 144.996 80.731 143.858C77.9154 142.662 75.173 139.566 73.3493 137.182C69.2065 131.768 67.1057 123.613 67.3575 116.881C67.4887 113.375 67.674 109.787 68.0101 106.293C68.2547 103.748 68.1654 100.089 71.8719 101.235C73.0696 101.606 72.593 101.33 72.6895 102.719ZM86.9121 149.735C87.2692 149.008 90.415 148.277 90.9626 148.704C91.7934 149.351 91.8277 153.124 92.1197 154.198C92.5823 155.903 93.1913 157.587 93.9247 159.195C95.4644 162.566 97.6727 166.049 100.293 168.676C103.009 171.396 106.129 173.281 109.427 175.231C110.369 175.788 111.281 176.46 112.249 176.966C112.655 177.179 113.408 177.278 113.728 177.597C114.519 178.388 114.153 180.009 114.144 181.038C114.106 185.161 114.12 189.15 114.666 193.216C111.436 190.718 108.517 187.548 105.641 184.635C102.625 181.582 98.7409 179.565 95.8812 176.331C93.2793 173.39 91.2314 169.96 89.3197 166.557C88.4826 165.066 86.8875 163.166 86.83 161.423C86.7677 159.543 87.6256 157.554 87.6357 155.608C87.6421 154.231 86.3809 150.817 86.9121 149.735ZM125.707 191.818C125.511 193.063 125.668 195.732 123.934 196C122.74 196.185 122.007 195.053 121.569 194.106C120.248 191.241 120.685 187.421 120.191 184.344C119.609 180.711 119.595 177.129 119.144 173.491C118.747 170.283 117.422 166.237 118.144 163.075C118.799 163.059 120.568 169.245 120.949 170.226C121.735 172.245 122.639 173.945 123.319 176.039C124.219 178.812 125 181.46 125.415 184.362C125.706 186.401 126.8 190.023 125.707 191.818ZM135.297 178.142C133.679 180.65 131.932 183.265 129.652 185.357C129.652 184.187 128.776 180.382 129.37 179.478C130.077 178.4 134.091 178.351 135.297 178.142ZM72.5414 79.3428C73.916 78.7197 75.4493 78.5235 76.8358 77.8793C78.1608 77.2637 79.1452 76.8921 80.6163 76.7712C85.7287 76.3523 90.9347 77.6594 95.665 79.0892C98.2682 79.8759 100.322 81.5998 102.521 83.0934C104.796 84.6381 106.043 85.9833 107.034 88.5971C109.165 94.22 110.476 99.5365 111.324 105.466C112.184 111.482 110.787 117.562 110.874 123.591C110.96 129.538 111.385 135.73 113.277 141.392C114.739 145.771 117.331 152.819 122.793 153.256C127.978 153.67 132.365 148.329 134.508 144.32C140.176 133.721 142.305 121.605 142.612 109.709C143.412 105.728 143.87 101.435 145.257 97.6176C146.799 100.027 148.057 102.612 149.475 105.096C151.031 107.821 150.931 110.045 150.796 113.142C150.692 115.55 149.841 117.851 149.532 120.248C149.175 123.017 148.519 125.716 148.361 128.511C148.176 131.808 148.361 135.14 148.083 138.428C147.849 141.194 147.238 143.971 146.794 146.711C146.363 149.374 146.311 151.995 146.374 154.649C146.435 157.218 147.325 159.713 149.504 161.088C146.265 165.081 142.227 170.96 136.801 171.906C134.982 172.223 133.284 172.47 131.442 172.605C129.944 172.714 128.194 173.553 126.902 172.621C124.679 171.015 124.241 167.437 123.401 165.097C122.82 163.478 117.057 150.222 114.024 153.978C113.484 154.647 113.611 157.103 113.528 158.045C113.409 159.404 113.464 160.785 113.421 162.148C113.365 163.884 113.211 165.644 113.332 167.379C113.405 168.425 114.034 169.554 112.848 169.806C111.75 170.04 109.435 167.861 108.636 167.297C107.564 166.539 106.408 165.971 105.322 165.242C103.089 163.743 101.318 161.855 99.7291 159.715C98.1293 157.562 96.7052 155.146 95.6231 152.688C95.0733 151.44 94.6243 150.162 94.1651 148.881C94.1752 148.909 93.4837 147.294 93.5218 147.181C93.6437 146.819 95.1059 146.219 95.4669 145.935C99.5924 142.682 100.418 134.594 99.3219 129.863C98.6579 127.001 96.4623 124.486 94.9028 122.049C93.3961 119.695 91.8023 117.389 90.5525 114.884C89.1746 112.124 88.1097 109.226 86.8735 106.404C86.2768 105.042 85.5612 104.341 86.452 103.093C86.998 102.329 88.1279 102.015 88.6142 101.178C89.1039 100.336 89.1547 98.7113 88.274 98.1093C87.3103 97.4502 85.9099 98.3706 85.0271 98.7295C83.8488 99.208 82.6719 99.4401 81.4695 99.8079C80.1042 100.226 78.8757 101.151 77.4266 101.151C78.2057 98.4703 81.5724 98.7248 82.6647 96.2319C83.4108 94.5282 83.3135 91.3581 80.9871 91.0774C79.6658 90.9176 78.6238 91.9245 77.6416 92.6001C76.3486 93.4887 75.3727 93.6544 73.858 93.933C73.3002 94.0357 72.395 94.5578 71.866 94.3803C71.0077 94.0928 71.5028 94.2703 71.9523 93.5656C72.6206 92.5176 74.2008 91.4946 75.156 90.7299C77.3034 89.0106 80.2799 87.7711 82.1403 85.7719C83.3698 84.45 83.9741 80.0057 81.6375 79.2963C80.7005 79.0114 79.1761 79.9397 78.2582 80.2238C76.7067 80.7032 75.1264 81.0849 73.5956 81.632C70.8765 82.6034 68.2653 83.7575 65.5068 84.6292C67.0781 82.3942 70.0635 80.4669 72.5414 79.3428ZM164.492 78.688C164.492 80.2238 165.079 83.1433 164.417 84.5396C163.82 85.7968 160.195 86.4978 158.915 86.978C154.768 88.5337 150.656 90.2661 146.418 91.5542C150.786 85.0926 157.277 81.3411 164.492 78.688ZM163.881 57.823C162.807 59.3643 160.939 61.4539 158.754 60.7255C156.399 59.9405 154.554 56.3379 155.757 54.0517C156.785 52.099 159.719 50.8735 161.531 52.4127C161.926 52.7483 162.184 53.6069 162.562 53.8695C162.805 54.0377 163.19 53.5875 163.486 53.7676C164.362 54.299 164.7 55.5964 165.963 55.4877C166.549 55.4378 168.423 53.9113 168.807 53.5211C169.833 52.4765 169.476 51.4061 169.638 50.0335C169.861 48.1421 171.168 47.8521 172.671 46.8764C174.102 45.9468 175.252 44.561 176.668 43.6661C178.358 42.597 177.39 43.9523 178.934 44.0863C179.212 44.1108 179.834 43.1863 180.317 43.2015C180.944 43.2218 181.216 43.6382 181.574 44.0926C182.352 45.0797 181.779 45.3896 183.135 45.6196C184.114 45.7857 184.72 45.0755 185.556 45.0895C186.241 44.3154 187.254 42.6993 188.478 43.1765C189.306 43.4995 189.602 45.2328 189.78 45.9565C190.453 48.7001 190.402 51.9248 190.427 54.7386C188.853 53.6353 188.649 52.8942 188.157 51.1153C187.838 49.9595 187.066 48.2609 186.224 49.9971C185.985 50.49 186.19 51.2455 186.032 51.787C185.849 52.4148 185.41 52.7242 185.341 53.4091C185.176 55.0709 186.539 55.6403 187.714 56.4495C186.617 57.6306 183.461 56.739 184.302 59.2611C185.192 61.9257 188.612 60.4503 190.317 59.7815C191.771 65.2865 185.311 67.9388 181.375 69.4442C179.064 70.3282 178.16 70.8207 177.842 73.5161C177.57 75.8264 177.881 78.1921 178.73 80.3502C179.069 81.2151 179.395 82.3971 179.859 83.1978C180.252 83.8759 181.035 83.9232 181.299 84.3016C182.271 85.6971 181.571 88.7252 181.457 90.4001C181.146 94.9797 179.718 99.1505 179.104 103.62C178.789 105.906 177.846 108.045 177.442 110.305C177.071 112.377 176.925 114.334 175.176 115.816C171.662 118.795 168.945 114.396 167.727 111.505C165.993 107.387 165.82 101.975 166.106 97.5842C166.417 92.8106 168.603 88.2251 168.719 83.487C168.842 78.4199 168.076 73.6095 166.808 68.7103C166.253 66.5691 165.445 64.6524 164.761 62.5822C164.201 60.8896 165.127 59.3609 163.881 57.823ZM173.015 7.69594C173.016 7.69979 173.016 7.70321 173.017 7.70706C172.994 7.68212 172.972 7.65836 172.948 7.62923C172.973 7.6595 172.995 7.68021 173.015 7.69594ZM173.12 7.22132C173.068 6.86364 172.953 6.41354 172.875 6.21113C173.065 6.32806 173.281 6.42622 173.288 6.54891C173.309 6.90084 173.207 7.06643 173.12 7.22132ZM178.337 8.12494C178.3 8.14561 178.265 8.16823 178.228 8.18818C178.141 8.18818 178.068 8.16979 178.003 8.14101C178.028 8.14637 178.055 8.1506 178.087 8.15293C178.171 8.15906 178.255 8.14637 178.337 8.12494ZM181.064 7.22745C180.575 7.22361 180.061 7.17799 179.49 7.42526C179.581 7.37085 179.671 7.32215 179.763 7.28955C180.019 7.19909 180.559 7.20906 181.064 7.22745ZM153.406 141.131C153.511 138.838 153.51 138.15 155.313 136.673C156.816 135.44 158.27 134.147 159.789 132.933C163.152 130.245 166.745 127.399 170.569 125.392C172.711 124.267 178.556 122.001 177.079 126.44C175.685 130.629 172.995 134.35 170.679 138.072C168.318 141.866 165.957 145.663 163.504 149.398C162.437 151.023 161.311 152.616 160.291 154.27C159.286 155.898 159.183 156.995 157.123 156.321C155.626 155.831 153.935 155.234 152.522 154.597C151.282 154.038 151.357 153.696 151.323 152.24C152.09 148.476 153.228 145.025 153.406 141.131ZM163.002 95.2646C162.481 97.3619 158.742 97.6113 156.724 98.018C156.377 98.0877 154.62 98.6555 154.293 98.461C153.645 98.0763 153.963 96.9649 153.688 96.4268C152.178 93.4811 152.156 97.2469 151.725 98.1338C150.548 100.564 148.744 95.6992 148.083 94.5079C147.574 93.5914 147.028 93.1251 147.556 92.3557C147.994 91.7153 150.435 91.2752 151.184 90.9991C153.918 89.9905 156.644 88.9632 159.37 87.9351C160.544 87.4925 164.158 85.1741 164.119 87.402C163.729 89.966 163.625 92.7565 163.002 95.2646ZM160.958 120.305C159.808 120.662 156.685 122.093 155.521 121.418C154.539 120.848 155.218 118.851 155.328 117.811C155.537 115.851 155.506 113.719 155.395 111.753C155.231 108.85 154.989 108.62 157.857 107.839C158.965 107.537 162.349 105.902 163.172 106.824C163.557 107.255 163.394 108.623 163.479 109.145C163.662 110.274 163.977 111.378 164.39 112.444C165.104 114.287 166.146 115.942 167.235 117.58C165.281 118.782 163.144 119.626 160.958 120.305ZM154.465 99.7732C154.961 99.0601 157.433 98.9586 158.25 98.7861C159.694 98.4809 161.139 98.179 162.584 97.8743C162.661 99.6316 163.655 104.221 162.39 105.489C161.679 106.203 159.299 106.386 158.291 106.634C157.193 106.904 156.094 107.169 154.994 107.434C154.87 105.74 154.766 104.045 154.585 102.356C154.519 101.735 154.061 100.353 154.465 99.7732ZM154.75 122.974C155.509 122.1 157.566 122.126 158.709 121.859C160.53 121.433 162.256 120.853 163.98 120.133C164.944 119.731 166.844 118.352 167.91 118.702C168.209 118.799 168.834 120.029 169.061 120.259C169.45 120.654 169.952 120.921 170.402 121.233C171.644 122.092 172.397 122.36 173.86 122.65C166.205 125.786 160.054 131.366 153.721 136.513C153.272 136.136 153.522 132.772 153.571 132C153.663 130.567 153.724 129.116 153.832 127.679C153.92 126.498 153.942 123.902 154.75 122.974ZM177.999 153.483C177.768 154.788 177.732 156.581 177.173 157.787C176.659 158.891 176.721 158.814 175.356 158.847C173.63 158.889 171.651 159.177 169.98 158.653C171.472 155.362 172.714 151.785 174.755 148.782C175.396 147.84 176.634 145.426 177.975 145.57C179.321 145.714 179.026 147.062 178.919 148.038C178.72 149.859 178.318 151.68 177.999 153.483ZM184.72 102.146C185.756 95.0465 185.668 88.1055 185.668 80.956C187.322 81.1746 189.144 81.0367 190.737 81.5039C190.223 83.1433 188.739 84.622 190.208 86.1786C191.7 87.7597 195.178 88.4525 197.194 89.0347C199.556 89.7165 201.964 90.5502 204.391 90.9552C205.482 91.137 206.67 91.3137 207.77 91.1023C209.513 90.7683 209.666 90.3063 210.812 92.0991C210.818 92.1089 210.828 92.1232 210.834 92.1338C210.503 91.944 209.454 92.0581 209.733 92.0662C209.774 92.2107 209.835 92.3545 209.871 92.4885C209.562 92.2344 208.878 92.0205 208.784 92.0036C207.644 91.8036 206.199 92.3143 205.101 92.5671C202.641 93.1353 200.198 93.7538 197.815 94.5946C195.809 95.3023 193.822 96.0945 191.909 97.0245C190.431 97.7419 187.02 99.0059 186.554 100.764C185.66 104.136 194.576 106.697 196.75 107.838C198.804 108.916 198.155 110.514 198.179 112.656C198.204 114.981 198.415 117.285 198.253 119.605C198.128 121.403 197.99 121.124 196.195 121.092C194.851 121.068 193.506 121.014 192.162 121.094C190.267 121.206 188.32 121.469 186.542 122.157C183.88 123.187 178.769 128.09 183.862 129.584C185.96 130.199 188.664 129.974 190.813 129.825C192.677 129.697 195.598 128.849 197.397 129.489C198.335 129.224 198.673 129.564 198.412 130.511C198.456 131.159 198.499 131.808 198.542 132.456C198.629 133.762 198.716 135.067 198.803 136.372C198.981 139.043 199.158 141.715 199.335 144.386C197.772 142.173 195.623 137.808 192.292 138.307C189.434 138.735 187.744 143.162 186.823 145.447C186.075 147.303 185.592 149.249 185.086 151.182C184.6 153.04 184.423 155.666 183.534 157.35C182.658 159.009 181.441 158.452 179.649 158.623C177.408 158.836 178.311 157.583 178.668 155.68C179.21 152.782 181.13 147.783 179.279 145.082C176.915 141.635 173.575 148.023 172.667 149.748C171.818 151.361 171.094 153.032 170.445 154.734C170.025 155.833 169.685 158.204 168.602 158.805C167.276 159.542 165.172 158.364 163.954 157.979C162.523 157.527 160.959 157.338 159.489 157.042C163.673 150.499 168.024 144.054 172.084 137.435C174.113 134.125 176.673 130.651 177.788 126.906C177.999 126.197 178.259 125.52 178.172 124.765C178.098 124.122 177.129 123.11 177.191 122.663C177.282 122.001 178.612 121.448 179.235 120.752C181.397 118.334 181.94 115.457 182.611 112.383C183.341 109.038 184.227 105.526 184.72 102.146ZM192.889 81.8556C196.075 81.1699 199.696 82.9987 202.361 84.4753C204.119 85.4493 208.812 87.4857 208.992 89.8713C208.944 89.2245 204.629 89.6282 203.775 89.6489C200.13 88.8605 196.242 87.7973 192.84 86.2259C191.601 85.6535 190.146 85.093 190.598 83.6239C190.894 82.6588 191.985 82.0501 192.889 81.8556ZM189.192 128.79C187.177 128.674 179.863 128.754 183.544 125.106C185.848 122.821 190.092 122.325 193.157 122.313C194.256 122.309 195.338 122.395 196.429 122.507C196.728 122.543 197.027 122.578 197.326 122.613C198.241 122.432 198.525 122.81 198.182 123.747C198.346 124.295 198.609 127.546 198.127 128.004C197.487 128.61 195.45 128.343 194.7 128.401C192.857 128.545 191.041 128.801 189.192 128.79ZM199.889 156.425C194.589 157.214 189.298 158.22 183.924 158.304C184.726 154.391 185.661 150.487 187.121 146.759C188.055 144.377 189.749 139.234 193.016 139.488C195.623 139.69 198.666 144.152 199.393 146.432C200.34 149.403 199.889 153.335 199.889 156.425ZM213.5 96.9463C213.395 97.4887 211.016 98.464 210.507 98.7591C206.838 100.889 203.57 104.046 201.374 107.634C201.129 106.249 201.168 103.623 200.006 102.639C197.961 100.907 198.381 104.787 198.137 105.972C197.908 107.083 198.193 106.903 197.233 107.002C196.382 107.09 194.21 105.498 193.425 105.096C191.255 103.988 189.174 102.781 187.089 101.522C188.816 98.6711 193.911 97.3623 196.811 96.2222C200.98 94.5836 205.09 93.7449 209.502 93.0664C210.24 93.4498 210.336 92.5874 210.887 92.3942C210.917 92.3494 210.928 92.3118 210.929 92.2771C211.577 93.2388 213.658 96.1389 213.5 96.9463ZM218.897 135.362C220.951 144.785 221.462 154.59 224.055 163.899C226.521 172.749 228.711 181.56 231.559 190.29C233.2 195.319 234.724 200.398 236.917 205.227C238.446 208.594 239.66 215.777 243.386 217.353C245.826 218.385 246.908 217.472 246.647 215.001C246.421 212.851 245.305 211.5 244.384 209.643C244.063 208.997 243.018 207.171 243.132 206.485C243.273 205.632 243.49 205.724 244.381 205.302C246.272 204.406 248.157 203.799 250.171 203.281C249.358 204.539 247.736 206.339 247.605 207.878C247.498 209.148 248.411 211.477 249.674 211.965C250.868 212.425 252.272 211.454 253.295 210.862C254.478 210.176 255.605 209.985 256.908 209.498C255.248 211.887 252.529 213.79 253.693 217.077C254.935 220.582 258.788 217.715 261.253 217.319C260.549 220.035 257.426 223.131 255.18 224.643C253.672 225.658 252.036 226.573 250.418 227.394C249.791 227.712 248.968 227.906 248.393 228.285C248.174 228.429 247.806 229.04 247.607 229.136C244.812 230.484 241 230.828 237.958 231.476C234.608 232.19 231.724 232.365 228.274 232.199C225.42 232.063 222.259 230.311 219.874 228.841C218.061 227.723 217.796 226.357 217.232 224.383C216.296 221.112 215.459 217.82 214.566 214.538C213.796 211.708 213.437 208.99 212.916 206.119C211.811 200.034 211.302 193.854 210.116 187.78C208.939 181.747 208.545 175.635 208.219 169.468C208.062 166.498 207.578 163.468 207.431 160.556C207.311 158.187 207.352 155.803 207.365 153.367C207.374 151.654 206.767 149.943 206.808 148.224C206.844 146.704 206.984 145.336 206.823 143.801C206.481 140.53 206.213 137.299 205.955 134.023C205.453 127.638 203.976 121.338 203.386 114.981C203.132 112.231 206.153 109.594 208.2 107.993C210.381 106.287 212.131 103.89 214.531 102.547C215.42 113.574 216.54 124.544 218.897 135.362ZM182.747 253.251C180.38 254.305 178.015 255.36 175.647 256.413C173.906 257.186 171.623 258.776 169.71 258.632C171.069 256.792 171.926 254.688 173.377 252.9C174.825 251.116 176.02 249.22 177.329 247.334C179.05 249.431 180.809 251.352 182.747 253.251ZM183.251 243.997C186.832 242.111 191.919 238.526 196.116 239.203C199.138 239.69 202.562 241.9 204.387 244.335C205.243 245.477 206.1 246.542 207.08 247.661C207.977 248.686 208.438 248.553 207.653 249.623C207.049 250.445 205.626 251.003 204.7 251.321C204.7 249.521 205.26 247.716 203.095 247.894C202.241 247.964 201.244 248.168 200.393 248.307C199.659 248.426 199.234 248.745 198.609 248.892C197.941 249.049 197.144 248.864 196.452 248.918C195.262 249.012 194.308 249.488 193.18 249.738C190.846 250.254 188.876 250.968 186.603 251.731C185.563 250.144 184.69 248.235 183.277 246.937C181.698 245.486 181.024 245.17 183.251 243.997ZM152.535 6.23569C152.878 6.19963 153.271 5.9861 153.536 5.541C153.072 6.32003 152.798 6.35529 152.535 6.23569ZM141.802 7.47628C142.218 7.55178 142.629 7.6442 142.974 7.80556C143.313 7.9643 143.496 8.14523 143.677 8.30397C143.593 8.26715 143.501 8.22767 143.398 8.18472C142.951 7.99803 142.378 7.66106 141.802 7.47628ZM134.644 66.5505C134.616 66.5125 134.59 66.4774 134.563 66.4432C134.59 66.4774 134.616 66.5125 134.645 66.5505H134.644ZM134.381 66.2301C134.348 66.1946 134.315 66.1616 134.281 66.1308C134.315 66.1616 134.348 66.195 134.381 66.2301ZM193.615 9.02814C193.692 9.05037 193.759 9.05997 193.82 9.06339C193.736 9.07185 193.669 9.05921 193.615 9.02814ZM195.457 10.2607C195.232 10.0532 195.1 9.85008 195.032 9.64653C195.066 9.668 195.104 9.68753 195.147 9.7044C195.214 9.63845 195.281 9.5725 195.347 9.50622C195.255 9.67794 195.223 9.84357 195.294 9.99233C195.638 10.71 196.057 9.61892 196.575 10.1587C196.187 10.1112 195.714 10.2607 195.457 10.2607C194.859 11.0803 194.26 11.9003 193.663 12.72C194.472 13.1237 194.726 12.6253 195.178 13.361C195.2 13.3966 195.22 13.484 195.237 13.5994C195.049 13.0631 194.558 13.1662 193.663 12.72C194.26 11.9003 194.859 11.0803 195.457 10.2607ZM196.291 13.3771C196.317 13.4246 196.345 13.4675 196.376 13.5074C196.346 13.4664 196.317 13.4246 196.291 13.3771ZM195.391 16.6028C194.537 16.1454 195.279 15.5696 195.314 14.8668C195.317 14.8044 195.319 14.7515 195.32 14.6939C195.326 14.8638 195.328 15.003 195.323 15.0712C195.265 16.0641 194.56 16.3405 195.844 16.6415C195.932 16.6622 196.045 16.6729 196.175 16.6779C195.846 16.7016 195.56 16.6932 195.391 16.6028ZM208.648 23.9818C208.595 23.5758 210.496 22.6899 210.741 22.581C210.44 22.7148 208.597 23.5969 208.648 23.9818ZM210.81 20.3866C210.798 20.3812 210.784 20.3797 210.771 20.3739C210.774 20.344 210.771 20.3161 210.771 20.2869C210.779 20.3237 210.791 20.3578 210.81 20.3866ZM211.823 23.6656C211.833 23.6215 211.853 23.5038 211.876 23.3635C211.909 23.5367 211.946 23.6993 211.981 23.8411C211.94 23.7859 211.89 23.728 211.823 23.6656ZM210.346 23.6406C210.344 22.9525 210.561 23.0993 210.695 23.12C210.572 23.3044 210.345 23.3389 210.346 23.6406ZM208.34 25.1519C208.539 25.1128 208.707 25.2274 208.863 25.3597C208.525 25.2703 208.247 25.1695 208.34 25.1519ZM207.819 52.9115C207.903 52.7699 208.084 52.723 208.29 52.7006C208.032 52.7991 207.833 53.01 207.786 53.3161C207.734 53.2028 207.722 53.0747 207.819 52.9115ZM209.314 48.5116C209.3 48.5074 209.285 48.5019 209.272 48.5006C208.853 48.468 208.671 48.7386 208.626 49.1525C208.654 48.7914 208.775 48.4972 209.087 48.4013C209.071 48.3687 209.057 48.3383 209.042 48.3066C209.121 48.3788 209.214 48.4473 209.314 48.5116ZM208.818 50.7395C208.809 50.6904 208.799 50.6367 208.787 50.5809C208.834 50.7779 208.888 50.9737 208.942 51.1618C208.888 51.0104 208.841 50.8659 208.818 50.7395ZM209.285 43.8288C209.261 43.8466 209.234 43.8618 209.205 43.8762C209.234 43.8618 209.26 43.8462 209.285 43.8288ZM209.05 43.9375C209.002 43.9502 208.949 43.9612 208.89 43.9683C208.948 43.9612 209.001 43.9506 209.05 43.9375ZM209.48 38.9368C209.485 39.1216 209.486 39.3059 209.491 39.4805C209.462 39.3089 209.459 39.1398 209.48 38.9368ZM292.447 285.571C291.304 284.544 287.473 284.476 285.953 284.187C289.243 281.043 291.716 273.094 285.431 272.074C284.039 271.847 283.645 272.383 283.327 270.809C283.132 269.844 283.53 268.956 283.05 267.995C281.913 265.714 277.591 265.968 275.432 265.64C275.948 263.829 277.213 260.593 275.307 259.122C273.803 257.962 270.673 259.51 269.075 260.007C264.758 261.349 260.372 262.881 256.73 265.585C255.098 263.384 253.392 261.213 252.023 258.833C250.717 256.563 249.908 254.053 248.68 251.742C247.45 249.424 246.143 246.691 244.424 244.7C242.969 243.013 240.972 242.846 239.052 242.041C234.181 239.999 229.96 240.116 224.869 240.871C219.781 241.626 215.371 244.598 211.061 247.192C209.37 241.494 205.458 235.304 199.393 233.547C196.671 232.758 193.807 233.52 191.319 234.759C188.235 236.296 185.811 238.908 182.796 240.363C186.234 234.483 190.574 228.953 194.353 223.401C196.425 220.355 199.044 217.637 201.068 214.534C203.132 211.37 204.652 207.853 206.149 204.4C207.413 207.623 207.627 211.013 208.789 214.247C209.855 217.216 210.585 220.261 211.797 223.181C213.063 226.228 214.181 229.235 215.892 232.071C216.868 233.689 219.273 238.729 221.046 235.496C224.992 238.158 228.8 239.765 233.735 239.649C235.994 239.595 238.51 239.524 240.672 239.019C242.868 238.506 244.967 237.815 247.149 237.323C248.876 236.934 250.454 235.881 252.025 235.101C253.831 234.204 255.621 232.591 257.016 231.177C258.743 229.425 260.528 227.739 262.264 225.999C263.983 224.277 263.858 222.519 264.777 220.379C265.737 218.146 266.148 216.172 264.879 213.918C263.95 212.267 262.305 212.495 261.92 210.823C261.555 209.237 261.91 207.742 260.913 206.286C260.155 205.182 257.432 204.444 257.423 203.317C257.415 202.385 258.384 201.56 258.346 200.443C258.311 199.445 257.822 197.84 257.285 196.996C256.276 195.407 254.74 195.353 253.006 195.839C248.819 197.011 244.714 200.026 241.834 203.192C237.885 192.39 234.776 181.351 231.888 170.302C230.612 165.422 229.613 160.477 228.801 155.5C227.998 150.573 226.782 145.61 226.239 140.657C225.913 137.687 224.998 134.907 224.57 131.973C224.217 129.544 223.98 127.095 223.632 124.665C222.861 119.279 221.791 113.976 220.957 108.604C220.497 105.635 219.458 103.037 218.659 100.177C217.973 97.7254 217.565 95.6291 216.419 93.3124C214.232 88.8947 211.984 83.4832 207.737 80.6757C203.959 78.1786 200.295 76.0919 195.692 75.5808C192.991 75.2806 190.815 75.9143 188.174 76.2056C185.836 76.4635 183.833 77.7541 181.553 78.2191C181.553 76.0543 181.341 75.9959 183.319 75.2257C184.459 74.7822 185.57 74.2948 186.731 73.9093C187.954 73.5026 188.88 73.106 189.923 72.3591C191.153 71.4772 190.377 71.7575 191.852 72.0619C194.177 72.5429 193.492 71.9849 195.022 70.8279C195.911 70.1544 196.82 70.5653 197.861 70.6998C198.833 70.8253 200.432 71.2544 201.173 70.3806C201.737 69.716 201.123 68.5759 201.538 67.8539C202.194 66.7137 204.074 66.7657 205.078 65.9997C206.176 65.1622 206.276 64.2178 206.037 62.9297C205.873 62.0382 204.466 60.0572 204.545 59.2903C204.598 58.7792 204.867 58.6296 205.215 58.5877C207.965 58.7264 207.832 58.3125 207.161 55.8783C207.122 56.2389 207.098 56.5454 207.071 56.8096C207.064 56.4317 207.067 56.0787 207.161 55.8783C207.233 55.7274 207.49 55.6302 207.723 55.5084C207.662 55.5693 207.597 55.6315 207.522 55.7012C207.639 56.2186 207.674 57.5706 208.171 57.9384C208.527 58.2017 209.775 58.1747 210.027 57.7346C210.553 56.8156 208.742 56.2939 208.671 55.6116C210.751 55.4378 210.042 54.4254 208.954 53.3918C208.911 53.1081 209.076 52.9737 209.45 52.9889C209.264 52.7953 209.034 52.6849 208.805 52.6494C208.967 52.6224 209.108 52.575 209.182 52.46C209.247 52.359 209.251 52.2191 209.227 52.0626C209.268 52.1831 209.303 52.2867 209.329 52.3666C211.123 53.0899 210.201 49.251 209.457 48.5966C209.514 47.5312 209.571 46.4663 209.628 45.4015C209.116 45.7388 208.726 46.2647 208.593 46.8138C208.611 46.307 208.907 45.8766 209.628 45.4015C208.474 44.8942 208.361 44.8324 209.599 44.7242C210.626 45.6593 210.483 44.8832 211.119 44.312C211.08 44.3459 212.081 43.2594 212.014 43.4255C212.49 42.2507 211.965 39.7722 210.049 40.5792C211.09 41.5097 210.046 41.6809 209.683 42.4807C209.67 42.5073 209.661 42.5357 209.65 42.5636C209.67 42.468 209.696 42.3754 209.735 42.2905C210.377 40.9127 210.529 41.9705 209.823 40.4033C209.822 40.4025 209.821 40.4012 209.821 40.3995C210.008 40.4938 210.3 40.4739 210.763 40.2791C211.342 39.5739 211.516 39.8622 211.826 38.9537C212.097 38.1594 211.972 37.617 211.43 37.3215C211.492 37.3376 211.554 37.3558 211.616 37.3714C211.855 36.7601 211.523 36.178 210.969 35.8969C210.745 36.2626 210.521 36.6286 210.298 36.9947C210.399 37.0273 210.501 37.0565 210.603 37.0873C210.601 37.0873 210.6 37.0873 210.599 37.0869C209.889 37.0049 209.602 37.1321 209.495 37.4593C209.46 37.3127 209.45 37.1681 209.531 37.037C209.618 36.8971 210.231 37.1047 210.298 36.9947C211.398 35.1939 210.236 33.6944 208.466 32.777C207.793 32.4287 206.468 32.4168 206.23 31.6014C206.063 31.0252 206.898 29.631 207.059 28.9474C208.294 28.3813 206.013 28.0503 205.998 28.0478C205.929 28.8539 205.974 29.2112 206.44 29.1486C205.971 29.212 205.929 28.8514 205.998 28.0478C206.668 28.1505 208.647 27.9662 209.616 27.3075C211.221 27.3532 212.047 27.6311 213.021 26.2406C212.07 25.8462 210.949 26.0585 210.095 25.4528C210.135 25.6349 210.167 25.8002 210.187 25.9527C210.113 25.7273 209.953 25.5333 209.737 25.3493C209.876 25.4689 209.804 25.5072 209.639 25.5019C209.67 25.4593 209.703 25.4103 209.737 25.3493C209.795 24.6746 210.291 24.9495 210.794 24.9916C210.781 24.7746 210.695 24.5922 210.602 24.4112C210.694 24.5849 210.78 24.7627 210.794 24.9916C211.113 24.7892 211.431 24.5868 211.75 24.384C211.923 24.3337 212.027 24.2636 212.068 24.1754C212.068 24.1769 212.069 24.1789 212.069 24.1804C213.592 24.6343 213.128 21.4117 212.428 21.4282C212.24 21.4328 212.104 21.5018 212.003 21.6111C212.025 21.314 212.076 20.9996 212.198 20.5595C212.269 20.3701 212.34 20.1807 212.412 19.9913C212.028 20.0159 210.785 19.2748 210.763 20.1589C210.739 19.9994 210.676 19.8507 210.567 19.7153C210.679 18.7374 210.102 18.8205 209.209 18.5472C208.878 18.4456 208.512 17.8111 208.138 18.0776C207.577 18.4778 207.915 18.8547 208.275 19.1399C208.222 19.4723 208.063 19.7379 207.798 19.9365C207.757 19.8986 207.718 19.8694 207.68 19.8399C207.928 19.6946 208.138 19.4634 208.275 19.1399C207.127 18.2324 206.643 18.8263 205.759 19.5562C206.111 19.8487 206.519 20.0063 206.909 20.0224C206.889 20.0653 206.87 20.1087 206.852 20.16C206.409 20.1048 206.045 19.9035 205.759 19.5562C206.698 18.7807 206.613 18.3053 205.472 17.8452C205.086 17.69 204.842 18.0358 204.365 17.8529C204.128 17.762 203.957 17.3495 203.726 17.2131C202 16.1921 199.925 16.7733 198.086 16.5314C198.317 16.5019 198.523 16.4732 198.679 16.4525C198.497 15.8192 198.004 15.545 197.484 15.3522C197.485 14.9915 197.486 14.6303 197.485 14.2695C197.411 14.2531 197.341 14.2454 197.273 14.2435C197.393 14.1484 197.464 14.0192 197.447 13.7992C197.003 13.9594 196.627 13.8413 196.384 13.5205C196.867 14.1365 197.808 13.8141 198.095 13.024C198.396 12.1959 197.751 11.6396 197.19 11.0251C197.203 10.4347 196.952 10.2223 196.627 10.1656C197.213 9.01702 197.344 9.58671 196.716 8.15022C196.664 7.18222 195.842 7.53377 195.287 8.15559C195.345 8.013 195.405 7.86652 195.463 7.71395C195.026 7.68444 194.59 7.65489 194.154 7.62462C194.265 7.97808 194.509 8.60759 194.188 8.90778C194.402 8.6007 194.25 7.9298 194.154 7.62462C193.619 7.32714 193.086 7.02965 192.551 6.73136C192.597 6.82682 192.719 7.18607 192.872 7.59279C192.461 7.0212 192.126 6.66698 191.566 6.07852C191.292 5.79135 190.222 4.41315 189.925 4.32725C188.111 3.80203 186.739 7.34553 184.527 6.86055C183.222 6.57457 183.831 6.23721 182.598 6.47645C181.923 5.60043 177.517 6.97786 177.348 7.81131C177.43 7.78907 177.493 7.7799 177.545 7.77837C177.048 7.95622 176.616 8.22995 176.135 8.41511C174.929 8.87979 175.646 9.00091 174.277 8.21883C173.81 7.95204 173.638 8.03561 173.456 8.01105C174.045 7.74654 174.329 5.91555 174.338 5.2627C174.359 3.70278 174.153 3.9765 174.762 2.85783C174.199 2.849 173.802 2.80106 173.506 2.93486C173.59 2.66959 173.651 2.40926 173.65 2.15739C173.954 1.3324 173.686 0.360552 172.742 0.130917C171.316 -0.21679 171.036 1.82925 172.07 2.16432C171.081 1.8438 171.477 0.549562 170.131 0.374335C170.625 0.349055 170.931 0.442227 171.392 1.00731C171.544 0.700609 171.696 0.394287 171.849 0.0875856C170.777 -0.0243573 170.281 -0.115204 169.415 0.387778C168.568 0.538824 167.971 1.1518 167.332 1.75024C165.59 3.37997 164.026 4.97054 162.423 6.73868C161.6 5.04837 160.69 3.81776 159.354 5.70933C158.147 7.41646 157.17 9.7761 156.543 11.7612C155.289 11.1865 155.818 10.9991 155.292 10.0682C155.838 10.9749 155.282 11.1835 156.543 11.7612C156.667 11.3652 156.793 10.9687 156.918 10.5727C155.821 9.32334 155.867 8.08199 154.679 6.74979C154.547 7.17685 154.926 7.78527 154.992 8.17017C155.066 8.59685 154.592 8.8932 154.7 9.35208C155.144 9.18992 155.247 9.28766 155.261 9.46517C155.245 9.28808 155.141 9.19106 154.7 9.35208C154.524 8.6026 154.961 8.20429 154.717 7.36738C154.618 7.02927 154.475 6.78197 154.302 6.54278C155.058 5.27957 152.613 4.40432 152.043 5.15613C151.972 5.25082 151.923 5.33897 151.885 5.42411C150.93 4.99511 150.636 5.9079 150.19 6.59338C150.084 6.80767 149.978 7.02234 149.872 7.23705C149.31 7.69822 148.788 8.66318 148.365 9.29459C147.46 10.6444 147.081 12.6199 145.972 13.7447C146.01 13.0202 146.405 11.4139 145.103 12.0618C145.533 11.8478 145.595 11.5879 145.5 11.2866C145.581 11.3322 145.669 11.3736 145.771 11.4073C145.954 11.4254 146.137 11.443 146.321 11.4606C146.298 10.4347 145.624 9.76037 144.829 9.21482C144.829 9.4828 144.82 9.75847 144.838 10.0226C144.834 10.013 144.829 10.0038 144.825 9.99423C144.476 9.15885 144.624 8.91273 144.321 8.65667C144.44 8.68504 144.576 8.70533 144.743 8.7134C143.77 7.0699 142.477 6.80729 140.688 7.2704C140.81 7.29915 140.937 7.32367 141.067 7.34785C140.865 7.34823 140.669 7.38425 140.485 7.47358C139.791 7.81131 138.763 9.75272 138.281 10.4259C136.585 12.7951 135.795 15.698 134.907 18.4364C134.658 19.207 134.279 21.013 133.315 21.2714C132.194 21.572 131.006 19.7479 130.02 19.1383C126.863 17.1874 125.292 20.6902 124.806 23.4693C124.081 24.6987 124.248 25.6464 125.295 26.2287C125.002 25.8059 124.867 25.3554 124.811 24.8908C124.95 25.6805 125.61 25.9543 125.728 26.2924C125.794 26.478 125.885 27.6035 125.882 27.8297C126.422 28.2317 126.462 28.5289 126.004 28.7212C125.724 28.9123 125.461 29.1262 125.216 29.3625C124.46 30.159 124.467 31.2636 123.775 32.0385C122.993 32.9148 122.275 32.5276 121.905 33.9683C121.272 36.4363 122.831 40.1632 125.636 40.3991C125.303 41.371 124.873 42.3568 124.624 43.3533C124.294 44.6794 124.317 44.8138 124.942 46.0825C120.277 45.3896 120.641 50.3231 123.301 52.7462C123.931 53.3207 124.621 53.6784 125.434 53.9329C126.022 54.1172 127.798 54.0145 128.222 54.5721C129.113 55.7473 127.123 57.2755 126.947 58.5869C126.929 58.7213 126.921 58.9517 126.927 59.2193C126.193 60.1176 126.229 60.1916 127.279 61.0316C127.854 61.7718 129.631 61.5947 130.171 62.3024C131.002 63.3914 129.149 65.1445 130.078 66.4169C130.817 67.4282 131.587 66.7978 132.77 67.2265C133.343 67.4878 133.915 67.7494 134.487 68.0124C134.755 67.8264 135.048 67.7097 135.366 67.6624C136.034 67.9984 135.397 68.5899 136.239 68.7877C136.676 68.9255 137.687 69.4493 138.129 69.1779C137.502 69.563 137.081 70.515 136.721 71.5618C136.379 72.1215 136.063 72.7374 136.189 73.1999C135.978 73.8408 135.762 74.4254 135.504 74.8325C136.96 75.0541 136.788 76.4242 137.796 77.1762C139.158 78.3405 139.385 77.2599 139.063 76.6922C139.199 76.7611 139.339 76.8507 139.483 76.953C139.511 76.972 139.218 77.6637 139.505 77.8251C139.907 78.0517 139.907 77.8243 140.325 77.8201C140.719 77.8154 141.29 77.2253 141.77 77.1758C142.026 77.1496 142.783 77.4992 142.94 77.3956C143.376 77.1069 143.342 76.7903 143.172 76.4073L143.367 76.7962C143.836 78.0205 144.073 77.7448 144.784 77.3939C144.592 77.4886 145.342 76.9298 145.496 76.9746C145.145 76.0044 143.756 76.1063 142.9 75.8636C143.442 76.0171 144.323 76.023 144.822 76.2377C145.657 76.5971 145.393 76.9623 146.382 77.0743C146.798 77.1213 148.496 76.6605 148.796 76.3586C148.824 76.3299 148.844 76.2948 148.86 76.2559C149.014 76.0103 149.168 75.7643 149.321 75.5182C149.949 75.5909 149.27 76.5548 150.254 76.1714C150.99 75.8843 150.632 75.4853 150.398 75.0498C150.321 74.9069 150.235 74.8055 150.144 74.7323C151.161 74.9754 152.37 76.3422 153.758 75.9596C154.541 75.7435 154.584 75.21 155.158 74.7108C155.925 74.0441 156.163 74.1468 157.091 73.8243C157.653 73.629 158.253 73.1978 158.819 73.0972C159.74 72.9336 159.486 73.035 160.25 73.4231C160.707 73.6548 160.966 74.0902 161.543 74.1743C162.07 74.2513 162.896 73.6463 163.322 73.8125C164.482 74.2652 164.187 75.8911 164.253 76.9632C158.383 75.0967 151.521 78.0796 147.2 82.176C146.029 83.2866 145.262 84.6034 144.221 85.8112C143.092 87.1217 142.026 87.717 141.868 89.5838C141.731 91.1936 142.458 92.16 141.884 93.7068C141.334 95.189 140.733 96.5155 140.331 98.0611C138.408 105.441 138.348 113.105 136.923 120.587C135.605 127.511 133.722 133.678 130.62 140.024C129.181 142.966 127.976 144.768 124.821 146.008C122.269 147.012 120.401 145.696 119.153 143.408C115.797 137.248 115.32 130.914 115.36 124.043C115.38 120.743 115.757 117.442 116.075 114.161C116.405 110.76 116.158 107.583 115.921 104.187C115.446 97.3784 113.891 91.5386 111.55 85.1353C110.441 82.0983 109.505 79.1373 106.833 77.1614C105.336 76.0551 103.833 74.6715 102.078 73.7144C100.674 72.9488 99.8383 72.2572 98.2377 71.9143C97.1847 71.689 96.2253 71.3411 95.2087 71.0139C92.8095 70.2432 90.0345 70.0048 87.5181 70.0132C81.6422 70.0331 75.1937 72.009 69.9048 74.543C67.2711 75.8044 64.4115 77.6831 62.6767 80.0763C61.9611 81.0642 61.4735 82.1595 60.9873 83.2709C60.4053 84.5992 60.5882 84.8423 59.3562 84.7962C58.5843 84.767 57.7209 84.0534 56.8368 84.0154C55.8689 83.974 55.1605 84.3109 54.2594 84.5603C53.1159 84.877 52.0409 85.1606 51.024 85.8171C48.5566 87.4083 46.4698 89.9448 44.5843 92.1575C41.1326 96.2078 38.0097 100.747 34.7806 104.872C31.6006 108.934 27.7375 112.539 22.7982 114.38C20.914 115.083 18.8276 115.225 16.9036 115.793C16.0593 116.042 15.0368 116.704 14.1523 116.692C12.7625 116.675 12.8696 115.995 12.3884 114.893C11.8162 113.584 10.9888 112.565 9.95446 111.587C5.36683 107.249 -0.338515 113.677 0.0157147 118.629C0.222666 121.523 2.39375 123.431 2.31715 126.27C2.24521 128.927 2.40391 131.622 3.35233 134.143C4.41714 136.971 7.03556 139.904 9.34461 141.827C11.4835 143.61 14.1629 143.988 16.8575 144.286C18.0924 144.422 19.3739 144.789 20.5682 144.767C21.5916 144.749 22.5222 144.335 23.5667 144.377C25.3391 144.448 26.2888 144.437 27.9495 143.808C29.1811 143.343 30.292 143.084 31.6332 143.114C31.6332 145.937 31.8126 148.698 32.0555 151.512C32.0873 151.883 32.3446 152.848 32.1732 153.179C31.9624 153.588 31.7119 153.319 31.4486 153.613C30.8214 154.314 30.3669 154.658 29.8971 155.57C28.6085 158.069 28.214 160.865 28.7164 163.651C29.11 165.836 30.3961 166.736 30.0922 169.057C29.7346 171.784 29.0698 174.568 28.9415 177.313C28.8797 178.622 28.8645 179.611 28.5869 180.881C28.4269 181.619 27.8873 182.947 27.9309 183.692C27.958 184.152 28.4468 184.356 28.4476 184.778C28.4485 185.146 28.0231 185.097 27.9939 185.412C27.9046 186.363 27.853 187.224 27.8733 188.18C27.9 189.473 27.7735 190.758 27.8221 192.051C27.8589 193.036 27.6296 195.368 28.7363 194.983C28.4409 195.679 28.3626 196.35 28.3334 197.018C28.3181 196.953 28.3118 196.887 28.3177 196.819C28.385 196.048 28.4078 195.757 28.7363 194.983L28.1044 195.203C27.7184 196.198 28.1924 197.174 28.2987 198.165C28.2953 198.264 28.2919 198.362 28.2855 198.463C28.1967 199.902 28.3054 201.311 28.4129 202.746C28.6584 206.025 28.7744 209.679 29.6618 212.625C30.6348 215.853 30.3237 219.913 30.6987 223.469C31.1283 227.539 31.8245 231.544 32.3429 235.599C32.8059 239.219 33.0293 243.148 33.8237 246.675C34.4755 249.562 35.0265 252.375 35.3761 255.41C35.8598 259.619 37.3973 262.826 39.0902 266.651C39.8058 268.269 39.8549 268.243 38.5413 269.426C37.9907 269.921 37.5239 270.5 36.9631 270.984C35.8403 271.954 34.6139 272.518 33.1394 272.693C29.5095 273.123 25.8423 274.411 23.8033 277.537C21.8324 280.559 23.1096 284.1 24.5845 287.178C22.6378 287.343 17.3738 287.224 18.6054 290.766C19.4471 293.188 23.9358 292.377 25.9185 292.403C28.8158 292.442 31.733 292.3 34.605 292.261C35.9123 292.243 36.0456 292.107 37.3186 292.605C38.5184 293.074 39.4338 293.126 40.7323 293.04C42.1145 292.95 43.4958 293.153 44.8353 292.955C46.5239 292.705 47.5743 292.494 49.271 292.794C50.4971 293.01 51.4798 292.904 52.7033 292.743C54.0597 292.563 55.3437 292.671 56.7428 292.634C60.0109 292.546 63.254 292.608 66.5246 292.644C69.7033 292.679 72.8846 292.246 76.0414 292.388C81.547 292.636 87.1507 292.41 92.6817 292.539C95.2329 292.598 97.2033 294.081 99.7608 293.929C102.36 293.773 104.994 293.75 107.573 293.387C112.014 292.762 116.292 291.878 120.803 291.648C123.655 291.502 126.161 292.728 128.844 293.499C129.816 293.777 130.69 293.647 131.599 293.854C132.456 294.049 133.336 294.608 134.241 294.84C136.386 295.389 138.435 295.598 140.319 295.649C140.563 296.099 140.844 296.155 141.163 295.814C141.293 295.74 141.422 295.667 141.552 295.594C142.153 295.514 142.582 295.243 143.212 295.204C144.184 295.141 145.179 295.274 146.081 295.187C147.969 295.005 149.742 294.886 151.83 295.1C153.069 295.228 154.153 295.048 155.372 295.07C155.358 295.07 157.045 295.399 157.083 295.384C157.232 295.326 157.469 294.91 157.565 294.892C157.531 294.493 157.651 294.314 157.926 294.353C158.147 294.304 158.293 294.42 158.363 294.698C158.297 294.706 158.889 295.005 158.931 295.012C158.965 295.017 160.489 294.837 160.596 294.796C161.033 294.633 161.219 294.158 161.567 294.086C161.98 294.002 162.227 294.457 162.585 294.438C163.374 294.395 163.281 294.044 163.887 293.935C166.016 293.551 168.623 294.05 170.822 294.053C173.014 294.057 175.193 293.857 177.303 293.764C179.898 293.65 182.439 294.142 185.053 293.793C187.54 293.46 190.027 293.316 192.531 293.21C197.767 292.99 203.138 293.223 208.325 292.608C213.725 291.968 219.216 292.608 224.624 292.512C230.327 292.41 236.061 292.358 241.762 292.125C247.436 291.892 253.086 291.218 258.738 291.082C260.176 291.048 261.588 290.705 263.02 290.601C264.332 290.506 265.621 290.714 266.943 290.599C269.351 290.389 271.541 290.55 273.961 290.513C276.667 290.471 279.296 290.059 281.987 289.893C284.708 289.726 287.403 290.11 290.102 289.573C291.577 289.28 294.329 287.261 292.447 285.571Z" fill="#432C7A"/>
<path fill-rule="evenodd" clip-rule="evenodd" d="M185.606 45.111C185.602 45.111 185.599 45.1115 185.595 45.111C185.581 45.1269 185.567 45.1441 185.554 45.1591L185.606 45.111Z" fill="#432C7A"/>
<path fill-rule="evenodd" clip-rule="evenodd" d="M208.144 32.6637C208.486 31.4767 207.62 30.6265 207.04 29.7045C206.698 31.7963 205.65 31.7058 208.144 32.6637Z" fill="#432C7A"/>
<path fill-rule="evenodd" clip-rule="evenodd" d="M145.358 77.2282C145.367 77.2525 145.379 77.2738 145.386 77.2993C145.396 77.2572 145.384 77.2351 145.358 77.2282Z" fill="#432C7A"/>
<path fill-rule="evenodd" clip-rule="evenodd" d="M135.91 75.6615C135.988 75.8361 136.158 77.0452 136.282 77.0511C137.378 77.1031 136.042 75.0579 135.341 74.9382C134.327 75.5918 135.935 75.7152 135.91 75.6615Z" fill="#432C7A"/>
<path fill-rule="evenodd" clip-rule="evenodd" d="M135.852 68.5971C135.779 67.6734 135.468 67.5563 134.582 68.0052C134.847 68.5861 135.162 68.5028 135.852 68.5971Z" fill="#432C7A"/>
<path fill-rule="evenodd" clip-rule="evenodd" d="M123.578 45.9806C124.002 46.0512 124.425 46.1214 124.848 46.1916C124.6 45.6285 124.351 45.0641 124.102 44.5006C123.928 44.9943 123.753 45.4873 123.578 45.9806Z" fill="#432C7A"/>
<path fill-rule="evenodd" clip-rule="evenodd" d="M132.266 231.563C132.266 231.562 132.266 231.561 132.267 231.56C132.236 231.572 132.232 231.575 132.266 231.563Z" fill="#432C7A"/>
<path fill-rule="evenodd" clip-rule="evenodd" d="M45.9238 116.43C46.8202 114.933 48.5198 113.083 50.4547 113.706C52.2623 114.287 52.7625 116.654 53.5417 118.143C55.0568 121.038 55.5287 117.93 55.8643 116.173C55.5904 112.654 54.2201 106.927 49.5842 107.534C46.058 107.996 43.013 113.654 43.6846 117C44.2487 119.812 45.201 117.638 45.9238 116.43Z" fill="#432C7A"/>
<path fill-rule="evenodd" clip-rule="evenodd" d="M179.556 50.1176C177.824 49.5004 177.826 51.3689 177.759 52.7737C177.698 54.0643 177.898 57.092 179.529 57.5528C181.154 58.0128 181.307 55.3389 181.559 54.258C181.18 52.9749 180.97 50.6219 179.556 50.1176Z" fill="#432C7A"/>
<path fill-rule="evenodd" clip-rule="evenodd" d="M181.559 47.3135C180.288 46.1916 179.439 45.8479 177.816 46.5725C176.981 46.9453 175.787 47.7566 175.657 48.7796C175.248 51.9637 180.439 47.9667 181.559 47.3135Z" fill="#432C7A"/>
<path fill-rule="evenodd" clip-rule="evenodd" d="M181.824 66.3874C184.785 67.1517 184.974 63.1081 181.681 63.1014C179.477 63.0971 180.17 65.9604 181.824 66.3874Z" fill="#432C7A"/>
<path fill-rule="evenodd" clip-rule="evenodd" d="M159.184 53.8175C158.079 53.9785 157.688 54.6714 157.925 55.7773C158.199 57.0532 158.891 57.0637 160.131 57.1829C163.118 57.1922 161.169 53.5279 159.184 53.8175Z" fill="#432C7A"/>
<path fill-rule="evenodd" clip-rule="evenodd" d="M185.408 46.9698C185.681 47.7274 187.166 48.0694 187.942 47.7807C188.865 47.437 189.057 46.602 188.224 45.8352C187.51 45.1787 186.527 45.352 185.634 45.4129C185.664 45.6995 185.238 46.4989 185.408 46.9698Z" fill="#432C7A"/>
<path fill-rule="evenodd" clip-rule="evenodd" d="M92.4981 133.277C93.9103 133.275 92.5776 130.889 91.4142 130.741C91.4388 131.479 91.3901 133.279 92.4981 133.277Z" fill="#432C7A"/>
</svg>
