<svg width="163" height="130" viewBox="0 0 163 130" fill="none" xmlns="http://www.w3.org/2000/svg">
<path fill-rule="evenodd" clip-rule="evenodd" d="M99.7617 34.1738C101.732 33.0614 102.883 31.0672 104.022 29.0932C104.193 28.7963 104.364 28.5 104.538 28.2072C104.654 28.0111 104.781 27.809 104.91 27.603V27.6028C105.252 27.0584 105.611 26.4865 105.835 25.9266C105.933 25.6817 106.018 25.3224 106.103 24.9592C106.204 24.5309 106.306 24.0973 106.433 23.8404C106.71 23.2793 108.811 23.024 110.242 22.8501C110.715 22.7926 111.115 22.7442 111.351 22.6963C113.867 22.1888 116.873 21.8844 118.929 23.8643C119.418 24.3348 119.965 24.7688 120.514 25.2043C121.173 25.7263 121.834 26.2504 122.399 26.8422C123.308 27.7925 124.531 29.391 124.963 30.6605C122.748 31.0896 119.069 32.404 118.187 34.7402C114.941 31.7447 113.571 36.734 112.852 39.3521C112.808 39.5118 112.767 39.6629 112.727 39.8026C110.96 39.0335 111.051 36.6933 111.119 34.9796V34.9794C111.128 34.7393 111.137 34.5116 111.141 34.3021C111.145 33.9915 111.192 33.6678 111.238 33.352C111.391 32.2934 111.532 31.3244 110.028 31.2391C108.568 31.1566 107.151 31.754 105.835 32.3134C104.193 33.0117 102.47 34.0559 101.144 35.2555L99.7617 34.1738ZM96.5721 29.5072C96.5719 29.5641 96.5712 29.6209 96.5706 29.6776C96.5655 30.1823 96.5606 30.6853 96.7131 31.1719C96.8013 31.4531 96.8027 31.8644 96.804 32.2593C96.8049 32.5455 96.8058 32.8233 96.8398 33.0368C95.4143 32.6006 92.7658 31.9534 91.3103 32.5418C89.919 33.1042 89.7438 35.7052 89.6947 36.9703C89.6823 37.2899 89.7269 37.6738 89.7732 38.0722C89.8518 38.7484 89.935 39.4668 89.7535 39.9862C89.6134 40.3866 89.618 40.505 89.6273 40.5339C89.6032 40.5197 89.494 40.5155 89.0941 40.8058C88.9159 40.9348 88.7219 41.0376 88.5269 41.1408C88.2946 41.2638 88.061 41.3876 87.8512 41.5576C87.2931 42.0101 87.1026 42.5108 86.874 43.1115C86.815 43.2665 86.7535 43.4282 86.6823 43.5975C86.3459 44.3991 85.4494 45.1114 84.4487 45.0824C84.576 44.8503 84.7111 44.6208 84.8459 44.3919C85.5625 43.1745 86.2685 41.9753 85.729 40.5261C85.2547 39.2516 86.0608 37.7603 86.7212 36.539L86.7599 36.4674C86.8002 36.3925 86.9156 36.226 87.0703 36.0026C87.7593 35.0079 89.229 32.8863 88.3435 32.706C87.714 32.5776 86.3559 35.2201 85.8537 36.1972C85.7942 36.3132 85.7465 36.4059 85.7138 36.4674C84.8513 35.8812 84.464 35.1586 85.1278 34.2757C85.3625 33.9634 85.622 33.672 85.8819 33.3799C86.1866 33.0377 86.4922 32.6946 86.7599 32.3158C86.996 31.9819 87.2303 31.6288 87.4679 31.2714C88.0406 30.4088 88.6313 29.5195 89.3078 28.804C90.9886 27.0269 93.9223 25.817 96.3423 25.8061C96.2881 26.4985 96.3668 27.1636 96.4464 27.8378C96.5107 28.3822 96.5757 28.9322 96.5721 29.5072ZM89.6332 40.5417C89.6339 40.5406 89.6326 40.537 89.6273 40.5339C89.6297 40.5412 89.6324 40.5427 89.6332 40.5417ZM103.398 57.9024C103.875 56.895 104.292 56.0145 104.538 55.5696C106.025 52.8789 107.498 50.2109 108.893 47.4702C107.787 47.8941 106.85 48.5441 105.901 49.2026C105.758 49.3019 105.614 49.4013 105.47 49.5002C104.97 49.843 104.425 50.1523 103.876 50.4633C103.053 50.9304 102.224 51.4011 101.532 51.9934C101.375 52.1274 101.248 52.276 101.127 52.4177C100.851 52.741 100.606 53.028 100.108 53.023C99.7675 53.0197 99.2852 52.6661 98.8541 52.3498C98.603 52.1656 98.369 51.9941 98.1906 51.9119C97.8393 51.7503 97.5494 51.5386 97.2627 51.3294C96.9397 51.0934 96.6205 50.8605 96.2216 50.7051C95.9736 50.6084 95.7709 50.5761 95.5841 50.5463C95.2684 50.496 94.9983 50.4529 94.6321 50.118C94.3962 51.5201 91.1179 50.8597 88.9911 50.4312C88.2849 50.2889 87.7057 50.1723 87.4069 50.1652C87.2933 50.1626 87.1755 50.1591 87.0544 50.1555C85.9918 50.1244 84.6711 50.0859 83.7452 50.4856C83.0359 50.7916 82.1977 51.483 81.4704 52.0828C81.1895 52.3147 80.9253 52.5326 80.6913 52.7096C79.5374 53.5819 78.7147 54.6939 77.8651 55.9014C76.7751 57.4506 78.4029 57.3011 79.5775 57.1933C79.6584 57.1858 79.7373 57.1786 79.8129 57.1722C82.4901 56.9436 85.0915 57.3969 87.6722 58.0118C89.977 58.5607 92.0737 59.4038 94.2802 60.2944C94.6889 60.4593 95.4318 60.847 96.2699 61.2844C97.9779 62.1757 100.081 63.2734 100.555 63.1109C101.006 62.956 102.348 60.1211 103.398 57.9024Z" fill="#FF5678"/>
<path fill-rule="evenodd" clip-rule="evenodd" d="M118.356 40.4486C119.285 40.4008 120.21 40.6094 121.139 40.5185C120.333 39.8121 119.526 39.1058 118.719 38.3995C118.363 39.0287 118.337 39.7445 118.356 40.4486ZM96.3109 25.9267C93.9059 25.9373 90.9721 27.1518 89.3014 28.9255C88.4162 29.8655 87.6847 31.1279 86.9359 32.1839C86.4339 32.8926 85.9436 33.5765 85.334 34.1992C84.4452 35.1067 84.6998 35.3142 85.7011 35.9975C86.0181 35.4005 87.6985 32.2082 88.4029 32.3517C89.473 32.5702 87.4062 35.9421 87.1804 36.3621C86.5119 37.6051 85.4321 39.3411 85.9173 40.652C86.5574 42.3824 85.6293 43.3684 84.8232 44.8429C85.6697 44.8675 85.7529 44.5357 86.0448 43.81C86.4193 42.8773 86.828 42.0982 87.6202 41.4534C88.2336 40.954 89.2371 40.7438 89.5252 40.1409C89.8817 39.3957 89.658 37.9242 89.6869 37.0951C89.7307 35.8352 89.734 32.8573 91.1148 32.2976C92.5614 31.7112 95.1626 32.2638 96.5768 32.6982C96.4002 31.588 95.8433 30.863 95.8509 29.6292C95.8591 28.3378 96.2129 27.1858 96.3109 25.9267ZM77.8345 46.5288C79.0925 46.1284 80.2852 45.7065 81.5796 45.4337C82.934 45.148 83.0246 44.8212 83.7882 43.6534C84.367 42.7681 85.0692 42.0782 84.9052 40.994C84.8 40.2986 84.4215 39.9598 84.5352 39.1777C84.6059 38.6931 84.8309 38.1639 84.9934 37.7029C85.1928 37.1375 85.6059 36.4962 84.6454 36.4683C84.1149 36.4527 84.0889 36.7341 83.7299 37.2065C83.0674 38.0791 82.3048 38.8715 81.5997 39.7085C80.3752 41.1617 79.0766 42.7079 77.7097 44.0529C76.205 45.5328 74.9062 47.3177 73.9336 49.2124C73.7539 49.5624 72.6616 51.6232 73.1277 52.0273C73.5556 52.3985 75.9356 51.5329 76.3695 51.4317C78.2428 50.9946 80.369 50.8385 82.1387 50.0445C83.0405 49.6398 85.0303 49.157 85.7425 48.5311C86.4045 47.9493 86.3747 46.5397 85.9905 45.7195C84.9153 46.3921 77.1412 48.9295 77.8345 46.5288ZM101.239 34.9632C102.494 33.8232 103.978 32.9087 105.528 32.2311C106.914 31.6251 108.637 30.9494 110.179 31.0546C112.101 31.1855 111.298 32.7419 111.291 34.067C111.282 35.8257 110.515 38.3589 112.604 39.2714C113.286 36.8364 114.723 31.0785 118.165 34.269C119.045 31.9278 122.183 31.1354 124.393 30.7054C123.992 29.5225 122.776 28.4518 121.933 27.564C120.878 26.4534 120.045 25.1517 118.988 24.0621C116.901 21.9102 113.119 22.6012 110.476 23.1377C109.594 23.3165 107.036 23.5412 106.609 24.1926C106.341 24.6011 106.491 25.5991 106.292 26.0987C106.018 26.7868 105.55 27.4248 105.175 28.0604C103.806 30.3797 102.413 32.7141 100.071 34.0423L101.239 34.9632ZM108.9 47.4582C107.66 47.9363 106.749 48.7358 105.649 49.409C104.316 50.2255 102.753 50.9902 101.557 51.9985C101.119 52.3673 100.873 53.0044 100.269 53.0457C99.7434 53.0817 98.9426 52.4679 98.4766 52.2533C97.695 51.8925 96.9485 51.346 96.163 51.0245C95.5175 50.7603 95.2317 50.8143 94.6732 50.3004C94.3598 52.1751 88.6606 50.4229 87.465 50.3942C86.3589 50.3678 84.8413 50.4996 83.8119 50.9465C82.831 51.3724 82.0641 52.3096 81.2244 52.9482C80.0735 53.8239 78.9755 54.7096 78.1279 55.9217C76.9654 57.5837 78.7192 57.1134 79.8889 57.0129C82.5588 56.7835 85.156 57.4229 87.7298 58.0398C90.0302 58.5911 92.3023 59.2526 94.5047 60.1467C95.7432 60.6498 97.0467 61.1121 98.2116 61.7656C98.8258 62.1104 99.8217 62.9542 100.526 62.711C101.173 62.4881 101.817 60.6257 102.208 59.8818C102.969 58.4378 103.77 57.0183 104.555 55.5884C106.039 52.8876 107.509 50.2093 108.9 47.4582ZM93.6473 83.2042C94.4112 82.7633 95.6564 82.882 96.501 82.6972C97.4556 82.4884 98.4152 82.148 99.3254 81.7933C100.247 81.4342 101.118 81.0668 101.96 80.6174C102.345 80.412 102.859 80.2097 103.215 79.9245C103.501 79.6947 103.606 79.2676 103.871 79.0593C104.56 78.5153 104.763 78.8566 104.856 77.8071C104.956 76.6672 104.32 76.0217 103.528 75.1685C102.819 74.4052 101.898 73.7453 101.007 73.2081C100.613 72.9707 100.192 72.7034 99.7902 72.4767C99.1817 72.1334 98.3663 71.5626 98.0471 72.2995C98.712 72.4701 98.8586 73.3238 98.2584 73.6306C97.9289 73.7991 97.43 73.5516 97.0584 73.7306C96.4848 74.0073 95.9329 74.7788 95.4419 75.1942C93.8301 76.5585 92.2886 77.07 90.1788 77.1796C85.7706 77.4082 81.1544 76.9026 76.831 76.2459C75.7183 76.0766 74.6074 76.2598 73.4843 76.2194C72.3916 76.1803 71.2522 75.94 70.1781 75.7544C68.109 75.3971 65.9282 75.103 63.8913 74.5774C61.428 73.9414 58.956 73.1189 56.6432 72.0537C54.4248 71.0316 51.9173 69.3431 49.4254 69.2129C50.4888 70.2596 52.0822 70.663 53.3612 71.3524C54.4065 71.9154 56.0413 72.2771 56.7018 73.2052C57.1317 73.8092 57.3474 74.9187 57.6722 75.627C58.0313 76.4107 58.3627 77.2072 58.6953 78.0027C59.0293 78.8031 59.3772 79.604 59.6484 80.4285C59.8164 80.9398 59.8887 82.0002 60.2853 82.35C60.9181 82.9081 63.0357 83.1558 63.8885 83.3414C65.4806 83.6882 67.2965 83.6421 68.9204 83.6662C69.5915 83.6761 70.2679 83.7681 70.9091 83.7805C71.8096 83.798 71.7237 83.6412 71.7109 82.8552C71.7035 82.3832 71.713 81.5249 72.3408 81.9136C72.7687 82.1785 72.4743 83.3517 72.395 83.7686C75.9794 84.1275 79.7193 84.308 83.2867 84.1879C86.7949 84.0697 90.1818 83.6149 93.6473 83.2042ZM109.835 74.9322C110.467 70.3663 111.238 65.7241 112.101 61.2172C112.972 56.663 114.021 52.1501 115.2 47.613C114.421 47.4255 113.642 47.2386 112.863 47.0515C112.834 48.0075 112.513 48.8379 112.376 49.7895C112.186 51.1029 111.825 52.3783 111.608 53.6875C111.197 56.1759 110.435 58.6109 109.763 61.0377C109.079 63.5116 108.85 66.0604 108.221 68.5469C107.703 70.5952 107.438 72.8516 107.149 74.9574C106.446 80.0663 105.446 85.185 104.685 90.2965C103.971 95.0886 103.899 99.9781 103.94 104.815C103.965 107.768 104.413 110.713 104.39 113.67C104.384 114.401 104.445 115.13 104.483 115.859C104.51 116.374 104.235 117.802 104.468 118.233C104.616 118.506 105.25 118.758 105.475 119.137C105.83 119.737 105.905 120.454 106.476 120.908C106.938 119.032 106.72 116.557 106.619 114.642C106.521 112.798 106.711 110.892 106.748 109.019C106.821 105.345 107.015 101.725 107.202 98.0498C107.408 94.019 107.992 89.8902 108.562 85.8897C109.081 82.2521 109.427 78.5501 109.835 74.9322ZM92.906 17.6714C92.6553 17.6477 92.4046 17.6244 92.1537 17.6009C92.1911 18.1322 92.0795 18.9927 92.4521 19.2699C92.7344 19.48 93.306 19.4109 93.6482 19.4779C94.7698 19.6984 96.0697 19.883 97.1831 19.4813C97.6159 19.3252 97.338 19.0808 97.9337 19.1824C98.6514 19.305 98.3893 19.4192 98.5966 19.8692C98.7562 20.2165 98.8383 20.8077 99.0195 21.2248C99.262 21.7828 99.7536 22.7815 99.5434 23.4259C99.3393 24.0524 98.5772 24.2417 98.2534 24.9511C98.0126 25.4785 98.0693 26.2452 97.9443 26.8261C97.7773 27.6009 97.5662 28.3727 97.4729 29.1618C97.3557 30.1559 97.3959 31.3225 98.621 31.4765C99.7582 31.6199 100.571 31.2525 101.334 30.4199C102.79 28.8306 104.453 26.5871 105.308 24.5877C105.408 24.3542 105.654 23.9644 105.62 23.7144C105.552 23.2198 105.523 23.7204 105.367 23.3769C105.218 23.0485 104.984 22.7505 104.847 22.3861C104.353 21.0769 104.003 19.7045 103.805 18.3186C103.715 17.6907 103.685 17.0705 103.7 16.4365C103.705 16.2201 103.834 15.5702 103.757 15.4218C103.679 15.2716 103.269 15.2024 103.141 15.0533C102.905 14.777 102.498 13.9969 102.236 13.79C101.913 13.5359 101.191 13.7373 101.06 13.2317C100.85 12.4228 105.812 11.1052 103.494 10.0257C101.763 9.21974 99.1086 13.294 98.5034 10.088C98.3986 9.53271 98.5984 8.77891 98.3561 8.26999C98.0882 7.70751 97.3593 7.49724 96.8502 7.22352C96.2005 6.87455 95.5441 6.51588 94.9126 6.13366C94.4795 5.8717 93.8555 5.17607 93.3945 5.11236C93.5761 6.05658 93.2282 6.99249 93.2223 7.93486C94.2209 7.66319 94.9081 7.65743 95.8936 8.1405C96.363 8.37038 98.1314 9.67511 97.2355 10.3027C96.5096 9.87129 95.7331 9.49717 94.9239 9.24351C94.6047 9.14335 94.2063 9.00717 93.8668 9.00025C93.0788 8.98432 93.1898 9.06717 92.894 9.66449C92.6087 10.2399 92.6701 11.7406 92.0439 12.108C91.3965 12.488 91.8958 11.9561 91.343 12.0789C91.0276 12.1491 90.6841 12.3848 90.3954 12.5179C90.791 12.9495 91.5892 13.3435 91.8514 13.8229C92.2342 14.5218 92.1014 15.9673 92.1613 16.7319C92.6622 16.5516 93.1895 16.5443 93.6973 16.4105C94.1745 16.2843 94.8365 15.7391 94.8863 16.5408C94.9418 17.4342 93.537 17.6714 92.906 17.6714ZM99.4256 41.1943C99.4645 40.4223 99.5073 39.6505 99.5927 38.8816C99.6505 38.3653 100.138 36.8679 99.8625 36.4145C99.5628 35.9212 98.5582 35.8898 98.0747 35.7713C97.1481 35.5442 96.2593 35.3583 95.3173 35.2083C94.451 35.0704 93.6349 35.0414 92.762 35.0013C91.8112 34.9582 91.5757 34.7047 91.3655 35.7578C91.2004 36.5859 90.9787 37.4485 90.948 38.2963C90.919 39.0922 91.1582 39.783 90.3737 40.3193C92.0963 40.3193 94.3399 38.7773 95.9119 40.1561C98.1607 42.1279 94.2474 42.6959 93.2154 43.1312C94.0733 43.5504 95.3467 43.8796 95.7505 44.8368C96.2035 45.9099 95.5461 46.3662 94.5399 46.4521C94.6345 46.8657 94.9968 47.1343 95.1048 47.6317C95.2627 48.3607 94.7501 48.1193 95.4042 48.6835C96.2655 49.4259 98.0385 49.9224 99.0946 50.3953C99.342 50.5066 99.5924 50.6109 99.8455 50.7085C100.241 51.0625 100.533 50.9951 100.722 50.506C101.264 50.1612 101.746 49.392 102.227 48.9446C103.296 47.9487 104.476 47.075 105.747 46.3561C105.22 46.1367 104.59 46.6324 104.085 46.3911C103.676 46.1962 103.83 45.8413 103.585 45.5756C103.684 45.2292 103.58 45.1025 103.275 45.1956C103.122 45.2119 102.98 45.1858 102.849 45.1177C102.593 44.7992 102.478 44.6949 102.461 44.2031C102.444 43.6813 102.744 43.4971 102.86 43.0793C103.234 42.8224 103.226 42.57 102.834 42.3225C102.673 42.0576 102.585 41.7703 102.57 41.4602C102.496 40.3092 103.541 39.8453 104.338 39.2365C102.911 39.0788 102.965 37.3961 103.953 36.6607C104.976 35.898 107.143 36.2103 108.38 36.3823C108.638 36.4178 109.333 36.7515 109.593 36.5388C109.753 36.4084 109.64 35.3059 109.647 35.1113C109.664 34.6696 109.771 34.1429 109.701 33.7033C109.554 32.7832 109.865 33.2466 109.206 33.221C107.638 33.1599 105.641 34.5361 104.261 35.1849C102.717 35.9112 101.725 36.0229 101.709 37.8237C101.693 39.5288 101.217 41.2277 101.01 42.9058C100.919 43.6385 100.854 47.4457 99.5202 46.0408C99.0031 45.4957 99.3343 44.6578 99.3727 43.9857C99.4251 43.0609 99.3941 42.1217 99.4256 41.1943ZM13.1586 98.2725C13.9221 98.4088 15.1654 97.9681 15.9983 97.9219C17.4545 97.8414 18.9541 97.7019 20.3809 97.3973C21.4971 97.1588 22.769 96.9492 23.3709 95.8629C23.9091 94.8922 24.0992 93.6766 24.389 92.6171C24.5429 92.0548 24.9401 91.239 24.9399 90.6572C24.9398 89.9007 24.8384 90.0497 24.0537 89.6355C23.0604 89.1117 22.094 88.3816 21.0226 88.0844C20.6985 88.0206 20.3741 87.9584 20.0496 87.8973C19.6298 87.6524 19.3929 87.7728 19.338 88.258C18.9282 88.6924 18.688 89.4931 18.3442 90.0009C17.5604 91.1592 16.6296 91.9484 15.4135 92.6164C13.2252 93.818 11.1863 94.7453 8.84261 95.5311C7.55096 95.964 6.35993 96.5715 5.09742 97.0489C4.08598 97.4313 2.69007 97.5475 1.91312 98.3988C1.03649 99.3592 2.38393 99.7084 3.13286 100.358C3.74653 100.89 3.75847 101.012 4.59789 100.753C5.22326 100.561 5.77769 100.193 6.37819 99.9436C8.43537 99.0893 10.9252 98.5209 13.1586 98.2725ZM60.1721 113.505C59.4055 113.339 58.6387 113.172 57.872 113.006C58.6259 114.421 60.2117 116.491 59.0737 118.129C58.6482 118.741 57.9407 118.915 57.3087 119.226C56.5437 119.602 55.8373 120.083 55.1141 120.531C52.132 122.377 49.1013 124.248 45.959 125.833C46.9428 126.152 48.4552 126.373 49.4684 126.094C50.6481 125.77 51.7405 125.027 52.9516 124.702C55.1246 124.119 57.4117 123.622 59.6193 123.323C61.4238 123.079 65.9406 123.631 65.7213 120.903C65.5129 118.312 63.974 115.841 63.516 113.28C62.3922 113.531 61.3202 113.487 60.1721 113.505ZM105.87 72.0463C106.744 67.7345 107.266 63.3493 108.297 59.0685C108.811 56.9329 109.173 54.768 109.676 52.6319C109.909 51.6381 110.086 50.6344 110.313 49.6424C110.544 48.6381 111.04 47.7114 111.154 46.6731C110.319 46.881 110.125 48.8037 109.872 49.5271C109.408 50.8541 108.901 52.1294 108.305 53.4C107.356 55.4195 106.35 57.3678 105.28 59.3259C104.152 61.3911 102.96 63.377 101.551 65.2629C101.088 65.8827 100.459 66.3683 100.161 67.048C99.6914 68.1174 99.494 69.3918 99.0458 70.5045C99.3616 70.6657 100.177 70.7057 100.564 70.7827C101.285 70.9255 101.789 71.0525 102.481 71.3968C103.699 72.0034 104.723 72.7223 105.537 73.8136C105.742 73.2535 105.795 72.6392 105.87 72.0463ZM71.9038 104.945C71.8894 100.792 71.8307 96.604 71.8985 92.4822C71.9171 91.3376 72.0099 90.1028 72.175 88.9671C72.2785 88.2531 72.8886 86.7355 72.4876 86.3933C72.1448 86.1006 70.336 86.2934 69.8921 86.2829C69.0312 86.2629 68.1729 86.2244 67.3102 86.1592C67.3102 87.6983 67.9083 89.4459 68.1863 90.9682C68.4452 92.3883 68.6581 93.8163 68.872 95.243C69.3347 98.3324 69.4664 101.464 69.9688 104.562C70.424 107.371 71.0247 110.167 71.3558 112.976C71.5375 114.517 71.9051 115.972 72.1909 117.512C72.3401 118.315 72.8843 121.624 73.5694 121.95C73.7144 120.763 73.1226 119.329 73.0165 118.129C72.9073 116.89 72.8224 115.643 72.6226 114.397C72.3879 112.935 72.2694 111.436 72.1794 109.956C72.1244 109.05 72.1078 108.147 72.0298 107.241C71.9735 106.584 71.7263 105.589 71.9038 104.945ZM93.4298 49.4149C93.4583 48.9627 92.2941 48.9809 92.0773 48.4612C91.6374 47.4057 92.64 47.5957 93.2563 47.4865C93.0366 46.8995 88.9211 47.1132 89.8801 45.5288C90.5452 44.4294 93.0673 46.1121 93.7413 45.0674C94.1844 44.3813 92.9787 44.2868 92.5004 44.2181C91.7809 44.1144 90.0859 44.4495 90.1416 43.5107C90.2119 42.3313 93.5074 41.5173 94.4318 41.1708C94.3294 40.3632 90.3631 41.5112 89.7891 41.8386C88.49 42.5795 87.4945 43.9091 87.3039 45.3867C87.0818 47.1059 87.9491 48.4599 89.6571 48.8818C90.3693 49.0576 90.8956 49.0773 91.5545 49.3417C91.9882 49.5155 93.3914 49.9492 93.6886 49.5104C93.6022 49.4786 93.5162 49.4467 93.4298 49.4149ZM116.714 38.7215C116.779 37.9873 117.394 36.6052 116.686 36.1229C115.694 35.4478 115.284 36.5602 115.059 37.2285C114.785 38.0444 113.63 40.0415 114.64 40.5499C114.874 40.6682 115.987 40.5306 116.184 40.4526C116.731 40.5958 116.907 40.39 116.714 39.8345V38.7215ZM92.5244 98.0105C92.4621 96.004 93.3558 93.5916 93.8622 91.6262C94.4364 89.3994 94.7388 87.1284 95.3471 84.926C94.6705 85.0081 93.9877 85.0749 93.3191 85.2113C92.4071 85.3976 92.3907 85.3683 92.4562 86.2677C92.5539 87.6184 92.4259 88.9427 92.3565 90.293C92.2176 92.9964 92.5561 95.7442 92.331 98.4306C92.5319 98.4818 92.5961 98.3417 92.5244 98.0105ZM117.776 45.4218C119.967 45.759 122.067 46.4574 124.061 47.3958C125.16 47.9129 126.371 48.4689 127.599 48.6754C128.964 48.9051 130.411 48.7973 131.805 48.8858C132.296 48.917 133.587 49.157 134.066 48.8665C134.541 48.5787 134.504 48.091 134.526 47.5096C134.583 46.0142 133.91 44.5501 133.305 43.2084C132.785 42.0572 132.393 41.1784 131.587 40.1882C130.552 38.9165 129.651 37.5441 128.682 36.2167C127.951 35.2163 127.212 34.2301 126.468 33.2308C125.935 32.5151 125.96 32.2689 125.157 32.349C124.366 32.4279 123.57 32.8979 122.825 33.1469C121.72 33.5166 120.381 33.7195 119.373 34.3107C118.721 34.6929 118.692 34.7632 118.699 35.4302C118.706 36.0515 118.906 36.8094 119.275 37.2953C120.043 38.3044 121.316 38.8385 122.409 39.3419C123.041 39.6329 123.587 40.046 124.15 40.4475C124.756 40.8804 125.979 41.1354 126.443 41.6289C127.793 43.0661 125.335 42.782 124.648 42.7387C123.166 42.6449 121.691 42.6592 120.198 42.6581C118.568 42.657 116.951 42.5808 115.344 42.6341C114.403 42.6653 113.323 42.1854 112.714 41.3855C112.418 40.9979 112.303 40.6316 111.917 40.2295C111.411 39.7032 110.971 39.1485 110.356 38.7412C109.349 38.0745 107.519 37.6974 106.32 37.9462C106.749 38.0064 108.768 38.6975 107.879 39.566C107.771 39.6718 106.472 39.741 106.19 39.8714C105.681 40.1065 105.039 40.4484 104.74 40.945C105.61 40.7985 108.836 40.6289 107.19 42.3071C106.786 42.7191 105.626 43.1301 106.613 43.5682C106.84 43.6688 107.294 43.5263 107.586 43.617C108.02 43.7522 108.374 44.1133 108.781 44.3059C109.934 44.8526 111.523 45.1897 112.726 45.07C114.39 44.904 116.123 45.2027 117.776 45.4218ZM73.6556 95.9881C73.7124 98.3988 73.6259 100.824 73.677 103.246C73.7316 105.832 74.0618 108.367 74.219 110.927C74.3604 113.222 74.6684 115.473 74.9188 117.756C75.0629 119.072 75.2289 120.33 75.4502 121.635C75.6577 122.857 75.6931 123.933 74.2404 124.262C71.4631 124.89 71.0314 120.873 70.4947 119.181C69.6936 116.655 69.1797 114.003 68.7827 111.384C68.0436 106.508 67.0608 101.699 66.6773 96.781C66.4412 93.7526 66.0988 90.7553 65.9044 87.7297C65.8663 87.1366 66.0168 86.2233 65.4989 85.9591C65.1873 85.8006 64.3294 85.7992 63.9362 85.6842C62.8407 85.3639 61.8303 84.8922 60.7614 84.4026C61.52 88.3904 61.7705 92.3584 62.3396 96.3811C62.6414 98.5156 63.2192 100.727 63.72 102.828C64.2388 105.005 64.354 107.349 64.9525 109.479C65.2162 110.418 65.4393 110.8 65.0567 111.764C64.5874 112.946 64.8988 113.229 65.4874 114.39C66.5701 116.527 67.3966 119.049 67.2131 121.458C67.0633 123.425 65.5849 124.455 63.7532 124.986C61.4621 125.65 59.0631 125.571 56.7581 126.325C54.75 126.982 52.7096 127.467 50.7595 128.334C49.9731 128.683 49.226 129.098 48.3529 129.162C47.1553 129.25 46.3478 128.551 45.2168 128.405C44.5099 128.315 43.4749 128.654 43.0676 127.909C42.7448 127.318 43.11 126.029 43.5154 125.554C44.6538 124.218 46.9338 123.053 48.4691 122.265C50.2386 121.356 51.9509 120.219 53.5904 119.046C54.5842 118.335 55.5975 117.653 56.5906 116.941C57.2475 116.469 57.4971 116.466 57.4301 115.717C57.3766 115.12 57.1089 114.54 57.0619 113.929C57.0261 113.46 57.1894 112.822 56.9692 112.516C56.8072 112.29 56.1991 112.131 55.96 111.961C55.0857 111.337 54.887 110.567 54.49 109.619C53.588 107.466 52.5518 105.373 51.6809 103.203C49.8109 98.5433 48.6699 93.6436 47.1197 88.8887C45.5361 84.031 44.1199 78.9315 43.2477 73.8916C42.0806 74.2487 40.979 75.8287 40.0495 76.6105C38.7938 77.6671 37.5071 78.6888 36.2757 79.7744C34.2573 81.5537 32.2134 83.2843 30.5454 85.4155C29.7417 86.4417 29.0837 87.5464 28.3562 88.6247C27.936 89.2476 27.5441 89.9528 27.089 90.5454C27.0159 90.6405 27.0137 90.8359 26.935 90.9168C26.7617 91.0947 26.4306 90.8577 26.3196 90.975C25.6337 91.696 25.6427 93.7433 25.429 94.6946C25.1344 96.0059 24.8037 97.5134 23.7854 98.417C22.2124 99.8127 19.3115 100.029 17.3208 100.101C14.766 100.194 12.2877 100.91 9.8638 101.679C8.73322 102.037 7.63222 102.457 6.49744 102.805C5.84474 103.005 5.10018 103.405 4.40315 103.328C3.56256 103.235 2.89884 102.524 2.28311 101.996C1.29807 101.15 0.38608 100.317 0.418696 98.9298C0.453375 97.4614 1.24456 96.3532 2.49094 95.6238C4.9006 94.2136 7.5957 93.3098 10.1931 92.3353C11.1883 91.9617 12.0404 91.5482 12.992 91.0453C14.3368 90.3345 15.8847 89.7543 17.0779 88.8158C17.4296 88.5389 18.7226 87.6904 18.8327 87.2529C18.8471 87.1958 18.5241 86.5277 18.5226 86.4217C18.5195 86.1491 18.68 85.8539 18.7788 85.6205C19.4003 84.1518 20.4426 82.7374 21.2396 81.3523C22.699 78.8153 24.1642 76.265 25.8563 73.879C29.2305 69.1219 33.0209 64.4639 37.1119 60.3114C39.1063 58.2869 40.8296 55.9907 42.8521 53.9943C43.6535 53.2036 44.4993 52.5595 45.4866 52.0462C46.5872 51.4741 47.8226 51.3619 49.0841 51.1872C52.1411 50.7642 54.6941 51.6733 57.5641 52.4644C60.2775 53.2122 62.9937 53.843 65.7222 54.622C68.7186 55.4774 71.6843 56.2979 74.6712 57.2301C76.2672 57.7282 77.909 58.0339 79.5125 58.512C80.2846 58.7419 83.2038 60.1831 83.8475 59.7096C81.8195 58.7529 79.7421 57.881 77.5724 57.3036C76.9334 57.1336 76.5253 57.3218 76.549 56.5841C76.562 56.1818 77.0118 55.6387 77.1736 55.3075C77.5613 54.5148 78.0003 53.7398 78.3796 52.9447C77.0041 53.3374 73.307 54.6964 72.2705 53.2915C71.1859 51.8209 72.0913 48.9379 72.7712 47.4982C74.5459 43.7399 77.564 40.6035 80.5049 37.7703C81.1411 37.1578 82.5124 36.3579 82.8515 35.5776C82.9545 35.3404 82.7301 34.992 82.9627 34.6839C83.1011 34.5005 83.6567 34.3753 83.8787 34.1777C84.6874 33.4581 85.3325 31.9438 85.8912 31.0003C86.4765 30.0122 87.0037 28.9422 87.7391 28.0556C88.942 26.606 90.1838 25.0693 92.1314 24.7302C93.0866 24.564 94.1013 24.6527 95.0167 24.321C96.1239 23.9198 97.176 23.2879 98.294 22.8724C98.0166 22.2992 97.7918 21.3875 97.2536 21.3249C96.7355 21.2645 95.9757 21.7123 95.3825 21.709C94.5165 21.7042 93.7773 21.565 92.9415 21.3991C92.0163 21.2151 91.7117 21.2485 91.3744 20.2397C91.0209 19.1829 91.11 17.9554 91.1129 16.8577C91.1142 16.3214 91.2201 15.6555 91.1747 15.129C91.1065 14.3357 90.9531 14.3052 90.3346 13.8007C89.5618 13.1704 88.6091 12.3363 89.5557 11.2411C90.0673 10.6493 91.1184 11.1096 91.5715 10.4737C92.0329 9.82606 92.0107 8.19912 92.1513 7.4384C90.7287 8.14142 91.2502 5.51326 91.2501 4.88087C91.2497 3.96064 90.6363 2.30578 91.5194 1.54021C91.9298 1.18478 92.2346 1.47882 92.7037 1.27455C93.2391 1.04145 93.5762 0.430042 94.1458 0.193004C95.2779 -0.278281 96.4338 0.289262 97.596 0.195556C98.9293 0.0882273 100.239 -0.119032 101.579 0.0960666C102.215 0.197631 102.482 0.440195 103.019 0.712097C103.536 0.97359 104.06 1.04514 104.622 1.2134C105.121 1.36319 105.559 1.43889 105.897 1.87648C106.163 2.22271 106.055 2.80501 106.324 3.10344C106.59 3.39749 107.116 3.35478 107.432 3.704C107.736 4.03913 107.918 4.59305 108.076 5.01012C108.29 5.5719 108.315 5.78285 108.691 6.23245C109.019 6.62481 109.491 6.94033 109.764 7.38786C110.409 8.44286 110.425 9.96847 110.219 11.1553C110.149 11.5594 109.567 12.604 109.658 12.9479C109.745 13.2752 110.291 13.1891 110.539 13.3962C110.752 13.575 110.941 14.372 111.109 14.4207C111.473 14.5257 111.923 13.8025 112.199 13.694C112.678 13.5055 112.879 13.3121 113.145 14.0228C113.341 14.5501 113.067 15.2659 112.923 15.7692C112.739 16.4099 112.536 17.1816 112.049 17.6661C111.477 18.2356 111.019 17.9242 110.387 18.231C109.441 18.6907 109.72 20.1282 108.555 20.5391C107.445 20.9305 106.223 19.699 105.383 19.1328C105.557 20.5072 106.212 21.8316 105.898 23.2401C108.45 22.2348 110.975 20.8079 113.756 20.4936C115.175 20.3331 116.608 20.1433 117.946 20.7352C119.514 21.4281 120.474 22.9565 121.535 24.2264C123.528 26.6131 125.574 28.9328 127.488 31.3965C129.243 33.6563 130.722 36.2748 132.654 38.3909C134.613 40.5365 136.092 44.018 135.877 46.9893C135.858 47.2575 135.651 47.8669 135.683 48.156C135.709 48.3776 135.909 48.6585 135.906 48.8372C135.895 49.4384 135.697 49.7847 135.127 50.1181C134.139 50.6968 132.666 50.9896 131.549 51.1332C130.066 51.3241 128.248 51.3447 126.764 51.1409C125.233 50.9303 123.887 50.0687 122.479 49.548C121.243 49.0911 120.003 48.8058 118.705 48.5142C117.989 48.3534 117.197 47.9082 116.754 48.3391C116.348 48.7351 116.264 50.7671 116.169 51.3074C115.142 57.1639 113.922 62.8219 112.841 68.6484C111.617 75.2526 110.779 81.8543 109.927 88.5145C109.153 94.5689 108.9 100.692 108.727 106.74C108.644 109.626 108.632 112.48 108.65 115.368C108.66 116.985 109.464 122.382 107.079 122.589C105.678 122.711 104.557 120.691 104.182 119.59C103.617 117.935 103.324 116.153 103.234 114.414C103.052 110.895 102.813 107.373 102.672 103.853C102.519 100.038 102.713 96.1537 103.025 92.352C103.339 88.5248 104.13 84.7534 104.373 80.9205C103.645 81.9646 103.412 82.1609 102.2 82.6155C100.932 83.0917 99.7113 83.6548 98.4313 84.0987C97.9959 84.2496 97.3164 84.3442 96.9594 84.5915C96.3007 85.0475 96.7335 84.53 96.5231 85.4177C96.2985 86.3661 96.2561 87.5046 96.1964 88.4791C95.9161 93.0524 94.6559 97.5932 94.0746 102.142C93.9343 103.241 94.1345 107.903 92.2543 106.434C90.8063 105.302 90.835 101.748 90.629 100.083C90.3547 97.8633 90.5075 95.5814 90.5508 93.3485C90.6003 90.8056 90.6429 88.1383 91.2464 85.6554C90.1664 85.4696 88.6644 85.9758 87.5775 86.061C86.6363 86.1346 85.6983 86.1814 84.7624 86.2332C82.5306 86.3564 80.2317 86.4546 77.9621 86.4105C77.5489 86.4025 74.8498 86.0226 74.5048 86.3288C74.3927 86.4283 74.3583 87.7967 74.3375 87.9637C74.2581 88.5924 74.1503 89.2204 74.07 89.8456C73.8136 91.8442 73.5822 93.9902 73.6556 95.9881Z" fill="#432C7A"/>
<path fill-rule="evenodd" clip-rule="evenodd" d="M113.74 114.981C115.444 115.65 117.251 115.893 118.969 116.503C120.505 117.048 121.931 117.781 123.443 118.335C123.531 117.629 123.579 116.435 123.319 115.771C122.953 114.829 121.988 114.806 121.037 114.471C118.724 113.655 116.291 113.483 113.995 112.53C114.388 113.291 114.213 114.298 113.74 114.981ZM143.144 112.52C139.465 112.628 135.949 113.489 132.324 114.021C130.56 114.28 128.794 114.511 127.028 114.753C126.348 114.846 125.11 114.736 124.616 115.328C124.206 115.818 124.655 117.49 124.473 118.208C125.217 118.263 126.537 117.565 127.344 117.449C128.601 117.27 129.841 117.018 131.11 116.938C133.121 116.81 135.097 116.702 137.105 116.477C139.146 116.248 141.122 115.823 143.179 115.668C144.18 115.592 144.582 115.781 144.641 114.719C144.664 114.304 144.721 113.609 144.605 113.2C144.79 112.697 144.626 112.452 144.112 112.467C143.786 112.43 143.464 112.448 143.144 112.52ZM136.029 109.132C137.023 109.038 138.022 108.903 139.02 108.847C139.222 108.835 140.248 108.898 140.415 108.708C140.652 108.441 140.388 107.463 140.345 107.16C140.197 106.131 140.033 105.533 138.917 105.531C137.974 105.528 136.999 105.729 136.06 105.821C131.799 106.241 127.56 106.418 123.346 107.216C123.602 108.314 123.893 109.447 123.586 110.57C125.608 110.675 127.827 110.284 129.803 109.882C131.822 109.472 133.965 109.269 136.029 109.132ZM129.284 98.792C127.762 98.7988 126.153 99.473 124.651 99.3226C124.628 99.6037 125.109 99.3706 125.242 99.6335C125.526 99.6342 125.624 99.7271 125.538 99.9131C125.543 100.04 125.479 100.114 125.344 100.136C125.278 100.141 125.212 100.147 125.146 100.153C124.855 100.162 124.807 100.359 125.003 100.744C124.919 101.221 125.045 101.827 125.063 102.306C127.763 101.936 130.386 101.552 133.104 101.387C134.388 101.31 135.67 101.31 136.952 101.204C138.363 101.087 139.902 101.337 141.281 101.072C142.018 100.93 141.941 100.94 141.887 99.976C141.855 99.3906 141.867 98.6955 141.393 98.2684C140.601 97.5552 138.798 97.9673 137.851 97.9925C134.999 98.0683 132.098 98.3347 129.284 98.792ZM130.843 112.554C134.921 112.182 138.969 111.366 143.07 111.366C142.78 111.075 142.149 111 141.788 110.841C141.376 110.66 140.988 110.274 140.586 110.116C139.779 109.798 138.957 110.24 138.128 110.43C136.129 110.891 134.077 110.906 132.075 111.358C130.004 111.824 127.907 112.255 125.798 112.492C124.794 112.605 123.717 112.834 122.725 112.567C122.645 112.509 122.563 112.451 122.483 112.394C122.396 112.023 122.156 111.923 121.761 112.096C121.259 112 120.621 112.124 120.116 112.137C120.096 112.34 121.961 112.975 122.316 113.133C123.173 113.512 123.754 113.79 124.669 113.627C126.729 113.261 128.756 112.825 130.843 112.554ZM116.496 100.567C116.656 101.192 117.325 100.907 117.901 100.976C118.674 101.068 119.444 101.337 120.193 101.539C121.553 101.906 122.914 102.269 124.268 102.657C124.215 102.107 124.336 100.855 124.047 100.367C123.744 99.8558 122.305 99.6316 121.636 99.4756C119.947 99.0829 118.144 99.3063 116.429 99.3889C116.46 99.7813 116.482 100.174 116.496 100.567ZM132.712 104.475C134.314 104.338 135.917 104.232 137.524 104.176C139.36 104.111 138.025 103.816 137.987 102.69C135.573 103.077 133.138 103.153 130.731 103.484C128.738 103.759 126.363 104.475 124.33 104.09C123.371 103.909 122.391 103.839 121.371 103.736C120.409 103.639 119.5 103.189 118.55 103.077C117.482 102.951 116.392 103.554 115.33 103.713C114.88 103.781 114.776 104.088 114.563 103.543C114.343 102.978 114.974 102.517 115.222 102.179C115.513 101.784 115.392 102.425 115.553 101.809C115.598 101.636 115.476 101.202 115.454 101.016C115.397 100.546 115.25 100.036 115.227 99.5668C115.206 99.1357 115.202 98.4777 115.667 98.2262C115.951 98.0727 116.153 98.2965 116.4 98.2532C118.333 97.9152 120.607 97.8875 122.567 98.2137C124.693 98.5672 126.522 97.6314 128.616 97.2519C131.074 96.8067 133.556 96.74 136.035 96.5518C138.154 96.3912 142.026 95.5573 142.833 98.2785C143.062 99.0496 143.395 101.172 142.78 101.828C141.973 102.69 140.104 102.415 139.061 102.639C139.217 103.085 139.681 103.389 139.521 103.921C140.983 103.99 141.242 105.379 141.471 106.675C141.708 108.017 141.246 108.55 142.521 109.249C144.298 110.222 146.181 111.205 146.146 113.524C146.129 114.69 145.999 116.448 144.808 117.053C143.643 117.644 141.747 117.544 140.463 117.759C137.977 118.175 135.483 118.664 132.982 118.913C130.319 119.179 127.612 119.398 124.944 119.517C123.491 119.582 122.235 119.803 120.832 119.311C119.452 118.827 118.102 118.474 116.678 118.115C115.272 117.762 110.969 117.285 112.223 114.868C112.424 114.481 113.11 114.174 113.22 113.808C113.399 113.218 112.796 112.758 112.821 112.225C112.867 111.25 113.961 111.128 114.717 111.128C113.422 110.313 115.156 109.349 115.146 108.657C115.128 107.439 113.621 106.649 113.535 105.627C113.328 103.142 121.17 105.73 122.376 106.267C121.447 107.652 117.138 106.454 115.854 106.244C116.029 106.706 116.197 107.122 116.247 107.596C116.288 107.981 116.142 108.422 116.276 108.811C116.488 109.425 116.48 109.307 117.23 109.474C117.785 109.598 118.334 109.741 118.887 109.872C119.736 110.074 121.073 110.615 121.914 110.585C122.653 110.559 122.507 110.789 122.642 109.965C122.715 109.522 122.591 109.051 122.516 108.617C122.361 107.708 122.134 106.847 122.925 106.194C123.678 105.572 125.266 105.275 126.19 105.056C128.241 104.569 130.608 104.45 132.712 104.475Z" fill="#432C7A"/>
<path fill-rule="evenodd" clip-rule="evenodd" d="M142.471 88.9507C140.244 88.5755 137.981 88.4831 135.727 88.5968C135.849 89.1575 135.972 89.718 136.094 90.2783C138.205 89.7317 140.347 89.4114 142.471 88.9507ZM124.36 93.2997C123.467 93.234 124.088 93.6355 124.309 94.2234C124.58 94.9454 124.522 95.8584 124.584 96.6185C127.197 95.6167 130.238 95.0303 133.017 94.693C134.335 94.5333 135.672 94.4874 136.997 94.4191C137.388 94.3989 138.803 94.5637 139.089 94.2988C139.302 94.1018 139.153 93.0149 138.948 92.775C137.836 91.4717 133.537 92.5971 131.982 92.7139C129.431 92.9053 126.928 93.3634 124.36 93.2997ZM128.072 89.807C130.386 90.0304 132.62 90.0091 134.935 90.3578C134.759 88.8789 134.969 88.5015 133.3 88.4229C131.813 88.3531 130.331 88.2966 128.851 88.2973C125.522 88.2992 122.201 88.2353 118.869 88.2353V89.7382C121.951 89.4209 124.984 89.9939 128.072 89.807ZM116.944 95.3337C118.404 95.3275 119.785 95.8814 121.245 96.025C122.119 96.1109 121.845 96.2199 122.451 96.6613C123.396 97.3487 123.668 96.9824 123.55 96.0485C123.148 92.8888 119.169 93.5973 116.876 93.4218C117.027 94.1753 116.68 94.8142 116.17 95.3337H116.944ZM132.73 91.2772C130.629 91.3114 128.526 91.4314 126.44 91.3876C125.506 91.3679 124.297 91.1819 123.382 91.342C122.711 91.4592 122.151 91.8025 121.415 91.9301C122.495 92.5148 123.043 92.1197 124.178 91.9866C125.313 91.8539 126.464 91.8565 127.603 91.7871C129.474 91.6732 131.468 91.2227 133.311 91.3453C133.344 91.0843 133.151 91.0615 132.73 91.2772ZM116.068 98.1201C115.105 98.1179 116.431 97.016 116.605 96.9068C115.538 96.9068 115.279 96.2633 115.589 95.2296C115.88 94.256 116.095 94.554 115.362 93.7433C114.811 93.1328 114.727 92.683 115.378 92.0004C116.039 91.3061 117.38 91.5025 117.966 90.9293C118.965 89.9537 117.676 88.0107 119.06 87.2633C119.995 86.7584 121.502 86.8209 122.534 86.7142C123.532 86.611 124.565 86.5912 125.57 86.5774C127.759 86.5473 130.034 86.9165 132.214 87.1198C133.009 87.1936 133.902 87.5165 134.685 87.5171C135.484 87.518 136.32 87.339 137.145 87.3597C138.103 87.3839 139.026 87.3129 140.015 87.471C140.772 87.5923 142.54 87.656 143.119 88.222C145.048 90.1083 140.474 90.9745 139.687 91.1864C140.488 92.0685 140.455 93.2347 140.334 94.3453C140.715 94.3453 141.373 94.1784 141.57 94.6084C141.815 95.1421 140.908 95.2809 140.693 95.3431C139.459 95.7015 138.015 95.6033 136.743 95.7334C134.201 95.9936 131.689 96.1436 129.173 96.6279C127.946 96.8638 126.727 97.1559 125.502 97.3856C125.29 97.4254 125.078 97.4572 124.864 97.4812C124.536 97.4531 124.43 97.6599 124.546 98.1029C124.206 98.27 122.937 97.8537 122.545 97.79C120.301 97.4239 118.292 97.576 116.068 98.1201Z" fill="#432C7A"/>
<path fill-rule="evenodd" clip-rule="evenodd" d="M161.398 120.035C159.95 121.18 158.604 122.261 157.036 123.256C158.144 123.222 161.83 121.445 161.398 120.035ZM160.832 118.168C160.042 117.485 159.257 117.555 158.279 117.348C157.378 117.157 156.503 116.829 155.604 116.611C154.899 116.44 154.2 116.208 153.498 116.046C152.505 115.817 152.407 116.069 151.494 116.592C148.257 118.447 144.635 119.722 141.225 121.228C142.226 122.114 144.478 122.152 145.729 122.435C146.643 122.641 147.512 122.923 148.387 123.249C149.202 123.553 150.514 124.252 151.374 124.276C152.099 124.295 152.689 123.578 153.313 123.191C154.134 122.683 154.952 122.183 155.78 121.687C157.532 120.638 159.17 119.352 160.832 118.168ZM146.203 125.681C145.829 125.319 144.704 125.335 144.236 125.225C143.313 125.008 142.403 124.782 141.468 124.62C139.95 124.356 137.552 124.238 137.388 122.258C137.25 120.613 139.227 120.222 140.384 119.665C142.123 118.826 143.897 118.053 145.681 117.313C147.352 116.62 149.049 116.034 150.751 115.435C151.083 115.319 151.353 115.335 151.624 115.067C151.838 114.857 151.772 114.447 152.006 114.227C152.542 113.723 153.239 113.988 153.884 114.117C155.348 114.411 156.868 114.797 158.265 115.341C159.715 115.907 161.013 116.026 161.362 117.679C162.104 117.329 162.661 117.278 162.573 118.307C162.547 118.609 162.329 118.937 162.276 119.249C162.199 119.708 162.334 120.192 162.258 120.653C161.98 122.328 159.734 123.568 158.343 124.226C156.626 125.036 154.412 126.234 152.496 126.392C150.455 126.561 148.23 125.755 146.203 125.681Z" fill="#432C7A"/>
<path fill-rule="evenodd" clip-rule="evenodd" d="M120.215 97.8992C119.606 97.9031 118.997 97.907 118.389 97.9108C118.996 97.7961 119.605 97.7948 120.215 97.8992Z" fill="#432C7A"/>
<path fill-rule="evenodd" clip-rule="evenodd" d="M84.6045 33.1499C84.4218 33.4558 84.2394 33.7616 84.0566 34.0679C84.1189 33.6735 84.258 33.3355 84.6045 33.1499Z" fill="#432C7A"/>
<path fill-rule="evenodd" clip-rule="evenodd" d="M120.215 106.675C120.581 106.678 120.947 106.681 121.31 106.684C120.944 106.681 120.579 106.678 120.215 106.675Z" fill="#432C7A"/>
<path fill-rule="evenodd" clip-rule="evenodd" d="M121.31 97.9083C120.945 97.9048 120.58 97.9015 120.215 97.898C120.581 97.7976 120.947 97.8011 121.31 97.9083Z" fill="#432C7A"/>
<path fill-rule="evenodd" clip-rule="evenodd" d="M135.844 45.8179C135.834 45.4505 135.823 45.0831 135.813 44.7163C135.824 45.0839 135.834 45.4507 135.844 45.8179Z" fill="#432C7A"/>
<path fill-rule="evenodd" clip-rule="evenodd" d="M73.7501 101.263C73.7426 100.957 73.7349 100.651 73.7274 100.345C73.7351 100.652 73.7426 100.957 73.7501 101.263Z" fill="#432C7A"/>
<path fill-rule="evenodd" clip-rule="evenodd" d="M83.6914 86.3C83.9357 86.3 84.1795 86.3004 84.4218 86.3008C84.1773 86.3008 83.9343 86.3004 83.6914 86.3Z" fill="#432C7A"/>
<path fill-rule="evenodd" clip-rule="evenodd" d="M116.38 20.3569C116.075 20.3791 115.771 20.4012 115.467 20.4234C115.771 20.4012 116.076 20.3791 116.38 20.3569Z" fill="#432C7A"/>
<path fill-rule="evenodd" clip-rule="evenodd" d="M108.632 110.076C108.623 109.831 108.614 109.585 108.605 109.341C108.614 109.587 108.623 109.831 108.632 110.076Z" fill="#432C7A"/>
<path fill-rule="evenodd" clip-rule="evenodd" d="M108.994 100.712C108.987 100.467 108.981 100.222 108.974 99.978C108.981 100.223 108.987 100.468 108.994 100.712Z" fill="#432C7A"/>
<path fill-rule="evenodd" clip-rule="evenodd" d="M102.762 104.935C102.77 105.18 102.779 105.425 102.788 105.669C102.779 105.424 102.77 105.18 102.762 104.935Z" fill="#432C7A"/>
<path fill-rule="evenodd" clip-rule="evenodd" d="M85.1523 86.1205C85.3357 86.1179 85.5186 86.1154 85.7002 86.1128C85.5165 86.1154 85.3344 86.1179 85.1523 86.1205Z" fill="#432C7A"/>
<path fill-rule="evenodd" clip-rule="evenodd" d="M138.111 95.6755C138.294 95.6676 138.477 95.6595 138.659 95.6516C138.475 95.6597 138.293 95.6676 138.111 95.6755Z" fill="#432C7A"/>
<path fill-rule="evenodd" clip-rule="evenodd" d="M103.124 110.81C103.135 111.055 103.145 111.3 103.156 111.544C103.145 111.299 103.135 111.054 103.124 110.81Z" fill="#432C7A"/>
<path fill-rule="evenodd" clip-rule="evenodd" d="M122.699 109.525C122.686 109.77 122.674 110.015 122.662 110.259C122.674 110.014 122.686 109.769 122.699 109.525Z" fill="#432C7A"/>
<path fill-rule="evenodd" clip-rule="evenodd" d="M101.651 0.130008C101.393 0.0969612 101.135 0.0641894 100.876 0.0311425C101.132 0.0906269 101.413 -0.129961 101.651 0.130008Z" fill="#432C7A"/>
<path fill-rule="evenodd" clip-rule="evenodd" d="M90.5501 94.2866C90.5432 94.5317 90.5361 94.7768 90.5289 95.021C90.5357 94.7753 90.543 94.531 90.5501 94.2866Z" fill="#432C7A"/>
<path fill-rule="evenodd" clip-rule="evenodd" d="M74.8532 116.685C74.8408 116.44 74.828 116.195 74.8156 115.951C74.8282 116.196 74.8408 116.44 74.8532 116.685Z" fill="#432C7A"/>
<path fill-rule="evenodd" clip-rule="evenodd" d="M133.911 96.0365C134.095 96.0327 134.278 96.0286 134.459 96.0251C134.275 96.0292 134.093 96.0329 133.911 96.0365Z" fill="#432C7A"/>
<path fill-rule="evenodd" clip-rule="evenodd" d="M71.9106 51.5093C71.912 51.7546 71.9135 51.9997 71.9146 52.2437C71.9129 51.9982 71.9118 51.7538 71.9106 51.5093Z" fill="#432C7A"/>
<path fill-rule="evenodd" clip-rule="evenodd" d="M68.0791 106.587C68.0783 106.832 68.0774 107.078 68.0761 107.322C68.0769 107.076 68.078 106.832 68.0791 106.587Z" fill="#432C7A"/>
<path fill-rule="evenodd" clip-rule="evenodd" d="M113.594 105.119C113.587 105.364 113.581 105.609 113.574 105.853C113.474 105.601 113.485 105.357 113.594 105.119Z" fill="#432C7A"/>
<path fill-rule="evenodd" clip-rule="evenodd" d="M108.804 104.017C108.802 103.772 108.8 103.527 108.798 103.283C108.8 103.528 108.802 103.773 108.804 104.017Z" fill="#432C7A"/>
<path fill-rule="evenodd" clip-rule="evenodd" d="M146.146 125.765C146.33 125.77 146.513 125.775 146.694 125.78C146.51 125.775 146.328 125.77 146.146 125.765Z" fill="#432C7A"/>
<path fill-rule="evenodd" clip-rule="evenodd" d="M139.572 102.46C139.694 102.458 139.817 102.456 139.938 102.453C139.815 102.456 139.694 102.458 139.572 102.46Z" fill="#432C7A"/>
<path fill-rule="evenodd" clip-rule="evenodd" d="M135.007 103.008C135.129 103.007 135.251 103.007 135.372 103.007C135.25 103.007 135.128 103.008 135.007 103.008Z" fill="#432C7A"/>
<path fill-rule="evenodd" clip-rule="evenodd" d="M63.8884 104.201C63.8811 104.017 63.8736 103.833 63.8665 103.65C63.8739 103.834 63.8812 104.017 63.8884 104.201Z" fill="#432C7A"/>
<path fill-rule="evenodd" clip-rule="evenodd" d="M138.659 104.061C138.5 104.223 138.297 104.127 138.111 104.138C138.294 104.112 138.477 104.087 138.659 104.061Z" fill="#432C7A"/>
<path fill-rule="evenodd" clip-rule="evenodd" d="M116.928 98.1875C116.687 98.3021 116.443 98.3178 116.197 98.1954C116.441 98.1928 116.684 98.1903 116.928 98.1875Z" fill="#432C7A"/>
<path fill-rule="evenodd" clip-rule="evenodd" d="M132.815 104.479C132.572 104.477 132.328 104.475 132.085 104.473C132.329 104.475 132.572 104.477 132.815 104.479Z" fill="#432C7A"/>
<path fill-rule="evenodd" clip-rule="evenodd" d="M66.8064 97.2241C66.802 97.4083 66.7971 97.592 66.7921 97.7749C66.7967 97.5906 66.8015 97.4072 66.8064 97.2241Z" fill="#432C7A"/>
<path fill-rule="evenodd" clip-rule="evenodd" d="M108.787 107.138C108.797 106.954 108.806 106.77 108.815 106.587C108.806 106.772 108.797 106.955 108.787 107.138Z" fill="#432C7A"/>
<path fill-rule="evenodd" clip-rule="evenodd" d="M133.911 96.5508C133.668 96.5713 133.424 96.5919 133.181 96.6125C133.424 96.5919 133.668 96.5713 133.911 96.5508Z" fill="#432C7A"/>
<path fill-rule="evenodd" clip-rule="evenodd" d="M73.7462 95.939C73.7413 95.755 73.7362 95.571 73.7311 95.3882C73.7362 95.5725 73.7413 95.7557 73.7462 95.939Z" fill="#432C7A"/>
<path fill-rule="evenodd" clip-rule="evenodd" d="M104.257 81.8022C104.243 81.9862 104.228 82.17 104.214 82.353C104.229 82.1691 104.243 81.9858 104.257 81.8022Z" fill="#432C7A"/>
<path fill-rule="evenodd" clip-rule="evenodd" d="M137.563 87.3577C137.32 87.4848 137.076 87.4688 136.833 87.3564C137.076 87.3568 137.32 87.3574 137.563 87.3577Z" fill="#432C7A"/>
<path fill-rule="evenodd" clip-rule="evenodd" d="M108.635 112.83C108.624 112.646 108.613 112.462 108.603 112.279C108.613 112.463 108.624 112.646 108.635 112.83Z" fill="#432C7A"/>
<path fill-rule="evenodd" clip-rule="evenodd" d="M108.63 114.298C108.622 114.115 108.615 113.931 108.607 113.748C108.615 113.932 108.623 114.115 108.63 114.298Z" fill="#432C7A"/>
<path fill-rule="evenodd" clip-rule="evenodd" d="M74.1001 90.064C74.1029 89.8802 74.1052 89.696 74.1078 89.5132C74.1051 89.6975 74.1027 89.8806 74.1001 90.064Z" fill="#432C7A"/>
<path fill-rule="evenodd" clip-rule="evenodd" d="M126.059 119.352C126.181 119.349 126.303 119.345 126.424 119.342C126.301 119.346 126.18 119.349 126.059 119.352Z" fill="#432C7A"/>
<path fill-rule="evenodd" clip-rule="evenodd" d="M67.1793 120.908C67.1694 120.724 67.1596 120.54 67.1497 120.357C67.1598 120.541 67.1694 120.724 67.1793 120.908Z" fill="#432C7A"/>
<path fill-rule="evenodd" clip-rule="evenodd" d="M106.701 122.464C106.823 122.467 106.946 122.469 107.066 122.472C106.944 122.469 106.822 122.467 106.701 122.464Z" fill="#432C7A"/>
<path fill-rule="evenodd" clip-rule="evenodd" d="M106.777 106.771C106.788 106.22 106.798 105.669 106.808 105.119C106.797 105.67 106.787 106.22 106.777 106.771Z" fill="#432C7A"/>
<path fill-rule="evenodd" clip-rule="evenodd" d="M92.5388 86.5757C92.545 87.0044 92.5512 87.4331 92.5578 87.8608C92.5516 87.4318 92.5452 87.0036 92.5388 86.5757Z" fill="#432C7A"/>
<path fill-rule="evenodd" clip-rule="evenodd" d="M61.0468 113.467C60.7421 113.47 60.4367 113.474 60.1338 113.478C60.4395 113.474 60.7432 113.47 61.0468 113.467Z" fill="#432C7A"/>
<path fill-rule="evenodd" clip-rule="evenodd" d="M86.0654 76.9443C85.7602 76.9393 85.4553 76.9343 85.1523 76.9299C85.4582 76.9349 85.7619 76.9397 86.0654 76.9443Z" fill="#432C7A"/>
<path fill-rule="evenodd" clip-rule="evenodd" d="M78.2129 84.0977C78.5175 84.0977 78.8219 84.0973 79.1259 84.0969C78.8215 84.0969 78.5173 84.0975 78.2129 84.0977Z" fill="#432C7A"/>
<path fill-rule="evenodd" clip-rule="evenodd" d="M82.2304 76.7473C81.9861 76.7514 81.7419 76.7556 81.5 76.7594C81.745 76.7554 81.9877 76.7514 82.2304 76.7473Z" fill="#432C7A"/>
<path fill-rule="evenodd" clip-rule="evenodd" d="M62.5078 113.474C62.2636 113.473 62.0195 113.472 61.7773 113.47C62.0224 113.472 62.2651 113.473 62.5078 113.474Z" fill="#432C7A"/>
<path fill-rule="evenodd" clip-rule="evenodd" d="M95.3789 19.6877C95.6831 19.6664 95.9877 19.6451 96.292 19.6238C95.9875 19.6451 95.6831 19.6664 95.3789 19.6877Z" fill="#432C7A"/>
<path fill-rule="evenodd" clip-rule="evenodd" d="M99.4708 41.228C99.4821 40.922 99.4934 40.6159 99.5047 40.3101C99.4932 40.6163 99.4821 40.9222 99.4708 41.228Z" fill="#432C7A"/>
<path fill-rule="evenodd" clip-rule="evenodd" d="M92.0918 44.0735C91.9086 44.0735 91.7253 44.0737 91.5439 44.0739C91.7278 44.0739 91.9097 44.0737 92.0918 44.0735Z" fill="#432C7A"/>
<path fill-rule="evenodd" clip-rule="evenodd" d="M76.5693 76.1997C76.3861 76.2017 76.2028 76.2037 76.0215 76.2056C76.2053 76.2039 76.3872 76.2017 76.5693 76.1997Z" fill="#432C7A"/>
<path fill-rule="evenodd" clip-rule="evenodd" d="M72.3691 83.7002C72.6127 83.72 72.8562 83.74 73.0996 83.7599C72.856 83.74 72.6127 83.72 72.3691 83.7002Z" fill="#432C7A"/>
<path fill-rule="evenodd" clip-rule="evenodd" d="M71.9067 93.0015C71.9105 92.7564 71.9147 92.5116 71.9182 92.2671C71.9144 92.5124 71.9105 92.7569 71.9067 93.0015Z" fill="#432C7A"/>
<path fill-rule="evenodd" clip-rule="evenodd" d="M92.8222 83.2153C93.0657 83.1912 93.3093 83.1674 93.5527 83.1433C93.3091 83.1674 93.0657 83.1912 92.8222 83.2153Z" fill="#432C7A"/>
<path fill-rule="evenodd" clip-rule="evenodd" d="M109.51 78.8647C109.525 78.6198 109.539 78.3746 109.553 78.1304C109.539 78.3757 109.524 78.6202 109.51 78.8647Z" fill="#432C7A"/>
<path fill-rule="evenodd" clip-rule="evenodd" d="M87.8916 77.1235C87.7084 77.1217 87.5251 77.1198 87.3437 77.1182C87.5276 77.1198 87.7097 77.1217 87.8916 77.1235Z" fill="#432C7A"/>
<path fill-rule="evenodd" clip-rule="evenodd" d="M71.9259 106.771C71.9168 106.587 71.908 106.403 71.899 106.22C71.908 106.404 71.9168 106.588 71.9259 106.771Z" fill="#432C7A"/>
<path fill-rule="evenodd" clip-rule="evenodd" d="M92.4007 97.4077C92.7999 98.4028 92.5759 97.6982 92.5861 97.9278C92.2461 97.9737 92.1842 97.8002 92.4007 97.4077Z" fill="#432C7A"/>
<path fill-rule="evenodd" clip-rule="evenodd" d="M75.6562 76.2126C75.4732 76.206 75.2897 76.1994 75.1084 76.1926C75.2926 76.1992 75.4742 76.2058 75.6562 76.2126Z" fill="#432C7A"/>
<path fill-rule="evenodd" clip-rule="evenodd" d="M112.984 57.5679C112.996 57.323 113.007 57.078 113.019 56.8335C113.007 57.0786 112.996 57.3233 112.984 57.5679Z" fill="#432C7A"/>
<path fill-rule="evenodd" clip-rule="evenodd" d="M71.9134 104.935C71.9129 104.69 71.9122 104.445 71.9116 104.201C71.9122 104.446 71.9127 104.691 71.9134 104.935Z" fill="#432C7A"/>
<path fill-rule="evenodd" clip-rule="evenodd" d="M71.8936 99.4272C71.9062 99.2435 71.9189 99.0597 71.9315 98.8765C71.9189 99.0604 71.9062 99.244 71.8936 99.4272Z" fill="#432C7A"/>
<path fill-rule="evenodd" clip-rule="evenodd" d="M109.871 75.3765C109.888 75.1927 109.905 75.0089 109.922 74.8257C109.905 75.0096 109.888 75.1932 109.871 75.3765Z" fill="#432C7A"/>
<path fill-rule="evenodd" clip-rule="evenodd" d="M69.5141 99.978C69.5303 100.162 69.5468 100.346 69.563 100.529C69.5466 100.345 69.5303 100.162 69.5141 99.978Z" fill="#432C7A"/>
<path fill-rule="evenodd" clip-rule="evenodd" d="M69.1463 98.5093C69.1643 98.6931 69.1823 98.877 69.2003 99.0601C69.1823 98.8759 69.1643 98.6925 69.1463 98.5093Z" fill="#432C7A"/>
<path fill-rule="evenodd" clip-rule="evenodd" d="M105.676 73.3569C105.69 73.1733 105.703 72.9896 105.717 72.8062C105.703 72.9901 105.69 73.1735 105.676 73.3569Z" fill="#432C7A"/>
<path fill-rule="evenodd" clip-rule="evenodd" d="M12.4707 98.2629C12.7139 98.2436 12.9575 98.2242 13.2011 98.2051C12.957 98.2242 12.7137 98.2436 12.4707 98.2629Z" fill="#432C7A"/>
<path fill-rule="evenodd" clip-rule="evenodd" d="M104.064 102.732C104.057 102.916 104.049 103.1 104.043 103.283C104.05 103.098 104.057 102.915 104.064 102.732Z" fill="#432C7A"/>
<path fill-rule="evenodd" clip-rule="evenodd" d="M106.955 103.283C106.968 103.099 106.982 102.915 106.996 102.732C106.982 102.916 106.968 103.099 106.955 103.283Z" fill="#432C7A"/>
<path fill-rule="evenodd" clip-rule="evenodd" d="M105.851 72.6226C105.87 72.4388 105.889 72.2552 105.908 72.0718C105.889 72.2557 105.87 72.4391 105.851 72.6226Z" fill="#432C7A"/>
<path fill-rule="evenodd" clip-rule="evenodd" d="M13.9316 98.0865C14.1752 98.0625 14.4188 98.0382 14.6621 98.0142C14.4188 98.0382 14.1749 98.0625 13.9316 98.0865Z" fill="#432C7A"/>
<path fill-rule="evenodd" clip-rule="evenodd" d="M91.3613 76.9351C91.2391 76.9363 91.1166 76.9378 90.9961 76.9391C91.119 76.9378 91.24 76.9363 91.3613 76.9351Z" fill="#432C7A"/>
<path fill-rule="evenodd" clip-rule="evenodd" d="M71.9134 97.7749C71.9129 97.5909 71.9122 97.4072 71.9116 97.2241C71.9122 97.4083 71.9129 97.5913 71.9134 97.7749Z" fill="#432C7A"/>
<path fill-rule="evenodd" clip-rule="evenodd" d="M107.355 97.4077C107.29 97.2179 107.258 97.0308 107.383 96.8569C107.374 97.0409 107.364 97.2243 107.355 97.4077Z" fill="#432C7A"/>
<path fill-rule="evenodd" clip-rule="evenodd" d="M104.244 93.9194C104.239 94.1032 104.233 94.2872 104.228 94.4702C104.233 94.2861 104.239 94.1027 104.244 93.9194Z" fill="#432C7A"/>
<path fill-rule="evenodd" clip-rule="evenodd" d="M104.401 112.095C104.413 112.279 104.424 112.463 104.436 112.646C104.424 112.462 104.413 112.278 104.401 112.095Z" fill="#432C7A"/>
<path fill-rule="evenodd" clip-rule="evenodd" d="M117.841 45.3198C118.024 45.3461 118.206 45.3721 118.389 45.3982C118.206 45.372 118.023 45.3457 117.841 45.3198Z" fill="#432C7A"/>
<path fill-rule="evenodd" clip-rule="evenodd" d="M117.11 45.3368C117.355 45.3517 117.625 45.2332 117.841 45.4067L117.11 45.3368Z" fill="#432C7A"/>
<path fill-rule="evenodd" clip-rule="evenodd" d="M91.3613 45.1433L92.0918 45.2072C91.848 45.1859 91.6049 45.1646 91.3613 45.1433Z" fill="#432C7A"/>
<path fill-rule="evenodd" clip-rule="evenodd" d="M79.3086 84.0493C79.5524 84.0504 79.7956 84.0515 80.039 84.0526C79.7945 84.1709 79.5511 84.1824 79.3086 84.0493Z" fill="#432C7A"/>
<path fill-rule="evenodd" clip-rule="evenodd" d="M72.6638 114.849C72.6501 114.665 72.6363 114.481 72.6222 114.298C72.6363 114.482 72.6501 114.666 72.6638 114.849Z" fill="#432C7A"/>
<path fill-rule="evenodd" clip-rule="evenodd" d="M99.3011 45.4507C99.3039 45.2667 99.3064 45.0831 99.3091 44.8999C99.3064 45.084 99.3039 45.2675 99.3011 45.4507Z" fill="#432C7A"/>
<path fill-rule="evenodd" clip-rule="evenodd" d="M83.874 84.1267C84.1176 84.107 84.361 84.0874 84.6045 84.0674C84.3609 84.0874 84.1176 84.107 83.874 84.1267Z" fill="#432C7A"/>
<path fill-rule="evenodd" clip-rule="evenodd" d="M104.595 116.501C104.599 116.685 104.603 116.869 104.607 117.052C104.603 116.868 104.599 116.685 104.595 116.501Z" fill="#432C7A"/>
<path fill-rule="evenodd" clip-rule="evenodd" d="M108.411 87.6772C108.428 87.4935 108.445 87.3097 108.461 87.1265C108.444 87.3104 108.428 87.4937 108.411 87.6772Z" fill="#432C7A"/>
<path fill-rule="evenodd" clip-rule="evenodd" d="M116.816 38.6577C116.83 38.4738 116.843 38.2902 116.857 38.1069C116.843 38.2909 116.829 38.4743 116.816 38.6577Z" fill="#432C7A"/>
<path fill-rule="evenodd" clip-rule="evenodd" d="M99.4825 22.8687C99.4859 23.0524 99.4892 23.2364 99.493 23.4194C99.4896 23.2353 99.4861 23.0519 99.4825 22.8687Z" fill="#432C7A"/>
<path fill-rule="evenodd" clip-rule="evenodd" d="M93.0049 19.4417C93.2483 19.462 93.4921 19.4826 93.7353 19.5028C93.4919 19.4824 93.2483 19.462 93.0049 19.4417Z" fill="#432C7A"/>
<path fill-rule="evenodd" clip-rule="evenodd" d="M56.4814 123.789C56.725 123.765 56.9683 123.742 57.2119 123.718C56.9683 123.742 56.725 123.766 56.4814 123.789Z" fill="#432C7A"/>
<path fill-rule="evenodd" clip-rule="evenodd" d="M93.3701 17.6364C93.2479 17.6362 93.1254 17.636 93.0049 17.636C93.1276 17.6364 93.2488 17.6364 93.3701 17.6364Z" fill="#432C7A"/>
<path fill-rule="evenodd" clip-rule="evenodd" d="M48.4463 126.181C48.6901 126.054 48.9333 126.09 49.1767 126.181C48.9333 126.181 48.6895 126.181 48.4463 126.181Z" fill="#432C7A"/>
<path fill-rule="evenodd" clip-rule="evenodd" d="M143.225 112.362C142.98 112.368 142.736 112.374 142.494 112.379C142.739 112.374 142.982 112.368 143.225 112.362Z" fill="#432C7A"/>
<path fill-rule="evenodd" clip-rule="evenodd" d="M139.572 108.721C139.877 108.698 140.181 108.674 140.485 108.651C140.201 108.83 139.877 108.698 139.572 108.721Z" fill="#432C7A"/>
<path fill-rule="evenodd" clip-rule="evenodd" d="M136.103 109.099C136.407 109.077 136.711 109.055 137.016 109.033C136.711 109.055 136.407 109.077 136.103 109.099Z" fill="#432C7A"/>
<path fill-rule="evenodd" clip-rule="evenodd" d="M133.181 112.22C133.424 112.198 133.668 112.176 133.911 112.155C133.668 112.176 133.424 112.198 133.181 112.22Z" fill="#432C7A"/>
<path fill-rule="evenodd" clip-rule="evenodd" d="M134.459 105.943C134.276 105.944 134.093 105.946 133.911 105.946C134.095 105.945 134.277 105.944 134.459 105.943Z" fill="#432C7A"/>
<path fill-rule="evenodd" clip-rule="evenodd" d="M139.024 116.058C139.268 116.037 139.511 116.016 139.755 115.996C139.528 116.156 139.271 116.064 139.024 116.058Z" fill="#432C7A"/>
<path fill-rule="evenodd" clip-rule="evenodd" d="M131.172 98.418C130.989 98.4178 130.805 98.4174 130.624 98.4172C130.808 98.4174 130.99 98.4178 131.172 98.418Z" fill="#432C7A"/>
<path fill-rule="evenodd" clip-rule="evenodd" d="M129.346 98.7837C129.224 98.7846 129.101 98.785 128.98 98.7853C129.103 98.7848 129.224 98.7842 129.346 98.7837Z" fill="#432C7A"/>
<path fill-rule="evenodd" clip-rule="evenodd" d="M124.963 99.2953C124.901 99.4462 124.579 99.4269 124.599 99.272C124.72 99.2797 124.841 99.2876 124.963 99.2953Z" fill="#432C7A"/>
<path fill-rule="evenodd" clip-rule="evenodd" d="M116.46 99.978C116.468 100.162 116.475 100.346 116.482 100.529C116.475 100.345 116.468 100.161 116.46 99.978Z" fill="#432C7A"/>
<path fill-rule="evenodd" clip-rule="evenodd" d="M141.398 100.951C141.581 100.948 141.764 100.945 141.946 100.942C141.766 101.072 141.583 101.054 141.398 100.951Z" fill="#432C7A"/>
<path fill-rule="evenodd" clip-rule="evenodd" d="M134.459 98.2314C134.337 98.2333 134.214 98.2351 134.094 98.2366C134.217 98.2349 134.338 98.2333 134.459 98.2314Z" fill="#432C7A"/>
<path fill-rule="evenodd" clip-rule="evenodd" d="M129.711 109.835C129.955 109.812 130.198 109.789 130.441 109.766C130.198 109.789 129.955 109.812 129.711 109.835Z" fill="#432C7A"/>
<path fill-rule="evenodd" clip-rule="evenodd" d="M132.268 116.815C132.512 116.726 132.755 116.695 132.998 116.818C132.754 116.817 132.511 116.816 132.268 116.815Z" fill="#432C7A"/>
<path fill-rule="evenodd" clip-rule="evenodd" d="M131.88 91.5084L131.537 91.3891C131.963 91.3838 132.389 91.3784 132.815 91.3733C132.816 91.3735 131.93 91.5123 131.88 91.5084Z" fill="#432C7A"/>
<path fill-rule="evenodd" clip-rule="evenodd" d="M128.615 88.3203C128.31 88.3201 128.005 88.3198 127.702 88.3196C128.008 88.3199 128.311 88.3203 128.615 88.3203Z" fill="#432C7A"/>
<path fill-rule="evenodd" clip-rule="evenodd" d="M117.11 95.338C117.414 95.2157 117.719 95.2396 118.023 95.3347C117.719 95.3358 117.415 95.3369 117.11 95.338Z" fill="#432C7A"/>
<path fill-rule="evenodd" clip-rule="evenodd" d="M135.555 92.3557C135.372 92.3579 135.188 92.3601 135.007 92.3623C135.191 92.3599 135.373 92.3579 135.555 92.3557Z" fill="#432C7A"/>
<path fill-rule="evenodd" clip-rule="evenodd" d="M131.72 89.9421C132.024 89.9622 132.329 89.9822 132.633 90.0024C132.329 89.982 132.024 89.9622 131.72 89.9421Z" fill="#432C7A"/>
<path fill-rule="evenodd" clip-rule="evenodd" d="M128.25 89.7585C128.494 89.7786 128.737 89.7988 128.98 89.8188C128.737 89.7986 128.493 89.7786 128.25 89.7585Z" fill="#432C7A"/>
<path fill-rule="evenodd" clip-rule="evenodd" d="M124.78 93.2807C124.658 93.2781 124.536 93.2755 124.415 93.2729C124.538 93.2755 124.659 93.2781 124.78 93.2807Z" fill="#432C7A"/>
<path fill-rule="evenodd" clip-rule="evenodd" d="M128.615 91.4525C128.493 91.4449 128.371 91.4372 128.25 91.4297C128.373 91.4372 128.494 91.4449 128.615 91.4525Z" fill="#432C7A"/>
<path fill-rule="evenodd" clip-rule="evenodd" d="M126.241 91.4459C126.119 91.4424 125.996 91.4389 125.876 91.4358C125.999 91.4393 126.12 91.4426 126.241 91.4459Z" fill="#432C7A"/>
<path fill-rule="evenodd" clip-rule="evenodd" d="M132.815 91.2752C132.815 91.3227 133.365 91.0815 133.363 91.3059L132.815 91.2752Z" fill="#432C7A"/>
<path fill-rule="evenodd" clip-rule="evenodd" d="M130.807 88.3196C130.684 88.3198 130.562 88.3201 130.441 88.3203C130.564 88.3201 130.685 88.3198 130.807 88.3196Z" fill="#432C7A"/>
<path fill-rule="evenodd" clip-rule="evenodd" d="M65.9775 79.6131C66.1753 78.8018 66.1214 78.167 66.8258 78.6854C67.2122 78.9702 67.8495 80.4136 67.8011 80.9025C67.7416 81.5056 67.468 81.7459 66.9034 81.5541C66.2544 81.333 65.9969 80.2201 65.9775 79.6131Z" fill="#432C7A"/>
<path fill-rule="evenodd" clip-rule="evenodd" d="M101.557 74.6875C103.192 74.6875 102.479 76.4373 101.115 76.4764C100.489 76.4946 99.5878 76.3703 99.7909 75.5272C99.8994 75.0772 101.489 74.4706 101.557 74.6875Z" fill="#432C7A"/>
<path fill-rule="evenodd" clip-rule="evenodd" d="M84.0153 78.1304C85.1959 78.7047 83.5348 81.2263 82.4622 80.6021C81.0885 79.8031 83.5299 78.4902 84.0153 78.1304Z" fill="#432C7A"/>
<path fill-rule="evenodd" clip-rule="evenodd" d="M81.1428 80.5171C81.5292 80.9408 83.2706 82.3774 82.3108 82.9552C81.1303 83.6655 80.2319 81.3205 81.1428 80.5171Z" fill="#432C7A"/>
<path fill-rule="evenodd" clip-rule="evenodd" d="M61.3533 79.4156C60.9692 78.6689 61.4977 76.7149 62.6705 77.072C63.8506 77.4316 62.0027 79.2173 61.3533 79.4156Z" fill="#432C7A"/>
<path fill-rule="evenodd" clip-rule="evenodd" d="M87.4058 79.8458C88.1715 79.5359 88.0256 80.4528 88.1414 80.7485C88.2725 81.0845 88.9467 81.903 88.7776 82.2606C88.5267 82.7914 87.9268 82.453 87.601 82.1086C87.03 81.5044 87.0705 80.5354 87.4058 79.8458Z" fill="#432C7A"/>
<path fill-rule="evenodd" clip-rule="evenodd" d="M75.7366 80.6958C75.0985 80.6958 73.5749 78.8459 74.4701 78.5355C75.5812 78.1503 76.5101 80.8317 75.7366 80.6958Z" fill="#432C7A"/>
<path fill-rule="evenodd" clip-rule="evenodd" d="M97.7909 77.7632C98.3754 77.908 99.149 79.5718 98.268 79.7647C97.2929 79.9786 97.1188 78.2233 97.7909 77.7632Z" fill="#432C7A"/>
<path fill-rule="evenodd" clip-rule="evenodd" d="M94.2472 80.8843C93.7886 79.9968 93.6758 78.0969 94.795 79.6219C95.0375 79.9522 95.2877 79.8185 95.1632 80.3634C95.0543 80.8391 94.6199 80.8843 94.2472 80.8843Z" fill="#432C7A"/>
<path fill-rule="evenodd" clip-rule="evenodd" d="M70.1019 76.2944C70.5691 77.0015 70.4312 79.2183 69.4549 77.9071C69.0396 77.3497 69.3256 76.3209 70.1019 76.2944Z" fill="#432C7A"/>
<path fill-rule="evenodd" clip-rule="evenodd" d="M93.587 9.66787C94.4935 9.4326 94.7109 11.5812 94.1822 11.818C93.442 12.1495 93.5348 10.0273 93.587 9.66787Z" fill="#432C7A"/>
<path fill-rule="evenodd" clip-rule="evenodd" d="M150.923 118.824C150.082 118.774 148.903 118.544 150.178 117.943C150.986 117.563 152.188 117.537 153.042 117.693C153.63 117.8 154.513 118.291 153.616 118.926C153.09 119.298 151.562 118.842 150.923 118.824Z" fill="#432C7A"/>
<path fill-rule="evenodd" clip-rule="evenodd" d="M149.98 120.357C149.737 120.329 149.494 120.302 149.251 120.274C149.446 119.918 150.013 119.844 149.98 120.357Z" fill="#432C7A"/>
<path fill-rule="evenodd" clip-rule="evenodd" d="M151.077 118.788C151.321 118.794 151.565 118.799 151.808 118.804C151.563 118.799 151.32 118.794 151.077 118.788Z" fill="#432C7A"/>
</svg>
